<svg width="64" height="64" fill="none" xmlns="http://www.w3.org/2000/svg"><path d="M5.161 55.759H32v-2.065H5.161a3.097 3.097 0 0 1-3.097-3.097V5.177a3.097 3.097 0 0 1 3.097-3.096h45.42a3.096 3.096 0 0 1 3.096 3.097V28.92h2.065V5.178A5.167 5.167 0 0 0 50.581.017H5.16A5.168 5.168 0 0 0 0 5.177v45.42a5.168 5.168 0 0 0 5.161 5.162Z" fill="#01A572"/><path d="M4.129 4.146h2.064V6.21H4.129V4.146Zm4.128 0h2.065V6.21H8.257V4.146Zm4.13 0h2.064V6.21h-2.065V4.146ZM4.129 8.275h47.483v2.064H4.13V8.275Zm10.625 4.431-2.622 2.622a5.177 5.177 0 1 0 1.46 1.46l2.62-2.622-1.458-1.46Zm-5.465 10.02a3.097 3.097 0 0 1 0-6.193c.46.001.914.107 1.327.31L8.56 18.898l1.46 1.46 2.057-2.056c.202.413.308.867.31 1.327a3.096 3.096 0 0 1-3.098 3.096Zm8.259-6.193h17.548v2.064H17.548v-2.064Zm0 4.129h7.226v2.064h-7.226v-2.064Zm9.29 0H41.29v2.064H26.84v-2.064Zm10.323-4.129h10.322v2.064H37.161v-2.064Zm-22.407 8.56-2.622 2.622a5.177 5.177 0 1 0 1.46 1.46l2.62-2.622-1.458-1.46Zm-5.465 10.02a3.097 3.097 0 0 1 0-6.193c.46.001.914.107 1.327.31L8.56 31.285l1.46 1.46 2.057-2.056c.202.413.308.867.31 1.327a3.097 3.097 0 0 1-3.098 3.096Zm8.259-6.193h17.548v2.064H17.548V28.92Zm0 4.129h7.226v2.064h-7.226V33.05Zm9.29 0h8.258v2.064h-8.258V33.05Zm10.323-4.13h4.128v2.065h-4.128V28.92ZM14.754 37.48l-2.622 2.622a5.177 5.177 0 1 0 1.46 1.46l2.62-2.622-1.458-1.46ZM9.289 47.5a3.097 3.097 0 0 1 0-6.193c.46.001.914.107 1.327.31L8.56 43.672l1.46 1.46 2.057-2.056c.202.413.308.867.31 1.327A3.097 3.097 0 0 1 9.288 47.5Zm8.259-6.193h13.42v2.065h-13.42v-2.065Zm0 4.129h7.226v2.065h-7.226v-2.065Zm9.29 0h4.13v2.065h-4.13v-2.065Zm21.678 16.516c8.552 0 15.483-6.932 15.483-15.484s-6.931-15.484-15.483-15.484-15.484 6.932-15.484 15.484c.01 8.547 6.936 15.474 15.484 15.484Zm0-28.903c7.41 0 13.42 6.008 13.42 13.42 0 7.41-6.01 13.419-13.42 13.419-7.412 0-13.42-6.008-13.42-13.42.009-7.407 6.012-13.41 13.42-13.419Z" fill="#01A572"/><path d="m42.219 47.039-1.848.923 2.065 4.129a1.032 1.032 0 0 0 .918.571c.274 0 .536-.109.73-.303l12.387-12.387-1.46-1.46-11.374 11.375-1.418-2.848Z" fill="#01A572"/></svg>