<svg width="64" height="64" fill="none" xmlns="http://www.w3.org/2000/svg"><path d="m10.444 23.59 1.2 1.219c.154.153.314.299.482.435A25.414 25.414 0 0 0 9.968 35.51c0 13.93 11.177 25.263 24.916 25.263 13.74 0 24.918-11.333 24.918-25.263 0-13.929-11.178-25.26-24.918-25.26-2.861 0-5.609.497-8.17 1.401a6.695 6.695 0 0 0-.92-1.184l-.617-.626a26.707 26.707 0 0 1 9.707-1.822C49.857 8.019 62 20.329 62 35.509 62 50.692 49.857 63 34.884 63 19.91 63 7.77 50.692 7.77 35.509c0-4.27.96-8.313 2.675-11.918Z" fill="#01A572"/><path d="M17.561 27.045h2.484a16.551 16.551 0 0 0-1.983 7.879c0 9.082 7.288 16.471 16.245 16.471 8.958 0 16.246-7.389 16.246-16.471s-7.287-16.47-16.246-16.47a15.96 15.96 0 0 0-7.034 1.625v-2.46a18.183 18.183 0 0 1 7.034-1.412c10.197 0 18.462 8.38 18.462 18.717 0 10.336-8.265 18.718-18.462 18.718-10.194 0-18.46-8.382-18.46-18.718-.001-2.816.617-5.483 1.714-7.879Z" fill="#01A572"/><path d="M2.172 10.303c.171-.341.45-.58.724-.724.277-.145.56-.213.85-.244L8.991 8.8a.708.708 0 0 0 .406-.222.731.731 0 0 0 .216-.416l.525-5.375c.041-.393.143-.783.41-1.147.143-.193.326-.352.535-.464.22-.116.464-.176.71-.176.307 0 .579.089.807.21.23.122.423.28.599.458l10.59 10.844c.43.447.736.984.972 1.56.23.576.385 1.179.39 1.807v6.193c-.002.424-.109.82-.284 1.174l4.557 4.805a8.636 8.636 0 0 1 5.297-1.824c4.87 0 8.816 4.043 8.816 9.028s-3.946 9.028-8.816 9.028c-4.869 0-8.817-4.043-8.817-9.028 0-2.133.727-4.09 1.936-5.635l-4.72-4.976c-.178.04-.36.06-.542.061h-6.052c-.613-.004-1.201-.163-1.764-.398-.562-.242-1.086-.555-1.523-.996L2.652 12.47a2.52 2.52 0 0 1-.447-.614A1.833 1.833 0 0 1 2 11.031a1.59 1.59 0 0 1 .172-.728Zm32.55 31.724c3.646 0 6.613-3.037 6.613-6.771 0-3.733-2.967-6.77-6.613-6.77-1.391 0-2.682.444-3.748 1.198l4.539 4.787a1.148 1.148 0 0 1-.023 1.595 1.085 1.085 0 0 1-1.56-.023l-4.535-4.782a6.831 6.831 0 0 0-1.286 3.995c0 3.734 2.966 6.77 6.613 6.77ZM22.946 21.22V15.88c.004-.2-.076-.59-.223-.944-.14-.356-.352-.69-.494-.827L12.245 3.885l-.44 4.503c-.03.303-.115.584-.228.847L22.946 21.22Zm-8.148.495c.136.144.46.362.807.506.347.15.727.232.922.228h4.512L10.011 10.82c-.25.11-.513.193-.8.224l-4.396.449 9.983 10.222Z" fill="#01A572"/></svg>