<svg width="139" height="63" fill="none" xmlns="http://www.w3.org/2000/svg"><g clip-path="url(#a)"><path d="M25.284 27.814H.018V8.774L12.651.815l12.633 7.959v19.04ZM3.944 23.86h17.379V10.958l-8.68-5.469-8.7 5.469V23.86Zm7.967 37.773L6.94 47.684 0 53.694V31.774h25.266V52.99l-8.41-3.104-4.945 11.748Zm-3.05-20.853 3.267 10.115 2.644-6 6.596 2.427V35.718H3.943v9.33l4.918-4.267Z" fill="#EC1D42"/><path d="m40.038 26.677-1.471 3.167h-4.25v-.541l8.807-18.76h1.886l8.744 18.76v.541h-4.232l-1.507-3.167h-7.977Zm1.344-3.447h5.306l-2.653-6.317-2.653 6.317Zm12.931 9.457v-5.794h.253c2.157-.054 1.994-1.588 2.319-3.61l1.038-6.614h9.872v10.224h1.75v5.794h-3.447v-2.843h-8.365v2.843h-3.42ZM64.24 19.81h-3.221l-.524 4.268-.162 1.01a2.887 2.887 0 0 1-.848 1.805h4.755V19.81Zm14.429-3.52c3.853 0 5.929 3.276 5.929 6.858 0 5.225-4.756 8.447-9.349 6.128v5.847h-3.826V21.587c0-1.254.163-2.075-1.236-1.994v-3.068c1.624-.081 4.322-.415 4.322 2.103a4.404 4.404 0 0 1 4.16-2.337ZM75.14 26.1c2.707 1.614 5.603.387 5.603-2.952 0-1.75-.902-3.5-2.869-3.5a2.843 2.843 0 0 0-2.707 3.004L75.14 26.1Zm23.335-2.05h-8.933c.135 2.05 1.66 2.843 3.492 2.979a9.495 9.495 0 0 0 1.75 0 11.208 11.208 0 0 0 3.15-.794l.433 2.788a12.11 12.11 0 0 1-5.09 1.155c-4.43.081-7.543-2.626-7.543-7.084.08-4.593 3.41-6.75 6.912-6.75 4.791 0 6.84 3.222 5.829 7.707Zm-8.906-2.463h5.793c.081-1.723-1.309-2.319-2.707-2.319a2.923 2.923 0 0 0-3.086 2.32Zm20.158-.162a2.777 2.777 0 0 0-2.761-1.805 3.61 3.61 0 0 0 0 7.22 2.89 2.89 0 0 0 2.825-2.05h3.609c-.541 3.529-3.519 5.307-6.56 5.334a6.686 6.686 0 0 1-7.02-6.921c0-4.62 3.609-6.94 7.047-6.94 2.987 0 5.883 1.715 6.479 5.162h-3.619Zm9.304 8.672c-2.464 0-4.702-1.588-4.783-4.133-.144-3.222 2.184-4.756 5.108-4.756a6.697 6.697 0 0 1 3.501.849v-.903c0-1.615-1.967-1.886-3.285-1.886a7.57 7.57 0 0 0-3.799.794l-.487-2.707a11.859 11.859 0 0 1 4.945-.983c3.393 0 6.316 1.119 6.316 4.918v4.142c0 1.218.217 1.48 1.48 1.39v3.05c-1.994.441-4.403.333-4.403-2.022-.821 1.615-2.897 2.247-4.593 2.247Zm3.745-5.667a5.018 5.018 0 0 0-2.708-.758c-1.2.081-2.192.758-2.048 2.048a1.642 1.642 0 0 0 1.805 1.417c1.254 0 2.842-.623 2.978-2.021l-.027-.686Zm8.626 5.36v-9.782h-3.835V16.67h11.478v3.338h-3.88v9.782h-3.763Z" fill="#1F1F1F"/><path d="M37.051 41.06a.776.776 0 0 0-.767-.505 1.01 1.01 0 0 0 0 2.012.802.802 0 0 0 .785-.568h1.01a1.805 1.805 0 0 1-1.804 1.48 1.86 1.86 0 0 1-1.95-1.922 1.885 1.885 0 0 1 1.932-1.922 1.75 1.75 0 0 1 1.805 1.444l-1.011-.019Zm1.399 3.132v-1.607h.072c.595 0 .55-.442.64-1.01l.29-1.805h2.752v2.851h.487v1.607h-.903v-.785H39.37v.785l-.92-.036Zm2.707-3.61h-.903l-.144 1.191v.28a.903.903 0 0 1-.235.505h1.318l-.036-1.976Zm5.594 1.21h-2.49c0 .568.47.793.974.83.162.017.326.017.488 0 .309-.032.612-.105.902-.217l.126.776a3.503 3.503 0 0 1-1.425.325 1.903 1.903 0 0 1-2.103-1.976 1.803 1.803 0 0 1 1.895-1.895c1.345 0 1.913.902 1.633 2.156Zm-2.481-.686h1.615c0-.479-.37-.65-.767-.65a.82.82 0 0 0-.848.65Zm4.9-.434-.109 1.336c-.108 1.281-.487 1.57-1.804 1.399v-.767c.586.063.65-.154.704-.668l.243-2.238H51.2v3.673h-1.01V40.7l-1.02-.028Zm4.403.425c.84 0 1.056-.605 1.056-1.372h1.002a1.804 1.804 0 0 1-.903 1.805l1.038 1.723v.108h-1.083l-.902-1.497a1.193 1.193 0 0 1-.307 0h-.253v1.461h-.992v-3.591h1.056v1.363h.288Zm3.204 2.319h-.271v-3.682h1.029v1.805L59.7 39.67h.316v3.69h-1.029v-1.894l-2.21 1.949Zm8.626-2.355a.776.776 0 0 0-.767-.506 1.01 1.01 0 0 0 0 2.012.802.802 0 0 0 .785-.568h1.01a1.804 1.804 0 0 1-1.804 1.48 1.86 1.86 0 0 1-1.958-1.922 1.885 1.885 0 0 1 1.95-1.922 1.751 1.751 0 0 1 1.804 1.444l-1.02-.019Zm7.12-1.327v3.673h-1.029v-1.453h-1.462v1.453h-1.028v-3.673h1.028v1.308h1.462v-1.308h1.029Zm4.35 2.057h-2.491c0 .569.469.794.974.83.162.019.326.019.488 0 .309-.03.613-.102.902-.216l.126.776a3.503 3.503 0 0 1-1.425.325 1.903 1.903 0 0 1-2.103-1.976 1.806 1.806 0 0 1 1.886-1.895c1.353 0 1.922.902 1.642 2.156Zm-2.482-.685h1.615c0-.479-.37-.65-.758-.65a.821.821 0 0 0-.857.65Zm3.04 3.086v-1.607h.073c.605 0 .56-.442.65-1.01l.288-1.805h2.708v2.851h.487v1.607h-.903v-.785h-2.328v.785l-.974-.036Zm2.708-3.61h-.902l-.145 1.191v.28a.803.803 0 0 1-.234.505h1.326l-.045-1.976Zm4.864.857a.903.903 0 0 1 .685.903c0 .902-.848 1.074-1.588 1.074h-1.705v-3.7h1.462c.694 0 1.65.063 1.65.992a.686.686 0 0 1-.504.731Zm-1.083-.28c.252 0 .541 0 .541-.315 0-.316-.289-.352-.541-.352h-.497v.668h.497Zm.063 1.472c.289 0 .677 0 .677-.38 0-.378-.388-.387-.686-.387h-.55v.767h.559Zm2.77.785h-.27v-3.682h1.028v1.805l2.166-1.868h.316v3.69h-1.03v-1.894l-2.21 1.949Zm7.363-2.32c.822 0 .993-.65.903-1.362h1.01a1.624 1.624 0 0 1-.785 1.805l1.047 1.75v.118h-1.083l-.83-1.534a.9.9 0 0 1-.298.054h-.099v1.48h-1.02v-1.48h-.099a.9.9 0 0 1-.298-.054l-.839 1.534H90.66v-.118l1.03-1.75a1.66 1.66 0 0 1-.777-1.805h1.002c-.045.713.117 1.363.947 1.363h.1v-1.372h1.02v1.372h.134Zm3.186 2.32h-.27v-3.682h1.028v1.805l2.156-1.868h.325v3.69h-1.028v-1.894l-2.211 1.949Zm6.172-.776-.902-.903v1.67h-1.02v-3.61h.325l1.642 1.642 1.687-1.687h.316v3.61h-1.019v-1.643l-.903.902-.126.019Zm4.773.839a1.927 1.927 0 0 1-1.784-1.194 1.932 1.932 0 0 1 1.413-2.632 1.933 1.933 0 0 1 2.302 1.904 1.868 1.868 0 0 1-1.931 1.922Zm0-.903a1 1 0 0 0 1.092-1.132 1 1 0 0 0-1.355-.798 1 1 0 0 0-.639.938.909.909 0 0 0 .232.67.9.9 0 0 0 .643.295l.027.027Zm5.234-1.516a.774.774 0 0 0-.767-.505 1.01 1.01 0 0 0 0 2.012.803.803 0 0 0 .785-.568h1.011a1.808 1.808 0 0 1-1.805 1.48 1.861 1.861 0 0 1-1.958-1.922 1.886 1.886 0 0 1 1.94-1.922 1.754 1.754 0 0 1 1.805 1.444l-1.011-.019Zm2.518 2.329V40.68h-1.065v-.902h3.194v.902h-1.083v2.708h-1.046Zm2.788.018v-3.673h1.02v1.074h.613c.903 0 1.634.36 1.634 1.3 0 .938-.785 1.299-1.634 1.299h-1.633Zm1.02-1.805v1.01h.595c.379 0 .623-.198.623-.505s-.244-.496-.623-.496l-.595-.01Zm6.479 1.895a1.851 1.851 0 0 1-1.913-1.534h-.614v1.444h-1.029v-3.673h1.029v1.308h.65a1.945 1.945 0 0 1 1.504-1.406 1.947 1.947 0 0 1 2.318 1.724 1.946 1.946 0 0 1-.915 1.846 1.944 1.944 0 0 1-1.03.29Zm0-.903a.99.99 0 0 0 .978-.546.986.986 0 0 0-.154-1.11.988.988 0 0 0-1.09-.259.993.993 0 0 0-.637.923.903.903 0 0 0 .912.956l-.009.036Z" fill="#878787"/></g><defs><clipPath id="a"><path fill="#fff" d="M0 0h139v62.449H0z"/></clipPath></defs></svg>