<svg width="370" height="343" fill="none" xmlns="http://www.w3.org/2000/svg"><g clip-path="url(#a)"><path opacity=".7" d="M3.198 183.966a292.115 292.115 0 0 0 2.76 15.236c8.378 40.364 27.713 83.19 65.679 99.499 43.649 18.745 105.606 13.527 144.654-23.06 30.038-28.143 90.904-45.129 124.894-87.797 35.231-44.225 42.59-127.13-3.162-160.593-32.544-23.796-72.778-5.017-109.021 2.84-20.647 4.472-38.503 1.943-58.85.016-35.357-3.35-71.98-5.888-107.637 2.538-17.612 4.155-33.27 11.769-43.2 29.082-20.851 36.352-22.29 82.185-16.117 122.247v-.008Z" fill="#E4EEEA"/><path d="M26.441 229.071h42.685a4.75 4.75 0 0 1 0 9.5H20.908a4.75 4.75 0 0 1 0-9.5h1.185M59.64 244.793h9.486a4.75 4.75 0 0 1 0 9.5H20.908a4.75 4.75 0 0 1 0-9.5h34.385M69.126 270.008H20.908a4.75 4.75 0 0 1 0-9.5h48.218a4.75 4.75 0 0 1 0 9.5Z" stroke="#7BA193" stroke-miterlimit="10"/><path d="M55.293 213.237h24.11v65.313H47.387M21.303 278.55H11.027v-65.313H49.76M41.855 278.55h-16.6M14.584 222.737H75.45M86.516 16.23h42.685a4.75 4.75 0 0 1 0 9.5H80.983a4.75 4.75 0 0 1 0-9.5h1.186M119.716 31.944h9.485a4.75 4.75 0 0 1 0 9.5H80.983a4.75 4.75 0 0 1 0-9.5h34.385M129.201 47.667H80.983a4.746 4.746 0 0 0-4.743 4.75 4.746 4.746 0 0 0 4.743 4.75h48.218a4.746 4.746 0 0 0 4.743-4.75 4.746 4.746 0 0 0-4.743-4.75Z" stroke="#7BA193" stroke-miterlimit="10"/><path d="M115.368.396h24.109v65.313h-32.013M81.378 65.709H71.102V.396h38.733M101.93 65.709h-16.6M74.66 9.896h60.865M284.954 31.422h-24.915a1.907 1.907 0 0 1-1.905-1.909v-7.251c0-1.053.853-1.908 1.905-1.908h33.389c1.051 0 1.905.855 1.905 1.908v2.85" stroke="#7BA193" stroke-miterlimit="10"/><path d="M284.725 43.217V27.701a2.488 2.488 0 0 1 2.482-2.486h33.073a2.489 2.489 0 0 1 2.482 2.486v18.58M322.754 61.576v19.349a2.489 2.489 0 0 1-2.482 2.486h-33.073a2.488 2.488 0 0 1-2.482-2.486V46.938M287.073 34.28h33.318M302.985 44.342h17.406M287.073 44.342h13.2M287.073 54.412h33.318M314.415 64.474h5.976M287.073 64.474h24.346M287.073 74.536h33.318M264.861 25.634h18.156M156.939 255.338h-34.354a2.633 2.633 0 0 1-2.632-2.636v-9.999a2.633 2.633 0 0 1 2.632-2.636h46.029a2.633 2.633 0 0 1 2.632 2.636v3.927" stroke="#7BA193" stroke-miterlimit="10"/><path d="M156.622 271.607v-21.383a3.427 3.427 0 0 1 3.423-3.428h45.586a3.427 3.427 0 0 1 3.423 3.428v25.611M209.046 296.917v26.671a3.427 3.427 0 0 1-3.423 3.428h-45.586a3.427 3.427 0 0 1-3.423-3.428v-46.851M159.855 259.289h45.926M181.799 273.167h23.982M159.855 273.167h18.197M159.855 287.037h45.926M197.553 300.907h8.228M159.855 300.907h33.563M159.855 314.785h45.926M129.233 247.366h25.034" stroke="#7BA193" stroke-miterlimit="10"/><path d="M215.875 298.294a7.583 7.583 0 0 1-5.28-2.145l-4.893-4.861a1.755 1.755 0 0 1-.253-2.193 1.746 1.746 0 0 1 1.273-.815 1.748 1.748 0 0 1 1.439.467l.964.902-4.917-10.141a2.053 2.053 0 0 1-.063-1.631 2.04 2.04 0 0 1 1.122-1.18c1.036-.451 2.23 0 2.72 1.022l1.857 3.586c.38-.428.814-.681 1.312-.76.799-.119 1.526.269 1.937.562.387-.475.854-.752 1.383-.823.649-.087 1.249.158 1.645.396.26-.594.766-.903 1.446-.863.656.039 1.265.443 1.597 1.045l3.47 6.396c1.699 3.357.735 7.387-2.3 9.595a7.576 7.576 0 0 1-4.459 1.457v-.016Zm-8.924-9.239c-.039 0-.087 0-.126.008a.993.993 0 0 0-.704.452.963.963 0 0 0 .142 1.211l4.885 4.853a6.773 6.773 0 0 0 8.719.617 6.776 6.776 0 0 0 2.063-8.589l-3.47-6.389c-.197-.372-.561-.618-.948-.633-.324-.016-.672.055-.783.783l-.11.729-.546-.491s-.743-.657-1.494-.547c-.403.056-.767.333-1.067.816l-.253.404-.348-.333s-.814-.752-1.636-.633c-.443.063-.83.388-1.154.95l-.372.649-2.474-4.877a1.291 1.291 0 0 0-1.691-.633 1.315 1.315 0 0 0-.704.736 1.29 1.29 0 0 0 .04 1.014l6.687 13.893-3.984-3.736a.953.953 0 0 0-.664-.262l-.008.008Z" fill="#7BA193"/><path d="M211.599 286.752c-.15 0-.3-.087-.364-.238l-1.818-4.291a.4.4 0 0 1 .206-.522.4.4 0 0 1 .522.206l1.818 4.29a.402.402 0 0 1-.206.523.35.35 0 0 1-.158.032ZM214.769 285.81a.392.392 0 0 1-.364-.246l-1.581-3.76a.387.387 0 0 1 .214-.515.387.387 0 0 1 .514.214l1.58 3.76a.387.387 0 0 1-.213.515.338.338 0 0 1-.15.032ZM217.875 284.994a.389.389 0 0 1-.355-.229l-1.526-3.286a.393.393 0 0 1 .711-.332l1.526 3.285a.395.395 0 0 1-.356.562Z" fill="#7BA193"/><path d="m204.294 8.547-7.825 7.837 7.825 7.837 7.825-7.837-7.825-7.837ZM340.331 94.84l-7.825 7.837 7.825 7.838 7.825-7.838-7.825-7.837ZM100.823 284.841l-7.825 7.837 7.825 7.837 7.825-7.837-7.825-7.837ZM189.751 22.916l-4.271 4.276 4.271 4.277 4.27-4.277-4.27-4.276ZM185.793 231.129l-4.27 4.277 4.27 4.277 4.271-4.277-4.271-4.277ZM145.801 273.404a3.165 3.165 0 0 0 3.162-3.167 3.164 3.164 0 0 0-3.162-3.166 3.164 3.164 0 0 0-3.162 3.166 3.165 3.165 0 0 0 3.162 3.167ZM246.98 238.57a3.164 3.164 0 0 0 3.162-3.166 3.165 3.165 0 0 0-3.162-3.167 3.165 3.165 0 0 0-3.162 3.167 3.164 3.164 0 0 0 3.162 3.166ZM334.722 46.986a3.165 3.165 0 0 0 3.162-3.167 3.165 3.165 0 0 0-3.162-3.167 3.164 3.164 0 0 0-3.162 3.167 3.164 3.164 0 0 0 3.162 3.167ZM5.889 56.763a3.164 3.164 0 0 0 3.162-3.167 3.164 3.164 0 0 0-3.162-3.167 3.164 3.164 0 0 0-3.162 3.167 3.164 3.164 0 0 0 3.162 3.167Z" stroke="#7BA193" stroke-linecap="round" stroke-linejoin="round"/><path d="m101.796 35.388-6.909-11.701-63.656-4.196V231.24l233.203-15.375V44.919l-162.638-9.531Z" fill="#7BA193"/><path d="M263.121 212.303 33.255 226.846V36.757L263.12 49.464v162.839Z" fill="#F2F7F5"/><mask id="b" style="mask-type:luminance" maskUnits="userSpaceOnUse" x="33" y="36" width="231" height="191"><path d="M263.121 212.303 33.255 226.846V36.757L263.12 49.464v162.839Z" fill="#fff"/></mask><g mask="url(#b)"><path opacity=".17" d="m264.078 213.474-4.577.293V47.857l4.577.26v165.357Z" fill="#364E45"/><path opacity=".17" d="m264.078 212.129-4.577.293v-64.253l4.577-.071v64.031Z" fill="#364E45"/><path d="M263.382 56.13 32.188 44.476V34.13l231.194 13.142v8.859Z" fill="#C4F756" stroke="#557569" stroke-miterlimit="10"/></g><path d="M263.121 212.303 33.255 226.846V36.757L263.12 49.464v162.839Z" stroke="#557569" stroke-linecap="round" stroke-linejoin="round"/><path opacity=".2" d="m251.715 79.16-35.863-1.362h-.04l-37.752-1.433h-.048l-39.799-1.512h-.048l-42.029-1.6h-.047l-44.44-1.686v148.035l199.987-10.988V91.889l.079.008V79.16Z" fill="#548271"/><path d="m112.333 82.413-44.796-1.227V66.564l44.796 1.639v14.21Z" fill="#B2E9D5" stroke="#7BA193" stroke-miterlimit="10"/><path d="M99.075 74.03v1.7l-17.766-.547v-1.737l17.766.584Z" fill="#E4EEEA" stroke="#7BA193"/><path d="m154.749 83.577-42.369-1.164v-14.21l42.369 1.543v13.83Z" fill="#AAE233" stroke="#7BA193" stroke-miterlimit="10"/><path d="m194.928 84.677-40.132-1.1v-13.83l40.132 1.472v13.458Z" fill="#B2E9D5" stroke="#7BA193" stroke-miterlimit="10"/><path d="M233.036 85.73V72.612l-38.068-1.393v13.466l-127.43-3.499v133.991l201.615-11.25V86.72l-36.117-.99Z" fill="#fff" stroke="#7BA193" stroke-linecap="round" stroke-linejoin="round"/><path d="m269.24 86.72-36.164-.99V72.612l36.164 1.322V86.72Z" fill="#B2E9D5" stroke="#7BA193" stroke-miterlimit="10"/><path d="m263.533 191.585-102.128 4.789v-87.772l102.128 1.132v81.851Z" fill="#fff" stroke="#7BA193" stroke-linecap="round" stroke-linejoin="round"/><path d="m214.674 109.536-25.366-.277v10.482l25.366.095v-10.3Z" fill="#AAE233"/><path d="m248.024 132.083 7.786-.04M201.679 132.304l41.602-.198M167.886 132.463l29.248-.143M222.531 137.704l33.279-.277M203.694 137.87l13.438-.119M167.886 138.171l29.754-.254M187.443 143.641l68.367-.839M167.886 143.886l12.853-.158M239.463 148.447l16.347-.262M207.204 148.961l26.504-.427M167.886 149.594l33.793-.546M197.639 154.717l58.171-1.156M167.886 155.302l24.165-.475M248.024 158.889l7.786-.182M201.679 159.973l41.602-.973M167.886 160.773l29.248-.689M222.531 164.993l33.279-.911M203.694 165.507l13.438-.364M167.886 166.481l29.754-.808M187.443 171.587l68.367-2.122M167.886 172.189l12.853-.396M239.463 175.411l16.347-.57M207.204 176.535l26.504-.926M167.886 177.905l33.793-1.18M197.639 182.465l58.171-2.241M167.886 183.613l24.165-.927M164.416 119.938l98.239.349M189.308 109.259v10.482M214.674 109.536v10.3M239.186 109.797v10.134" stroke="#7BA193" stroke-linecap="round" stroke-linejoin="round"/><path d="M210.048 113.618v1.511l-15.205-.097v-1.54l15.205.126Z" fill="#fff" stroke="#7BA193"/><path d="M183.733 113.396v1.558l-15.797-.104v-1.588l15.797.134ZM234.955 113.824v1.471l-14.659-.097v-1.493l14.659.119ZM258.298 114.022v1.431l-14.154-.096v-1.454l14.154.119Z" fill="#E4EEEA" stroke="#7BA193"/><path d="m154.069 196.715-77.916 3.649V92.436l77.916 1.599v102.68Z" fill="#fff" stroke="#7BA193" stroke-linecap="round" stroke-linejoin="round"/><path d="m154.069 133.302-19.358-12.477-17.556 38.927-17.375-13.736-23.627 54.348 77.916-3.649v-63.413Z" fill="#E4EEEA" stroke="#7BA193" stroke-miterlimit="10"/><path d="M105.614 115.458c0-6.476-5.225-11.796-11.715-11.883a11.71 11.71 0 0 0-11.888 11.732c0 6.571 5.343 11.891 11.888 11.883 6.49 0 11.715-5.264 11.715-11.74v.008Z" stroke="#7BA193" stroke-miterlimit="10"/><path d="M141.855 75.432v1.636l-16.754-.523v-1.659l16.754.546ZM182.619 76.777v1.558l-15.821-.492v-1.587l15.821.521ZM221.968 78.068v1.494l-14.944-.468v-1.516l14.944.49ZM258.638 79.271v1.43l-14.146-.443v-1.453l14.146.466Z" fill="#E4EEEA" stroke="#7BA193"/><path d="M301.325 343c25.429 0 46.044-2.995 46.044-6.69 0-3.694-20.615-6.689-46.044-6.689-25.43 0-46.045 2.995-46.045 6.689 0 3.695 20.615 6.69 46.045 6.69Z" fill="#EDF4F1"/><path d="M277.919 85.01s-2.537 9.444-1.992 10.347c.545.91 1.81.546 1.091 2.36-.727 1.812-2.356 5.264-1.992 6.72.363 1.449 2.355 2.542 2.355 2.542s.909 6.539 1.811 7.806c.909 1.274 5.802.546 5.802.546l.363 4.9 14.505-.91-.545-8.716-.727-26.878-20.671 1.275v.008Z" fill="#fff" stroke="#364E45" stroke-linecap="round" stroke-linejoin="round"/><path d="M295.325 77.75c-.893.135-7.794 0-13.232.91-5.439.911-7.075 1.275-6.893 3.634.182 2.36-.364 3.27 1.628 4.18 1.992.91 2.719.91 2.719.91s-.545 2.542-.727 4.355c-.182 1.813 3.083 3.816 3.083 3.816s-.182 2.723.182 3.634c.363.91 1.272 1.092 1.81.364.545-.728.909-4.18 1.446-2.724.546 1.45 2.72 12.351 4.174 13.617 1.447 1.275 7.976.546 9.794.182 1.81-.364 5.256-7.988 6.893-12.532 1.628-4.536.909-12.532-1.447-16.158-2.355-3.634-7.074-4.536-9.43-4.18v-.008Z" fill="#44675B" stroke="#364E45" stroke-linecap="round" stroke-linejoin="round"/><path d="M283.792 96.727s.443 3.103.443 5.098c0 1.995-1.328 3.103-.443 3.99s1.549.443 2.213-1.108c.664-1.552 1.107-4.212.886-5.764-.222-1.551-.443-4.876-3.099-2.216Z" fill="#fff" stroke="#364E45" stroke-linecap="round" stroke-linejoin="round"/><path d="m281.911 119.693-3.992 7.26s9.968-2.906 15.414-2.906 11.422 1.093 11.422 1.093l-2.537-7.078s-13.778-1.449-20.307 1.631Z" fill="#AAE233" stroke="#364E45" stroke-linecap="round" stroke-linejoin="round"/><path d="M319.442 215.446s0 6.357-.545 9.08c-.546 2.724-4.174 6.904-5.621 7.624-1.446.728-3.264.91-3.628 0-.363-.91-.909-.546-.363-5.265.545-4.718 2.537-13.798 2.537-13.798l7.612 2.359h.008Z" fill="#fff" stroke="#364E45" stroke-linecap="round" stroke-linejoin="round"/><path d="m320.707 209.635-1.273 5.811s-2.355.546-4.711.182c-2.356-.364-2.901-2.541-2.901-2.541l.545-5.083 8.34 1.631Z" fill="#AAE233" stroke="#364E45" stroke-linecap="round" stroke-linejoin="round"/><path d="M319.814 131.497s2.537 15.437 4.173 26.877c1.629 11.44 1.976 22.333 1.621 27.78-.364 5.447-2.538 22.943-3.265 24.209-.727 1.267-5.62 1.813-7.612.911-1.992-.911-2.901-1.995-2.901-5.447s1.81-35.649 1.81-35.649l6.181-38.673-.007-.008Z" fill="#C4F756" stroke="#364E45" stroke-linecap="round" stroke-linejoin="round"/><path d="M280.646 330.856a4.36 4.36 0 0 0-2.055.522c-1.075.57-5.739 1.853-8.743 2.921-4.695 1.671-8.347.768-7.968 1.995.38 1.228 7.684 3.698 11.921 3.753 4.229.063 6.268-.997 8.292-.958 2.023.048.529 1.021 3.897 1.401 3.367.38 4.466.388 5.643-1.448 1.178-1.845 1.834-2.312 1.463-4.648 0-.023 0-.047-.008-.071-.348-2.074-2.205-3.546-4.3-3.531l-8.142.064Z" fill="#017E5E" stroke="#364E45" stroke-linecap="round" stroke-linejoin="round"/><path d="M306.85 328.615a3.16 3.16 0 0 0-1.771.491c-.917.578-4.94 1.805-7.517 2.85-4.031 1.639-7.241.546-6.869 1.876.371 1.33 4.687 3.143 8.379 3.349 3.691.206 4.205-.126 5.976-.221 3.984-.222 1.446 1.187 2.877 1.773.917.372 1.929.38 3.099.443 4.205.222 4.719.554 5.683-1.385.964-1.94 1.518-2.431 1.122-4.948 0-.024-.007-.048-.015-.079-.372-2.241-2.04-3.895-3.866-3.943l-7.09-.206h-.008Z" fill="#017E5E" stroke="#364E45" stroke-linecap="round" stroke-linejoin="round"/><path d="M269.216 196.928s.727 25.421.727 33.955c0 8.535 2.174 47.097 5.075 61.078 2.901 13.981 4.529 33.955 4.529 36.132 0 2.177-.727 2.723.728 4.18 1.446 1.449 6.892 4.18 8.884 3.269 1.992-.91 3.083-4.354 3.083-4.354s0-18.881.546-31.231c.545-12.35-.364-28.508-.364-28.508s7.075 32.68 9.067 39.219c1.992 6.539 3.628 18.399 3.991 20.758.364 2.359 1.953 2.438 3.984 2.438 2.435 0 5.447-.317 6.53-2.13 1.09-1.812-1.273-20.884-1.273-28.508 0-7.623-5.984-54.902-5.438-66.524.545-11.622 3.991-31.778 2.901-37.771-1.091-5.993-1.091-10.774-1.091-10.774s-37.35-4.299-41.879 8.779v-.008Z" fill="#AAE233" stroke="#364E45" stroke-linecap="round" stroke-linejoin="round"/><path d="M279.373 126.05s-8.11 3.452-11.912 5.265c-3.81 1.813-5.438 2.359-5.438 2.359s6.11 57.808 6.11 60.887c0 3.08-.182 3.27.909 4.18 1.091.911 6.719 1.323 16.687 1.148 9.967-.182 22.473-2.232 23.382-2.232.909 0 2.537-.546 3.628-2.177 1.091-1.631 6.901-63.255 7.082-63.975.182-.729-14.339-5.993-15.603-6.357-1.273-.365-8.522-5.265-24.837.91l-.008-.008Z" fill="#C4F756" stroke="#364E45" stroke-linecap="round" stroke-linejoin="round"/><path d="M307.854 163.069c-5.186 7.473-13.375 18.343-19.754 22.459M312.905 155.461s-.941 1.512-2.514 3.879M297.894 181.285s-7.177 6.539-13.051 9.809" stroke="#364E45" stroke-linecap="round" stroke-linejoin="round"/><path d="M314.731 303.218c0 .452-19.825-20.931-19.809-20.401a2258.2 2258.2 0 0 1-2.49-11.368c-.174-14.163 1.272-57.27 1.272-57.27l11.059-5.993c.221 1.892 3.51 8.083 6.023 12.596-.079.688-.15 1.377-.229 2.058l-9.422-9.025s3.083 6.721 7.976 14.345c.237.38.482.879.719 1.48-.245 2.542-.435 4.94-.538 7.054-.545 11.622 5.439 58.901 5.439 66.524Z" fill="#000" fill-opacity=".2"/><path d="M314.755 304.707a50.126 50.126 0 0 1-.024-1.489c0-7.623-5.984-54.902-5.439-66.524.103-2.114.293-4.512.538-7.054a9.287 9.287 0 0 0-.719-1.48c-4.893-7.624-7.976-14.345-7.976-14.345l9.422 9.025c.079-.681.15-1.37.229-2.058-2.513-4.513-5.802-10.704-6.023-12.596l-11.058 5.993s-1.447 43.107-1.273 57.27c0 0 1.067 4.948 2.49 11.368M271.406 199.779s1.082 4.045 2.347 6.594c1.273 2.541 3.265 3.452 3.265 3.452M283.097 325.354c.379 4.892-.095 8.368-.095 8.368M282.29 314.951c.166 2.399.316 4.552.451 6.286M277.595 220.528c.45 18.201 1.533 58.172 2.506 67.079.703 6.46 1.351 15.382 1.889 22.974M276.955 200.056c-.182.546.426 11.392.426 11.392s.04 1.837.119 4.948" stroke="#364E45" stroke-linecap="round" stroke-linejoin="round"/><path d="M239.099 147.639s.696-1.227 1.747-3.325c1.044-2.098.87-4.718.87-6.12 0-1.401 1.573-1.923 1.573-3.499 0-1.575-2.269-1.401-3.494-.348-1.225 1.045-1.573 4.196-1.573 4.196s-1.937-3.278-2.964-5.597c-.925-2.083-2.214-5.669-3.953-6.191-1.747-.523-1.66 1.638-1.486 2.161.174.522.53 1.868 1.075 2.969.403.807 1.218 3.158 1.218 3.158s-2.443-1.923-3.32-1.923c-.878 0-1.573 1.045-1.044 1.923 0 0-2.094.871-1.573 2.273.522 1.401.696 1.923.696 1.923s-.522.697 0 2.447c.522 1.749 2.79 4.718 3.668 6.119.869 1.401 1.92 2.098 1.92 2.098l6.632-2.272.008.008Z" fill="#fff" stroke="#364E45" stroke-linecap="round" stroke-linejoin="round"/><path d="M227.756 135.051s1.123 1.702 1.929 2.383M226.879 139.247s.782 1.291 1.185 1.56" stroke="#364E45" stroke-linecap="round" stroke-linejoin="round"/><path d="m233.685 156.735-3.083-6.721s1.446-2.541 5.256-3.27c3.81-.728 4.348 0 4.348 0l1.992 6.904s-6.529.546-8.521 3.087h.008Z" fill="#AAE233" stroke="#364E45" stroke-linecap="round" stroke-linejoin="round"/><path d="M252.174 169.085s-5.621-9.626-7.067-13.07c-1.447-3.452-3.447-4.354-6.711-3.998-3.265.356-6.166 3.816-6.166 6.357 0 2.541 11.604 27.598 12.15 29.054.545 1.449 4.529 1.813 7.248.182 2.719-1.63 3.083-10.529.546-18.517v-.008Z" fill="#C4F756" stroke="#364E45" stroke-linecap="round" stroke-linejoin="round"/><path d="M262.015 133.674s-7.47 22.08-8.743 25.531c-1.272 3.452-7.082 19.143-8.711 22.23-1.628 3.088-.181 8.353 4.712 9.081 4.893.728 5.62-.728 8.157-4.354a3934.037 3934.037 0 0 0 8.798-12.715s-2.767-35.585-4.221-39.765l.008-.008Z" fill="#C4F756" stroke="#364E45" stroke-linecap="round" stroke-linejoin="round"/></g><defs><clipPath id="a"><path fill="#fff" d="M0 0h370v343H0z"/></clipPath></defs></svg>