<svg width="145" height="237" fill="none" xmlns="http://www.w3.org/2000/svg"><path fill-rule="evenodd" clip-rule="evenodd" d="M77.684 11.276c-.161.049-.308.135-.429.25C74.404 14.235 74 17.863 74 21.741 74 29.604 79.375 36 87.416 36c6.652 0 12.454-4.403 14.111-10.707a14.01 14.01 0 0 0 .473-3.551c0-2.279-.544-4.47-1.618-6.51a14.471 14.471 0 0 0-4.527-5.105c-.072-.046-.148-.101-.23-.16l-.084-.06-.034-.024C92.513 7.79 90.632 4.541 90.345.972a1.039 1.039 0 0 0-.168-.487 1.069 1.069 0 0 0-.384-.352 1.098 1.098 0 0 0-1.02-.015c-3.687 1.863-6.395 5.185-7.428 9.113a14.01 14.01 0 0 0-.473 3.552c0 .604.04 1.208.12 1.808a12.155 12.155 0 0 1-2.026-2.792 1.063 1.063 0 0 0-.324-.37 1.093 1.093 0 0 0-.958-.153ZM88 29.032c-3.866 0-7-3.12-7-6.968s3.134-6.967 7-6.967 7 3.12 7 6.967c0 3.849-3.134 6.968-7 6.968ZM13.789 71.54c-.253.077-.484.21-.674.389C8.635 76.145 8 81.789 8 87.82 8 100.05 16.447 110 29.083 110c10.452 0 19.57-6.849 22.174-16.655.493-1.86.743-3.72.743-5.525 0-3.544-.855-6.951-2.543-10.126-1.66-3.122-4.102-5.855-7.061-7.906a1.639 1.639 0 0 0-.052-.034c-.113-.072-.234-.158-.362-.249-.044-.03-.087-.062-.131-.093l-.055-.038c-4.705-3.258-7.66-8.31-8.112-13.862a1.606 1.606 0 0 0-.263-.758 1.675 1.675 0 0 0-.603-.547 1.738 1.738 0 0 0-1.602-.024c-5.796 2.9-10.05 8.066-11.673 14.176a21.578 21.578 0 0 0-.744 5.525c0 .94.063 1.88.19 2.813a18.918 18.918 0 0 1-3.185-4.343 1.655 1.655 0 0 0-.51-.576 1.75 1.75 0 0 0-1.505-.238ZM30 99.16c-6.075 0-11-4.852-11-10.838 0-5.986 4.925-10.84 11-10.84s11 4.853 11 10.84c0 5.986-4.925 10.838-11 10.838ZM19.076 178.57a5.612 5.612 0 0 0-2.219 1.299C2.091 193.95 0 212.796 0 232.935 0 273.774 27.836 307 69.477 307c34.446 0 64.494-22.87 73.073-55.616 1.626-6.213 2.45-12.419 2.45-18.449 0-11.835-2.819-23.213-8.38-33.815-5.472-10.424-13.518-19.551-23.27-26.398-.056-.04-.114-.078-.172-.116-.372-.241-.769-.527-1.191-.83l-.434-.311-.179-.127c-15.505-10.881-25.243-27.749-26.732-46.29a5.406 5.406 0 0 0-.87-2.53 5.544 5.544 0 0 0-1.985-1.827 5.684 5.684 0 0 0-5.28-.08c-19.1 9.682-33.121 26.936-38.469 47.338-1.626 6.212-2.45 12.418-2.45 18.449 0 3.142.208 6.28.624 9.395a63.15 63.15 0 0 1-10.493-14.504 5.517 5.517 0 0 0-1.682-1.924 5.65 5.65 0 0 0-2.384-.975 5.705 5.705 0 0 0-2.577.18ZM72.5 270.806c-20.02 0-36.25-16.204-36.25-36.193 0-19.989 16.23-36.194 36.25-36.194s36.25 16.205 36.25 36.194c0 19.989-16.23 36.193-36.25 36.193Z" fill="#fff" fill-opacity=".1" style="mix-blend-mode:soft-light"/></svg>