<svg width="30" height="28" fill="none" xmlns="http://www.w3.org/2000/svg"><path d="M20.373 10.664c-1.224 0-2.322-.197-3.294-.592-.936-.428-1.8-.89-2.592-1.383a30.38 30.38 0 0 0-2.16-1.382c-.648-.428-1.296-.642-1.944-.642-.9 0-1.62.313-2.16.938-.54.592-.846 1.432-.918 2.518H.987c.072-3.259.9-5.76 2.484-7.504C5.091.872 7.143 0 9.627 0c1.26 0 2.358.214 3.294.642.972.395 1.836.856 2.592 1.382.792.494 1.512.955 2.16 1.383.648.395 1.314.592 1.998.592.9 0 1.62-.313 2.16-.938s.828-1.481.864-2.567h6.318c-.036 3.258-.864 5.776-2.484 7.553-1.584 1.745-3.636 2.617-6.156 2.617ZM20.373 27.328c-1.224 0-2.322-.197-3.294-.592-.936-.428-1.8-.89-2.592-1.383a30.403 30.403 0 0 0-2.16-1.382c-.648-.428-1.296-.642-1.944-.642-.9 0-1.62.313-2.16.938-.54.593-.846 1.432-.918 2.518H.987c.072-3.259.9-5.76 2.484-7.504 1.62-1.745 3.672-2.617 6.156-2.617 1.26 0 2.358.214 3.294.642.972.395 1.836.856 2.592 1.382.792.494 1.512.955 2.16 1.383.648.394 1.314.592 1.998.592.9 0 1.62-.313 2.16-.938s.828-1.481.864-2.567h6.318c-.036 3.258-.864 5.776-2.484 7.553-1.584 1.745-3.636 2.617-6.156 2.617Z" fill="#C4F756"/></svg>