<svg width="440" height="393" fill="none" xmlns="http://www.w3.org/2000/svg"><path d="M309.172 204.198c-7.986-4.35-11.61-.727-14.519-4.35-2.908-3.624 7.987-13.063-13.791-22.491 0 0-1.454-20.321-31.207-21.036-29.752-.727-21.766 20.321-29.752 25.398-7.986 5.078-10.156-2.908-18.142 2.181-7.987 5.078-4.351 15.233-10.883 16.687-6.532 1.454-15.234-6.532-23.22-1.454-7.987 5.077-7.987 9.427-11.611 9.427-3.623 0-10.883-2.908-15.233 0-4.351 2.908-9.429 6.532-9.429 6.532h183.592s2.181-6.532-5.805-10.882v-.012ZM34.47 328.885c4.561-2.442 6.63-.408 8.292-2.442 1.66-2.034-4.561-7.332 7.876-12.624 0 0 .83-11.407 17.82-11.809 16.992-.408 12.43 11.407 16.992 14.257 4.56 2.85 5.8-1.632 10.36 1.225 4.561 2.85 2.485 8.55 6.215 9.366 3.73.816 8.7-3.666 13.261-.816 4.56 2.85 4.56 5.292 6.63 5.292 2.069 0 6.215-1.633 8.699 0C133.1 332.966 136 335 136 335H31.156s-1.246-3.666 3.315-6.108v-.007ZM123.183 106.773c-3.084-1.677-4.48-.281-5.606-1.677-1.125-1.395 3.085-5.042-5.324-8.677 0 0-.563-7.845-12.044-8.114-11.481-.282-8.397 7.844-11.481 9.802-3.084 1.959-3.917-1.125-7.001.845-3.085 1.958-1.677 5.875-4.199 6.437-2.521.563-5.875-2.521-8.96-.562-3.084 1.958-3.084 3.635-4.48 3.635-1.395 0-4.198-1.126-5.875 0-1.677 1.125-3.635 2.521-3.635 2.521h70.845s.844-2.521-2.24-4.198v-.012Z" fill="#fff" stroke="#E4EEEA" stroke-linecap="round" stroke-linejoin="round"/><path d="M138.712 330.242c-12.044 7.88-25.625 28.905-32.415 37.441-6.79 8.537-6.79 20.802-9.64 24.086-2.85 3.283-12.7-6.79-10.508-14.236 2.193-7.446 5.911-8.982 5.043-12.488-.88-3.506-2.85-5.699-.656-10.296 2.192-4.596 8.537-.222 14.893-4.596 6.356-4.386 12.701-23.218 20.582-42.918s24.534-19.266 26.504-22.338c1.97-3.06 13.146-42.917 24.533-40.947 11.388 1.97 31.981 22.115 25.402 33.067-6.567 10.952-14.237 10.73-23.431 17.085-9.195 6.356-8.104 7.669-14.237 14.236-6.134 6.566-10.508 7.668-13.804 8.536 0 0-4.597 5.042-7.446 8.76-2.85 3.717-4.82 4.596-4.82 4.596v.012Z" fill="#F2F7F5"/><mask id="a" style="mask-type:luminance" maskUnits="userSpaceOnUse" x="85" y="243" width="119" height="150"><path d="M138.712 330.242c-12.044 7.88-25.625 28.905-32.415 37.441-6.79 8.537-6.79 20.802-9.64 24.086-2.85 3.283-12.7-6.79-10.508-14.236 2.193-7.446 5.911-8.982 5.043-12.488-.88-3.506-2.85-5.699-.656-10.296 2.192-4.596 8.537-.222 14.893-4.596 6.356-4.386 12.701-23.218 20.582-42.918s24.534-19.266 26.504-22.338c1.97-3.06 13.146-42.917 24.533-40.947 11.388 1.97 31.981 22.115 25.402 33.067-6.567 10.952-14.237 10.73-23.431 17.085-9.195 6.356-8.104 7.669-14.237 14.236-6.134 6.566-10.508 7.668-13.804 8.536 0 0-4.597 5.042-7.446 8.76-2.85 3.717-4.82 4.596-4.82 4.596v.012Z" fill="#fff"/></mask><g mask="url(#a)"><path d="M116.758 342.156c3.788-7.106 15.175-24.18 27.02-34.604 11.856-10.425 49.313-26.079 49.313-26.079l7.307-1.466a33.89 33.89 0 0 0 2.052-2.99c6.567-10.952-14.014-31.097-25.402-33.067-11.387-1.97-22.563 37.887-24.533 40.947-1.971 3.061-18.612 2.627-26.504 22.338-7.893 19.712-14.237 38.544-20.582 42.918-6.356 4.385-12.7 0-14.894 4.596-2.193 4.597-.222 6.79.657 10.296.88 3.506-2.85 5.042-5.043 12.477-2.193 7.446 7.67 17.518 10.508 14.235.915-1.055 1.525-3.025 2.17-5.5-1.232-3.447-2.416-7.715-1.513-15.197 1.419-11.855 15.644-21.81 19.444-28.916v.012Z" fill="#D8EFE8"/></g><path d="M138.712 330.242c-12.044 7.88-25.625 28.905-32.415 37.441-6.79 8.537-6.79 20.802-9.64 24.086-2.85 3.283-12.7-6.79-10.508-14.236 2.193-7.446 5.911-8.982 5.043-12.488-.88-3.506-2.85-5.699-.656-10.296 2.192-4.596 8.537-.222 14.893-4.596 6.356-4.386 12.701-23.218 20.582-42.918s24.534-19.266 26.504-22.338c1.97-3.06 13.146-42.917 24.533-40.947 11.388 1.97 31.981 22.115 25.402 33.067-6.567 10.952-14.237 10.73-23.431 17.085-9.195 6.356-8.104 7.669-14.237 14.236-6.134 6.566-10.508 7.668-13.804 8.536 0 0-4.597 5.042-7.446 8.76-2.85 3.717-4.82 4.596-4.82 4.596v.012Z" stroke="#364E45" stroke-miterlimit="10" stroke-linecap="round"/><path d="M137.046 331.415c-2.263-.129-4.878-.634-7.752-1.83-4.808-2.017-6.708-7.223-7.411-11.843-6.052 15.537-11.259 28.834-16.466 32.434-6.356 4.386-12.7 0-14.893 4.597-2.193 4.597-.223 6.789.656 10.295.88 3.507-2.85 5.043-5.042 12.489-2.193 7.446 7.67 17.519 10.507 14.235 2.838-3.283 2.85-15.549 9.64-24.085 6.474-8.15 19.139-27.65 30.75-36.269l.011-.023Z" fill="#C4F756"/><mask id="b" style="mask-type:luminance" maskUnits="userSpaceOnUse" x="85" y="317" width="53" height="76"><path d="M137.046 331.415c-2.263-.129-4.878-.634-7.752-1.83-4.808-2.017-6.708-7.223-7.411-11.843-6.052 15.537-11.259 28.834-16.466 32.434-6.356 4.386-12.7 0-14.893 4.597-2.193 4.597-.223 6.789.656 10.295.88 3.507-2.85 5.043-5.042 12.489-2.193 7.446 7.67 17.519 10.507 14.235 2.838-3.283 2.85-15.549 9.64-24.085 6.474-8.15 19.139-27.65 30.75-36.269l.011-.023Z" fill="#fff"/></mask><g mask="url(#b)"><path opacity=".2" d="M96.669 391.769c.164-.188.305-.399.445-.645.036-.059.07-.106.094-.164.13-.247.27-.505.387-.786a.69.69 0 0 0 .059-.164c.105-.258.211-.528.305-.809.035-.094.058-.176.094-.27.105-.328.21-.657.316-1.02.035-.117.07-.246.106-.375.082-.282.152-.563.234-.856a5.65 5.65 0 0 1 .118-.423c-1.232-3.447-2.416-7.715-1.513-15.197 1.419-11.855 15.644-21.81 19.444-28.916 1.759-3.295 5.148-8.724 9.452-14.634-2.592-2.533-3.788-6.332-4.316-9.792-.34.88-.68 1.759-1.02 2.627-.059.153-.117.293-.176.446-.34.879-.692 1.759-1.032 2.626v.024c-.328.832-.657 1.653-.973 2.462-.059.129-.106.27-.164.399-.317.797-.634 1.583-.95 2.345-.059.141-.106.27-.164.399-.317.785-.634 1.559-.95 2.322v.023c-.317.751-.622 1.489-.939 2.205-.058.14-.117.281-.175.41-.305.704-.61 1.384-.903 2.052l-.141.317c-.293.633-.575 1.254-.856 1.864-.035.07-.059.129-.094.199a141.08 141.08 0 0 1-.891 1.83l-.176.352a45.692 45.692 0 0 1-.892 1.7c-.035.07-.07.129-.105.199-.282.504-.551.997-.833 1.466-.047.07-.082.152-.129.223-.293.48-.574.95-.868 1.383-.058.094-.117.176-.176.27-.293.434-.586.856-.867 1.243-.024.035-.047.059-.071.094a19.86 19.86 0 0 1-.832 1.02c-.047.059-.106.117-.153.176-.281.317-.563.61-.844.868a2.166 2.166 0 0 1-.176.152 9.224 9.224 0 0 1-.88.704c-1.982 1.372-3.964 1.876-5.828 2.075-1.114.117-2.181.129-3.178.141-.997.012-1.924.023-2.745.164-1.372.223-2.462.786-3.142 2.228-.68 1.442-.962 2.638-.997 3.717a7.17 7.17 0 0 0 .07 1.243c.024.199.059.399.106.598.328 1.56 1.043 2.979 1.477 4.738.106.433.153.844.13 1.231-.094 1.571-1.138 2.884-2.37 4.948-.926 1.548-1.97 3.506-2.79 6.297-.552 1.865-.34 3.881.316 5.828.492 1.454 1.243 2.861 2.122 4.116.294.422.599.821.915 1.196 2.545 3.037 5.723 4.737 7.142 3.096l-.023.035Z" fill="#000"/></g><path d="M137.046 331.415c-2.263-.129-4.878-.634-7.752-1.83-4.808-2.017-6.708-7.223-7.411-11.843-6.052 15.537-11.259 28.834-16.466 32.434-6.356 4.386-12.7 0-14.893 4.597-2.193 4.597-.223 6.789.656 10.295.88 3.507-2.85 5.043-5.042 12.489-2.193 7.446 7.67 17.519 10.507 14.235 2.838-3.283 2.85-15.549 9.64-24.085 6.474-8.15 19.139-27.65 30.75-36.269l.011-.023Z" stroke="#364E45" stroke-miterlimit="10" stroke-linecap="round"/><mask id="c" style="mask-type:luminance" maskUnits="userSpaceOnUse" x="85" y="133" width="120" height="95"><path d="M85.903 213.075s10.73 14.435 22.118 14.271c11.387-.165 18.013-10.249 23.877-9.557 5.852.692 12.572 3.377 12.572 3.377s40.67-54.491 50.029-63.72c9.358-9.228 14.765-19.805 1.911-23.053-12.853-3.248-39.697 2.521-53.16 14.353-13.463 11.831-56.127 58.911-56.127 58.911l-1.22 5.406v.012Z" fill="#fff"/></mask><g mask="url(#c)"><path d="M85.903 213.075s10.73 14.435 22.118 14.271c11.387-.165 18.013-10.249 23.877-9.557 5.852.692 12.572 3.377 12.572 3.377s40.67-54.491 50.029-63.72c9.358-9.228 14.765-19.805 1.911-23.053-12.853-3.248-39.697 2.521-53.16 14.353-13.463 11.831-56.127 58.911-56.127 58.911l-1.22 5.406v.012Z" fill="#44675B"/></g><path d="M85.903 213.075s10.73 14.435 22.118 14.271c11.387-.165 18.013-10.249 23.877-9.557 5.852.692 12.572 3.377 12.572 3.377s40.67-54.491 50.029-63.72c9.358-9.228 14.765-19.805 1.911-23.053-12.853-3.248-39.697 2.521-53.16 14.353-13.463 11.831-56.127 58.911-56.127 58.911l-1.22 5.406v.012Z" stroke="#364E45" stroke-miterlimit="10" stroke-linecap="round"/><path d="M239.462 85.847s3.283-7.88 9.851-11.386c6.567-3.506 14.014-3.506 14.014-3.506l17.087-10.507s4.82-16.64 21.238-23.429c16.43-6.79 86.29-32.188 86.947-32.633.657-.434 8.76-4.386 8.76-3.718 0 .669 0 1.536-.657 3.284-.656 1.747-16.863 12.265-16.863 12.265s7.88-4.82 8.103-2.404c.223 2.404 0 3.06-2.85 4.82-2.849 1.759-8.103 5.042-9.194 5.699-1.091.656-5.254 4.596-8.537 5.042-3.284.445-11.611 1.09-12.267 1.747-.657.657-22.118 21.459-29.131 27.369-7.013 5.91-18.4 11.386-18.4 11.386s-15.328 16.428-26.938 24.965c-11.61 8.536-19.491 10.729-19.491 10.729l-.88.879s.657 7.669.657 8.537c0 .868 6.356 22.561 3.506 34.604-2.849 12.042-8.326 17.085-8.326 17.085s-.88 14.235-4.386 19.488c-3.506 5.254-13.146 11.609-19.925 16.64-6.79 5.042-7.67 16.205-8.103 17.519-.434 1.313-5.911 23.651-8.761 29.127-2.85 5.476-11.669 8.548-13.205 8.982-.797.223-8.948 12.606-16.817 12.008-10.484-.809-19.01-9.135-19.573-19.63a34.66 34.66 0 0 1 .235-6.484c1.747-13.356 7.036-18.903 7.036-18.903s11.223-43.843 10.132-55.452c-1.09-11.609-1.313-18.832 1.971-25.399 3.283-6.567 14.014-16.639 30.667-23.874 16.641-7.224 18.611-12.043 18.611-20.369 0-8.325 5.477-14.458 5.477-14.458l.012-.023Z" fill="#F2F7F5"/><mask id="d" style="mask-type:luminance" maskUnits="userSpaceOnUse" x="165" y="0" width="233" height="271"><path d="M239.462 85.847s3.283-7.88 9.851-11.386c6.567-3.506 14.014-3.506 14.014-3.506l17.087-10.507s4.82-16.64 21.238-23.429c16.43-6.79 86.29-32.188 86.947-32.633.657-.434 8.76-4.386 8.76-3.718 0 .669 0 1.536-.657 3.284-.656 1.747-16.863 12.265-16.863 12.265s7.88-4.82 8.103-2.404c.223 2.404 0 3.06-2.85 4.82-2.849 1.759-8.103 5.042-9.194 5.699-1.091.656-5.254 4.596-8.537 5.042-3.284.445-11.611 1.09-12.267 1.747-.657.657-22.118 21.459-29.131 27.369-7.013 5.91-18.4 11.386-18.4 11.386s-15.328 16.428-26.938 24.965c-11.61 8.536-19.491 10.729-19.491 10.729l-.88.879s.657 7.669.657 8.537c0 .868 6.356 22.561 3.506 34.604-2.849 12.042-8.326 17.085-8.326 17.085s-.88 14.235-4.386 19.488c-3.506 5.254-13.146 11.609-19.925 16.64-6.79 5.042-7.67 16.205-8.103 17.519-.434 1.313-5.911 23.651-8.761 29.127-2.85 5.476-11.669 8.548-13.205 8.982-.797.223-8.948 12.606-16.817 12.008-10.484-.809-19.01-9.135-19.573-19.63a34.66 34.66 0 0 1 .235-6.484c1.747-13.356 7.036-18.903 7.036-18.903s11.223-43.843 10.132-55.452c-1.09-11.609-1.313-18.832 1.971-25.399 3.283-6.567 14.014-16.639 30.667-23.874 16.641-7.224 18.611-12.043 18.611-20.369 0-8.325 5.477-14.458 5.477-14.458l.012-.023Z" fill="#fff"/></mask><g mask="url(#d)" fill="#D8EFE8"><path d="M263.878 128.881c-.082-.035-.129-.058-.129-.058s-.95 14.224-3.319 23.698c-2.369 9.475-12.325 15.643-12.325 15.643l-5.219 14.224s-11.856 10.905-19.444 10.905c-7.588 0-8.538-6.168-8.538-6.168-7.142-6.074-22.645-10.26-32.684-7.892-1.583 12.418-5.957 31.215-8.221 40.514 4.234 2.263 11.024 4.397 20.992 3.412 13.112-1.313 24.182-5.57 29.764-8.067.997-3.999 2.932-9.264 7.037-12.313.727-.539 1.501-1.102 2.287-1.665-6.873 2.861-15.598 12.184-22.013 13.04-7.106.949-9.487-.469-9.006-3.319.469-2.849 10.343-1.044 13.744-2.369 3.413-1.325.469-1.899-6.637-2.849-7.107-.95-5.688-3.788-5.688-3.788s11.551.95 13.744 0c2.205-.949 17.544-4.737 24.651-10.905 7.107-6.168 7.588-19.442 7.588-19.442l5.465-2.732c.117-1.301.176-2.111.176-2.111s5.476-5.042 8.326-17.084c1.372-5.793.61-13.826-.551-20.685v.011ZM321.765 53.494c-13.698 5.934-16.43 4.105-16.43 4.105s1.372.914 3.342 2.837c1.97 1.935-.598 8.115-7.904 13.59-7.307 5.477-31.043 20.088-35.147 20.088-4.105 0-4.105-13.697-4.105-13.697-2.216 11.644-1.736 20.568-1.02 25.798l.668-.668s7.881-2.193 19.491-10.73c11.61-8.536 26.938-24.965 26.938-24.965s11.387-5.476 18.4-11.386c3.847-3.248 12.056-10.975 18.776-17.401-5.782 3.6-14.718 8.841-22.986 12.43h-.023Z"/></g><path d="M239.462 85.847s3.283-7.88 9.851-11.386c6.567-3.506 14.014-3.507 14.014-3.507l17.087-10.506s4.82-16.64 21.238-23.429c16.43-6.79 86.29-32.188 86.947-32.633.657-.434 8.76-4.386 8.76-3.718 0 .669 0 1.536-.657 3.284-.656 1.747-16.863 12.265-16.863 12.265s7.88-4.82 8.103-2.404c.223 2.404 0 3.06-2.85 4.82-2.849 1.759-8.103 5.042-9.194 5.699-1.091.656-5.254 4.596-8.537 5.042-3.284.445-11.611 1.09-12.267 1.747-.657.657-22.118 21.459-29.131 27.369-7.013 5.91-18.4 11.386-18.4 11.386s-15.328 16.428-26.938 24.965c-11.61 8.536-19.491 10.729-19.491 10.729l-.88.879s.657 7.669.657 8.537c0 .868 6.356 22.561 3.506 34.604-2.849 12.042-8.326 17.085-8.326 17.085s-.88 14.235-4.386 19.488c-3.506 5.254-13.146 11.609-19.925 16.64-6.79 5.042-7.67 16.205-8.103 17.519-.434 1.313-5.911 23.651-8.761 29.127-2.85 5.476-11.669 8.548-13.205 8.982-.797.223-8.948 12.606-16.817 12.008-10.484-.809-19.01-9.135-19.573-19.63a34.66 34.66 0 0 1 .235-6.484c1.747-13.356 7.036-18.903 7.036-18.903s11.223-43.843 10.132-55.452c-1.09-11.609-1.313-18.832 1.971-25.399 3.283-6.567 14.014-16.639 30.667-23.874 16.641-7.224 18.611-12.043 18.611-20.369 0-8.325 5.477-14.458 5.477-14.458l.012-.023Z" stroke="#364E45" stroke-miterlimit="10" stroke-linecap="round"/><path d="M255.915 161.48c-2.322 9.85-9.3 16.628-15.609 15.138-6.298-1.477-9.534-10.67-7.212-20.509 2.322-9.849 9.299-16.627 15.609-15.138 6.297 1.478 9.534 10.671 7.212 20.509Z" fill="#C4F756"/><path d="M216.03 202.791c-11.821 2.627-16.43-3.06-16.43-3.06s1.314 8.759 13.803 10.072" stroke="#364E45" stroke-linecap="round" stroke-linejoin="round"/><path d="M243.836 150.012s6.79 16.428 1.313 28.905c-5.476 12.488-13.357 17.296-28.251 19.711M229.599 203.002s-8.983 8.103-15.985 10.729c-7.001 2.627-12.478 7.224-18.4-.656" stroke="#364E45" stroke-miterlimit="10" stroke-linecap="round"/><path d="M300.127 60.659s5.477-3.717 8.538-.223c3.061 3.506-1.091 9.416-1.091 9.416M262.013 76.865s-2.193 10.729-2.627 17.741c-.433 7.012.88 11.82.88 11.82" stroke="#364E45" stroke-linecap="round" stroke-linejoin="round"/><path d="m210.448 156.485 13.111-6.966" stroke="#364E45" stroke-miterlimit="10" stroke-linecap="round"/><path d="M388.611 4.386c-.587.386-56.069 20.579-79.805 29.796 2.134.093 13.322 1.02 16.289 10.717 1.595 5.195 1.888 9.616 1.783 12.793 7.775-6.766 27.582-25.961 28.216-26.594.656-.657 8.983-1.314 12.267-1.748 3.283-.434 7.446-4.385 8.537-5.042 1.091-.657 6.356-3.94 9.194-5.699 2.838-1.759 3.061-2.404 2.85-4.82-.223-2.403-8.104 2.405-8.104 2.405s16.208-10.507 16.864-12.266c.657-1.747.657-2.626.657-3.283s-8.103 3.283-8.76 3.717l.012.024Z" fill="#C4F756" stroke="#364E45" stroke-linecap="round" stroke-linejoin="round"/><path d="m379.85 16.205-7.67 3.94" stroke="#364E45" stroke-linecap="round" stroke-linejoin="round"/><path d="M225.248 213.345c-2.451.961-5.535 2.239-8.502 3.646-6.31 3.002-15.316 6.309-26.117 7.2-7.131.598-13.205-2.591-16.512-4.843-.903 3.706-1.502 6.039-1.502 6.039s-5.277 5.547-7.036 18.903a34.78 34.78 0 0 0-.235 6.484c.563 10.495 9.089 18.832 19.573 19.63 7.858.598 16.02-11.785 16.818-12.008 1.536-.434 10.355-3.506 13.205-8.982 2.849-5.476 8.326-27.814 8.76-29.128.211-.633.528-3.553 1.548-6.965v.024Z" fill="#44675B" stroke="#364E45" stroke-miterlimit="10" stroke-linecap="round"/><path d="M178.28 231.848s9.429-4.045 18.857-.668" stroke="#F2F7F5" stroke-width=".75" stroke-linecap="round" stroke-linejoin="round"/><path d="M198.076 220.333c-12.091 1.361-19.093-3.06-22.646-6.555a820.024 820.024 0 0 1-2.029 8.431c5.043 3.026 12.173 5.699 20.758 4.644 13.04-1.606 24.873-6.942 30.116-9.592.058-.27.105-.551.175-.844 0-.012 0-.035.012-.059.188-.844.411-1.782.704-2.755.023-.059.035-.129.058-.188.094-.305.188-.622.294-.938.011-.047.035-.094.047-.141a28.349 28.349 0 0 1 1.266-3.178c-4.785 3.448-15.046 9.627-28.767 11.175h.012ZM161.345 143.387s-2.134 1.078 5.536-3.952c7.67-5.042 5.336 2.263 10.601-10.659 5.254-12.922 10.954-22.561 20.371-26.055 9.417-3.507 37.234 1.536 37.234 1.536l6.568 4.596-9.195 17.742s-6.79-3.717-14.237-.434-11.387 7.223-10.507 10.729c.879 3.506 7.88 13.145 7.88 13.145s-33.176-13.027-38.43-10.19c-5.254 2.85-21.262 8.654-22.13 9.088-.879.434 6.321-5.535 6.321-5.535l-.012-.011Z" fill="#C4F756" stroke="#364E45" stroke-miterlimit="10" stroke-linecap="round"/><path d="M181.763 133.138a104.343 104.343 0 0 0 3.6-5.675c5.7-9.639 17.087-13.802 17.087-13.802M203.271 124.179s-9.37 1.736-14.847 10.941" stroke="#364E45" stroke-miterlimit="10" stroke-linecap="round"/><path d="M197.184 155.488s-13.357-1.97-23.431 6.567c-10.074 8.536-8.983 17.741-8.983 17.741s-9.851 4.374-11.821 9.416c-1.971 5.042-2.404 9.193-2.404 9.193s-5.254 5.043-9.64 10.073c-4.386 5.031-8.104 5.91-8.984 12.477-.879 6.566-.433 22.772 4.386 38.766 4.82 15.983 8.104 22.995 9.418 25.845 1.313 2.849 12.7 17.295 14.671 17.741 1.97.434 3.94.88 5.476 0 1.537-.879 12.924-3.506 12.478-6.789-.434-3.284-1.313-4.163-1.747-4.82l-.434-.656s1.97-3.718.657-5.476c-1.314-1.748-2.405-1.97-4.82-4.163-2.404-2.193-3.718-2.85-6.568-2.85-2.849 0-5.91.223-5.91.223s-4.375-1.747-4.375-14.458 3.941-23.652 5.911-29.339c1.97-5.699 1.97-10.073 1.97-10.073s1.536 2.193 12.267-2.849 13.146-19.266 13.146-19.266l-15.773 2.404s10.508-.657 22.775-4.597c12.267-3.94 17.52-4.596 22.34-23.217" fill="#F2F7F5"/><mask id="e" style="mask-type:luminance" maskUnits="userSpaceOnUse" x="131" y="155" width="87" height="149"><path d="M197.184 155.488s-13.357-1.97-23.431 6.567c-10.074 8.536-8.983 17.741-8.983 17.741s-9.851 4.374-11.821 9.416c-1.971 5.042-2.404 9.193-2.404 9.193s-5.254 5.043-9.64 10.073c-4.386 5.031-8.104 5.91-8.984 12.477-.879 6.566-.433 22.772 4.386 38.766 4.82 15.983 8.104 22.995 9.418 25.845 1.313 2.849 12.7 17.295 14.671 17.741 1.97.434 3.94.88 5.476 0 1.537-.879 12.924-3.506 12.478-6.789-.434-3.284-1.313-4.163-1.747-4.82l-.434-.656s1.97-3.718.657-5.476c-1.314-1.748-2.405-1.97-4.82-4.163-2.404-2.193-3.718-2.85-6.568-2.85-2.849 0-5.91.223-5.91.223s-4.375-1.747-4.375-14.458 3.941-23.652 5.911-29.339c1.97-5.699 1.97-10.073 1.97-10.073s1.536 2.193 12.267-2.849 13.146-19.266 13.146-19.266l-15.773 2.404s10.508-.657 22.775-4.597c12.267-3.94 17.52-4.596 22.34-23.217" fill="#fff"/></mask><g mask="url(#e)"><path d="M176.368 196.084c-2.263-3.014 10.555-11.68 13.944-15.068 3.389-3.389-10.93 5.652-14.319 6.402-3.389.751-6.403-1.513-4.527-12.054 1.748-9.756 8.303-16.593 9.288-17.578-2.369.997-4.773 2.369-7.001 4.269-10.074 8.536-8.983 17.741-8.983 17.741s-9.851 4.386-11.821 9.416c-1.971 5.031-2.404 9.193-2.404 9.193s-5.254 5.043-9.64 10.073c-4.386 5.031-8.104 5.91-8.984 12.477-.879 6.566-.433 22.772 4.386 38.766 4.82 15.995 8.104 22.995 9.418 25.844 1.313 2.85 12.7 17.296 14.671 17.742 1.97.434 3.94.88 5.476 0 1.537-.879 12.924-3.506 12.478-6.789-.129-.962-.293-1.701-.481-2.31-4.198.539-11.88 3.213-13.932 3.213-2.263 0-4.527-3.389-7.916-7.153-3.389-3.764-8.666-13.567-9.417-25.622-.75-12.054 4.527-23.358 4.527-29.01 0-5.652-6.779 7.54-5.277 1.888 1.501-5.652 7.54-13.943 12.055-16.194 4.527-2.263 9.793-3.764 11.681-7.54 1.888-3.764-6.779-1.126-3.765-4.139 3.014-3.014 22.611-6.86 29.014-10.554 6.403-3.693-16.196 0-18.459-3.013h-.012Z" fill="#D8EFE8"/></g><path d="M197.184 155.488s-13.357-1.97-23.431 6.567c-10.074 8.536-8.983 17.741-8.983 17.741s-9.851 4.374-11.821 9.416c-1.971 5.042-2.404 9.193-2.404 9.193s-5.254 5.043-9.64 10.073c-4.386 5.031-8.104 5.91-8.984 12.477-.879 6.566-.433 22.772 4.386 38.766 4.82 15.983 8.104 22.995 9.418 25.844 1.313 2.85 12.7 17.296 14.671 17.742 1.97.434 3.94.88 5.476 0 1.537-.879 12.924-3.506 12.478-6.789-.434-3.284-1.313-4.163-1.747-4.82l-.434-.656s1.97-3.718.657-5.477c-1.314-1.747-2.405-1.969-4.82-4.162-2.404-2.193-3.718-2.85-6.568-2.85-2.849 0-5.91.223-5.91.223s-4.375-1.747-4.375-14.458 3.941-23.652 5.911-29.339c1.97-5.699 1.97-10.073 1.97-10.073s1.536 2.193 12.267-2.849 13.146-19.266 13.146-19.266l-15.773 2.404s10.508-.657 22.775-4.597c12.267-3.94 17.52-4.596 22.34-23.217" stroke="#364E45" stroke-miterlimit="10" stroke-linecap="round"/><path d="m163.022 224.906-1.254-10.049" stroke="#364E45" stroke-linecap="round" stroke-linejoin="round"/><path d="M225.002 147.162c6.356-1.97 7.881-9.85 11.61-18.175 3.717-8.326 9.851-17.953 9.851-17.953s-8.983.434-18.834-3.06c-9.851-3.506-21.461-1.091-23.654 1.313-2.193 2.404-1.971-.657-1.537 6.79.434 7.446 3.284 18.175 5.911 21.904l4.163 5.91" fill="#F2F7F5"/><mask id="f" style="mask-type:luminance" maskUnits="userSpaceOnUse" x="202" y="106" width="45" height="42"><path d="M225.002 147.162c6.356-1.97 7.881-9.85 11.61-18.175 3.717-8.326 9.851-17.953 9.851-17.953s-8.983.434-18.834-3.06c-9.851-3.506-21.461-1.091-23.654 1.313-2.193 2.404-1.971-.657-1.537 6.79.434 7.446 3.284 18.175 5.911 21.904l4.163 5.91" fill="#fff"/></mask><g mask="url(#f)"><path d="M243.719 111.011c-3.401-.129-9.535-.715-16.079-3.049-9.851-3.506-21.461-1.09-23.654 1.313-2.193 2.404-1.97-.656-1.536 6.79.434 7.446 3.284 18.175 5.911 21.904.328.469.645.903.938 1.325l35.006-28.002-.586-.269v-.012Z" fill="#D8EFE8"/></g><path d="M225.002 147.162c6.356-1.97 7.881-9.85 11.61-18.175 3.717-8.326 9.851-17.953 9.851-17.953s-8.983.434-18.834-3.06c-9.851-3.506-21.461-1.091-23.654 1.313-2.193 2.404-1.971-.657-1.537 6.79.434 7.446 3.284 18.175 5.911 21.904l4.163 5.91" stroke="#364E45" stroke-miterlimit="10" stroke-linecap="round"/><path d="M223.477 134.24c4.058.035 7.928-.504 11.54-1.419.504-1.254 1.02-2.544 1.607-3.834 3.717-8.326 9.851-17.953 9.851-17.953s-8.984.434-18.835-3.06c-9.851-3.506-21.461-1.091-23.654 1.313-2.193 2.404-1.97-.657-1.536 6.79.223 3.811 1.079 8.489 2.216 12.652 3.589 2.92 9.406 5.441 18.799 5.523l.012-.012Z" stroke="#364E45" stroke-miterlimit="10" stroke-linecap="round"/><path d="m225.53 143.691-5.278-23.229" stroke="#364E45" stroke-linecap="round" stroke-linejoin="round"/><path d="M231.651 67.366s.95-3.705 1.384-7.868c.434-4.163-9.558-11.538-19.855-10.659-10.296.88-6.567 10.952-7.88 14.236-1.314 3.283-11.165-.223-13.803 5.698-2.639 5.922 1.97 7.67 1.97 9.416 0 1.748-8.104 6.356-7.013 16.64 1.09 10.295 18.834 20.368 22.774 21.248 3.941.879 8.761-2.85 8.761-5.91 0-3.061 6.567-4.163 8.326-7.013 1.748-2.849-2.85-12.699-2.627-14.892.223-2.192 7.013-10.952 4.82-13.145-2.193-2.193 3.131-7.75 3.131-7.75h.012Z" fill="#44675B" stroke="#364E45" stroke-miterlimit="10" stroke-linecap="round"/><path d="M221.167 69.829s3.389-.375 3.389-7.915-10.93-5.652-12.431-2.639c-1.513 3.014-.375 8.666-4.14 10.179-3.764 1.512-9.792 1.512-9.792 4.526v4.14" stroke="#F2F7F5" stroke-width=".75" stroke-linecap="round" stroke-linejoin="round"/><path d="M211.374 75.856s-13.943-.75-21.097 12.055M213.251 79.245s-9.417.375-14.319 6.778" stroke="#F2F7F5" stroke-width=".75" stroke-linecap="round" stroke-linejoin="round"/><path d="M229.329 68.762c.61-.81 8.713 7.598 9.03 8.548.305.903.598 2.533.762 3.46.082.457.329.844.716 1.102l5.664 3.88c.774.529.973 1.596.434 2.37l-1.97 2.826a1.706 1.706 0 0 0-.141 1.688c1.595 3.389 7.189 15.479 6.814 16.417-.434 1.09-1.314 2.192-2.404 2.626-1.091.434-21.25 7.224-23.655 7.446-1.853.164-6.309-7.446-8.279-10.975-.469-.856-1.548-1.091-2.381-.61-1.196.703-3.108 1.266-5.582.152-4.374-1.97-9.417-5.699-7.224-9.85 2.193-4.15 5.699-4.385 7.224-3.283 1.02.727 2.838 2.252 3.917 3.166a1.7 1.7 0 0 0 1.935.176l.926-.528c.927-.527 1.185-1.817.446-2.58l-.023-.023c-.411-.41-.821-1.477-.821-1.477s6.356-5.476 4.163-8.537c-2.193-3.06-8.104-7.669-7.447-10.073.657-2.403 9.417-5.476 13.146-5.476 1.443 0 4.304.165 4.762-.445h-.012Z" fill="#F2F7F5"/><mask id="g" style="mask-type:luminance" maskUnits="userSpaceOnUse" x="200" y="68" width="51" height="52"><path d="M229.329 68.762c.61-.81 8.713 7.598 9.03 8.548.305.903.598 2.533.762 3.46.082.457.329.844.716 1.102l5.664 3.88c.774.529.973 1.596.434 2.37l-1.97 2.826a1.706 1.706 0 0 0-.141 1.688c1.595 3.389 7.189 15.479 6.814 16.417-.434 1.09-1.314 2.192-2.404 2.626-1.091.434-21.25 7.224-23.655 7.446-1.853.164-6.309-7.446-8.279-10.975-.469-.856-1.548-1.091-2.381-.61-1.196.703-3.108 1.266-5.582.152-4.374-1.97-9.417-5.699-7.224-9.85 2.193-4.15 5.699-4.385 7.224-3.283 1.02.727 2.838 2.252 3.917 3.166a1.7 1.7 0 0 0 1.935.176l.926-.528c.927-.527 1.185-1.817.446-2.58l-.023-.023c-.411-.41-.821-1.477-.821-1.477s6.356-5.476 4.163-8.537c-2.193-3.06-8.104-7.669-7.447-10.073.657-2.403 9.417-5.476 13.146-5.476 1.443 0 4.304.165 4.762-.445h-.012Z" fill="#fff"/></mask><g mask="url(#g)"><path d="M218.868 84.756c2.193 3.06-4.163 8.537-4.163 8.537s.41 1.067.821 1.477l.023.024c.739.762.481 2.052-.445 2.58l-.927.527a1.7 1.7 0 0 1-1.935-.176c-1.09-.926-2.896-2.439-3.917-3.166-1.536-1.09-5.042-.88-7.224 3.284-2.181 4.162 2.85 7.879 7.224 9.849 2.475 1.114 4.386.552 5.583-.152.844-.493 1.911-.246 2.38.61 1.97 3.541 6.427 11.151 8.28 10.975 2.404-.222 22.563-7.012 23.654-7.446 1.091-.434 1.97-1.536 2.404-2.626 0 0-8.702 4.115-13.44-.153-4.737-4.268-10.906-10.424-12.806-13.274-1.9-2.85 2.052-9.146-1.9-15.173-3.952-6.028-11.07-5.793-11.07-5.793-.657 2.404 5.253 7.012 7.447 10.073l.011.023Z" fill="#D8EFE8"/></g><path d="M229.329 68.762c.61-.81 8.713 7.598 9.03 8.548.305.903.598 2.533.762 3.46.082.457.329.844.716 1.102l5.664 3.88c.774.529.973 1.596.434 2.37l-1.97 2.826a1.706 1.706 0 0 0-.141 1.688c1.595 3.389 7.189 15.479 6.814 16.417-.434 1.09-1.314 2.192-2.404 2.626-1.091.434-21.25 7.224-23.655 7.446-1.853.164-6.309-7.446-8.279-10.975-.469-.856-1.548-1.091-2.381-.61-1.196.703-3.108 1.266-5.582.152-4.374-1.97-9.417-5.699-7.224-9.85 2.193-4.15 5.699-4.385 7.224-3.283 1.02.727 2.838 2.252 3.917 3.166a1.7 1.7 0 0 0 1.935.176l.926-.528c.927-.527 1.185-1.817.446-2.58l-.023-.023c-.411-.41-.821-1.477-.821-1.477s6.356-5.476 4.163-8.537c-2.193-3.06-8.104-7.669-7.447-10.073.657-2.403 9.417-5.476 13.146-5.476 1.443 0 4.304.165 4.762-.445h-.012Z" stroke="#364E45" stroke-miterlimit="10" stroke-linecap="round"/><path d="M235.462 80.488s-4.679 0-6.016.668c-1.337.669-3.002 5.347-3.002 5.347l4.339-2.673 5.008-.997 1.337-3.67-1.666 1.337v-.012Z" fill="#364E45"/><path d="m235.803 85.155-4.011 2.005h4.011" fill="#F2F7F5"/><path d="m235.803 85.155-4.011 2.005h4.011" stroke="#364E45" stroke-miterlimit="10" stroke-linecap="round"/><path d="M231.569 299.801s-11.387 3.283-21.684 9.639c-10.296 6.355-27.372 16.428-35.041 16.862-7.67.434-10.074-1.97-14.671-3.717-4.597-1.747-7.013 3.94-7.013 7.223s0 4.819-2.193 7.88-7.881 14.458-7.881 14.458-3.061 12.266 0 12.7c3.061.434 5.043-3.718 11.387-8.983 6.357-5.253 16.43-16.639 25.402-17.518 8.983-.88 49.055-5.043 65.708-12.923 16.642-7.879 15.551-5.698 20.371-9.416 4.82-3.717 3.061-10.729.657-15.548-2.405-4.82-5.477-7.013-5.477-7.013" fill="#F2F7F5"/><mask id="h" style="mask-type:luminance" maskUnits="userSpaceOnUse" x="141" y="293" width="129" height="72"><path d="M231.569 299.801s-11.387 3.283-21.684 9.639c-10.296 6.355-27.372 16.428-35.041 16.862-7.67.434-10.074-1.97-14.671-3.717-4.597-1.747-7.013 3.94-7.013 7.223s0 4.819-2.193 7.88-7.881 14.458-7.881 14.458-3.061 12.266 0 12.7c3.061.434 5.043-3.718 11.387-8.983 6.357-5.253 16.43-16.639 25.402-17.518 8.983-.88 49.055-5.043 65.708-12.923 16.642-7.879 15.551-5.698 20.371-9.416 4.82-3.717 3.061-10.729.657-15.548-2.405-4.82-5.477-7.013-5.477-7.013" fill="#fff"/></mask><g mask="url(#h)"><path d="M255.458 321.002c-1.97-.364-3.565-.88-3.565-1.607 0-1.899 5.687-1.899 8.537-5.687 2.85-3.787-.469-7.587-4.269-11.855-1.454-1.63-3.248-3.952-5.183-6.227l-19.397 4.163s-11.387 3.284-21.684 9.639c-10.297 6.356-27.372 16.428-35.042 16.862-7.669.434-10.073-1.97-14.671-3.717-4.597-1.747-7.012 3.94-7.012 7.223 0 3.284 0 4.82-2.194 7.88-2.193 3.061-7.88 14.459-7.88 14.459s-3.061 12.265 0 12.699c3.061.434 5.042-3.717 11.387-8.982 6.356-5.254 16.43-16.64 25.402-17.519 8.983-.88 49.055-5.042 65.708-12.922 4.374-2.076 7.506-3.448 9.863-4.409Z" fill="#D8EFE8"/></g><path d="M231.569 299.801s-11.387 3.283-21.684 9.639c-10.296 6.355-27.372 16.428-35.041 16.862-7.67.434-10.074-1.97-14.671-3.717-4.597-1.747-7.013 3.94-7.013 7.223s0 4.819-2.193 7.88-7.881 14.458-7.881 14.458-3.061 12.266 0 12.7c3.061.433 5.043-3.718 11.387-8.983 6.357-5.253 16.43-16.639 25.402-17.518 8.983-.88 49.055-5.043 65.708-12.923 16.642-7.879 15.551-5.698 20.371-9.416 4.82-3.717 3.061-10.729.657-15.548-2.405-4.82-5.477-7.013-5.477-7.013" stroke="#364E45" stroke-miterlimit="10" stroke-linecap="round"/><path d="M267.537 302.815s-5.219-20.38-40.119-49.871c-23.49-19.841-33.951-24.086-47.309-12.266-13.357 11.82-10.73 19.489-5.91 26.935 4.82 7.446 24.533 21.681 40.741 28.905 16.207 7.223 32.637 17.296 41.831 16.428" fill="#F2F7F5"/><mask id="i" style="mask-type:luminance" maskUnits="userSpaceOnUse" x="170" y="234" width="98" height="79"><path d="M267.537 302.815s-5.219-20.38-40.119-49.871c-23.49-19.841-33.951-24.086-47.309-12.266-13.357 11.82-10.73 19.489-5.91 26.935 4.82 7.446 24.533 21.681 40.741 28.905 16.207 7.223 32.637 17.296 41.831 16.428" fill="#fff"/></mask><g mask="url(#i)"><path d="M241.455 288.11c-4.738-.469 3.788 9.006-6.168 6.637-9.957-2.369-44.564-31.766-51.683-41.241-5.852-7.809-.786-14.317 1.185-16.381-1.537.95-3.096 2.134-4.691 3.553-13.358 11.82-10.731 19.489-5.911 26.935 4.82 7.446 24.534 21.681 40.741 28.905 16.207 7.223 32.637 17.296 41.832 16.428l4.374-4.116c-.786-2.228-2.803-4.514-4.984-6.965-3.788-4.269-9.957-13.274-14.695-13.743v-.012Z" fill="#D8EFE8"/></g><path d="M267.537 302.815s-5.219-20.38-40.119-49.871c-23.49-19.841-33.951-24.086-47.309-12.266-13.357 11.82-10.73 19.489-5.91 26.935 4.82 7.446 24.533 21.681 40.741 28.905 16.207 7.223 32.637 17.296 41.831 16.428" stroke="#364E45" stroke-miterlimit="10" stroke-linecap="round"/><path d="M213.837 322.139c-2.216-4.89-1.677-10.389-.61-14.634a64.285 64.285 0 0 0-3.33 1.935c-10.297 6.355-27.372 16.428-35.042 16.862-7.669.434-10.073-1.97-14.671-3.717-4.597-1.747-7.012 3.94-7.012 7.223s0 4.819-2.194 7.88c-2.193 3.061-7.88 14.458-7.88 14.458s-3.061 12.266 0 12.7c3.061.433 5.042-3.718 11.387-8.983 6.356-5.253 16.43-16.639 25.402-17.518 6.156-.598 26.949-2.744 44.763-6.579-3.636-1.395-8.338-4.174-10.824-9.627h.011Z" fill="#C4F756"/><mask id="j" style="mask-type:luminance" maskUnits="userSpaceOnUse" x="141" y="307" width="84" height="58"><path d="M213.837 322.139c-2.216-4.89-1.677-10.389-.61-14.634a64.285 64.285 0 0 0-3.33 1.935c-10.297 6.355-27.372 16.428-35.042 16.862-7.669.434-10.073-1.97-14.671-3.717-4.597-1.747-7.012 3.94-7.012 7.223s0 4.819-2.194 7.88c-2.193 3.061-7.88 14.458-7.88 14.458s-3.061 12.266 0 12.7c3.061.433 5.042-3.718 11.387-8.983 6.356-5.253 16.43-16.639 25.402-17.518 6.156-.598 26.949-2.744 44.763-6.579-3.636-1.395-8.338-4.174-10.824-9.627h.011Z" fill="#fff"/></mask><g mask="url(#j)"><path opacity=".2" d="M213.837 322.139c-2.216-4.89-1.677-10.389-.61-14.634a64.285 64.285 0 0 0-3.33 1.935c-10.297 6.355-27.372 16.428-35.042 16.862-7.669.434-10.073-1.97-14.671-3.717-4.597-1.747-7.012 3.94-7.012 7.223s0 4.819-2.194 7.88c-2.193 3.061-7.88 14.458-7.88 14.458s-3.061 12.266 0 12.7c3.061.433 5.042-3.718 11.387-8.983 6.356-5.253 16.43-16.639 25.402-17.518 6.156-.598 26.949-2.744 44.763-6.579-3.636-1.395-8.338-4.174-10.824-9.627h.011Z" fill="#000"/></g><path d="M213.837 322.139c-2.216-4.89-1.677-10.389-.61-14.634a64.285 64.285 0 0 0-3.33 1.935c-10.297 6.355-27.372 16.428-35.042 16.862-7.669.434-10.073-1.97-14.671-3.717-4.597-1.747-7.012 3.94-7.012 7.223s0 4.819-2.194 7.88c-2.193 3.061-7.88 14.458-7.88 14.458s-3.061 12.266 0 12.7c3.061.433 5.042-3.718 11.387-8.983 6.356-5.253 16.43-16.639 25.402-17.518 6.156-.598 26.949-2.744 44.763-6.579-3.636-1.395-8.338-4.174-10.824-9.627h.011ZM175.817 264.681s47.907 30.652 61.956 35.765c14.049 5.112 10.86-4.468 10.86-4.468" stroke="#364E45" stroke-linecap="round" stroke-linejoin="round"/><path d="M218.622 324.707s13.416 1.278 22.352-7.024" stroke="#364E45" stroke-linecap="round" stroke-linejoin="round"/><path d="M215.667 153.061s-16.982-11.105-36.625-8.748c-19.643 2.357-42.993 22.444-58.121 39.622-15.128 17.191-82.385 110.953-82.385 110.953l-2.087-15.314a27.701 27.701 0 0 1 5.3-20.369l10.684-14.212s1.067-17.507 10.508-26.477c9.44-8.971 17.978-14.083 20.44-15.772 2.452-1.688 26.927-26.255 44.283-43.82 17.357-17.566 38.29-30.148 57.312-24.824 19.022 5.323 26.645 9.404 31.078 13.297 4.433 3.893 4.585 3.506 4.585 3.506l-4.961 2.169-.011-.011Z" fill="#C4F756" stroke="#364E45" stroke-miterlimit="10" stroke-linecap="round"/><path d="m100.386 194.735 3.953-4.444M52.445 244.982l46.311-48.722M165.086 141.698a40.68 40.68 0 0 0-3.741 1.689M217.813 152.58s-23.971-19.266-49.032-12.125" stroke="#364E45" stroke-miterlimit="10" stroke-linecap="round"/><path d="M176.169 291.042s1.97-3.718.657-5.476c-1.314-1.748-2.405-1.97-4.82-4.163-2.404-2.193-3.718-2.85-6.568-2.85-2.849 0-5.91.223-5.91.223s-4.386-1.747-4.386-14.458c0-8.994 1.97-17.085 3.823-23.077-2.944 1.759-7.119 3.518-12.584 4.034-7.2.668-11.715-2.967-14.143-5.922.68 6.273 1.959 13.344 4.069 20.368 4.82 15.983 8.104 22.995 9.418 25.845 1.313 2.849 12.7 17.296 14.671 17.741 1.97.446 3.94.88 5.476 0 1.536-.879 12.924-3.506 12.478-6.789-.434-3.284-1.313-4.163-1.747-4.82l-.434-.656Z" fill="#C4F756"/><mask id="k" style="mask-type:luminance" maskUnits="userSpaceOnUse" x="132" y="239" width="47" height="65"><path d="M176.169 291.042s1.97-3.718.657-5.476c-1.314-1.748-2.405-1.97-4.82-4.163-2.404-2.193-3.718-2.85-6.568-2.85-2.849 0-5.91.223-5.91.223s-4.386-1.747-4.386-14.458c0-8.994 1.97-17.085 3.823-23.077-2.944 1.759-7.119 3.518-12.584 4.034-7.2.668-11.715-2.967-14.143-5.922.68 6.273 1.959 13.344 4.069 20.368 4.82 15.983 8.104 22.995 9.418 25.845 1.313 2.849 12.7 17.296 14.671 17.741 1.97.446 3.94.88 5.476 0 1.536-.879 12.924-3.506 12.478-6.789-.434-3.284-1.313-4.163-1.747-4.82l-.434-.656Z" fill="#fff"/></mask><g mask="url(#k)"><path opacity=".2" d="M178.35 296.518c-.047-.352-.105-.657-.152-.962-.024-.094-.036-.187-.059-.281a16.55 16.55 0 0 0-.141-.61c-.047-.164-.082-.317-.129-.457-4.198.539-11.88 3.213-13.932 3.213-2.263 0-4.527-3.389-7.916-7.153-3.389-3.764-8.666-13.567-9.417-25.622-.446-7.223 1.255-14.165 2.709-19.793-.938.175-1.9.328-2.932.422-7.2.668-11.715-2.967-14.143-5.922.035.305.07.621.106.926.058.54.129 1.079.199 1.642.047.375.105.75.152 1.126.071.504.141 1.008.223 1.524.059.387.129.786.188 1.184.082.516.164 1.021.258 1.548.07.399.141.798.223 1.196.094.528.199 1.056.316 1.595.082.399.165.786.247 1.184.117.563.246 1.114.375 1.677.082.376.164.751.258 1.126.152.621.317 1.255.481 1.888.082.316.152.621.246.938.258.95.516 1.888.809 2.838 4.82 15.982 8.104 22.995 9.417 25.844.082.176.2.399.364.668.234.399.551.88.915 1.419a84 84 0 0 0 2.31 3.201 95 95 0 0 0 .551.727c3.894 5.113 9.241 11.445 10.543 11.727 1.97.433 3.94.879 5.477 0 .293-.165.926-.387 1.759-.669.281-.094.586-.187.903-.293 3.835-1.266 10.156-3.354 9.827-5.816l-.035-.035Z" fill="#000"/><path d="m174.914 287.137-2.756 2.298s2.041-.141 4.445 2.263" stroke="#364E45" stroke-linecap="round" stroke-linejoin="round"/></g><path d="M176.169 291.042s1.97-3.718.657-5.476c-1.314-1.748-2.405-1.97-4.82-4.163-2.404-2.193-3.718-2.85-6.568-2.85-2.849 0-5.91.223-5.91.223s-4.386-1.747-4.386-14.458c0-8.994 1.97-17.085 3.823-23.077-2.944 1.759-7.119 3.518-12.584 4.034-7.2.668-11.715-2.967-14.143-5.922.68 6.273 1.959 13.344 4.069 20.368 4.82 15.983 8.104 22.995 9.418 25.845 1.313 2.849 12.7 17.296 14.671 17.741 1.97.446 3.94.88 5.476 0 1.536-.879 12.924-3.506 12.478-6.789-.434-3.284-1.313-4.163-1.747-4.82l-.434-.656ZM347.201 62.441 309.427 97.89M305.886 101.208l-6.11 5.746M73.613 287.02l-6.603 6.191M122.375 241.264l-43.473 40.784M163.257 368.164l-4.351 4.093M190.5 342.601l-22.822 21.412M5.852 307.001l-5.266 4.948M55.94 260.003 12.9 300.387M132.379 138.849l-6.603 6.191M181.13 93.105l-43.04 40.385M337.831 80.324l-55.353 51.946" stroke="#364E45" stroke-linecap="round" stroke-linejoin="round"/></svg>