<svg width="421" height="416" fill="none" xmlns="http://www.w3.org/2000/svg"><g clip-path="url(#a)"><path d="M327.441 216.149c-8.458-4.605-12.296-.77-15.376-4.605-3.08-3.836 8.458-13.828-14.607-23.807 0 0-1.54-21.511-33.05-22.268-31.511-.769-23.052 21.511-31.511 26.885-8.458 5.375-10.756-3.078-19.214 2.309-8.458 5.375-4.608 16.124-11.526 17.663-6.918 1.539-16.134-6.914-24.592-1.539-8.459 5.374-8.459 9.979-12.297 9.979-3.837 0-11.526-3.078-16.134 0-4.608 3.078-9.986 6.914-9.986 6.914h194.441s2.31-6.914-6.148-11.519v-.012ZM36.507 348.133c4.83-2.585 7.022-.432 8.782-2.585 1.758-2.153-4.83-7.762 8.34-13.363 0 0 .88-12.075 18.875-12.5C90.5 319.253 85.67 331.76 90.5 334.777c4.83 3.016 6.142-1.728 10.973 1.295 4.83 3.017 2.631 9.051 6.582 9.915 3.951.864 9.214-3.881 14.044-.864s4.83 5.602 7.022 5.602 6.582-1.728 9.214 0a269.875 269.875 0 0 1 5.702 3.881H32.996s-1.319-3.881 3.511-6.466v-.007ZM130.462 113.022c-3.267-1.775-4.745-.298-5.937-1.775-1.192-1.477 3.267-5.337-5.639-9.185 0 0-.596-8.304-12.755-8.59-12.16-.297-8.894 8.304-12.16 10.377-3.267 2.073-4.148-1.191-7.415.894-3.266 2.073-1.776 6.218-4.447 6.814-2.67.596-6.222-2.668-9.489-.596-3.266 2.073-3.266 3.848-4.744 3.848-1.478 0-4.447-1.191-6.223 0a200.581 200.581 0 0 0-3.85 2.669h75.031s.895-2.669-2.372-4.444v-.012Z" fill="#fff" stroke="#E4EEEA" stroke-linecap="round" stroke-linejoin="round"/><path d="M146.908 349.569c-12.755 8.341-27.138 30.597-34.33 39.633-7.191 9.036-7.191 22.019-10.209 25.495-3.018 3.475-13.451-7.187-11.129-15.069 2.323-7.882 6.26-9.508 5.341-13.219-.931-3.711-3.018-6.032-.696-10.898 2.323-4.866 9.042-.236 15.774-4.866 6.732-4.642 13.452-24.576 21.798-45.429 8.347-20.853 25.983-20.393 28.07-23.645 2.087-3.24 13.923-45.43 25.984-43.344 12.06 2.085 33.87 23.409 26.902 35.002-6.955 11.594-15.078 11.358-24.816 18.085-9.737 6.728-8.582 8.118-15.078 15.069-6.496 6.951-11.129 8.118-14.619 9.036 0 0-4.869 5.337-7.887 9.272-3.018 3.935-5.105 4.866-5.105 4.866v.012Z" fill="#F2F7F5"/><mask id="b" style="mask-type:luminance" maskUnits="userSpaceOnUse" x="90" y="258" width="126" height="158"><path d="M146.908 349.569c-12.755 8.341-27.138 30.597-34.33 39.633-7.191 9.036-7.191 22.019-10.209 25.495-3.018 3.475-13.451-7.187-11.129-15.069 2.323-7.882 6.26-9.508 5.341-13.219-.931-3.711-3.018-6.032-.696-10.898 2.323-4.866 9.042-.236 15.774-4.866 6.732-4.642 13.452-24.576 21.798-45.429 8.347-20.853 25.983-20.393 28.07-23.645 2.087-3.24 13.923-45.43 25.984-43.344 12.06 2.085 33.87 23.409 26.902 35.002-6.955 11.594-15.078 11.358-24.816 18.085-9.737 6.728-8.582 8.118-15.078 15.069-6.496 6.951-11.129 8.118-14.619 9.036 0 0-4.869 5.337-7.887 9.272-3.018 3.935-5.105 4.866-5.105 4.866v.012Z" fill="#fff"/></mask><g mask="url(#b)"><path d="M123.657 362.18c4.012-7.522 16.072-25.594 28.617-36.629 12.557-11.034 52.228-27.605 52.228-27.605l7.737-1.551a35.736 35.736 0 0 0 2.174-3.166c6.955-11.593-14.842-32.917-26.903-35.002-12.06-2.086-23.896 40.104-25.983 43.344-2.087 3.239-19.711 2.78-28.07 23.645-8.359 20.865-15.078 40.799-21.798 45.429-6.732 4.643-13.451 0-15.774 4.866-2.322 4.866-.236 7.187.696 10.898.931 3.711-3.018 5.337-5.34 13.207-2.323 7.882 8.122 18.544 11.128 15.068.969-1.117 1.614-3.202 2.298-5.821-1.305-3.649-2.559-8.167-1.603-16.086 1.503-12.549 16.569-23.087 20.593-30.609v.012Z" fill="#D8EFE8"/></g><path d="M146.908 349.569c-12.755 8.341-27.138 30.597-34.33 39.633-7.191 9.036-7.191 22.019-10.209 25.495-3.018 3.475-13.451-7.187-11.129-15.069 2.323-7.882 6.26-9.508 5.341-13.219-.931-3.711-3.018-6.032-.696-10.898 2.323-4.866 9.042-.236 15.774-4.866 6.732-4.642 13.452-24.576 21.798-45.429 8.347-20.853 25.983-20.393 28.07-23.645 2.087-3.24 13.923-45.43 25.984-43.344 12.06 2.085 33.87 23.409 26.902 35.002-6.955 11.594-15.078 11.358-24.816 18.085-9.737 6.728-8.582 8.118-15.078 15.069-6.496 6.951-11.129 8.118-14.619 9.036 0 0-4.869 5.337-7.887 9.272-3.018 3.935-5.105 4.866-5.105 4.866v.012Z" stroke="#364E45" stroke-miterlimit="10" stroke-linecap="round"/><path d="M145.145 350.81c-2.397-.136-5.167-.67-8.21-1.936-5.093-2.135-7.105-7.646-7.85-12.537-6.409 16.447-11.923 30.522-17.438 34.333-6.732 4.642-13.451 0-15.774 4.866-2.323 4.865-.236 7.186.696 10.898.931 3.711-3.019 5.337-5.341 13.219-2.323 7.882 8.123 18.544 11.128 15.068 3.006-3.475 3.019-16.458 10.21-25.495 6.856-8.626 20.27-29.268 32.566-38.391l.013-.025Z" fill="#C4F756"/><mask id="c" style="mask-type:luminance" maskUnits="userSpaceOnUse" x="90" y="336" width="56" height="80"><path d="M145.145 350.81c-2.397-.136-5.167-.67-8.21-1.936-5.093-2.135-7.105-7.646-7.85-12.537-6.409 16.447-11.923 30.522-17.438 34.333-6.732 4.642-13.451 0-15.774 4.866-2.323 4.865-.236 7.186.696 10.898.931 3.711-3.019 5.337-5.341 13.219-2.323 7.882 8.123 18.544 11.128 15.068 3.006-3.475 3.019-16.458 10.21-25.495 6.856-8.626 20.27-29.268 32.566-38.391l.013-.025Z" fill="#fff"/></mask><g mask="url(#c)"><path opacity=".2" d="M102.381 414.696c.174-.198.323-.422.472-.682.037-.062.075-.112.1-.174.136-.261.285-.534.409-.832a.72.72 0 0 0 .063-.173c.111-.273.223-.559.322-.857.038-.099.063-.186.1-.285a38.863 38.863 0 0 0 .447-1.477c.087-.298.161-.596.248-.906.038-.149.075-.298.125-.447-1.305-3.65-2.559-8.168-1.603-16.087 1.503-12.549 16.569-23.087 20.593-30.609 1.863-3.487 5.453-9.234 10.011-15.49-2.745-2.681-4.012-6.703-4.571-10.365-.36.931-.72 1.862-1.08 2.781-.062.161-.124.31-.186.472-.361.93-.733 1.861-1.093 2.78v.025c-.348.881-.696 1.75-1.031 2.606-.062.137-.112.286-.174.422-.336.844-.671 1.676-1.006 2.483-.062.149-.112.285-.174.422-.335.831-.671 1.651-1.006 2.457v.025c-.336.795-.658 1.577-.994 2.334-.062.149-.124.298-.186.434-.323.745-.646 1.465-.956 2.172l-.15.336c-.31.67-.608 1.328-.906 1.973-.037.075-.062.137-.1.211a128.546 128.546 0 0 1-1.13 2.309c-.31.62-.621 1.216-.944 1.8-.037.074-.074.136-.112.211-.298.533-.583 1.055-.881 1.551-.05.075-.087.162-.137.236-.311.509-.609 1.005-.919 1.465-.062.099-.124.186-.186.285-.311.459-.621.906-.92 1.316-.024.037-.049.062-.074.099a20.49 20.49 0 0 1-.882 1.08c-.05.062-.112.124-.161.186a12.68 12.68 0 0 1-.895.919c-.062.062-.124.111-.186.161-.31.273-.621.534-.931.745-2.1 1.452-4.199 1.986-6.173 2.197-1.18.124-2.311.136-3.366.149-1.056.012-2.037.025-2.907.174-1.453.235-2.608.831-3.328 2.358-.72 1.527-1.019 2.793-1.056 3.935-.013.459.012.893.075 1.315.024.211.062.422.111.633.348 1.651 1.106 3.153 1.565 5.015.112.459.162.894.137 1.303-.1 1.663-1.205 3.054-2.51 5.238-.98 1.639-2.086 3.712-2.955 6.666-.584 1.973-.36 4.108.335 6.169.522 1.539 1.317 3.028 2.248 4.356.31.447.634.869.97 1.266 2.694 3.215 6.06 5.015 7.563 3.277l-.025.037Z" fill="#000"/></g><path d="M145.145 350.81c-2.397-.136-5.167-.67-8.21-1.936-5.093-2.135-7.105-7.646-7.85-12.537-6.409 16.447-11.923 30.522-17.438 34.333-6.732 4.642-13.451 0-15.774 4.866-2.323 4.865-.236 7.186.696 10.898.931 3.711-3.019 5.337-5.341 13.219-2.323 7.882 8.123 18.544 11.128 15.068 3.006-3.475 3.019-16.458 10.21-25.495 6.856-8.626 20.27-29.268 32.566-38.391l.013-.025Z" stroke="#364E45" stroke-miterlimit="10" stroke-linecap="round"/><mask id="d" style="mask-type:luminance" maskUnits="userSpaceOnUse" x="90" y="141" width="127" height="100"><path d="M90.98 225.545s11.364 15.28 23.424 15.106c12.06-.174 19.078-10.849 25.288-10.116 6.198.732 13.315 3.574 13.315 3.574s43.074-57.68 52.985-67.448c9.912-9.769 15.637-20.965 2.025-24.403-13.613-3.438-42.043 2.669-56.302 15.193S92.271 219.81 92.271 219.81l-1.292 5.723v.012Z" fill="#fff"/></mask><g mask="url(#d)"><path d="M90.98 225.545s11.364 15.28 23.424 15.106c12.06-.174 19.078-10.849 25.288-10.116 6.198.732 13.315 3.574 13.315 3.574s43.074-57.68 52.985-67.448c9.912-9.769 15.637-20.965 2.025-24.403-13.613-3.438-42.043 2.669-56.302 15.193S92.271 219.81 92.271 219.81l-1.292 5.723v.012Z" fill="#44675B"/></g><path d="M90.98 225.545s11.364 15.28 23.424 15.106c12.06-.174 19.078-10.849 25.288-10.116 6.198.732 13.315 3.574 13.315 3.574s43.074-57.68 52.985-67.448c9.912-9.769 15.637-20.965 2.025-24.403-13.613-3.438-42.043 2.669-56.302 15.193S92.271 219.81 92.271 219.81l-1.292 5.723v.012Z" stroke="#364E45" stroke-miterlimit="10" stroke-linecap="round"/><path d="M253.612 90.87s3.477-8.34 10.433-12.052c6.955-3.71 14.842-3.71 14.842-3.71l18.097-11.122s5.104-17.613 22.493-24.8c17.401-7.187 91.389-34.072 92.085-34.544.695-.459 9.278-4.642 9.278-3.934 0 .707 0 1.626-.696 3.475-.695 1.85-17.86 12.983-17.86 12.983s8.346-5.101 8.582-2.544c.236 2.544 0 3.24-3.018 5.101-3.018 1.862-8.583 5.338-9.738 6.033-1.155.695-5.564 4.865-9.042 5.337-3.477.472-12.296 1.154-12.991 1.85-.696.695-23.425 22.714-30.853 28.97-7.427 6.256-19.487 12.052-19.487 12.052s-16.234 17.39-28.53 26.426c-12.296 9.036-20.642 11.357-20.642 11.357l-.932.931s.696 8.118.696 9.037c0 .918 6.731 23.881 3.713 36.628-3.018 12.748-8.818 18.085-8.818 18.085s-.932 15.069-4.645 20.63c-3.714 5.56-13.924 12.288-21.103 17.613-7.191 5.337-8.123 17.154-8.582 18.544-.46 1.39-6.26 25.036-9.278 30.832-3.018 5.797-12.358 9.049-13.985 9.508-.845.236-9.477 13.343-17.811 12.71-11.104-.856-20.134-9.669-20.73-20.778a36.698 36.698 0 0 1 .249-6.864c1.85-14.138 7.452-20.009 7.452-20.009s11.886-46.41 10.731-58.698c-1.155-12.288-1.391-19.934 2.087-26.885 3.477-6.951 14.842-17.613 32.479-25.272 17.624-7.646 19.711-12.747 19.711-21.56 0-8.813 5.8-15.304 5.8-15.304l.013-.025Z" fill="#F2F7F5"/><mask id="e" style="mask-type:luminance" maskUnits="userSpaceOnUse" x="175" y="0" width="246" height="287"><path d="M253.612 90.87s3.477-8.34 10.433-12.052c6.955-3.71 14.842-3.71 14.842-3.71l18.097-11.122s5.104-17.613 22.493-24.8c17.401-7.187 91.389-34.072 92.085-34.544.695-.459 9.278-4.642 9.278-3.934 0 .707 0 1.626-.696 3.475-.695 1.85-17.86 12.983-17.86 12.983s8.346-5.101 8.582-2.544c.236 2.544 0 3.24-3.018 5.101-3.018 1.862-8.583 5.338-9.738 6.033-1.155.695-5.564 4.865-9.042 5.337-3.477.472-12.296 1.154-12.991 1.85-.696.695-23.425 22.714-30.853 28.97-7.427 6.256-19.487 12.052-19.487 12.052s-16.234 17.39-28.53 26.426c-12.296 9.036-20.642 11.357-20.642 11.357l-.932.931s.696 8.118.696 9.037c0 .918 6.731 23.881 3.713 36.628-3.018 12.748-8.818 18.085-8.818 18.085s-.932 15.069-4.645 20.63c-3.714 5.56-13.924 12.288-21.103 17.613-7.191 5.337-8.123 17.154-8.582 18.544-.46 1.39-6.26 25.036-9.278 30.832-3.018 5.797-12.358 9.049-13.985 9.508-.845.236-9.477 13.343-17.811 12.71-11.104-.856-20.134-9.669-20.73-20.778a36.698 36.698 0 0 1 .249-6.864c1.85-14.138 7.452-20.009 7.452-20.009s11.886-46.41 10.731-58.698c-1.155-12.288-1.391-19.934 2.087-26.885 3.477-6.951 14.842-17.613 32.479-25.272 17.624-7.646 19.711-12.747 19.711-21.56 0-8.813 5.8-15.304 5.8-15.304l.013-.025Z" fill="#fff"/></mask><g mask="url(#e)" fill="#D8EFE8"><path d="M279.471 136.424c-.087-.037-.137-.062-.137-.062s-1.006 15.056-3.515 25.085c-2.509 10.03-13.053 16.559-13.053 16.559l-5.528 15.056s-12.557 11.543-20.593 11.543c-8.035 0-9.042-6.529-9.042-6.529-7.564-6.429-23.983-10.861-34.615-8.353-1.677 13.144-6.31 33.041-8.707 42.884 4.484 2.396 11.675 4.655 22.233 3.612 13.886-1.39 25.61-5.895 31.523-8.539 1.055-4.233 3.105-9.806 7.452-13.033.77-.571 1.59-1.167 2.422-1.763-7.279 3.029-16.519 12.897-23.313 13.803-7.527 1.005-10.048-.497-9.539-3.513.497-3.016 10.955-1.105 14.557-2.507 3.614-1.403.496-2.011-7.03-3.016-7.527-1.006-6.024-4.01-6.024-4.01s12.234 1.006 14.556 0c2.335-1.005 18.581-5.014 26.108-11.543 7.527-6.529 8.036-20.58 8.036-20.58l5.788-2.892c.124-1.378.186-2.234.186-2.234s5.801-5.337 8.819-18.085c1.453-6.132.646-14.634-.584-21.895v.012ZM340.778 56.625c-14.507 6.28-17.401 4.344-17.401 4.344s1.453.969 3.54 3.004c2.087 2.048-.634 8.59-8.371 14.386-7.738 5.797-32.877 21.263-37.224 21.263-4.347 0-4.347-14.498-4.347-14.498-2.348 12.325-1.839 21.771-1.081 27.307l.708-.707s8.346-2.322 20.643-11.358c12.296-9.036 28.529-26.426 28.529-26.426s12.06-5.796 19.488-12.052c4.074-3.438 12.768-11.618 19.885-18.42-6.123 3.81-15.588 9.359-24.344 13.157h-.025Z"/></g><path d="M253.612 90.87s3.477-8.34 10.433-12.052c6.955-3.71 14.842-3.71 14.842-3.71l18.097-11.122s5.104-17.613 22.493-24.8c17.401-7.187 91.389-34.072 92.085-34.544.695-.459 9.278-4.642 9.278-3.934 0 .707 0 1.626-.696 3.475-.695 1.85-17.86 12.983-17.86 12.983s8.346-5.101 8.582-2.544c.236 2.544 0 3.24-3.018 5.101-3.018 1.862-8.583 5.338-9.738 6.033-1.155.695-5.564 4.865-9.042 5.337-3.477.472-12.296 1.154-12.991 1.85-.696.695-23.425 22.714-30.853 28.97-7.427 6.256-19.487 12.052-19.487 12.052s-16.234 17.39-28.53 26.426c-12.296 9.036-20.642 11.357-20.642 11.357l-.932.931s.696 8.118.696 9.037c0 .918 6.731 23.881 3.713 36.628-3.018 12.748-8.818 18.085-8.818 18.085s-.932 15.069-4.645 20.63c-3.714 5.56-13.924 12.288-21.103 17.613-7.191 5.337-8.123 17.154-8.582 18.544-.46 1.39-6.26 25.036-9.278 30.832-3.018 5.797-12.358 9.049-13.985 9.508-.845.236-9.477 13.343-17.811 12.71-11.104-.856-20.134-9.669-20.73-20.778a36.698 36.698 0 0 1 .249-6.864c1.85-14.138 7.452-20.009 7.452-20.009s11.886-46.41 10.731-58.698c-1.155-12.288-1.391-19.934 2.087-26.885 3.477-6.951 14.842-17.613 32.479-25.272 17.624-7.646 19.711-12.747 19.711-21.56 0-8.813 5.8-15.304 5.8-15.304l.013-.025Z" stroke="#364E45" stroke-miterlimit="10" stroke-linecap="round"/><path d="M271.038 170.931c-2.46 10.426-9.85 17.6-16.532 16.024-6.67-1.564-10.098-11.295-7.639-21.709 2.46-10.427 9.85-17.601 16.532-16.025 6.67 1.564 10.098 11.296 7.639 21.71Z" fill="#C4F756"/><path d="M228.796 214.659c-12.52 2.78-17.401-3.24-17.401-3.24s1.391 9.272 14.619 10.663" stroke="#364E45" stroke-linecap="round" stroke-linejoin="round"/><path d="M258.245 158.791s7.191 17.39 1.391 30.597c-5.801 13.219-14.147 18.308-29.921 20.865M243.166 214.883s-9.514 8.577-16.929 11.357c-7.415 2.78-13.215 7.646-19.487-.695" stroke="#364E45" stroke-miterlimit="10" stroke-linecap="round"/><path d="M317.862 64.209s5.801-3.935 9.042-.236c3.242 3.711-1.155 9.967-1.155 9.967M277.496 81.363s-2.322 11.357-2.782 18.78c-.46 7.422.931 12.511.931 12.511" stroke="#364E45" stroke-linecap="round" stroke-linejoin="round"/><path d="m222.884 165.643 13.886-7.373" stroke="#364E45" stroke-miterlimit="10" stroke-linecap="round"/><path d="M411.574 4.642c-.621.41-59.382 21.784-84.521 31.54 2.261.1 14.11 1.08 17.252 11.345 1.689 5.499 2 10.178 1.888 13.542 8.235-7.162 29.213-27.481 29.884-28.151.695-.696 9.514-1.39 12.991-1.85 3.478-.46 7.887-4.642 9.042-5.337 1.155-.695 6.732-4.17 9.738-6.033 3.006-1.861 3.242-2.544 3.018-5.101-.236-2.545-8.582 2.545-8.582 2.545s17.165-11.122 17.86-12.984c.696-1.85.696-2.78.696-3.475 0-.695-8.583 3.475-9.278 3.934l.012.025Z" fill="#C4F756" stroke="#364E45" stroke-linecap="round" stroke-linejoin="round"/><path d="m402.296 17.154-8.123 4.17" stroke="#364E45" stroke-linecap="round" stroke-linejoin="round"/><path d="M238.558 225.83c-2.596 1.018-5.862 2.371-9.005 3.861-6.682 3.177-16.221 6.678-27.66 7.621-7.551.633-13.985-2.743-17.488-5.126a619.285 619.285 0 0 1-1.589 6.392s-5.59 5.871-7.453 20.009a36.816 36.816 0 0 0-.248 6.864c.596 11.109 9.626 19.934 20.73 20.778 8.321.633 16.966-12.474 17.81-12.71 1.627-.46 10.968-3.712 13.986-9.508 3.018-5.797 8.818-29.442 9.278-30.832.223-.671.559-3.761 1.639-7.373v.024Z" fill="#44675B" stroke="#364E45" stroke-miterlimit="10" stroke-linecap="round"/><path d="M188.815 245.417s9.986-4.282 19.972-.707" stroke="#F2F7F5" stroke-width=".75" stroke-linecap="round" stroke-linejoin="round"/><path d="M209.78 233.228c-12.805 1.44-20.22-3.239-23.984-6.938a874.903 874.903 0 0 1-2.148 8.924c5.341 3.203 12.892 6.033 21.984 4.915 13.811-1.7 26.343-7.348 31.895-10.153.062-.285.112-.583.187-.894 0-.012 0-.037.012-.062a41.11 41.11 0 0 1 .745-2.917c.025-.062.038-.136.062-.198.1-.323.199-.658.311-.993.012-.05.037-.099.05-.149a29.955 29.955 0 0 1 1.341-3.364c-5.068 3.649-15.935 10.191-30.467 11.829h.012ZM170.88 151.778s-2.261 1.142 5.862-4.183c8.123-5.337 5.651 2.396 11.228-11.283 5.564-13.678 11.601-23.881 21.574-27.58 9.974-3.711 39.435 1.626 39.435 1.626l6.955 4.866-9.737 18.78s-7.192-3.935-15.079-.46c-7.886 3.476-12.06 7.646-11.128 11.358.931 3.711 8.346 13.914 8.346 13.914s-35.137-13.79-40.701-10.786c-5.565 3.016-22.518 9.16-23.438 9.619-.931.459 6.695-5.858 6.695-5.858l-.012-.013Z" fill="#C4F756" stroke="#364E45" stroke-miterlimit="10" stroke-linecap="round"/><path d="M192.504 140.93a111.227 111.227 0 0 0 3.813-6.008c6.036-10.203 18.096-14.609 18.096-14.609M215.282 131.447s-9.923 1.837-15.724 11.581" stroke="#364E45" stroke-miterlimit="10" stroke-linecap="round"/><path d="M208.836 164.588s-14.147-2.085-24.816 6.951c-10.669 9.036-9.514 18.78-9.514 18.78s-10.433 4.629-12.519 9.967c-2.087 5.337-2.547 9.731-2.547 9.731s-5.564 5.337-10.209 10.662c-4.645 5.325-8.583 6.256-9.514 13.207-.932 6.951-.46 24.105 4.645 41.035 5.105 16.918 8.583 24.341 9.974 27.357 1.391 3.016 13.451 18.308 15.538 18.78 2.086.459 4.173.931 5.8 0 1.627-.931 13.687-3.711 13.215-7.187-.459-3.475-1.391-4.406-1.85-5.101l-.46-.695s2.087-3.935.696-5.797c-1.392-1.849-2.547-2.085-5.105-4.406-2.546-2.321-3.938-3.017-6.956-3.017-3.018 0-6.26.236-6.26.236s-4.632-1.849-4.632-15.304 4.173-25.036 6.26-31.056c2.086-6.032 2.086-10.662 2.086-10.662s1.627 2.321 12.992-3.016c11.364-5.338 13.923-20.394 13.923-20.394l-16.705 2.545s11.128-.695 24.12-4.866c12.992-4.17 18.556-4.865 23.661-24.576" fill="#F2F7F5"/><mask id="f" style="mask-type:luminance" maskUnits="userSpaceOnUse" x="139" y="164" width="92" height="158"><path d="M208.836 164.588s-14.147-2.085-24.816 6.951c-10.669 9.036-9.514 18.78-9.514 18.78s-10.433 4.629-12.519 9.967c-2.087 5.337-2.547 9.731-2.547 9.731s-5.564 5.337-10.209 10.662c-4.645 5.325-8.583 6.256-9.514 13.207-.932 6.951-.46 24.105 4.645 41.035 5.105 16.918 8.583 24.341 9.974 27.357 1.391 3.016 13.451 18.308 15.538 18.78 2.086.459 4.173.931 5.8 0 1.627-.931 13.687-3.711 13.215-7.187-.459-3.475-1.391-4.406-1.85-5.101l-.46-.695s2.087-3.935.696-5.797c-1.392-1.849-2.547-2.085-5.105-4.406-2.546-2.321-3.938-3.017-6.956-3.017-3.018 0-6.26.236-6.26.236s-4.632-1.849-4.632-15.304 4.173-25.036 6.26-31.056c2.086-6.032 2.086-10.662 2.086-10.662s1.627 2.321 12.992-3.016c11.364-5.338 13.923-20.394 13.923-20.394l-16.705 2.545s11.128-.695 24.12-4.866c12.992-4.17 18.556-4.865 23.661-24.576" fill="#fff"/></mask><g mask="url(#f)"><path d="M186.79 207.56c-2.397-3.19 11.178-12.363 14.768-15.95 3.589-3.588-11.576 5.982-15.165 6.777-3.59.794-6.782-1.601-4.795-12.76 1.851-10.327 8.794-17.564 9.837-18.606-2.509 1.055-5.055 2.507-7.415 4.518-10.669 9.036-9.514 18.78-9.514 18.78s-10.433 4.642-12.519 9.967c-2.087 5.325-2.547 9.731-2.547 9.731s-5.564 5.337-10.209 10.662c-4.645 5.325-8.583 6.256-9.514 13.207-.932 6.951-.46 24.105 4.645 41.035 5.105 16.931 8.583 24.341 9.974 27.357 1.391 3.016 13.451 18.308 15.538 18.78 2.086.459 4.173.931 5.8 0 1.627-.931 13.687-3.711 13.215-7.187-.136-1.018-.31-1.799-.509-2.445-4.447.571-12.582 3.401-14.755 3.401-2.398 0-4.795-3.587-8.384-7.571-3.59-3.985-9.179-14.362-9.974-27.121-.795-12.76 4.794-24.726 4.794-30.709 0-5.982-7.178 7.982-5.589 1.999 1.59-5.983 7.987-14.759 12.768-17.142 4.795-2.395 10.371-3.984 12.371-7.981 2-3.984-7.179-1.191-3.987-4.381 3.192-3.19 23.947-7.262 30.728-11.172 6.782-3.909-17.152 0-19.549-3.189h-.013Z" fill="#D8EFE8"/></g><path d="M208.836 164.588s-14.147-2.085-24.816 6.951c-10.669 9.036-9.514 18.78-9.514 18.78s-10.433 4.629-12.519 9.967c-2.087 5.337-2.547 9.731-2.547 9.731s-5.564 5.337-10.209 10.662c-4.645 5.325-8.583 6.256-9.514 13.207-.932 6.951-.46 24.105 4.645 41.035 5.105 16.918 8.583 24.341 9.974 27.357 1.391 3.016 13.451 18.308 15.538 18.78 2.086.459 4.173.931 5.8 0 1.627-.931 13.687-3.711 13.215-7.187-.459-3.475-1.391-4.406-1.85-5.101l-.46-.695s2.087-3.935.696-5.797c-1.392-1.849-2.547-2.085-5.105-4.406-2.546-2.321-3.938-3.017-6.956-3.017-3.018 0-6.26.236-6.26.236s-4.632-1.849-4.632-15.304 4.173-25.036 6.26-31.056c2.086-6.032 2.086-10.662 2.086-10.662s1.627 2.321 12.992-3.016c11.364-5.338 13.923-20.394 13.923-20.394l-16.705 2.545s11.128-.695 24.12-4.866c12.992-4.17 18.556-4.865 23.661-24.576" stroke="#364E45" stroke-miterlimit="10" stroke-linecap="round"/><path d="m172.656 238.069-1.329-10.637" stroke="#364E45" stroke-linecap="round" stroke-linejoin="round"/><path d="M238.297 155.775c6.732-2.085 8.347-10.426 12.297-19.239 3.937-8.813 10.433-19.003 10.433-19.003s-9.514.459-19.947-3.24c-10.434-3.711-22.73-1.154-25.052 1.39-2.323 2.545-2.087-.695-1.627 7.187.459 7.882 3.477 19.239 6.26 23.186l4.409 6.256" fill="#F2F7F5"/><mask id="g" style="mask-type:luminance" maskUnits="userSpaceOnUse" x="214" y="112" width="48" height="44"><path d="M238.297 155.775c6.732-2.085 8.347-10.426 12.297-19.239 3.937-8.813 10.433-19.003 10.433-19.003s-9.514.459-19.947-3.24c-10.434-3.711-22.73-1.154-25.052 1.39-2.323 2.545-2.087-.695-1.627 7.187.459 7.882 3.477 19.239 6.26 23.186l4.409 6.256" fill="#fff"/></mask><g mask="url(#g)"><path d="M258.12 117.508c-3.601-.137-10.097-.758-17.028-3.228-10.433-3.711-22.729-1.154-25.052 1.391-2.322 2.544-2.086-.695-1.627 7.186.46 7.882 3.478 19.24 6.26 23.187.348.496.683.955.994 1.402l37.074-29.64-.621-.286v-.012Z" fill="#D8EFE8"/></g><path d="M238.297 155.775c6.732-2.085 8.347-10.426 12.297-19.239 3.937-8.813 10.433-19.003 10.433-19.003s-9.514.459-19.947-3.24c-10.434-3.711-22.73-1.154-25.052 1.39-2.323 2.545-2.087-.695-1.627 7.187.459 7.882 3.477 19.239 6.26 23.186l4.409 6.256" stroke="#364E45" stroke-miterlimit="10" stroke-linecap="round"/><path d="M236.683 142.097c4.297.037 8.396-.534 12.222-1.502.534-1.328 1.08-2.694 1.701-4.059 3.937-8.813 10.433-19.003 10.433-19.003s-9.514.459-19.947-3.24c-10.433-3.711-22.729-1.154-25.052 1.39-2.322 2.545-2.086-.695-1.627 7.187.236 4.034 1.143 8.986 2.348 13.393 3.8 3.09 9.961 5.759 19.909 5.846l.013-.012Z" stroke="#364E45" stroke-miterlimit="10" stroke-linecap="round"/><path d="m238.856 152.101-5.589-24.589" stroke="#364E45" stroke-linecap="round" stroke-linejoin="round"/><path d="M245.34 71.309s1.006-3.922 1.465-8.329c.46-4.406-10.122-12.213-21.027-11.283-10.905.931-6.956 11.594-8.347 15.069-1.391 3.475-11.824-.236-14.619 6.032-2.794 6.269 2.087 8.118 2.087 9.968 0 1.849-8.582 6.727-7.427 17.613 1.155 10.898 19.947 21.56 24.12 22.491 4.173.931 9.278-3.016 9.278-6.256s6.955-4.406 8.819-7.423c1.85-3.016-3.019-13.442-2.783-15.763.236-2.321 7.428-11.593 5.105-13.915-2.322-2.32 3.316-8.204 3.316-8.204h.013Z" fill="#44675B" stroke="#364E45" stroke-miterlimit="10" stroke-linecap="round"/><path d="M234.236 73.915s3.589-.397 3.589-8.378c0-7.98-11.575-5.983-13.165-2.793-1.602 3.19-.398 9.173-4.385 10.774-3.986 1.602-10.371 1.602-10.371 4.791v4.382" stroke="#F2F7F5" stroke-width=".75" stroke-linecap="round" stroke-linejoin="round"/><path d="M223.865 80.295s-14.768-.794-22.344 12.76M225.852 83.883s-9.973.397-15.165 7.174" stroke="#F2F7F5" stroke-width=".75" stroke-linecap="round" stroke-linejoin="round"/><path d="M242.881 72.786c.645-.856 9.228 8.043 9.563 9.049.323.955.634 2.68.808 3.661.086.484.347.894.757 1.167l5.999 4.109a1.796 1.796 0 0 1 .46 2.507l-2.087 2.991a1.805 1.805 0 0 0-.149 1.788c1.689 3.587 7.614 16.384 7.216 17.377-.459 1.154-1.391 2.321-2.546 2.78-1.155.459-22.506 7.646-25.052 7.882-1.962.174-6.682-7.882-8.769-11.618-.496-.906-1.639-1.154-2.521-.645-1.267.744-3.291 1.34-5.912.161-4.633-2.085-9.973-6.032-7.651-10.426 2.323-4.394 6.036-4.643 7.651-3.476 1.081.77 3.006 2.383 4.148 3.352a1.803 1.803 0 0 0 2.05.186l.981-.559c.981-.558 1.254-1.924.472-2.731l-.025-.024c-.435-.435-.869-1.564-.869-1.564s6.732-5.797 4.409-9.037c-2.323-3.24-8.583-8.117-7.887-10.662.696-2.544 9.974-5.796 13.923-5.796 1.528 0 4.559.173 5.043-.472h-.012Z" fill="#F2F7F5"/><mask id="h" style="mask-type:luminance" maskUnits="userSpaceOnUse" x="212" y="72" width="54" height="55"><path d="M242.881 72.786c.645-.856 9.228 8.043 9.563 9.049.323.955.634 2.68.808 3.661.086.484.347.894.757 1.167l5.999 4.109a1.796 1.796 0 0 1 .46 2.507l-2.087 2.991a1.805 1.805 0 0 0-.149 1.788c1.689 3.587 7.614 16.384 7.216 17.377-.459 1.154-1.391 2.321-2.546 2.78-1.155.459-22.506 7.646-25.052 7.882-1.962.174-6.682-7.882-8.769-11.618-.496-.906-1.639-1.154-2.521-.645-1.267.744-3.291 1.34-5.912.161-4.633-2.085-9.973-6.032-7.651-10.426 2.323-4.394 6.036-4.643 7.651-3.476 1.081.77 3.006 2.383 4.148 3.352a1.803 1.803 0 0 0 2.05.186l.981-.559c.981-.558 1.254-1.924.472-2.731l-.025-.024c-.435-.435-.869-1.564-.869-1.564s6.732-5.797 4.409-9.037c-2.323-3.24-8.583-8.117-7.887-10.662.696-2.544 9.974-5.796 13.923-5.796 1.528 0 4.559.173 5.043-.472h-.012Z" fill="#fff"/></mask><g mask="url(#h)"><path d="M231.802 89.716c2.322 3.24-4.41 9.037-4.41 9.037s.435 1.13.87 1.564l.025.024c.782.807.509 2.173-.472 2.731l-.982.559a1.8 1.8 0 0 1-2.049-.187c-1.155-.98-3.068-2.581-4.148-3.351-1.627-1.154-5.341-.93-7.651 3.476-2.311 4.406 3.018 8.341 7.651 10.426 2.62 1.179 4.645.583 5.912-.161.894-.522 2.024-.261 2.521.645 2.087 3.749 6.806 11.804 8.769 11.618 2.546-.236 23.897-7.423 25.052-7.882 1.155-.459 2.086-1.626 2.546-2.78 0 0-9.216 4.357-14.234-.162-5.018-4.518-11.551-11.034-13.563-14.05-2.012-3.016 2.174-9.682-2.012-16.062-4.186-6.38-11.725-6.132-11.725-6.132-.695 2.545 5.565 7.423 7.887 10.663l.013.024Z" fill="#D8EFE8"/></g><path d="M242.881 72.786c.645-.856 9.228 8.043 9.563 9.049.323.955.634 2.68.808 3.661.086.484.347.894.757 1.167l5.999 4.109a1.796 1.796 0 0 1 .46 2.507l-2.087 2.991a1.805 1.805 0 0 0-.149 1.788c1.689 3.587 7.614 16.384 7.216 17.377-.459 1.154-1.391 2.321-2.546 2.78-1.155.459-22.506 7.646-25.052 7.882-1.962.174-6.682-7.882-8.769-11.618-.496-.906-1.639-1.154-2.521-.645-1.267.744-3.291 1.34-5.912.161-4.633-2.085-9.973-6.032-7.651-10.426 2.323-4.394 6.036-4.643 7.651-3.476 1.081.77 3.006 2.383 4.148 3.352a1.803 1.803 0 0 0 2.05.186l.981-.559c.981-.558 1.254-1.924.472-2.731l-.025-.024c-.435-.435-.869-1.564-.869-1.564s6.732-5.797 4.409-9.037c-2.323-3.24-8.583-8.117-7.887-10.662.696-2.544 9.974-5.796 13.923-5.796 1.528 0 4.559.173 5.043-.472h-.012Z" stroke="#364E45" stroke-miterlimit="10" stroke-linecap="round"/><path d="M249.376 85.198s-4.955 0-6.371.708c-1.416.707-3.18 5.66-3.18 5.66l4.596-2.83 5.303-1.055 1.416-3.885-1.764 1.415v-.013Z" fill="#364E45"/><path d="m249.737 90.138-4.248 2.123h4.248" fill="#F2F7F5"/><path d="m249.737 90.138-4.248 2.123h4.248" stroke="#364E45" stroke-miterlimit="10" stroke-linecap="round"/><path d="M245.253 317.347s-12.06 3.475-22.965 10.203c-10.906 6.727-28.99 17.389-37.113 17.849-8.122.459-10.669-2.086-15.537-3.935-4.869-1.85-7.428 4.17-7.428 7.646 0 3.475 0 5.101-2.322 8.341-2.323 3.24-8.347 15.304-8.347 15.304s-3.242 12.984 0 13.443c3.242.459 5.341-3.935 12.06-9.508 6.732-5.561 17.401-17.613 26.903-18.544 9.514-.931 51.954-5.337 69.591-13.678 17.625-8.341 16.47-6.033 21.574-9.968 5.105-3.934 3.242-11.357.696-16.458-2.546-5.102-5.8-7.423-5.8-7.423" fill="#F2F7F5"/><mask id="i" style="mask-type:luminance" maskUnits="userSpaceOnUse" x="150" y="310" width="135" height="77"><path d="M245.253 317.347s-12.06 3.475-22.965 10.203c-10.906 6.727-28.99 17.389-37.113 17.849-8.122.459-10.669-2.086-15.537-3.935-4.869-1.85-7.428 4.17-7.428 7.646 0 3.475 0 5.101-2.322 8.341-2.323 3.24-8.347 15.304-8.347 15.304s-3.242 12.984 0 13.443c3.242.459 5.341-3.935 12.06-9.508 6.732-5.561 17.401-17.613 26.903-18.544 9.514-.931 51.954-5.337 69.591-13.678 17.625-8.341 16.47-6.033 21.574-9.968 5.105-3.934 3.242-11.357.696-16.458-2.546-5.102-5.8-7.423-5.8-7.423" fill="#fff"/></mask><g mask="url(#i)"><path d="M270.553 339.788c-2.087-.385-3.776-.931-3.776-1.7 0-2.011 6.024-2.011 9.042-6.02 3.019-4.01-.496-8.031-4.521-12.549-1.54-1.726-3.44-4.183-5.489-6.591l-20.544 4.406s-12.06 3.476-22.965 10.203c-10.905 6.728-28.989 17.39-37.112 17.849-8.123.459-10.669-2.085-15.538-3.935-4.869-1.849-7.427 4.171-7.427 7.646 0 3.476 0 5.102-2.323 8.341-2.323 3.24-8.347 15.305-8.347 15.305s-3.241 12.983 0 13.442c3.242.46 5.341-3.934 12.061-9.507 6.732-5.561 17.401-17.614 26.902-18.544 9.514-.931 51.955-5.338 69.592-13.679 4.632-2.197 7.949-3.649 10.445-4.667Z" fill="#D8EFE8"/></g><path d="M245.253 317.347s-12.06 3.475-22.965 10.203c-10.906 6.727-28.99 17.389-37.113 17.849-8.122.459-10.669-2.086-15.537-3.935-4.869-1.85-7.428 4.17-7.428 7.646 0 3.475 0 5.101-2.322 8.341-2.323 3.24-8.347 15.304-8.347 15.304s-3.242 12.984 0 13.443c3.242.459 5.341-3.935 12.06-9.508 6.732-5.561 17.401-17.613 26.903-18.544 9.514-.931 51.954-5.337 69.591-13.678 17.625-8.341 16.47-6.033 21.574-9.968 5.105-3.934 3.242-11.357.696-16.458-2.546-5.102-5.8-7.423-5.8-7.423" stroke="#364E45" stroke-miterlimit="10" stroke-linecap="round"/><path d="M283.346 320.537s-5.527-21.573-42.49-52.79c-24.878-21.002-35.957-25.495-50.104-12.983-14.147 12.511-11.364 20.629-6.26 28.511 5.105 7.882 25.984 22.95 43.149 30.596 17.165 7.646 34.566 18.308 44.303 17.39" fill="#F2F7F5"/><mask id="j" style="mask-type:luminance" maskUnits="userSpaceOnUse" x="180" y="247" width="104" height="85"><path d="M283.346 320.537s-5.527-21.573-42.49-52.79c-24.878-21.002-35.957-25.495-50.104-12.983-14.147 12.511-11.364 20.629-6.26 28.511 5.105 7.882 25.984 22.95 43.149 30.596 17.165 7.646 34.566 18.308 44.303 17.39" fill="#fff"/></mask><g mask="url(#j)"><path d="M255.723 304.972c-5.018-.497 4.012 9.532-6.533 7.025-10.545-2.507-47.197-33.625-54.737-43.654-6.197-8.267-.832-15.156 1.255-17.34-1.627 1.005-3.279 2.259-4.968 3.761-14.147 12.511-11.365 20.629-6.26 28.511 5.105 7.882 25.983 22.95 43.148 30.596 17.165 7.646 34.566 18.308 44.304 17.39l4.633-4.357c-.833-2.358-2.969-4.779-5.279-7.373-4.012-4.518-10.545-14.05-15.563-14.547v-.012Z" fill="#D8EFE8"/></g><path d="M283.346 320.537s-5.527-21.573-42.49-52.79c-24.878-21.002-35.957-25.495-50.104-12.983-14.147 12.511-11.364 20.629-6.26 28.511 5.105 7.882 25.984 22.95 43.149 30.596 17.165 7.646 34.566 18.308 44.303 17.39" stroke="#364E45" stroke-miterlimit="10" stroke-linecap="round"/><path d="M226.473 340.992c-2.347-5.176-1.776-10.997-.646-15.49a67.117 67.117 0 0 0-3.527 2.048c-10.905 6.727-28.989 17.389-37.112 17.849-8.123.459-10.669-2.086-15.538-3.935-4.869-1.849-7.427 4.171-7.427 7.646 0 3.475 0 5.102-2.323 8.341-2.323 3.24-8.347 15.305-8.347 15.305s-3.241 12.983 0 13.442c3.242.459 5.341-3.935 12.061-9.508 6.732-5.56 17.401-17.613 26.902-18.544 6.521-.633 28.542-2.904 47.409-6.963-3.851-1.477-8.831-4.419-11.464-10.191h.012Z" fill="#C4F756"/><mask id="k" style="mask-type:luminance" maskUnits="userSpaceOnUse" x="150" y="325" width="88" height="62"><path d="M226.473 340.992c-2.347-5.176-1.776-10.997-.646-15.49a67.117 67.117 0 0 0-3.527 2.048c-10.905 6.727-28.989 17.389-37.112 17.849-8.123.459-10.669-2.086-15.538-3.935-4.869-1.849-7.427 4.171-7.427 7.646 0 3.475 0 5.102-2.323 8.341-2.323 3.24-8.347 15.305-8.347 15.305s-3.241 12.983 0 13.442c3.242.459 5.341-3.935 12.061-9.508 6.732-5.56 17.401-17.613 26.902-18.544 6.521-.633 28.542-2.904 47.409-6.963-3.851-1.477-8.831-4.419-11.464-10.191h.012Z" fill="#fff"/></mask><g mask="url(#k)"><path opacity=".2" d="M226.473 340.992c-2.347-5.176-1.776-10.997-.646-15.49a67.117 67.117 0 0 0-3.527 2.048c-10.905 6.727-28.989 17.389-37.112 17.849-8.123.459-10.669-2.086-15.538-3.935-4.869-1.849-7.427 4.171-7.427 7.646 0 3.475 0 5.102-2.323 8.341-2.323 3.24-8.347 15.305-8.347 15.305s-3.241 12.983 0 13.442c3.242.459 5.341-3.935 12.061-9.508 6.732-5.56 17.401-17.613 26.902-18.544 6.521-.633 28.542-2.904 47.409-6.963-3.851-1.477-8.831-4.419-11.464-10.191h.012Z" fill="#000"/></g><path d="M226.473 340.992c-2.347-5.176-1.776-10.997-.646-15.49a67.117 67.117 0 0 0-3.527 2.048c-10.905 6.727-28.989 17.389-37.112 17.849-8.123.459-10.669-2.086-15.538-3.935-4.869-1.849-7.427 4.171-7.427 7.646 0 3.475 0 5.102-2.323 8.341-2.323 3.24-8.347 15.305-8.347 15.305s-3.241 12.983 0 13.442c3.242.459 5.341-3.935 12.061-9.508 6.732-5.56 17.401-17.613 26.902-18.544 6.521-.633 28.542-2.904 47.409-6.963-3.851-1.477-8.831-4.419-11.464-10.191h.012ZM186.206 280.172s50.738 32.446 65.617 37.857c14.88 5.412 11.501-4.729 11.501-4.729" stroke="#364E45" stroke-linecap="round" stroke-linejoin="round"/><path d="M231.541 343.71s14.209 1.353 23.673-7.435" stroke="#364E45" stroke-linecap="round" stroke-linejoin="round"/><path d="M228.411 162.018s-17.985-11.754-38.789-9.259c-20.804 2.495-45.533 23.757-61.555 41.941-16.023 18.197-87.254 117.446-87.254 117.446l-2.21-16.211a29.309 29.309 0 0 1 5.614-21.56l11.315-15.044s1.13-18.531 11.128-28.027c9.999-9.495 19.04-14.907 21.649-16.694 2.596-1.788 28.517-27.792 46.899-46.385 18.382-18.594 40.553-31.913 60.699-26.277 20.146 5.635 28.219 9.954 32.914 14.075 4.695 4.121 4.856 3.712 4.856 3.712l-5.254 2.296-.012-.013Z" fill="#C4F756" stroke="#364E45" stroke-miterlimit="10" stroke-linecap="round"/><path d="m106.318 206.132 4.186-4.704M55.544 259.319l49.048-51.573M174.842 149.991a42.808 42.808 0 0 0-3.962 1.787M230.684 161.509s-25.388-20.393-51.93-12.834" stroke="#364E45" stroke-miterlimit="10" stroke-linecap="round"/><path d="M186.579 308.074s2.087-3.934.696-5.796c-1.392-1.85-2.547-2.085-5.105-4.406-2.546-2.322-3.938-3.017-6.956-3.017-3.018 0-6.26.236-6.26.236s-4.645-1.849-4.645-15.304c0-9.521 2.087-18.085 4.049-24.428-3.117 1.862-7.539 3.724-13.327 4.27-7.626.708-12.408-3.14-14.979-6.268.721 6.64 2.074 14.125 4.31 21.56 5.105 16.918 8.583 24.341 9.974 27.357 1.391 3.016 13.451 18.308 15.538 18.78 2.086.471 4.173.931 5.8 0 1.627-.931 13.687-3.711 13.215-7.187-.459-3.475-1.391-4.406-1.85-5.101l-.46-.696Z" fill="#C4F756"/><mask id="l" style="mask-type:luminance" maskUnits="userSpaceOnUse" x="140" y="253" width="49" height="69"><path d="M186.579 308.074s2.087-3.934.696-5.796c-1.392-1.85-2.547-2.085-5.105-4.406-2.546-2.322-3.938-3.017-6.956-3.017-3.018 0-6.26.236-6.26.236s-4.645-1.849-4.645-15.304c0-9.521 2.087-18.085 4.049-24.428-3.117 1.862-7.539 3.724-13.327 4.27-7.626.708-12.408-3.14-14.979-6.268.721 6.64 2.074 14.125 4.31 21.56 5.105 16.918 8.583 24.341 9.974 27.357 1.391 3.016 13.451 18.308 15.538 18.78 2.086.471 4.173.931 5.8 0 1.627-.931 13.687-3.711 13.215-7.187-.459-3.475-1.391-4.406-1.85-5.101l-.46-.696Z" fill="#fff"/></mask><g mask="url(#l)"><path opacity=".2" d="M188.889 313.871c-.05-.372-.112-.695-.161-1.018-.025-.099-.038-.198-.062-.298-.05-.235-.1-.446-.149-.645-.05-.174-.087-.335-.137-.484-4.447.571-12.582 3.401-14.755 3.401-2.398 0-4.795-3.587-8.384-7.572-3.59-3.984-9.179-14.361-9.974-27.121-.472-7.646 1.329-14.994 2.869-20.952a32.69 32.69 0 0 1-3.105.447c-7.626.708-12.408-3.14-14.979-6.268.038.323.075.658.112.98.062.571.137 1.142.211 1.738.05.397.112.795.162 1.192.074.533.149 1.067.236 1.613.062.41.136.832.198 1.254a84.796 84.796 0 0 0 .51 2.904c.099.559.211 1.118.335 1.689l.261 1.253c.124.596.261 1.179.397 1.775.087.397.174.795.273 1.192.162.658.336 1.328.51 1.998.087.335.161.658.261.993.273 1.006.546 1.999.857 3.004 5.104 16.918 8.582 24.341 9.973 27.357.087.186.211.422.385.707.249.422.584.931.969 1.502a89.917 89.917 0 0 0 2.447 3.389c.186.248.385.509.583.769 4.124 5.412 9.788 12.115 11.166 12.413 2.087.459 4.174.931 5.801 0 .31-.174.981-.41 1.863-.708.298-.099.621-.198.956-.31 4.062-1.341 10.756-3.55 10.408-6.157l-.037-.037Z" fill="#000"/><path d="m185.25 303.941-2.919 2.433s2.161-.149 4.707 2.396" stroke="#364E45" stroke-linecap="round" stroke-linejoin="round"/></g><path d="M186.579 308.074s2.087-3.934.696-5.796c-1.392-1.85-2.547-2.085-5.105-4.406-2.546-2.322-3.938-3.017-6.956-3.017-3.018 0-6.26.236-6.26.236s-4.645-1.849-4.645-15.304c0-9.521 2.087-18.085 4.049-24.428-3.117 1.862-7.539 3.724-13.327 4.27-7.626.708-12.408-3.14-14.979-6.268.721 6.64 2.074 14.125 4.31 21.56 5.105 16.918 8.583 24.341 9.974 27.357 1.391 3.016 13.451 18.308 15.538 18.78 2.086.471 4.173.931 5.8 0 1.627-.931 13.687-3.711 13.215-7.187-.459-3.475-1.391-4.406-1.85-5.101l-.46-.696ZM367.718 66.096l-40.006 37.522M323.961 107.131l-6.471 6.082M77.963 303.817l-6.993 6.554M129.607 255.384l-46.043 43.17M172.904 389.71l-4.608 4.332M201.756 362.652l-24.17 22.665M6.198 324.968.62 330.206M59.245 275.219l-45.583 42.748M140.201 146.975l-6.993 6.553M191.833 98.554l-45.583 42.748M357.794 85.025l-58.625 54.986" stroke="#364E45" stroke-linecap="round" stroke-linejoin="round"/></g><defs><clipPath id="a"><path fill="#fff" d="M0 0h421v416H0z"/></clipPath></defs></svg>