<svg width="192" height="425" fill="none" xmlns="http://www.w3.org/2000/svg"><g clip-path="url(#a)"><path d="M138.8 83.662s8.809-16.237 24.675-19.409c15.861-3.177 18.679 10.238 21.148 13.765 2.469 3.528 7.051-4.233 14.807-5.293 7.755-1.061 11.982 1.766 13.042 8.115 1.06 6.355 5.642 4.589 9.165 2.472 3.523-2.116 8.46-4.588 13.392.706 4.937 5.294 5.991 5.65 8.46 4.588 2.469-1.06 6.346-4.944 10.929-.705L259 92.134H125.763s-.355-6 3.878-8.116c4.227-2.117 5.991 2.822 9.164-.356h-.005ZM30.374 151.872s3.079-5.671 8.615-6.777c5.543-1.111 6.524 3.578 7.384 4.805.86 1.233 2.463-1.477 5.17-1.85 2.708-.372 4.184.617 4.555 2.833.372 2.217 1.97 1.6 3.201.861 1.232-.738 2.957-1.599 4.677.245 1.725 1.85 2.091 1.972 2.957 1.6.86-.373 2.213-1.728 3.817-.245l1.597 1.478H25.82s-.122-2.094 1.354-2.833c1.476-.739 2.091.989 3.201-.122v.005ZM15.942 301.97s10.823-19.937 30.301-23.842c19.478-3.9 22.945 12.571 25.974 16.904 3.03 4.332 8.66-5.2 18.18-6.5 9.525-1.3 14.718 2.167 16.016 9.971 1.298 7.805 6.923 5.633 11.256 3.033 4.327-2.599 10.391-5.632 16.449.867 6.058 6.499 7.361 6.933 10.39 5.633 3.029-1.3 7.795-6.066 13.42-.867l5.625 5.2H-.074s-.433-7.372 4.76-9.972c5.193-2.599 7.362 3.467 11.256-.433v.006ZM187.112 217.756s5.153-9.493 14.429-11.354c9.276-1.855 10.923 5.988 12.366 8.049 1.442 2.066 4.122-2.477 8.66-3.094 4.532-.617 7.006 1.033 7.628 4.749.615 3.717 3.3 2.683 5.359 1.445 2.063-1.239 4.948-2.683 7.833.411s3.506 3.305 4.948 2.683c1.443-.622 3.712-2.889 6.391-.411l2.68 2.477h-77.917s-.205-3.51 2.269-4.749c2.474-1.239 3.506 1.65 5.359-.206h-.005Z" fill="#fff" stroke="#E4EEEA" stroke-linecap="round" stroke-linejoin="round"/><path d="M179.612 16.152h-49.486M179.612 76.359h-49.486M179.612 136.565h-49.117M179.612 196.772h-49.486M179.612 256.969h-49.486M179.612 317.176h-49.486M179.612 377.382h-49.486M130.126 3.307v419.408M180.143 3.307v419.408" stroke="#364E45" stroke-width="4" stroke-linecap="round" stroke-linejoin="round"/><path d="m125.734 352.422 2.196 7.261s2.859 4.399 5.273 5.726c2.415 1.318 14.069 3.745 14.514 5.062.435 1.318-1.098 2.2-2.414 2.863-1.316.664-9.676 4.844-13.851 5.508-4.175.664-6.599-.664-8.35-1.545-1.761-.882-3.74-1.318-3.74-1.318l3.077 6.608-2.641 1.099s-3.74-5.944-5.274-7.925c-1.543-1.981-2.196-7.043-1.316-10.342.881-3.299 1.099-4.399 1.316-5.508.218-1.109.218-5.281.218-5.281l10.992-2.199v-.009Z" fill="#F2F7F5" stroke="#364E45" stroke-linecap="round" stroke-linejoin="round"/><path d="M147.717 370.472c-.303-.901-5.832-2.314-10.074-3.546l1.724 3.764s-2.86 1.317-6.599 1.099c-3.74-.218-6.599-1.763-12.09-3.299-2.679-.749-5.567-.872-7.83-.806-.208 3.025.455 6.504 1.676 8.068 1.543 1.981 5.273 7.925 5.273 7.925l2.642-1.1-3.077-6.607s1.979.436 3.74 1.318c1.761.881 4.175 2.199 8.35 1.545 4.175-.664 12.535-4.844 13.851-5.508 1.316-.664 2.859-1.545 2.414-2.863v.01Z" fill="#017E5E" stroke="#364E45" stroke-linecap="round" stroke-linejoin="round"/><path d="M114.297 165.791s8.577 25.312 10.329 45.788c1.761 20.477 2.196 69.781 2.196 69.781l2.641 73.479s-3.739 2.645-8.795 3.526c-5.055.882-9.675 1.546-9.675 1.546l-3.077-67.753s-5.936-22.894-6.817-26.193c-.88-3.299-1.979-7.262-3.077-11.452-1.098-4.18-11.654-37.199-11.654-37.199s-3.957-9.47-5.718-15.85c-1.761-6.38 5.5-33.018 5.5-33.018l28.137-2.645.01-.01Z" fill="#AAE233" stroke="#364E45" stroke-linecap="round" stroke-linejoin="round"/><path d="M126.606 217.259 93.072 237.11l-6.335-19.826 39.869-.025Z" fill="#000" fill-opacity=".2"/><path d="m114.581 110.714-29.056-.806 11.399 49.352-1.76 11.897 18.3-.967-1.771-19.936 2.888-39.54Z" fill="#fff" stroke="#364E45" stroke-linecap="round" stroke-linejoin="round"/><path d="m123.414 123.569 2.139 23.747 17.468-9.11 3.834 12.522s-18.3 12.059-21.993 13.822c-3.692 1.763-5.775 1.773-7.062 1.128-1.288-.644-.966-6.911-.966-6.911l6.58-35.198Z" fill="#AAE233" stroke="#364E45" stroke-linecap="round" stroke-linejoin="round"/><path d="m140.465 285.513-.436 5.063s1.761 7.043 6.154 14.087c4.393 7.043 10.329 9.024 10.111 10.342-.218 1.318-.435 1.981-7.915 1.545-7.479-.436-15.166-1.763-16.047-3.299-.88-1.545-3.957-7.707-5.273-9.024l-1.316-1.318-.436 11.006-3.076-.664s-.663-7.707 0-12.323c.662-4.627 1.543-6.162 3.294-9.025l1.761-2.863.881-5.508 12.307 1.981h-.009Z" fill="#F2F7F5" stroke="#364E45" stroke-linecap="round" stroke-linejoin="round"/><path d="m148.36 307.648-5.481 3.186s-5.936-3.081-9.458-7.044c-2.651-2.986-6.798-8.219-8.682-10.617-1.259 2.152-1.978 3.858-2.528 7.754-.662 4.626 0 12.324 0 12.324l3.077.664.436-11.007 1.316 1.318c1.316 1.318 4.393 7.489 5.273 9.025.881 1.545 8.578 2.863 16.047 3.299 7.48.436 7.697-.218 7.915-1.545.189-1.109-3.986-2.702-7.934-7.366l.019.009Z" fill="#017E5E" stroke="#364E45" stroke-linecap="round" stroke-linejoin="round"/><path d="M92.54 185.605s28.801 3.744 42.434 9.47c13.633 5.726 34.12 7.944 33.902 13.452-.217 5.508-15.46 50.717-17.41 59.78-2.679 12.409-4.838 24.297-4.838 24.297s-6.817 1.318-13.188-1.1c-6.372-2.417-8.578-3.299-8.578-3.299s2.263-31.388 3.835-39.389c3.749-19.045 12.042-28.164 12.042-28.164s-37.415 2.18-48.634.862c-11.21-1.317-16.047-4.18-16.492-7.489-.435-3.299-1.543-12.324 2.414-20.476 3.958-8.144 11.21-9.025 14.514-7.925v-.019Z" fill="#AAE233" stroke="#364E45" stroke-linecap="round" stroke-linejoin="round"/><path d="m133.705 194.563-13.662-31.283s5.615-38.744 6.741-46.613c1.127-7.877-6.419-8.039-9.628-8.2-3.21-.161-25.685-.322-25.685-.322S64.659 98.343 62.415 98.02c-2.243-.322-8.189 1.45-8.189 1.45l-10.594-3.213L66.27 76.482l-6.42-11.252S19.236 92.398 18.11 94.806c-1.128 2.408 4.818 4.825 13.642 11.736 8.823 6.911 31.147 21.538 31.147 21.538l12.365 34.403s-13.32 27.169-18.14 33.757c-4.819 6.589 0 14.305 8.19 24.108 8.189 9.802 12.525 9.006 12.525 9.006s.805-1.925 1.77-5.622c.966-3.697 21.349-61.401 21.349-65.743 0-4.342-11.881-46.451-11.881-46.451s11.72 0 15.895 1.289c4.176 1.289 5.302 3.375 5.302 3.375s-1.448 39.701-1.287 41.797c.104 1.403 5.898 20.163 9.666 32.26 5.481 1.241 10.859 2.701 15.072 4.332l-.019-.029Z" fill="#AAE233" stroke="#364E45" stroke-linecap="round" stroke-linejoin="round"/><path d="M114.278 112.922s1.552 18.202-.512 27.767c-2.063 9.565-3.597 15.68-3.597 15.68M56.508 103.158l6.419 22.875-8.73-19.794" stroke="#364E45" stroke-linecap="round" stroke-linejoin="round"/><path d="M43.632 96.247s-9.97 3.308-10.745 3.564l10.745-3.564Z" fill="#AAE233"/><path d="M43.632 96.247s-9.97 3.308-10.745 3.564M67.291 187.738l14.637 9.508.511-4.37-12.07-7.451M79.353 104.959s0 11.054 6.419 24.165c6.418 13.11 12.837 23.14 12.837 23.14" stroke="#364E45" stroke-linecap="round" stroke-linejoin="round"/><path d="M89 54.83s-5.32-3.195-9.581 2.133c-4.26 5.328-2.339 11.082-2.765 15.556-.426 4.475-9.155 5.12-5.112 17.263 4.043 12.144 11.067 16.628 16.388 15.14 5.32-1.489 8.937 1.061 17.24 4.047 8.303 2.987 13.842 4.048 17.884.854 4.043-3.195 2.556-8.741 10.641-6.399 8.086 2.341 12.138 6.399 16.815 2.133 4.686-4.266 4.042-8.314 9.581-8.096 5.538.209 12.771 3.413 18.736 1.915 5.964-1.498 9.789-10.447 7.45-13.642-2.338-3.194-4.042-4.048-4.042-2.768 0 1.28 2.556 2.56.208 4.048-2.338 1.488-3.19 2.56-5.112-2.768-1.913-5.328 0-12.788-9.155-19.822-9.155-7.035-18.31-6.4-24.483-3.195-6.173 3.195-15.536 2.768-23.205-5.546-7.668-8.314-16.814-9.376-22.778-7.46-5.965 1.914-8.729 6.607-8.729 6.607H89Z" fill="#44675B" stroke="#364E45" stroke-linecap="round" stroke-linejoin="round"/><path d="m108.853 95.385-3.276 34.525-.624 4.162s-4.024-6.172-5.16-8.447c-1.136-2.265-2.017-4.541-2.017-4.541l1.638-6.55-9.183-6.172-1.382-7.688s2.64 2.901 7.554 1.138c4.905-1.763 12.46-6.427 12.46-6.427h-.01Z" fill="#F2F7F5" stroke="#364E45" stroke-linecap="round" stroke-linejoin="round"/><path d="m105.132 100.2-14.333 9.243-.947-6.854 15.28-2.389Z" fill="#263238" stroke="#364E45" stroke-linecap="round" stroke-linejoin="round"/><path d="M84.91 67.618s-1.468 8.722-2.083 12.163c-.615 3.441-1.354 10.56-.37 13.262.985 2.702 7.48 12.409 10.301 12.533 2.822.123 13.984-5.404 15.338-7.366 1.353-1.963 2.329-7.13 2.329-7.13s.738 1.233 2.328-.492c1.591-1.716 2.576-7.243 2.576-7.243s-4.658-2.578-9.572-8.105c-4.904-5.527-5.642-7.489-9.818-10.068-4.175-2.578-9.448-.739-11.039 2.456l.01-.01Z" fill="#F2F7F5" stroke="#364E45" stroke-linecap="round" stroke-linejoin="round"/><path d="m85.544 72.434 5.794.569M97.69 73.373s3.551-2.806 6.912 1.687M87.362 83.706a4.784 4.784 0 0 0 4.781-4.788 4.784 4.784 0 0 0-4.781-4.787 4.784 4.784 0 0 0-4.781 4.787 4.784 4.784 0 0 0 4.781 4.787ZM105.151 80.634a5.397 5.397 0 1 0-10.792 0 5.397 5.397 0 1 0 10.792 0Z" stroke="#364E45" stroke-linecap="round" stroke-linejoin="round"/><path d="M88.715 78.121c0 .844-.435 1.536-.984 1.536-.549 0-.984-.692-.984-1.535 0-.844.435-1.536.984-1.536.549 0 .984.692.984 1.535ZM99.877 79.657c0 .844-.435 1.536-.984 1.536-.549 0-.984-.692-.984-1.536 0-.843.435-1.535.984-1.535.55 0 .984.692.984 1.535Z" fill="#263238"/><path d="M92.399 81.25s-.37 1.47-2.083 2.579c-1.714 1.11-4.052 1.356-3.437 2.332.616.986 2.699 1.962 3.93 1.716M92.153 78.918s.984-1.355 2.082 0M105.151 80.633l10.187 2.702M92.153 91.327s5.15.617 7.356-3.071" stroke="#364E45" stroke-linecap="round" stroke-linejoin="round"/><path d="M60.778 66.764s5.49-3.697 6.958-4.066c1.468-.37 17.79-.247 18.765-.124.984.124 13.49 6.883 13.49 6.883s.616.986-.86 1.355c-1.468.37-2.822-.246-5.644-.862-2.82-.616-7.848-1.233-7.848-1.233s-2.821.493-3.19 2.579c-.37 2.085.984 3.318.984 3.318l-.492 2.455s-1.714-.493-4.412-2.209c-2.698-1.716-6.75-4.057-7.971-4.057-1.222 0-6.06 2.465-6.06 2.465l-3.73-6.504h.01Z" fill="#F2F7F5" stroke="#364E45" stroke-linecap="round" stroke-linejoin="round"/><path d="M94.236 66.14s6.996 1.838 6.996 2.701-1.354 1.11-4.535 1.11-10.054-2.58-10.054-2.58l-4.289-.37s2.083-2.331 4.412-2.454c2.329-.124 7.479 1.592 7.479 1.592h-.01Z" fill="#F2F7F5" stroke="#364E45" stroke-linecap="round" stroke-linejoin="round"/><path d="M76.077 63.438s10.055-.494 11.285-.124c1.231.37 6.997 1.356 8.587 1.84 1.59.492 3.683-.37 3.314.615-.37.986-2.575 1.356-4.289 1.47-1.714.123-7.602-.986-7.602-.986s-4.535 1.47-8.833 2.332c-4.299.863-10.178-1.716-10.055-2.209" fill="#F2F7F5"/><path d="M76.077 63.438s10.055-.494 11.285-.124c1.231.37 6.997 1.356 8.587 1.84 1.59.492 3.683-.37 3.314.615-.37.986-2.575 1.356-4.289 1.47-1.714.123-7.602-.986-7.602-.986s-4.535 1.47-8.833 2.332c-4.299.863-10.178-1.716-10.055-2.209" stroke="#364E45" stroke-linecap="round" stroke-linejoin="round"/><path d="m105.577 129.91 5.756-15.054-3.966-3.536-1.79 18.59ZM111.333 114.856l3.977 11.386-7.082-2.787 3.105-8.599ZM100.796 114.165l.133 13.158-5.68-6.342 5.547-6.816Z" fill="#fff" stroke="#364E45" stroke-linecap="round" stroke-linejoin="round"/><path d="m100.796 114.164-8.568 10.987-7.185-17.774 2.897-2.456 12.856 9.243Z" fill="#fff" stroke="#364E45" stroke-linecap="round" stroke-linejoin="round"/><path d="M143.437 140.063s3.465-2.597 4.393-3.706c.928-1.11 2.036-7.234 4.071-7.423 2.036-.19 3.333.559 3.333.559s3.152-.739 3.891-.37c.738.37 1.666.74 1.666.74s1.108-.19 1.666 0c.559.189 1.487.929 2.225 2.228.739 1.298.189 4.455.189 4.455s1.487-1.109 2.405-1.668c.928-.56 4.261 0 2.036 1.668-2.225 1.669-4.071 3.157-5.747 4.825-1.666 1.669-10.187 2.788-10.187 2.788l-7.356 3.896-2.594-7.973.009-.019Z" fill="#F2F7F5" stroke="#364E45" stroke-linecap="round" stroke-linejoin="round"/><path d="M164.881 136.546s-2.954 2.247-5.823 2.73l5.823-2.73Z" fill="#F2F7F5"/><path d="M164.881 136.546s-2.954 2.247-5.823 2.73" stroke="#364E45" stroke-linecap="round" stroke-linejoin="round"/><path d="M162.4 137.673s.635-1.279.483-2.549l-.483 2.549Z" fill="#F2F7F5"/><path d="M162.4 137.673s.635-1.279.483-2.549" stroke="#364E45" stroke-linecap="round" stroke-linejoin="round"/></g><defs><clipPath id="a"><path fill="#fff" d="M0 0h192v425H0z"/></clipPath></defs></svg>