<svg width="54" height="54" fill="none" xmlns="http://www.w3.org/2000/svg"><path d="M30.737 2.531c3.115 0 6.202 1.03 8.692 2.897l2.663 1.997c.633.476.761 1.374.286 2.007-.476.634-4.509 4.419-6.088 2.84l-1.172-.832c-1.322-.938-2.758-1.434-4.381-1.434a3.737 3.737 0 1 1 0-7.475Z" fill="#137560"/><path d="M23.263 2.531a14.575 14.575 0 0 0-8.692 2.897L11.91 7.425a1.434 1.434 0 0 0-.287 2.007c.476.634 4.51 4.419 6.089 2.84l1.171-.832c1.323-.938 2.758-1.434 4.381-1.434a3.737 3.737 0 1 0 0-7.475Z" fill="#B2E9D5"/><path d="M23.263 51.469a14.574 14.574 0 0 1-8.692-2.897c-1.388-1.04-2.662-1.997-2.662-1.997a1.434 1.434 0 0 1-.287-2.007c.476-.634 4.51-4.419 6.089-2.84l1.171.832c1.323.938 2.758 1.434 4.381 1.434a3.737 3.737 0 1 1 0 7.475Z" fill="#137560"/><path d="M30.737 51.469c3.115 0 6.202-1.03 8.692-2.897 1.389-1.04 2.663-1.997 2.663-1.997a1.434 1.434 0 0 0 .286-2.007c-.476-.634-4.509-4.419-6.088-2.84l-1.172.832c-1.322.938-2.758 1.434-4.381 1.434a3.737 3.737 0 1 0 0 7.475Z" fill="#B2E9D5"/><path d="M51.469 23.262c0-3.114-1.03-6.201-2.897-8.691-1.04-1.389-1.997-2.663-1.997-2.663a1.434 1.434 0 0 0-2.007-.286c-.634.476-4.419 4.509-2.84 6.088l.832 1.172c.938 1.322 1.434 2.758 1.434 4.38a3.737 3.737 0 1 0 7.475 0Z" fill="#137560"/><path d="M51.469 30.737c0 3.115-1.03 6.202-2.897 8.692-1.04 1.389-1.997 2.663-1.997 2.663a1.434 1.434 0 0 1-2.007.286c-.634-.476-4.419-4.509-2.84-6.088l.832-1.172c.938-1.322 1.434-2.758 1.434-4.381a3.737 3.737 0 1 1 7.475 0ZM2.531 23.262c0-3.114 1.03-6.201 2.897-8.691l1.997-2.663a1.434 1.434 0 0 1 2.007-.286c.634.476 4.419 4.509 2.84 6.088l-.832 1.172c-.938 1.322-1.434 2.758-1.434 4.38a3.737 3.737 0 1 1-7.475 0Z" fill="#B2E9D5"/><path d="M2.531 30.737c0 3.115 1.03 6.202 2.897 8.692l1.997 2.663a1.434 1.434 0 0 0 2.007.286c.634-.476 4.419-4.509 2.84-6.088l-.832-1.172c-.938-1.322-1.434-2.758-1.434-4.381a3.737 3.737 0 1 0-7.475 0Z" fill="#137560"/><path d="M12.796 18.838c-3.33 0-6.04-2.71-6.04-6.042 0-3.33 2.71-6.04 6.04-6.04a6.048 6.048 0 0 1 6.042 6.04 6.048 6.048 0 0 1-6.042 6.042ZM41.203 18.838a6.048 6.048 0 0 1-6.04-6.042c0-3.33 2.71-6.04 6.04-6.04 3.331 0 6.041 2.71 6.041 6.04a6.048 6.048 0 0 1-6.04 6.042ZM12.796 47.244c-3.33 0-6.04-2.71-6.04-6.04 0-3.331 2.71-6.041 6.04-6.041a6.048 6.048 0 0 1 6.042 6.04c0 3.331-2.71 6.041-6.042 6.041ZM41.203 47.244a6.048 6.048 0 0 1-6.04-6.04c0-3.331 2.71-6.041 6.04-6.041 3.331 0 6.041 2.71 6.041 6.04 0 3.331-2.71 6.041-6.04 6.041Z" fill="#fff"/><path d="M27 36.94c-.343 0-.684-.13-.945-.39l-7.13-7.109a6.352 6.352 0 0 1 0-8.993c2.192-2.185 5.595-2.444 8.075-.776 2.479-1.668 5.883-1.41 8.075.776a6.352 6.352 0 0 1 0 8.993l-7.131 7.11a1.332 1.332 0 0 1-.944.39Z" fill="url(#a)"/><defs><linearGradient id="a" x1="17.06" y1="24.782" x2="36.72" y2="30.374" gradientUnits="userSpaceOnUse"><stop offset=".165" stop-color="#C4F756"/><stop offset="1" stop-color="#9ED42A"/></linearGradient></defs></svg>