<svg width="44" height="44" fill="none" xmlns="http://www.w3.org/2000/svg"><g filter="url(#a)"><rect width="44" height="44" rx="22" fill="#E4EEEA"/><path fill-rule="evenodd" clip-rule="evenodd" d="M22 10c-6.629 0-12 5.372-12 12s5.371 12 12 12c6.626 0 12-5.372 12-12s-5.374-12-12-12Zm.59 6.163h1.053v13.822H26V14h-3.422c-3.447 0-5.265 2.104-5.265 5.186 0 2.458.992 3.911 2.758 5.407L17 30h2.557l3.422-6.044-1.19-.948c-1.442-1.157-2.144-2.06-2.144-3.985 0-1.704 1.015-2.86 2.945-2.86Z" fill="#FC3F1D"/></g><defs><filter id="a" x="-10" y="-10" width="64" height="64" filterUnits="userSpaceOnUse" color-interpolation-filters="sRGB"><feFlood flood-opacity="0" result="BackgroundImageFix"/><feGaussianBlur in="BackgroundImageFix" stdDeviation="5"/><feComposite in2="SourceAlpha" operator="in" result="effect1_backgroundBlur_2039_16066"/><feBlend in="SourceGraphic" in2="effect1_backgroundBlur_2039_16066" result="shape"/></filter></defs></svg>