<svg width="64" height="64" fill="none" xmlns="http://www.w3.org/2000/svg"><g clip-path="url(#a)"><path d="M46.103 46.339C32.507 59.935 15.056 64.527 7.125 56.596c-7.931-7.93-3.339-25.382 10.257-38.978S48.43-.571 56.36 7.36c7.931 7.931 3.34 25.383-10.257 38.979Z" fill="#F2F7F5"/><g clip-path="url(#b)" stroke="#01A572" stroke-width="1.5" stroke-miterlimit="10" stroke-linecap="round" stroke-linejoin="round"><path d="M7.756 41.41A25.92 25.92 0 0 1 6 32c0-3.318.622-6.491 1.756-9.41M22.59 7.756A25.92 25.92 0 0 1 32 6c3.318 0 6.491.622 9.41 1.756M56.243 22.59A25.92 25.92 0 0 1 58 32a25.92 25.92 0 0 1-1.756 9.41M41.41 56.243A25.92 25.92 0 0 1 32 58a25.92 25.92 0 0 1-9.41-1.756m4.499-12.853-.098-1.238a7.834 7.834 0 0 0-2.986-5.556A12.98 12.98 0 0 1 19 26.347c0-7.18 5.82-13.001 13-13.001 2.955 0 5.68.986 7.864 2.647m2.944 3.128A12.925 12.925 0 0 1 45 26.346a12.98 12.98 0 0 1-5.005 10.251 7.832 7.832 0 0 0-2.986 5.556l-.098 1.238M26.931 44H37.07c1.066 0 1.931.895 1.931 2s-.864 2-1.931 2H26.93C25.865 48 25 47.105 25 46s.865-2 1.931-2Z"/><path d="M36.21 47.93v2.035c0 1.124-.887 2.035-1.981 2.035H29.77c-1.094 0-1.98-.911-1.98-2.035V47.93M32 43.86v-8.536h-.743c-1.094 0-1.98-.911-1.98-2.035s.886-2.035 1.98-2.035H32v-4.9m0 0h-4.519v-.764c0-1.124-.887-2.035-1.981-2.035s-1.981.911-1.981 2.035v.763H19m13 0v-4.9h.743c1.094 0 1.98-.912 1.98-2.035 0-1.124-.886-2.035-1.98-2.035H32V13m0 13.353h4.519v.763c0 1.124.887 2.035 1.981 2.035s1.981-.91 1.981-2.035v-.763H45M8 9a4 4 0 1 0 0-8 4 4 0 0 0 0 8ZM8.695 18h5.032c.704 0 1.273-.544 1.273-1.216v-3.891C15 10.743 13.177 9 10.927 9H5.073C2.823 9 1 10.742 1 12.893v3.89C1 17.457 1.57 18 2.272 18h2.001M56 9a4 4 0 1 0 0-8 4 4 0 0 0 0 8ZM63 16.784v-3.892C63 10.742 61.177 9 58.927 9h-5.854C50.823 9 49 10.742 49 12.892v3.892c0 .671.57 1.216 1.273 1.216h11.454C62.43 18 63 17.455 63 16.784ZM8 54a4 4 0 1 0 0-8 4 4 0 0 0 0 8ZM15 61.784v-3.892C15 55.742 13.177 54 10.927 54H5.073C2.823 54 1 55.742 1 57.892v3.892C1 62.455 1.57 63 2.273 63h11.454C14.43 63 15 62.455 15 61.784ZM56 54a4 4 0 1 0 0-8 4 4 0 0 0 0 8ZM58.825 63h2.902c.704 0 1.273-.544 1.273-1.216V57.89C63 55.742 61.177 54 58.927 54h-5.854C50.823 54 49 55.742 49 57.891v3.893c0 .672.57 1.216 1.273 1.216h4.13"/></g></g><defs><clipPath id="a"><path fill="#fff" d="M0 0h64v64H0z"/></clipPath><clipPath id="b"><path fill="#fff" d="M0 0h64v64H0z"/></clipPath></defs></svg>