<svg width="64" height="64" fill="none" xmlns="http://www.w3.org/2000/svg"><g clip-path="url(#a)"><path d="M46.103 46.339C32.507 59.935 15.056 64.527 7.125 56.596c-7.931-7.93-3.339-25.382 10.257-38.978S48.43-.571 56.36 7.36c7.931 7.931 3.34 25.383-10.257 38.979Z" fill="#F2F7F5"/><path d="M53.476 38.028h-.183a2.364 2.364 0 0 1-1.677-.69l-4.832-4.813a1.575 1.575 0 0 0-1.72-.339 1.57 1.57 0 0 0-.97 1.452v3.604a.79.79 0 0 1-.792.786H30.619c-3.045 0-5.523 2.468-5.523 5.502v6.68h-8.454a.787.787 0 0 0-.556 1.342c.148.148.348.23.556.23h8.454v3.144H6.414a.787.787 0 0 0-.556 1.342c.148.147.348.23.556.23h18.684c0 3.034 2.477 5.502 5.523 5.502h22.856C56.522 62 59 59.532 59 56.498V43.53c0-3.034-2.478-5.502-5.524-5.502Zm3.95 18.47c0 2.167-1.772 3.93-3.95 3.93H30.621c-2.178 0-3.95-1.763-3.95-3.93V43.53c0-2.167 1.772-3.93 3.95-3.93h12.682a2.367 2.367 0 0 0 2.366-2.358l.004-3.603 4.833 4.811a3.92 3.92 0 0 0 2.788 1.15h.183c2.178 0 3.95 1.763 3.95 3.93l-.002 12.968ZM25.278 14.09a4.69 4.69 0 0 0 1.306-3.248c0-2.6-2.117-4.716-4.72-4.716a4.723 4.723 0 0 0-4.722 4.716c0 1.26.499 2.401 1.306 3.248-2.534.492-4.454 2.725-4.454 5.398 0 1.3 1.06 2.358 2.361 2.358h11.016a2.362 2.362 0 0 0 2.361-2.358c0-2.673-1.92-4.905-4.454-5.398Zm-3.415-6.392a3.149 3.149 0 0 1 3.148 3.144 3.149 3.149 0 0 1-3.148 3.144 3.149 3.149 0 0 1-3.147-3.144 3.149 3.149 0 0 1 3.147-3.144Zm5.508 12.576H16.356a.788.788 0 0 1-.787-.786 3.937 3.937 0 0 1 3.935-3.93h4.72a3.937 3.937 0 0 1 3.935 3.93.788.788 0 0 1-.787.786Z" fill="#01A572"/><path d="M45.464 50.118a4.69 4.69 0 0 0 1.306-3.248c0-2.6-2.118-4.716-4.722-4.716a4.723 4.723 0 0 0-4.72 4.716c0 1.26.498 2.401 1.305 3.248-2.534.493-4.453 2.725-4.453 5.398 0 1.3 1.059 2.358 2.36 2.358h11.017a2.362 2.362 0 0 0 2.36-2.358c0-2.673-1.92-4.905-4.453-5.398Zm-3.416-6.392a3.149 3.149 0 0 1 3.148 3.144 3.149 3.149 0 0 1-6.295 0 3.149 3.149 0 0 1 3.147-3.144Zm5.509 12.576H36.54a.788.788 0 0 1-.787-.786 3.937 3.937 0 0 1 3.935-3.93h4.721a3.937 3.937 0 0 1 3.934 3.93.787.787 0 0 1-.786.786ZM58.285 8.288a.785.785 0 0 0-.787-.786H38.815A5.511 5.511 0 0 0 33.307 2H10.508A5.511 5.511 0 0 0 5 7.502V20.47a5.511 5.511 0 0 0 5.508 5.502h.184c.621 0 1.229.251 1.668.69l4.818 4.812a1.569 1.569 0 0 0 1.714.34 1.57 1.57 0 0 0 .972-1.452v-3.604c0-.433.354-.786.787-.786h12.656a5.511 5.511 0 0 0 5.508-5.502v-6.68h8.454a.787.787 0 0 0 .556-1.342.788.788 0 0 0-.556-.23h-8.454V9.073h18.683a.787.787 0 0 0 .787-.786ZM37.241 20.47a3.937 3.937 0 0 1-3.934 3.93H20.65a2.362 2.362 0 0 0-2.36 2.358v3.604l-4.818-4.811a3.908 3.908 0 0 0-2.782-1.151h-.183a3.937 3.937 0 0 1-3.934-3.93V7.502a3.937 3.937 0 0 1 3.934-3.93h22.799a3.937 3.937 0 0 1 3.934 3.93V20.47Z" fill="#01A572"/><path d="M41.963 16.933a.787.787 0 1 0 0 1.572h13.175a.787.787 0 1 0 0-1.572H41.963ZM8.775 45.495a.787.787 0 0 0-.556 1.342c.147.147.347.23.556.23H21.95a.787.787 0 0 0 .556-1.342.787.787 0 0 0-.556-.23H8.775Z" fill="#01A572"/></g><defs><clipPath id="a"><path fill="#fff" d="M0 0h64v64H0z"/></clipPath></defs></svg>