<svg width="64" height="64" fill="none" xmlns="http://www.w3.org/2000/svg"><g clip-path="url(#a)"><path d="M46.103 46.339C32.507 59.935 15.056 64.527 7.125 56.596c-7.931-7.93-3.339-25.382 10.257-38.978S48.43-.571 56.36 7.36c7.931 7.931 3.34 25.383-10.257 38.979Z" fill="#F2F7F5"/><path d="M57.765 10.3 47.911.239A.8.8 0 0 0 47.344 0H21.52c-3.916 0-7.102 3.23-7.102 7.2v29.251H8.184C6.98 36.451 6 37.444 6 38.665v12.728c0 1.22.98 2.214 2.184 2.214h6.233V56.8c0 3.97 3.186 7.2 7.102 7.2h29.379C54.814 64 58 60.77 58 56.8V10.875a.818.818 0 0 0-.235-.574Zm-9.62-7.528 7.121 7.29h-6.32a.809.809 0 0 1-.8-.814V2.772ZM7.602 51.393V38.665c0-.32.266-.59.582-.59h34.221c.155 0 .303.062.412.173.109.11.17.26.17.417v12.728a.595.595 0 0 1-.17.417.58.58 0 0 1-.412.173H8.184a.594.594 0 0 1-.582-.59Zm43.296 10.983H21.519c-3.033 0-5.5-2.502-5.5-5.576v-3.193h26.387c1.204 0 2.183-.993 2.183-2.214V38.665c0-1.22-.98-2.214-2.183-2.214H16.019V7.201c0-3.075 2.467-5.577 5.5-5.577h25.025v7.624c0 1.345 1.077 2.439 2.402 2.439h7.452V56.8c0 3.075-2.467 5.576-5.5 5.576Z" fill="#01A572"/><path fill-rule="evenodd" clip-rule="evenodd" d="M24.25 15a.75.75 0 0 1 .75-.75h20a.75.75 0 0 1 0 1.5H25a.75.75 0 0 1-.75-.75Zm0 5a.75.75 0 0 1 .75-.75h20a.75.75 0 0 1 0 1.5H25a.75.75 0 0 1-.75-.75Zm0 4a.75.75 0 0 1 .75-.75h20a.75.75 0 0 1 0 1.5H25a.75.75 0 0 1-.75-.75Zm0 5a.75.75 0 0 1 .75-.75h20a.75.75 0 0 1 0 1.5H25a.75.75 0 0 1-.75-.75ZM22.572 40.384a.75.75 0 0 1 1.044.188l1.884 2.713 1.884-2.713a.75.75 0 1 1 1.232.856L26.413 44.6l3.453 4.972a.75.75 0 1 1-1.232.856L25.5 45.915l-3.134 4.513a.75.75 0 1 1-1.232-.856l3.453-4.972-2.203-3.172a.75.75 0 0 1 .188-1.044ZM12.25 41a.75.75 0 0 1 .75-.75h5a.75.75 0 0 1 0 1.5h-1.75V50a.75.75 0 0 1-1.5 0v-8.25H13a.75.75 0 0 1-.75-.75Zm20 0a.75.75 0 0 1 .75-.75h5a.75.75 0 0 1 0 1.5h-1.75V50a.75.75 0 0 1-1.5 0v-8.25H33a.75.75 0 0 1-.75-.75Z" fill="#01A572"/></g><defs><clipPath id="a"><path fill="#fff" d="M0 0h64v64H0z"/></clipPath></defs></svg>