<svg width="24" height="24" fill="none" xmlns="http://www.w3.org/2000/svg"><path d="M22 14v.75a.75.75 0 0 0 .75-.75H22Zm-2.3 4.75a.75.75 0 0 0 0-1.5v1.5Zm-.2-10.5a.75.75 0 0 0 0-1.5v1.5Zm-3-1.5a.75.75 0 0 0 0 1.5v-1.5Zm-14.5 6h7v-1.5H2v1.5Zm7 0c1.286 0 2.25.964 2.25 2.25h1.5c0-2.114-1.636-3.75-3.75-3.75v1.5ZM11.25 15c0 1.286-.964 2.25-2.25 2.25v1.5c2.114 0 3.75-1.636 3.75-3.75h-1.5ZM9 17.25H3v1.5h6v-1.5Zm-6 0c-.13 0-.18-.04-.195-.055-.015-.016-.055-.065-.055-.195h-1.5c0 .47.16.92.495 1.255.334.335.785.495 1.255.495v-1.5ZM2.75 17V7h-1.5v10h1.5Zm0-10c0-.13.04-.18.055-.195.016-.015.065-.055.195-.055v-1.5c-.47 0-.92.16-1.255.495C1.41 6.079 1.25 6.53 1.25 7h1.5ZM3 6.75h5v-1.5H3v1.5Zm5 0c1.286 0 2.25.964 2.25 2.25h1.5c0-2.114-1.636-3.75-3.75-3.75v1.5ZM10.25 9c0 1.286-.964 2.25-2.25 2.25v1.5c2.114 0 3.75-1.636 3.75-3.75h-1.5ZM8 11.25H2v1.5h6v-1.5Zm6 3.5h8v-1.5h-8v1.5Zm8.75-.75A4.762 4.762 0 0 0 18 9.25v1.5A3.262 3.262 0 0 1 21.25 14h1.5ZM18 9.25A4.762 4.762 0 0 0 13.25 14h1.5A3.262 3.262 0 0 1 18 10.75v-1.5ZM13.25 14A4.762 4.762 0 0 0 18 18.75v-1.5A3.262 3.262 0 0 1 14.75 14h-1.5ZM18 18.75h1.7v-1.5H18v1.5Zm1.5-12h-3v1.5h3v-1.5Z" fill="#7BA193"/></svg>