<svg width="54" height="54" fill="none" xmlns="http://www.w3.org/2000/svg"><path d="M31.32 40.358h-8.64c-.727 0-1.318.59-1.318 1.319v8.104c0 .728.59 1.318 1.319 1.318h8.639c.728 0 1.318-.59 1.318-1.318v-8.104c0-.728-.59-1.319-1.318-1.319Z" fill="#B2E9D5"/><path d="M44.932 12.342H9.068a4.48 4.48 0 0 0-4.48 4.48v21.693a4.48 4.48 0 0 0 4.48 4.48h35.864a4.48 4.48 0 0 0 4.48-4.48V16.822a4.48 4.48 0 0 0-4.48-4.48Z" fill="#168970"/><path d="M38.696 51.1H15.304a1.319 1.319 0 0 1 0-2.637h23.392a1.319 1.319 0 0 1 0 2.637Z" fill="url(#a)"/><path d="M36.644 5.467 27.81 3.07a3.091 3.091 0 0 0-1.617 0l-8.835 2.397a3.088 3.088 0 0 0-2.276 2.974v10.37c0 2.832 1.164 5.567 3.195 7.506l.03.03a19.154 19.154 0 0 0 7.85 4.503 3.03 3.03 0 0 0 1.69 0c2.92-.842 5.633-2.399 7.847-4.502l.036-.034c2.028-1.935 3.191-4.671 3.191-7.503V8.441c0-1.386-.935-2.61-2.276-2.974Z" fill="url(#b)"/><path d="M25.799 20.065c-.337 0-.674-.129-.931-.386l-2.837-2.833a1.319 1.319 0 0 1 1.863-1.866l1.905 1.903 4.72-4.713a1.319 1.319 0 0 1 1.863 1.865L26.73 19.68a1.314 1.314 0 0 1-.931.386Z" fill="#fff"/><path d="M19.443 32.463H11.18a1.319 1.319 0 0 1 0-2.636h8.263a1.319 1.319 0 0 1 0 2.636Zm-5.586-5.266H11.18a1.319 1.319 0 0 1 0-2.636h2.678a1.319 1.319 0 0 1 0 2.636Zm9.875 10.532H11.18a1.319 1.319 0 0 1 0-2.636h12.552a1.319 1.319 0 0 1 0 2.636Zm19.088-5.266h-8.263a1.319 1.319 0 0 1 0-2.636h8.263a1.319 1.319 0 0 1 0 2.636Zm0-5.266h-2.678a1.319 1.319 0 0 1 0-2.636h2.678a1.319 1.319 0 0 1 0 2.636ZM34.661 37.73H27.95a1.319 1.319 0 0 1 0-2.637h6.712a1.319 1.319 0 0 1 0 2.636Zm8.16 0H38.88a1.319 1.319 0 0 1 0-2.637h3.94a1.319 1.319 0 0 1 0 2.636Z" fill="#B2E9D5"/><defs><linearGradient id="a" x1="13.985" y1="49.353" x2="17.591" y2="58.698" gradientUnits="userSpaceOnUse"><stop offset=".165" stop-color="#C4F756"/><stop offset="1" stop-color="#9ED42A"/></linearGradient><linearGradient id="b" x1="15.081" y1="12.415" x2="39.351" y2="17.838" gradientUnits="userSpaceOnUse"><stop offset=".165" stop-color="#C4F756"/><stop offset="1" stop-color="#9ED42A"/></linearGradient></defs></svg>