<svg width="64" height="64" fill="none" xmlns="http://www.w3.org/2000/svg"><g clip-path="url(#a)"><path d="M46.103 46.339C32.507 59.935 15.056 64.527 7.125 56.596c-7.931-7.93-3.339-25.382 10.257-38.978S48.43-.571 56.36 7.36c7.931 7.931 3.34 25.383-10.257 38.979Z" fill="#F2F7F5"/><path d="M12 54s-1.43 4.5-.87 9m12.083-52.85A18.918 18.918 0 0 1 32 8c10.493 0 19 8.507 19 19s-8.507 19-19 19-19-8.507-19-19a18.945 18.945 0 0 1 5.846-13.71M13 31h-1.556C10.094 31 9 29.872 9 28.481V26.52C9 25.128 10.094 24 11.444 24H13m38 7h1.946C54.633 31 56 29.872 56 28.481V26.52C56 25.128 54.633 24 52.946 24H51m-30 2c0-1.657 1.567-3 3.5-3s3.5 1.343 3.5 3m8 0c0-1.657 1.567-3 3.5-3s3.5 1.343 3.5 3M31 8s-.532-2.81-3-4m5 4s.495-5.417 5-7m4 59c.658.931 1 1.958 1 3M18 40c0 8.272 5.708 11.922 14.004 14.227l5.442 1.512A7.568 7.568 0 0 1 40 57m6-17c0 8.14-5.299 11.732-13 14m20-5c-.033 3.05-.827 6.458-3 10m-1-23s2.204 3.584 3 9m-36-9s-8.107 10.693-1.239 23M52 54s1.493 4.43.83 9m-9.643-4.184-4.185 2.045c-.704.345-1.542.025-1.87-.714-.328-.74-.023-1.618.681-1.963l4.185-2.045c.704-.345 1.542-.025 1.87.714.328.74.023 1.618-.681 1.963ZM36 38.5a3.5 3.5 0 1 1-7 0 3.5 3.5 0 0 1 7 0Zm-.259.5H29.26C26.907 39 25 37.21 25 35s1.907-4 4.259-4h6.482C38.093 31 40 32.79 40 35s-1.907 4-4.259 4Z" stroke="#01A572" stroke-width="1.5" stroke-miterlimit="10" stroke-linecap="round" stroke-linejoin="round"/></g><defs><clipPath id="a"><path fill="#fff" d="M0 0h64v64H0z"/></clipPath></defs></svg>