<svg width="52" height="54" fill="none" xmlns="http://www.w3.org/2000/svg"><path d="m7.318 19.811 1.04 1.042c.133.13.273.255.418.372A21.473 21.473 0 0 0 6.906 30c0 11.908 9.687 21.596 21.594 21.596 11.908 0 21.595-9.688 21.595-21.596 0-11.907-9.688-21.594-21.595-21.594-2.48 0-4.861.426-7.082 1.199a5.725 5.725 0 0 0-.797-1.012l-.534-.536A23.43 23.43 0 0 1 28.499 6.5C41.476 6.5 52 17.023 52 30c0 12.978-10.524 23.5-23.5 23.5C15.52 53.5 5 42.978 5 30c0-3.65.832-7.107 2.318-10.189Z" fill="#01A572"/><path d="M13.486 22.765h2.153a13.995 13.995 0 0 0-1.718 6.734c0 7.764 6.316 14.08 14.079 14.08 7.763 0 14.08-6.316 14.08-14.08 0-7.763-6.317-14.079-14.08-14.079-2.183 0-4.251.5-6.097 1.39v-2.104A15.947 15.947 0 0 1 28 13.5c8.837 0 16 7.164 16 16 0 8.835-7.163 16-16 16-8.835 0-16-7.165-16-16 0-2.407.535-4.688 1.486-6.735Z" fill="#01A572"/><path d="M.149 8.453c.149-.292.39-.496.627-.62.24-.123.486-.181.736-.208l4.548-.458a.617.617 0 0 0 .352-.189.622.622 0 0 0 .187-.356l.455-4.594c.036-.336.124-.67.355-.981A1.339 1.339 0 0 1 8.49.5c.265 0 .5.076.699.18.198.104.367.238.519.391l9.177 9.27c.373.382.639.841.843 1.333.199.493.334 1.008.337 1.545v5.294c0 .362-.093.7-.245 1.004l3.95 4.107a7.55 7.55 0 0 1 4.59-1.559c4.22 0 7.641 3.456 7.641 7.718 0 4.261-3.42 7.717-7.641 7.717-4.22 0-7.642-3.456-7.642-7.717 0-1.824.63-3.497 1.678-4.818l-4.09-4.253a2.265 2.265 0 0 1-.47.052H12.59c-.53-.004-1.04-.14-1.528-.34-.488-.207-.942-.475-1.321-.852L.565 10.305a2.155 2.155 0 0 1-.388-.525A1.55 1.55 0 0 1 0 9.075c-.001-.217.05-.43.149-.622Zm28.21 27.118c3.16 0 5.731-2.596 5.731-5.788 0-3.19-2.57-5.788-5.731-5.788-1.206 0-2.324.38-3.248 1.025l3.933 4.092a.971.971 0 0 1-.02 1.364.95.95 0 0 1-1.35-.02l-3.931-4.088a5.786 5.786 0 0 0-1.115 3.415c0 3.192 2.57 5.788 5.73 5.788ZM18.153 17.786V13.22c.004-.17-.065-.504-.193-.807-.12-.305-.306-.59-.428-.707L8.88 2.966l-.381 3.85c-.027.259-.1.499-.198.723l9.853 10.246Zm-7.062.423c.118.123.399.309.7.433.3.128.63.198.799.194h3.91l-9.557-9.94a2.386 2.386 0 0 1-.694.19l-3.809.385 8.651 8.738Z" fill="#01A572"/></svg>