<svg width="24" height="24" fill="none" xmlns="http://www.w3.org/2000/svg"><path d="M19.533 3.38c.563-.216 1.257-.192 1.75.316.463.48.543 1.186.403 1.893v.016l-2.718 13.577-.001.006c-.118.56-.379 1.15-.95 1.424-.59.284-1.202.087-1.666-.192a.759.759 0 0 1-.076-.052l-3.61-2.822-1.518 1.55c-.098.103-.265.289-.492.428a1.65 1.65 0 0 1-.888.24.75.75 0 0 1-.748-.8l.293-4.466.022-.138a.75.75 0 0 1 .208-.354l3.3-3.161-4.689 3.13a.75.75 0 0 1-.651.088l-4.087-1.351-.004-.002a2.02 2.02 0 0 1-.789-.46 1.197 1.197 0 0 1-.368-.951c.03-.374.236-.668.458-.875a2.8 2.8 0 0 1 .839-.512h.004l15.963-6.526.015-.006Z" stroke="#7BA193" stroke-width="1.5" stroke-linejoin="round"/></svg>