<svg width="64" height="64" fill="none" xmlns="http://www.w3.org/2000/svg"><g clip-path="url(#a)"><path d="M46.103 46.339C32.507 59.935 15.056 64.527 7.125 56.596c-7.931-7.93-3.339-25.382 10.257-38.978S48.43-.571 56.36 7.36c7.931 7.931 3.34 25.383-10.257 38.979Z" fill="#F2F7F5"/><path d="M57.765 10.3 47.911.239A.8.8 0 0 0 47.344 0H21.52c-3.916 0-7.102 3.23-7.102 7.2v4.251H8.184C6.98 11.451 6 12.444 6 13.665v12.728c0 1.22.98 2.214 2.184 2.214h6.233V56.8c0 3.97 3.186 7.2 7.102 7.2h29.379C54.814 64 58 60.77 58 56.8V10.875a.818.818 0 0 0-.235-.574Zm-9.62-7.528 7.121 7.29h-6.32a.809.809 0 0 1-.8-.814V2.772ZM7.602 26.393V13.665c0-.32.266-.59.582-.59h34.221c.155 0 .303.062.412.173.109.11.17.26.17.417v12.728a.595.595 0 0 1-.17.417.58.58 0 0 1-.412.173H8.184a.594.594 0 0 1-.582-.59Zm43.296 35.983H21.519c-3.033 0-5.5-2.502-5.5-5.576V28.607h26.387c1.204 0 2.183-.993 2.183-2.214V13.665c0-1.22-.98-2.214-2.183-2.214H16.019v-4.25c0-3.075 2.467-5.577 5.5-5.577h25.025v7.624c0 1.345 1.077 2.439 2.402 2.439h7.452V56.8c0 3.075-2.467 5.576-5.5 5.576ZM14.979 18.292v3.477c0 .996.799 1.805 1.78 1.805.982 0 1.781-.81 1.781-1.805 0-.215.085-.421.235-.574a.795.795 0 0 1 1.132 0c.15.153.235.36.235.574 0 1.891-1.517 3.43-3.382 3.43-1.865 0-3.382-1.539-3.382-3.43v-3.477c0-1.893 1.517-3.432 3.382-3.432 1.865 0 3.382 1.54 3.382 3.432a.818.818 0 0 1-.235.574.795.795 0 0 1-1.132 0 .818.818 0 0 1-.235-.574c0-.997-.799-1.808-1.78-1.808-.982 0-1.78.81-1.78 1.808Zm8.653-.44c0 .747.167 1.367 2.215 1.367 1.627 0 2.95 1.34 2.95 2.988 0 1.65-1.323 2.991-2.95 2.991h-1.278c-1.4 0-2.539-1.154-2.539-2.573 0-.216.085-.422.235-.575a.795.795 0 0 1 1.132 0c.15.153.235.36.235.575 0 .514.43.95.937.95h1.278a1.36 1.36 0 0 0 1.349-1.368c0-.752-.605-1.365-1.349-1.365-.678 0-1.67-.05-2.458-.481-.62-.34-1.359-1.052-1.359-2.51 0-1.65 1.324-2.991 2.95-2.991h1.279c1.4 0 2.538 1.155 2.538 2.574a.818.818 0 0 1-.234.574.795.795 0 0 1-1.133 0 .818.818 0 0 1-.234-.574c0-.515-.43-.95-.937-.95H24.98a1.36 1.36 0 0 0-1.35 1.367Zm8.42 0c0 .747.166 1.367 2.212 1.367 1.627 0 2.95 1.34 2.95 2.988 0 1.65-1.323 2.991-2.95 2.991h-1.275c-1.4 0-2.539-1.154-2.539-2.573 0-.216.085-.422.235-.575a.795.795 0 0 1 1.132 0c.15.153.235.36.235.575 0 .523.42.95.937.95h1.275a1.36 1.36 0 0 0 1.349-1.368c0-.752-.605-1.365-1.349-1.365-.678 0-1.67-.05-2.457-.481-.619-.34-1.357-1.052-1.357-2.51 0-1.65 1.323-2.991 2.948-2.991h1.278c1.4 0 2.538 1.155 2.538 2.574a.818.818 0 0 1-.234.574.796.796 0 0 1-1.133 0 .818.818 0 0 1-.234-.574c0-.524-.42-.95-.937-.95h-1.278c-.742 0-1.346.613-1.346 1.367Z" fill="#01A572"/><path d="M36 44.3c.41 0 .812-.123 1.154-.354.341-.23.608-.559.765-.942a2.121 2.121 0 0 0-.45-2.289 2.055 2.055 0 0 0-2.263-.455c-.38.159-.705.428-.933.773a2.117 2.117 0 0 0 .258 2.652c.39.394.918.615 1.469.615Zm0-2.8a.687.687 0 0 1 .64.432.708.708 0 0 1-.15.763.69.69 0 0 1-1.182-.495c0-.186.073-.364.203-.495A.688.688 0 0 1 36 41.5Zm-1.385 9.8h.885c.291 0 .575-.092.81-.264.237-.171.413-.414.505-.693l.925-2.8a1.416 1.416 0 0 0-.191-1.262 1.388 1.388 0 0 0-1.125-.581h-1.346c-.328 0-.644.117-.894.332a1.4 1.4 0 0 0-.469.838l-.461 2.8a1.415 1.415 0 0 0 .308 1.133 1.386 1.386 0 0 0 1.053.497Zm.462-4.2h1.347l-.924 2.8h-.885l.462-2.8ZM27.692 45.7c.184 0 .36.074.49.205s.203.31.203.495v3.5c0 .557.218 1.091.608 1.485.39.394.918.615 1.469.615.183 0 .36-.074.49-.205a.704.704 0 0 0 0-.99.689.689 0 0 0-.49-.205.688.688 0 0 1-.49-.205.704.704 0 0 1-.203-.495v-3.5c0-.517-.188-1.016-.53-1.4.342-.384.53-.883.53-1.4v-3.5c0-.186.073-.364.203-.495a.689.689 0 0 1 .49-.205c.183 0 .36-.074.49-.205a.704.704 0 0 0 0-.99.689.689 0 0 0-.49-.205c-.551 0-1.08.221-1.47.615-.389.394-.607.928-.607 1.485v3.5a.704.704 0 0 1-.203.495.689.689 0 0 1-.49.205.688.688 0 0 0-.49.205.704.704 0 0 0 0 .99c.13.131.307.205.49.205Zm14.539 4.2a.704.704 0 0 1-.203.495.688.688 0 0 1-.49.205.689.689 0 0 0-.49.205.704.704 0 0 0 0 .99c.13.131.307.205.49.205.551 0 1.08-.221 1.47-.615.389-.394.607-.928.607-1.485v-3.5c0-.186.073-.364.203-.495a.689.689 0 0 1 .49-.205c.183 0 .36-.074.49-.205a.704.704 0 0 0 0-.99.688.688 0 0 0-.49-.205.689.689 0 0 1-.49-.205.704.704 0 0 1-.203-.495v-3.5c0-.557-.218-1.091-.608-1.485A2.065 2.065 0 0 0 41.54 38a.689.689 0 0 0-.49.205.704.704 0 0 0 0 .99c.13.131.306.205.49.205.183 0 .36.074.489.205.13.131.203.31.203.495v3.5c0 .517.188 1.016.53 1.4-.342.384-.53.883-.53 1.4v3.5Z" fill="#01A572"/></g><defs><clipPath id="a"><path fill="#fff" d="M0 0h64v64H0z"/></clipPath></defs></svg>