<svg width="24" height="24" fill="none" xmlns="http://www.w3.org/2000/svg"><path d="M12.978 19C5.738 19 1.496 13.786 1.036 5.032a.976.976 0 0 1 .983-1.02h1.779c.545 0 .987.44 1.019.985.29 5.03 2.078 7.724 3.862 8.855.557.354 1.19-.114 1.19-.774V5.012a1 1 0 0 1 1-1h1.549a1 1 0 0 1 1 1v3.797c0 .599.53 1.06 1.073.81 1.623-.753 3.162-2.686 3.922-4.878.15-.43.543-.741.999-.741h1.56c.625 0 1.1.57.925 1.171a11.902 11.902 0 0 1-1.414 3.118c-.52.808-1.131 1.536-1.818 2.17-.554.51-.511 1.468.087 1.925a11.29 11.29 0 0 1 2.167 2.197c.722.963 1.3 2.042 1.712 3.196.22.612-.259 1.223-.909 1.223h-1.874c-.444 0-.83-.295-.988-.71-.813-2.125-2.355-3.799-4.352-4.42-.569-.177-1.09.293-1.09.889v3.812a.429.429 0 0 1-.429.429h-.011Z" stroke="#7BA193" stroke-width="1.5"/></svg>