<svg width="64" height="64" fill="none" xmlns="http://www.w3.org/2000/svg"><g clip-path="url(#a)"><path d="M46.103 46.339C32.507 59.935 15.056 64.527 7.125 56.596c-7.931-7.93-3.339-25.382 10.257-38.978S48.43-.571 56.36 7.36c7.931 7.931 3.34 25.383-10.257 38.979Z" fill="#F2F7F5"/><path d="M11.31 34.623a.75.75 0 0 0 .834-1.246l-.834 1.246Zm6.955-26.877.531.53-.53-.53Zm12.985.911a.75.75 0 0 0 1.5 0h-1.5Zm12.174-6.5.531-.53-.531.53Zm8.434 31.218a.75.75 0 1 0 .833 1.247l-.833-1.247ZM46 63v.75a.75.75 0 0 0 .75-.75H46Zm-28 0h-.75c0 .414.336.75.75.75V63Zm-1.25-39a.75.75 0 0 0-1.5 0h1.5Zm-.455 19.257a.75.75 0 0 0 1.41-.514l-1.41.514ZM48.75 23a.75.75 0 0 0-1.5 0h1.5Zm-5.392 25.242-.537-.524.537.524Zm-23.731-2.837a.75.75 0 1 0-1.254.823l1.254-.823Zm-3.86-12.655a.75.75 0 0 0 0-1.5v1.5Zm-3.566.422-.524-.537.524.537ZM16 40.75a.75.75 0 0 0 0-1.5v1.5Zm32.234-9.5a.75.75 0 0 0 0 1.5v-1.5Zm3.565 7.578.524.538-.524-.538ZM48 39.25a.75.75 0 0 0 0 1.5v-1.5Zm-19.422 3.272a.75.75 0 0 0-1.156.956l1.156-.956Zm8 .956a.75.75 0 0 0-1.156-.956l1.156.956ZM31 39.25a.75.75 0 0 0 0 1.5v-1.5Zm3 1.5a.75.75 0 0 0 0-1.5v1.5Zm2.237-15.462a.75.75 0 0 0-.474 1.424l.474-1.424Zm2.526 2.424a.75.75 0 0 0 .474-1.424l-.474 1.424Zm-10.526-1a.75.75 0 0 0-.474-1.424l.474 1.424Zm-3.474-.424a.75.75 0 0 0 .474 1.424l-.474-1.424ZM12.25 29a.75.75 0 0 0 1.5 0h-1.5Zm3.99-5.506-.251-.707.25.707ZM32.181 15v-.75a.75.75 0 0 0-.75.75h.75Zm5.24 3.148a.75.75 0 0 0 1.155-.958l-1.154.958Zm3.122 2.336a.75.75 0 1 0-1.088 1.032l1.088-1.032Zm7.7 3.09-.409.628.001.001.408-.63ZM50.25 30a.75.75 0 0 0 1.5 0h-1.5Zm-20.812 4.504a.75.75 0 1 0 1.124.992l-1.124-.992Zm4 .992a.75.75 0 1 0 1.124-.992l-1.124.992Zm11.938-.912a.75.75 0 1 0 1.248.832l-1.248-.832Zm3.248-2.168a.75.75 0 1 0-1.248-.832l1.248.832ZM18.47 35.53a.75.75 0 1 0 1.06-1.06l-1.06 1.06Zm-1.94-4.06a.75.75 0 1 0-1.06 1.06l1.06-1.06Zm-4.386 1.907A12.117 12.117 0 0 1 6.75 23.284h-1.5c0 4.731 2.408 8.898 6.06 11.34l.834-1.248ZM6.75 23.284v-5.533h-1.5v5.533h1.5Zm0-5.533c0-4.474 3.62-8.098 8.083-8.098v-1.5c-5.293 0-9.583 4.298-9.583 9.598h1.5Zm8.083-8.098h.643v-1.5h-.643v1.5Zm.643 0a4.68 4.68 0 0 0 3.32-1.377l-1.061-1.06a3.18 3.18 0 0 1-2.259.937v1.5Zm3.32-1.377a4.694 4.694 0 0 0 1.375-3.324h-1.5c0 .885-.357 1.683-.937 2.265l1.063 1.059Zm1.375-3.324a3.198 3.198 0 0 1 3.196-3.202V.25a4.698 4.698 0 0 0-4.696 4.702h1.5Zm3.196-3.202h.988V.25h-.988v1.5Zm.988 0c1.904 0 3.627.772 4.875 2.022l1.062-1.06A8.366 8.366 0 0 0 24.355.25v1.5Zm4.875 2.022a6.89 6.89 0 0 1 2.02 4.885h1.5a8.39 8.39 0 0 0-2.458-5.944l-1.062 1.06Zm3.52 4.885c0-3.816 3.088-6.907 6.895-6.907V.25c-4.638 0-8.395 3.765-8.395 8.407h1.5Zm6.895-6.907h.988V.25h-.988v1.5Zm.988 0c.883 0 1.68.357 2.26.937l1.061-1.06A4.684 4.684 0 0 0 40.634.25v1.5Zm2.26.937c.579.58.936 1.38.936 2.265h1.5a4.697 4.697 0 0 0-1.374-3.324l-1.062 1.059Zm.936 2.265c0 2.595 2.1 4.701 4.695 4.701v-1.5a3.198 3.198 0 0 1-3.195-3.2h-1.5Zm4.695 4.701h.643v-1.5h-.643v1.5Zm.643 0c4.462 0 8.083 3.624 8.083 8.098h1.5c0-5.3-4.29-9.598-9.583-9.598v1.5Zm8.083 8.098v5.533h1.5v-5.533h-1.5Zm0 5.533c0 4.209-2.14 7.918-5.392 10.091l.833 1.247a13.614 13.614 0 0 0 6.059-11.338h-1.5ZM40.233 51.601c3.06 2.287 5.017 5.852 5.017 9.849h1.5c0-4.504-2.208-8.5-5.619-11.05l-.898 1.2Zm5.017 9.849V63h1.5v-1.55h-1.5Zm.75.8H18v1.5h28v-1.5ZM18.75 63v-1.55h-1.5V63h1.5Zm0-1.55c0-3.996 1.956-7.56 5.015-9.85l-.898-1.2c-3.411 2.55-5.617 6.548-5.617 11.05h1.5Zm12.5-7.951v1.315h1.5v-1.315h-1.5Zm0 1.315c0 1.28-1.164 2.436-2.75 2.436v1.5c2.279 0 4.25-1.698 4.25-3.936h-1.5ZM28.5 57.25c-1.586 0-2.75-1.156-2.75-2.436h-1.5c0 2.238 1.971 3.936 4.25 3.936v-1.5Zm-2.75-2.436V52h-1.5v2.814h1.5ZM38.25 52v2.815h1.5V52h-1.5Zm0 2.815c0 1.279-1.164 2.435-2.75 2.435v1.5c2.278 0 4.25-1.698 4.25-3.935h-1.5ZM35.5 57.25c-1.587 0-2.75-1.156-2.75-2.436h-1.5c0 2.237 1.97 3.936 4.25 3.936v-1.5ZM15.25 24v13.304h1.5V24h-1.5Zm0 13.304c0 2.093.37 4.1 1.045 5.953l1.41-.514a15.85 15.85 0 0 1-.955-5.44h-1.5ZM47.25 23v13.753h1.5V23h-1.5Zm0 13.753c0 4.286-1.693 8.16-4.429 10.965l1.074 1.048c3.002-3.078 4.855-7.325 4.855-12.013h-1.5Zm-4.429 10.965c-2.734 2.803-6.505 4.532-10.668 4.532v1.5c4.59 0 8.742-1.908 11.742-4.984l-1.074-1.048ZM32.153 52.25c-5.209 0-9.81-2.709-12.526-6.845l-1.254.823c2.976 4.532 8.034 7.522 13.78 7.522v-1.5Zm-16.387-21H15.1v1.5h.666v-1.5Zm-.666 0a4.888 4.888 0 0 0-3.423 1.385l1.047 1.073a3.388 3.388 0 0 1 2.376-.958v-1.5Zm-3.423 1.385a4.689 4.689 0 0 0-1.427 3.364h1.5c0-.89.369-1.7.974-2.29l-1.047-1.074Zm-1.427 3.364c0 2.64 2.188 4.751 4.85 4.751v-1.5c-1.868 0-3.35-1.473-3.35-3.25h-1.5Zm4.85 4.751h.9v-1.5h-.9v1.5Zm33.134-8h.666v-1.5h-.666v1.5Zm.666 0c1.869 0 3.35 1.472 3.35 3.25h1.5c0-2.641-2.188-4.75-4.85-4.75v1.5ZM52.25 36c0 .89-.37 1.701-.974 2.292l1.047 1.073A4.692 4.692 0 0 0 53.75 36h-1.5Zm-.974 2.291a3.393 3.393 0 0 1-2.376.959v1.5a4.893 4.893 0 0 0 3.423-1.384l-1.047-1.075Zm-2.376.959H48v1.5h.9v-1.5Zm-21.478 4.228c1.236 1.492 2.89 2.272 4.578 2.272 1.688 0 3.342-.78 4.578-2.272l-1.156-.956C34.45 43.697 33.207 44.25 32 44.25c-1.207 0-2.45-.553-3.422-1.728l-1.156.956ZM31 40.75h3v-1.5h-3v1.5Zm4.763-14.038 3 1 .474-1.424-3-1-.474 1.424Zm-8-1.424-3 1 .474 1.424 3-1-.474-1.424ZM13.75 29v-.968h-1.5V29h1.5Zm0-.968c0-1.754 1.135-3.26 2.74-3.831l-.502-1.414c-2.171.773-3.738 2.823-3.738 5.245h1.5Zm2.74-3.831a4.246 4.246 0 0 1 1.422-.244v-1.5c-.675 0-1.322.117-1.923.33l.501 1.414Zm1.422-.244h7.267v-1.5h-7.267v1.5Zm7.267 0c4.269 0 7.753-3.404 7.753-7.631h-1.5c0 3.373-2.788 6.131-6.253 6.131v1.5Zm7.753-7.631V15h-1.5v1.326h1.5Zm-.75-.576h.104v-1.5h-.104v1.5Zm.104 0c2.075 0 3.924.936 5.137 2.398l1.154-.958a8.155 8.155 0 0 0-6.291-2.94v1.5Zm7.17 5.766c1.109 1.17 2.64 1.88 4.303 1.88v-1.5c-1.227 0-2.37-.522-3.215-1.412l-1.088 1.032Zm4.303 1.88h1.361v-1.5H43.76v1.5Zm1.361 0c.998 0 1.927.294 2.715.806l.818-1.257a6.455 6.455 0 0 0-3.533-1.049v1.5Zm2.716.807c1.445.936 2.414 2.602 2.414 4.51h1.5c0-2.424-1.232-4.56-3.099-5.769l-.815 1.26Zm2.414 4.51V30h1.5v-1.287h-1.5ZM30.75 34.5a6.25 6.25 0 0 0-6.25-6.25v1.5a4.75 4.75 0 0 1 4.75 4.75h1.5Zm-6.25-6.25a6.25 6.25 0 0 0-6.25 6.25h1.5a4.75 4.75 0 0 1 4.75-4.75v-1.5Zm-6.25 6.25a6.25 6.25 0 0 0 6.25 6.25v-1.5a4.75 4.75 0 0 1-4.75-4.75h-1.5Zm6.25 6.25a6.25 6.25 0 0 0 6.25-6.25h-1.5a4.75 4.75 0 0 1-4.75 4.75v1.5Zm4.25-6.25a2.25 2.25 0 0 0-2.25-2.25v1.5a.75.75 0 0 1 .75.75h1.5Zm-2.25-2.25a2.25 2.25 0 0 0-2.25 2.25h1.5a.75.75 0 0 1 .75-.75v-1.5Zm-2.25 2.25a2.25 2.25 0 0 0 2.25 2.25v-1.5a.75.75 0 0 1-.75-.75h-1.5Zm2.25 2.25a2.25 2.25 0 0 0 2.25-2.25h-1.5a.75.75 0 0 1-.75.75v1.5Zm10.25-2.25a.75.75 0 0 1 .75-.75v-1.5a2.25 2.25 0 0 0-2.25 2.25h1.5Zm.75-.75a.75.75 0 0 1 .75.75h1.5a2.25 2.25 0 0 0-2.25-2.25v1.5Zm.75.75a.75.75 0 0 1-.75.75v1.5a2.25 2.25 0 0 0 2.25-2.25h-1.5Zm-.75.75a.75.75 0 0 1-.75-.75h-1.5a2.25 2.25 0 0 0 2.25 2.25v-1.5Zm9.25-.75c0-3.512-3.085-6.25-6.75-6.25v1.5c2.962 0 5.25 2.187 5.25 4.75h1.5ZM40 28.25c-3.665 0-6.75 2.738-6.75 6.25h1.5c0-2.563 2.288-4.75 5.25-4.75v-1.5Zm-6.75 6.25c0 3.512 3.085 6.25 6.75 6.25v-1.5c-2.962 0-5.25-2.187-5.25-4.75h-1.5ZM40 40.75c3.665 0 6.75-2.738 6.75-6.25h-1.5c0 2.563-2.288 4.75-5.25 4.75v1.5Zm-9.438-5.254c.46-.52.97-.746 1.438-.746v-1.5c-.981 0-1.878.478-2.562 1.254l1.124.992ZM32 34.75c.467 0 .978.225 1.438.746l1.124-.992c-.684-.776-1.58-1.254-2.562-1.254v1.5Zm14.624.666 2-3-1.248-.832-2 3 1.248.832ZM19.53 34.47l-3-3-1.06 1.06 3 3 1.06-1.06Z" fill="#01A572"/></g><defs><clipPath id="a"><path fill="#fff" d="M0 0h64v64H0z"/></clipPath></defs></svg>