<svg width="64" height="64" fill="none" xmlns="http://www.w3.org/2000/svg"><g clip-path="url(#a)"><path d="M46.103 46.339C32.507 59.935 15.056 64.527 7.125 56.596c-7.931-7.93-3.339-25.382 10.257-38.978S48.43-.571 56.36 7.36c7.931 7.931 3.34 25.383-10.257 38.979Z" fill="#F2F7F5"/><path d="M39.502 51.305a.765.765 0 0 1 .544-.23c.204 0 .399.083.543.23a.794.794 0 0 1 0 1.108.764.764 0 0 1-.543.23.765.765 0 0 1-.544-.23.794.794 0 0 1 0-1.108ZM33.483 39.371c.204 0 .4.083.544.23a.792.792 0 0 1 0 1.108l-5.199 5.298 5.199 5.298a.791.791 0 0 1 0 1.108.759.759 0 0 1-1.088 0l-5.742-5.852a.791.791 0 0 1 0-1.108l5.742-5.852a.762.762 0 0 1 .544-.23ZM35.175 44.335c0-2.737 2.185-4.964 4.87-4.964 2.686 0 4.871 2.227 4.871 4.964 0 2.47-1.78 4.525-4.101 4.902v.114a.791.791 0 0 1-.225.554.762.762 0 0 1-1.088 0 .791.791 0 0 1-.225-.554v-.836c0-.208.08-.407.225-.554a.762.762 0 0 1 .544-.23c1.837 0 3.332-1.523 3.332-3.396s-1.495-3.396-3.332-3.396c-1.838 0-3.333 1.523-3.333 3.396a.791.791 0 0 1-.225.554.762.762 0 0 1-1.088 0 .791.791 0 0 1-.225-.554ZM13.749 21.962h2.39c1.768 0 3.206-1.561 3.206-3.481S17.907 15 16.14 15h-3.265a.84.84 0 0 0-.618.278.992.992 0 0 0-.256.671v8.102c0 .251.092.493.256.67a.84.84 0 0 0 .618.279.84.84 0 0 0 .619-.278.993.993 0 0 0 .256-.671v-2.089Zm3.847-3.481c0 .872-.653 1.582-1.457 1.582h-2.39V16.9h2.39c.804 0 1.457.71 1.457 1.582ZM31.53 25a.84.84 0 0 0 .619-.278.992.992 0 0 0 .256-.671v-2.089h2.39c1.768 0 3.206-1.561 3.206-3.481S36.562 15 34.794 15h-3.265a.84.84 0 0 0-.618.278.992.992 0 0 0-.256.671v8.102c0 .251.092.493.256.67a.84.84 0 0 0 .618.279Zm4.722-6.519c0 .872-.654 1.582-1.457 1.582h-2.39V16.9h2.39c.803 0 1.457.71 1.457 1.582ZM21.27 25a.84.84 0 0 0 .618-.278.992.992 0 0 0 .256-.671v-2.089h4.78v2.089c0 .251.093.493.257.67a.84.84 0 0 0 .618.279.84.84 0 0 0 .619-.278.992.992 0 0 0 .256-.671v-8.102a.992.992 0 0 0-.256-.67.84.84 0 0 0-.619-.279.84.84 0 0 0-.618.278.992.992 0 0 0-.256.671v4.114h-4.78V15.95a.992.992 0 0 0-.257-.67.84.84 0 0 0-.618-.279.84.84 0 0 0-.618.278.992.992 0 0 0-.256.671v8.102c0 .251.092.493.256.67a.84.84 0 0 0 .618.279Z" fill="#01A572"/><path d="M56.765 10.3 46.911.239A.8.8 0 0 0 46.344 0H20.52c-3.916 0-7.102 3.23-7.102 7.2v4.251H7.184C5.98 11.451 5 12.444 5 13.665v12.728c0 1.22.98 2.214 2.184 2.214h6.233V56.8c0 3.97 3.186 7.2 7.102 7.2h29.379C53.814 64 57 60.77 57 56.8V10.875a.818.818 0 0 0-.235-.574Zm-9.62-7.528 7.121 7.29h-6.32a.809.809 0 0 1-.8-.814V2.772ZM6.602 26.393V13.665c0-.32.266-.59.582-.59h34.221c.155 0 .303.062.412.173.109.11.17.26.17.417v12.728a.595.595 0 0 1-.17.417.58.58 0 0 1-.412.173H7.184a.594.594 0 0 1-.582-.59Zm43.296 35.983H20.519c-3.033 0-5.5-2.502-5.5-5.576V28.607h26.387c1.204 0 2.183-.993 2.183-2.214V13.665c0-1.22-.98-2.214-2.183-2.214H15.019v-4.25c0-3.075 2.467-5.577 5.5-5.577h25.025v7.624c0 1.345 1.077 2.439 2.402 2.439h7.452V56.8c0 3.075-2.467 5.576-5.5 5.576Z" fill="#01A572"/></g><defs><clipPath id="a"><path fill="#fff" d="M0 0h64v64H0z"/></clipPath></defs></svg>