<svg width="54" height="54" fill="none" xmlns="http://www.w3.org/2000/svg"><rect x="3" y="3" width="48" height="48" rx="12" fill="url(#a)"/><path fill-rule="evenodd" clip-rule="evenodd" d="M14.995 18h-3.72c-1.062 0-1.275.47-1.275.99 0 .927 1.261 5.525 5.872 11.606C18.945 34.749 23.276 37 27.217 37c2.364 0 2.656-.5 2.656-1.361V32.5c0-1 .224-1.2.973-1.2.552 0 1.498.26 3.704 2.262C37.072 35.935 37.488 37 38.907 37h3.72c1.062 0 1.593-.5 1.287-1.487-.336-.983-1.54-2.41-3.138-4.101-.867-.964-2.167-2.003-2.56-2.522-.553-.667-.395-.964 0-1.557 0 0 4.53-6.007 5.004-8.046.236-.742 0-1.287-1.125-1.287h-3.72c-.946 0-1.382.47-1.618.99 0 0-1.892 4.338-4.571 7.156-.867.816-1.261 1.076-1.734 1.076-.237 0-.579-.26-.579-1.001v-6.934c0-.89-.274-1.287-1.063-1.287h-5.845c-.59 0-.946.413-.946.805 0 .843 1.34 1.038 1.478 3.41v5.155c0 1.13-.217 1.335-.69 1.335-1.26 0-4.328-4.358-6.147-9.344-.357-.97-.714-1.361-1.665-1.361Z" fill="#fff"/><defs><linearGradient id="a" x1="3" y1="19.2" x2="51" y2="31.8" gradientUnits="userSpaceOnUse"><stop offset=".165" stop-color="#C4F756"/><stop offset="1" stop-color="#9ED42A"/></linearGradient></defs></svg>