<svg width="64" height="64" fill="none" xmlns="http://www.w3.org/2000/svg"><g clip-path="url(#a)"><path d="M46.103 46.339C32.507 59.935 15.056 64.527 7.125 56.596c-7.931-7.93-3.339-25.382 10.257-38.978S48.43-.571 56.36 7.36c7.931 7.931 3.34 25.383-10.257 38.979Z" fill="#F2F7F5"/><path d="m32.59 31.265-3.715-4.288a2.032 2.032 0 0 0-3.075 0L13.623 41.03v1.55m0 0c0 .715.575 1.293 1.285 1.293h25.074m-26.359-1.292V18.904m32.62 12.088-7.098 6.488a.86.86 0 0 1-1.231-.072l-2.472-2.853m-21.82-20.017V12.35c0-.714.576-1.293 1.286-1.293h30.05a1.277 1.277 0 0 1 1.187.798c.065.157.098.325.098.495v28.5M34.658 51.285h-2.366m-7.97 0h-2.366m-7.97 0H11.62m33.374-47.64h-2.366m-7.97 0h-2.366m-7.97 0h-2.366m-7.97 0H11.62M4.63 44.253v-2.38m0-8.019v-2.38m0-8.018v-2.38m0-8.018v-2.38m47.354 23.176v-2.38m0-8.018v-2.38m0-8.018v-2.38m-3.172 35.904 2.179-1.375m0 0 2.18 1.375m-2.18-1.375v3.677m-2.18 8.384 2.18 1.374m0 0 2.18-1.374m-2.18 1.374v-3.677m5.311-5.233 1.366 2.193m0 0-1.366 2.192m1.366-2.192h-3.655m-8.333-2.193-1.366 2.193m0 0 1.366 2.192m-1.366-2.192h3.655m-9.942-33.503a2.849 2.849 0 0 0-2.84 2.857 2.849 2.849 0 0 0 2.84 2.857c1.569 0 2.84-1.279 2.84-2.857a2.849 2.849 0 0 0-2.84-2.857ZM2 1.529v4.232a.532.532 0 0 0 .325.49c.063.026.132.04.2.04h4.208a.524.524 0 0 0 .526-.53V1.53a.531.531 0 0 0-.325-.489.523.523 0 0 0-.201-.04H2.526a.523.523 0 0 0-.486.327.532.532 0 0 0-.04.202Zm0 47.64V53.4a.532.532 0 0 0 .325.489c.063.026.132.04.2.04h4.208a.524.524 0 0 0 .526-.529V49.17a.532.532 0 0 0-.325-.489.523.523 0 0 0-.201-.04H2.526a.523.523 0 0 0-.486.326.532.532 0 0 0-.04.203ZM54.088 1H49.88a.523.523 0 0 0-.486.327.529.529 0 0 0-.04.202v4.232a.529.529 0 0 0 .526.53h4.207a.524.524 0 0 0 .526-.53V1.53a.532.532 0 0 0-.325-.489.524.524 0 0 0-.201-.04Zm6.546 62H41.348a1.37 1.37 0 0 1-1.366-1.374V42.224c0-.759.612-1.374 1.366-1.374h19.286A1.37 1.37 0 0 1 62 42.224v19.402A1.37 1.37 0 0 1 60.634 63Z" stroke="#01A572" stroke-width="1.5" stroke-miterlimit="10" stroke-linecap="round" stroke-linejoin="round"/></g><defs><clipPath id="a"><path fill="#fff" d="M0 0h64v64H0z"/></clipPath></defs></svg>