<svg width="24" height="24" fill="none" xmlns="http://www.w3.org/2000/svg"><path d="M14.484 15.727c.913.01 1.626.188 2.097.443.466.252.633.537.661.784v.002c.045.381-.207.978-1.027 1.63-.687.548-1.663 1.037-2.802 1.345l-.498.12c-1.354.288-2.568.245-3.426-.014-.777-.235-1.11-.583-1.207-.89l-.027-.128-.002-.154c.03-.379.313-.907 1.031-1.478.786-.625 1.948-1.174 3.3-1.462l.002-.001a8.624 8.624 0 0 1 1.898-.197Zm1.98-7.93c1.976-.037 3.605.219 4.775.68 1.183.467 1.78 1.09 1.953 1.716.165.602-.013 1.48-.726 2.505-.583.838-1.483 1.704-2.671 2.48-.6-1.151-1.741-1.824-2.82-2.15-1.355-.41-2.917-.44-4.547-.135l-.326.065c-1.752.372-3.335 1.077-4.585 2.071-1.033.822-2.06 2.07-2.225 3.597-1.185-.16-2.166-.498-2.908-.934-.798-.468-1.281-1.017-1.497-1.532l-.076-.218c-.132-.473-.056-1.035.308-1.69.367-.66 1.006-1.373 1.904-2.081 1.796-1.415 4.512-2.725 7.726-3.556 1.945-.503 3.913-.782 5.715-.817ZM10.638 3.75c1.467 0 2.186.457 2.766.967.13.114.254.232.384.357-1.318.14-2.674.387-4.014.734-1.179.304-2.327.68-3.412 1.116.029-.062.059-.122.086-.182.157-.341.302-.657.464-.96.32-.599.677-1.084 1.205-1.43.525-.345 1.294-.602 2.52-.602Z" stroke="#7BA193" stroke-width="1.5"/></svg>