<svg width="64" height="64" fill="none" xmlns="http://www.w3.org/2000/svg"><path d="M10.25 24.281a.75.75 0 0 0 1.5 0h-1.5ZM36.117 6.302a.75.75 0 0 0 1.5 0h-1.5Zm2.31-3.749.53.532-.53-.532Zm1.49 48.978a.75.75 0 0 0-1.17.938l1.17-.938Zm-.852 4.56-.522-.538.522.538Zm-4.518 0 .523-.538-.523.538ZM32 53.618l.522-.538a.75.75 0 0 0-1.044 0l.522.538Zm-2.547 2.473-.523-.538.523.538Zm-2.26.909.001-.75V57Zm-2.258-.909-.523.538.523-.538Zm.319-3.623a.75.75 0 0 0-1.172-.937l1.172.938ZM18 63h-.75c0 .414.336.75.75.75V63Zm28 0v.75a.75.75 0 0 0 .75-.75H46Zm-2.687-14.669-.53-.53.53.53ZM36.526 14h.75a.75.75 0 0 0-1.384-.402l.634.402Zm9.61 8.042.53-.531-.53.531ZM45 31.25a.75.75 0 0 0 0 1.5v-1.5Zm1 1.5a.75.75 0 0 0 0-1.5v1.5Zm-1 .5a.75.75 0 0 0 0 1.5v-1.5Zm1 1.5a.75.75 0 0 0 0-1.5v1.5Zm-28-3.5a.75.75 0 0 0 0 1.5v-1.5Zm1 1.5a.75.75 0 0 0 0-1.5v1.5Zm-1 .5a.75.75 0 0 0 0 1.5v-1.5Zm1 1.5a.75.75 0 0 0 0-1.5v1.5Zm17-9.5a.75.75 0 0 0 0 1.5v-1.5Zm5 1.5a.75.75 0 0 0 0-1.5v1.5Zm-13 0a.75.75 0 0 0 0-1.5v1.5Zm-5-1.5a.75.75 0 0 0 0 1.5v-1.5Zm-7.234 7.5a.75.75 0 0 0 0-1.5v1.5Zm-3.565.422-.524-.537.524.537ZM16 40.75a.75.75 0 0 0 0-1.5v1.5Zm32.234-9.5a.75.75 0 0 0 0 1.5v-1.5Zm3.565 7.578.524.538-.524-.538ZM48 39.25a.75.75 0 0 0 0 1.5v-1.5ZM41.954 36v.75a.75.75 0 0 0 .562-.254L41.954 36Zm-6.908 0-.562.497a.75.75 0 0 0 .562.253V36ZM34 33.266h.75H34ZM28.954 36v.75a.75.75 0 0 0 .562-.254L28.954 36Zm-6.908 0-.562.497a.75.75 0 0 0 .562.253V36ZM21 33.266h.75H21ZM31.25 63a.75.75 0 1 0 1.5 0h-1.5Zm-3-20.329a.75.75 0 0 0-1.5 0h1.5Zm4.5 0a.75.75 0 0 0-1.5 0h1.5Zm4.5 0a.75.75 0 0 0-1.5 0h1.5ZM38.832 45l.028.749-.028-.75ZM11.75 24.28V11.757h-1.5V24.28h1.5Zm0-12.524c0-5.524 4.5-10.007 10.057-10.007V.25C15.428.25 10.25 5.398 10.25 11.757h1.5ZM21.807 1.75h9.734V.25h-9.734v1.5Zm9.734 0c2.53 0 4.576 2.041 4.576 4.552h1.5c0-3.346-2.723-6.052-6.076-6.052v1.5Zm6.076 4.552a4.52 4.52 0 0 1 1.34-3.217l-1.058-1.064a6.02 6.02 0 0 0-1.782 4.281h1.5Zm1.34-3.217a4.57 4.57 0 0 1 3.237-1.335V.25a6.07 6.07 0 0 0-4.295 1.772l1.058 1.063Zm3.237-1.335c5.557 0 10.056 4.483 10.056 10.007h1.5C53.75 5.398 48.573.25 42.194.25v1.5ZM52.25 11.757V36h1.5V11.757h-1.5ZM38.746 52.469a2.285 2.285 0 0 1-.203 3.084l1.045 1.076a3.785 3.785 0 0 0 .33-5.097l-1.172.937Zm-.203 3.084c-.957.93-2.516.93-3.473 0l-1.045 1.076a4.012 4.012 0 0 0 5.563 0l-1.045-1.076Zm-3.473 0-2.548-2.473-1.044 1.076 2.547 2.473 1.045-1.076Zm-3.593-2.473-2.547 2.473 1.045 1.076 2.547-2.473-1.044-1.076Zm-2.547 2.474c-.226.22-.495.395-.793.514l.56 1.392a3.943 3.943 0 0 0 1.279-.831l-1.046-1.075Zm-.793.514c-.299.12-.619.182-.943.182l-.002 1.5a4.02 4.02 0 0 0 1.504-.29l-.56-1.392Zm-.944.182a2.488 2.488 0 0 1-1.736-.697l-1.044 1.077a3.987 3.987 0 0 0 2.78 1.12v-1.5Zm-1.736-.697a2.286 2.286 0 0 1-.203-3.084l-1.172-.938a3.786 3.786 0 0 0 .33 5.098l1.045-1.076Zm-2.663-5.15c-3.369 2.552-5.544 6.549-5.544 11.047h1.5c0-4 1.932-7.565 4.95-9.852l-.906-1.196ZM17.25 61.45V63h1.5v-1.55h-1.5Zm.75 2.3h21v-1.5H18v1.5Zm21.586-12.125c3.478 2.304 5.664 5.867 5.664 9.825h1.5c0-4.543-2.513-8.542-6.336-11.075l-.828 1.25Zm5.664 9.825V63h1.5v-1.55h-1.5Zm.75.8h-3.266v1.5H46v-1.5Zm1.25-35.727V37.06h1.5V26.524h-1.5Zm0 10.536A15.11 15.11 0 0 1 42.784 47.8l1.058 1.063a16.61 16.61 0 0 0 4.908-11.804h-1.5ZM42.784 47.8a15.228 15.228 0 0 1-10.785 4.45v1.5c4.625 0 8.813-1.868 11.843-4.887L42.784 47.8Zm-10.785 4.45c-8.424 0-15.249-6.804-15.249-15.191h-1.5c0 9.22 7.502 16.691 16.75 16.691v-1.5ZM16.75 37.059V26.524h-1.5v10.535h1.5Zm0-10.535c0-3.084 2.509-5.587 5.61-5.587v-1.5c-3.925 0-7.11 3.17-7.11 7.086h1.5Zm5.61-5.587h2.905v-1.5H22.36v1.5Zm2.905 0a14.06 14.06 0 0 0 11.894-6.535l-1.267-.804a12.56 12.56 0 0 1-10.627 5.839v1.5ZM35.775 14v1.09h1.5V14h-1.5Zm0 1.09c0 3.232 2.629 5.847 5.865 5.847v-1.5c-2.413 0-4.364-1.949-4.364-4.346h-1.5Zm5.865 5.847c1.55 0 2.952.625 3.967 1.636l1.059-1.062a7.102 7.102 0 0 0-5.026-2.074v1.5Zm3.967 1.636a5.557 5.557 0 0 1 1.643 3.95h1.5c0-1.957-.797-3.73-2.084-5.012l-1.059 1.062ZM45 32.75h1v-1.5h-1v1.5Zm0 2h1v-1.5h-1v1.5Zm-27-2h1v-1.5h-1v1.5Zm0 2h1v-1.5h-1v1.5Zm18-8h5v-1.5h-5v1.5Zm-8-1.5h-5v1.5h5v-1.5Zm-12.234 6H15.1v1.5h.666v-1.5Zm-.666 0a4.888 4.888 0 0 0-3.423 1.385l1.047 1.073a3.388 3.388 0 0 1 2.376-.958v-1.5Zm-3.423 1.385a4.689 4.689 0 0 0-1.427 3.364h1.5c0-.89.369-1.7.974-2.29l-1.047-1.074Zm-1.427 3.364c0 2.64 2.188 4.751 4.85 4.751v-1.5c-1.868 0-3.35-1.473-3.35-3.25h-1.5Zm4.85 4.751h.9v-1.5h-.9v1.5Zm33.134-8h.666v-1.5h-.666v1.5Zm.666 0c1.868 0 3.35 1.472 3.35 3.25h1.5c0-2.64-2.188-4.75-4.85-4.75v1.5ZM52.25 36a3.19 3.19 0 0 1-.974 2.292l1.047 1.073A4.69 4.69 0 0 0 53.75 36h-1.5Zm-.974 2.291a3.394 3.394 0 0 1-2.376.959v1.5a4.894 4.894 0 0 0 3.423-1.384l-1.047-1.075Zm-2.376.959H48v1.5h.9v-1.5ZM28.75 33.5a2.25 2.25 0 0 0-2.25-2.25v1.5a.75.75 0 0 1 .75.75h1.5Zm-2.25-2.25a2.25 2.25 0 0 0-2.25 2.25h1.5a.75.75 0 0 1 .75-.75v-1.5Zm-2.25 2.25a2.25 2.25 0 0 0 2.25 2.25v-1.5a.75.75 0 0 1-.75-.75h-1.5Zm2.25 2.25a2.25 2.25 0 0 0 2.25-2.25h-1.5a.75.75 0 0 1-.75.75v1.5Zm1.25-2.25c0-.69-.56-1.25-1.25-1.25v1.5a.25.25 0 0 1-.25-.25h1.5Zm-1.25-1.25c-.69 0-1.25.56-1.25 1.25h1.5a.25.25 0 0 1-.25.25v-1.5Zm-1.25 1.25c0 .69.56 1.25 1.25 1.25v-1.5a.25.25 0 0 1 .25.25h-1.5Zm1.25 1.25c.69 0 1.25-.56 1.25-1.25h-1.5a.25.25 0 0 1 .25-.25v1.5Zm10.25-1.25a.75.75 0 0 1 .75-.75v-1.5a2.25 2.25 0 0 0-2.25 2.25h1.5Zm.75-.75a.75.75 0 0 1 .75.75h1.5a2.25 2.25 0 0 0-2.25-2.25v1.5Zm.75.75a.75.75 0 0 1-.75.75v1.5a2.25 2.25 0 0 0 2.25-2.25h-1.5Zm-.75.75a.75.75 0 0 1-.75-.75h-1.5a2.25 2.25 0 0 0 2.25 2.25v-1.5Zm.25-.75a.25.25 0 0 1-.25.25v-1.5c-.69 0-1.25.56-1.25 1.25h1.5Zm-.25.25a.25.25 0 0 1-.25-.25h1.5c0-.69-.56-1.25-1.25-1.25v1.5Zm-.25-.25a.25.25 0 0 1 .25-.25v1.5c.69 0 1.25-.56 1.25-1.25h-1.5Zm.25-.25a.25.25 0 0 1 .25.25h-1.5c0 .69.56 1.25 1.25 1.25v-1.5Zm4.75.016c0 .846-.32 1.626-.859 2.238l1.125.992a4.869 4.869 0 0 0 1.234-3.23h-1.5Zm-.296 1.984h-6.908v1.5h6.908v-1.5Zm-6.346.253a3.369 3.369 0 0 1-.858-2.236l-1.5-.002a4.868 4.868 0 0 0 1.234 3.232l1.124-.994Zm-.858-2.237c0-1.905 1.64-3.516 3.75-3.516v-1.5c-2.861 0-5.25 2.208-5.25 5.016h1.5Zm3.75-3.516c2.11 0 3.75 1.611 3.75 3.516h1.5c0-2.807-2.388-5.016-5.25-5.016v1.5Zm-9.25 3.516c0 .846-.32 1.626-.859 2.238l1.125.992a4.869 4.869 0 0 0 1.234-3.23h-1.5Zm-.296 1.984h-6.908v1.5h6.908v-1.5Zm-6.346.253a3.369 3.369 0 0 1-.858-2.236l-1.5-.002a4.868 4.868 0 0 0 1.234 3.232l1.124-.994Zm-.858-2.237c0-1.905 1.64-3.516 3.75-3.516v-1.5c-2.861 0-5.25 2.208-5.25 5.016h1.5Zm3.75-3.516c2.11 0 3.75 1.611 3.75 3.516h1.5c0-2.807-2.388-5.016-5.25-5.016v1.5ZM31.25 53v10h1.5V53h-1.5Zm-5.616-14.75c-1.893 0-3.384 1.58-3.384 3.476h1.5c0-1.116.867-1.976 1.884-1.976v-1.5Zm-3.384 3.476v.945h1.5v-.945h-1.5Zm0 .945c0 1.676 1.319 3.079 3 3.079v-1.5c-.805 0-1.5-.682-1.5-1.579h-1.5Zm3 3.079c1.68 0 3-1.403 3-3.079h-1.5c0 .897-.696 1.579-1.5 1.579v1.5Zm1.5-3.079c0 1.676 1.319 3.079 3 3.079v-1.5c-.805 0-1.5-.682-1.5-1.579h-1.5Zm3 3.079c1.68 0 3-1.403 3-3.079h-1.5c0 .897-.696 1.579-1.5 1.579v1.5Zm1.5-3.079c0 1.676 1.319 3.079 3 3.079v-1.5c-.804 0-1.5-.682-1.5-1.579h-1.5Zm3 3.079c1.68 0 3-1.403 3-3.079h-1.5c0 .897-.696 1.579-1.5 1.579v1.5Zm1.5-3.079c0 1.712 1.378 3.14 3.11 3.077l-.056-1.499c-.828.03-1.554-.661-1.554-1.578h-1.5Zm3.11 3.077c1.668-.061 2.89-1.514 2.89-3.133h-1.5c0 .907-.675 1.606-1.446 1.634l.056 1.499Zm2.89-3.133v-.889h-1.5v.89h1.5Zm0-.889c0-1.895-1.491-3.476-3.384-3.476v1.5c1.017 0 1.884.86 1.884 1.976h1.5Zm-3.384-3.476H25.634v1.5h12.732v-1.5Z" fill="#01A572"/></svg>