<svg width="24" height="24" fill="none" xmlns="http://www.w3.org/2000/svg"><path d="m6.9 20.6.386-.643a.75.75 0 0 0-.592-.078l.206.721ZM3.3 17l.726.189a.75.75 0 0 0-.064-.542L3.3 17Zm-.86 3.306.726.189-.726-.189Zm1.243 1.213-.206-.721.206.721Zm12.398-5.721.555.504-.555-.504Zm-.74.531-.283-.694-.004.002.288.692Zm-3.898-1.049-.441.607.441-.607Zm-1.478-1.26-.532.529.005.005.527-.534ZM8.708 12.55l-.609.438.003.004.606-.442Zm-.884-1.534-.69.29v.003l.69-.293Zm-.162-2.34.696.278.002-.004-.698-.274Zm.519-.752.514.546.006-.006.005-.005-.525-.535Zm1.302-.342-.324.676.01.005.314-.681Zm.302.252-.616.427.005.007.61-.434Zm1.046 1.472-.612.434.003.004.609-.438Zm.18.315-.694.284.005.011.689-.295Zm-.032.594-.64-.39-.007.01-.006.01.653.37Zm-.252.319-.53-.53-.005.004-.005.006.54.52Zm-.343.356.53.53.005-.005.005-.005-.54-.52Zm-.058.283-.728.182.01.042.016.04.702-.264Zm.036.09-.712.237.022.064.032.059.658-.36Zm.419.576-.572.485.005.006.567-.491Zm.653.711-.535.526.005.005.005.005.525-.536Zm.717.662-.485.572.485-.572Zm.581.413-.35.664.035.018.037.015.278-.697Zm.082.037-.296.689.016.007.016.006.263-.702Zm.297-.059-.527-.534-.003.003.53.531Zm.342-.338.527.535.003-.004-.53-.53Zm.325-.252.346.666.022-.012.021-.013-.39-.64Zm.91.14.434-.612-.006-.004-.006-.005-.422.621Zm1.492 1.058-.434.611.008.005.426-.617Zm.248.287.696-.278-.005-.012-.005-.012-.686.303Zm-9.914 6.746A10.768 10.768 0 0 0 12 22.75v-1.5a9.27 9.27 0 0 1-4.714-1.293l-.772 1.286ZM12 22.75c5.914 0 10.75-4.836 10.75-10.75h-1.5c0 5.086-4.164 9.25-9.25 9.25v1.5ZM22.75 12c0-5.914-4.836-10.75-10.75-10.75v1.5c5.086 0 9.25 4.164 9.25 9.25h1.5ZM12 1.25C6.086 1.25 1.25 6.086 1.25 12h1.5c0-5.086 4.164-9.25 9.25-9.25v-1.5ZM1.25 12c0 1.94.54 3.76 1.388 5.353l1.324-.706C3.21 15.24 2.75 13.66 2.75 12h-1.5Zm1.324 4.811-.86 3.306 1.452.378.86-3.306-1.452-.378Zm1.315 5.43 3.217-.92-.412-1.442-3.217.919.412 1.442Zm-2.174-2.124c-.341 1.31.872 2.495 2.174 2.123l-.412-1.442a.25.25 0 0 1-.31-.303l-1.452-.378Zm14.035-5.269c0 .05-.01.107-.04.17l1.355.642c.124-.261.185-.537.185-.812h-1.5Zm-.04.17c-.048.1-.106.19-.185.276l1.111 1.008c.183-.202.323-.417.43-.642l-1.357-.642Zm-.184.276c-.155.17-.308.275-.468.34l.568 1.39c.39-.16.723-.406 1.01-.722l-1.11-1.008Zm-.472.342c-.176.074-.37.114-.591.114v1.5c.41 0 .802-.077 1.167-.229l-.576-1.385Zm-.591.114c-.341 0-.733-.08-1.176-.269l-.587 1.38c.594.253 1.185.389 1.763.389v-1.5Zm-1.176-.269a7.175 7.175 0 0 1-1.403-.807l-.882 1.213c.555.403 1.122.73 1.698.975l.587-1.38Zm-1.402-.806c-.487-.356-.95-.75-1.392-1.188l-1.055 1.067c.495.489 1.014.932 1.563 1.332l.884-1.211Zm-1.387-1.183a12.031 12.031 0 0 1-1.184-1.385l-1.212.884c.397.545.84 1.064 1.33 1.558l1.066-1.057Zm-1.182-1.381a7.275 7.275 0 0 1-.801-1.39l-1.38.587c.241.569.568 1.13.964 1.68l1.217-.877Zm-.8-1.388c-.185-.438-.266-.83-.266-1.18h-1.5c0 .585.135 1.175.383 1.763l1.383-.583Zm-.266-1.18c0-.217.038-.414.108-.59l-1.392-.557a3.074 3.074 0 0 0-.216 1.147h1.5Zm.11-.594c.065-.165.171-.326.335-.48L7.666 7.377A2.82 2.82 0 0 0 6.964 8.4l1.396.55Zm.346-.491c.175-.172.31-.208.412-.208v-1.5c-.565 0-1.061.243-1.463.638l1.051 1.07Zm.412-.208c.021 0 .036.005.04.007l.65-1.352a1.598 1.598 0 0 0-.69-.155v1.5Zm.051.012c.005.002.005.003.003.001a.029.029 0 0 1-.003-.003c-.001 0-.001 0 0 0l1.232-.854a1.484 1.484 0 0 0-.604-.506l-.628 1.362Zm.005.005 1.045 1.472 1.223-.869L10.396 7.4l-1.222.868Zm1.048 1.476c.054.075.08.127.095.16l1.388-.568a2.285 2.285 0 0 0-.266-.47l-1.217.878Zm.1.172.005.015-.002-.01a.213.213 0 0 1-.001-.026h1.5c0-.211-.054-.408-.124-.57l-1.378.591Zm.002-.021a.183.183 0 0 1 .015-.07l1.28.78a1.36 1.36 0 0 0 .205-.71h-1.5Zm.002-.05a.804.804 0 0 1-.13.158l1.06 1.062c.143-.142.275-.303.376-.481l-1.306-.739Zm-.14.169-.342.355 1.08 1.04.343-.355-1.08-1.04Zm-.332.345a.99.99 0 0 0-.292.71h1.5a.512.512 0 0 1-.148.35l-1.06-1.06Zm-.292.71c0 .108.015.2.036.286l1.455-.364a.323.323 0 0 1 .01.079h-1.5Zm.062.368.03.077c.004.007.004.008.004.006a.413.413 0 0 1-.008-.02l1.423-.475c-.015-.045-.032-.084-.037-.096l-.007-.017-.001-.003-1.404.528Zm.08.186c.116.213.293.451.505.7l1.144-.969a3.066 3.066 0 0 1-.333-.45l-1.316.719Zm.51.707c.21.243.438.493.685.746l1.07-1.052a14.55 14.55 0 0 1-.621-.676l-1.134.982Zm.695.756c.25.244.499.478.757.698l.97-1.145c-.22-.185-.44-.392-.677-.625l-1.05 1.072Zm.758.698c.257.217.496.389.715.505l.7-1.327a2.757 2.757 0 0 1-.447-.323l-.968 1.145Zm.787.538-.007-.003.01.005.061.027.59-1.379a.96.96 0 0 1-.026-.012l-.028-.013a1.16 1.16 0 0 0-.043-.018l-.557 1.393Zm.096.042c.146.054.278.066.376.066v-1.5c.018 0 .077.002.15.03l-.526 1.404Zm.376.066a.997.997 0 0 0 .715-.296l-1.06-1.062a.492.492 0 0 1 .345-.143v1.5Zm.711-.293.343-.337-1.053-1.069-.342.338 1.052 1.068Zm.346-.34a.7.7 0 0 1 .141-.118l-.693-1.33a2.12 2.12 0 0 0-.507.386l1.06 1.061Zm.184-.143c.004-.002-.002.003-.019.008a.181.181 0 0 1-.05.007v-1.5a1.35 1.35 0 0 0-.71.204l.78 1.281Zm-.07.015a.109.109 0 0 1-.02-.002c-.004 0 0 0 .012.005l.567-1.389a1.469 1.469 0 0 0-.558-.114v1.5Zm-.008.003c.036.015.093.044.178.102l.843-1.242a2.484 2.484 0 0 0-.454-.249l-.567 1.389Zm.165.093 1.492 1.057.868-1.223-1.492-1.058-.867 1.224Zm1.5 1.062c.012.01.012.011.007.005a.123.123 0 0 1-.02-.031l1.373-.605a1.43 1.43 0 0 0-.508-.602l-.853 1.233Zm-.022-.05c.01.024.014.04.015.049a.108.108 0 0 1 .003.024h1.5c0-.242-.053-.45-.126-.63l-1.392.557Z" fill="#7BA193"/></svg>