<svg width="54" height="54" fill="none" xmlns="http://www.w3.org/2000/svg"><path d="M39.474 27.76c0 7.196 5.762 6 6.31 10.433l.89 7.177c.196 1.592-.626 2.894-2.22 2.894H27.686c-1.595 0-2.415-1.303-2.219-2.894l.887-7.177c.55-4.433 6.312-3.237 6.312-10.434l3.404 1.194 3.404-1.194Z" fill="#B2E9D5"/><path d="M29.718 22.913c0 3.616 2.952 8.008 6.594 8.008 3.642 0 6.593-4.392 6.593-8.008 0-1.735-.694-3.4-1.931-4.628a6.618 6.618 0 0 0-4.662-1.917c-1.749 0-3.426.69-4.663 1.917a6.521 6.521 0 0 0-1.93 4.628Zm-15.925 4.795c0 7.215-5.852 6.016-6.41 10.46l-.9 7.195c-.2 1.595.633 2.9 2.253 2.9h17.026c1.619 0 2.454-1.305 2.254-2.9l-.901-7.197c-.557-4.443-6.41-3.244-6.41-10.46l-3.456 1.197-3.455-1.195Z" fill="#B2E9D5"/><path d="M23.92 22.858c0 3.584-3.06 7.939-6.835 7.939-3.774 0-6.835-4.355-6.835-7.94 0-1.72.72-3.371 2.002-4.588 1.282-1.217 3.02-1.9 4.833-1.9 1.813 0 3.551.683 4.833 1.9 1.282 1.217 2.002 2.868 2.002 4.589Z" fill="#B2E9D5"/><path d="M22.849 20.165c0 10.395-8.23 8.667-9.012 15.072L12.57 45.603c-.282 2.298.892 4.18 3.168 4.18h21.68c2.276 0 3.449-1.882 3.168-4.18l-1.267-10.366c-.783-6.405-8.745-4.677-8.745-15.072l-3.62 1.726-4.105-1.726Z" fill="url(#a)"/><path d="M36.308 13.568c0 5.164-4.186 11.438-9.35 11.438s-9.35-6.274-9.35-11.438a9.35 9.35 0 0 1 18.7 0Z" fill="url(#b)"/><path d="m26.578 34.333-1.902.452-2.084 14.997h7.973L28.48 34.785l-1.902-.452Z" fill="#fff"/><path d="M28.483 34.795c-.201.145-1.655.207-1.902.207-.248 0-1.702-.058-1.901-.204-.201-.145-.653-1.527-.73-1.762-.077-.236-.526-1.618-.45-1.853.076-.237 1.252-1.092 1.451-1.238.2-.147 1.376-1 1.625-1 .246 0 1.423.852 1.624.997.201.145 1.378.999 1.454 1.234.077.237-.37 1.619-.447 1.854-.076.237-.525 1.619-.724 1.765Z" fill="#fff"/><defs><linearGradient id="a" x1="12.529" y1="30.161" x2="40.809" y2="37.204" gradientUnits="userSpaceOnUse"><stop offset=".165" stop-color="#C4F756"/><stop offset="1" stop-color="#9ED42A"/></linearGradient><linearGradient id="b" x1="17.607" y1="11.235" x2="36.541" y2="15.706" gradientUnits="userSpaceOnUse"><stop offset=".165" stop-color="#C4F756"/><stop offset="1" stop-color="#9ED42A"/></linearGradient></defs></svg>