<svg width="44" height="44" fill="none" xmlns="http://www.w3.org/2000/svg"><g filter="url(#a)"><rect width="44" height="44" rx="22" fill="#E4EEEA"/><path d="m15.319 24.504-.836 3.118-3.053.065A11.947 11.947 0 0 1 10 22c0-1.99.484-3.866 1.342-5.519l2.719.499 1.19 2.702A7.134 7.134 0 0 0 14.868 22c0 .881.16 1.725.452 2.504Z" fill="#FBBB00"/><path d="M33.79 19.758a12.028 12.028 0 0 1-.053 4.747 11.998 11.998 0 0 1-4.225 6.853l-3.424-.175-.485-3.025a7.152 7.152 0 0 0 3.077-3.652h-6.416v-4.748H33.79Z" fill="#518EF8"/><path d="M29.512 31.357A11.95 11.95 0 0 1 22 34c-4.57 0-8.543-2.554-10.57-6.313l3.889-3.184a7.135 7.135 0 0 0 10.284 3.654l3.909 3.2Z" fill="#28B446"/><path d="m29.66 12.763-3.888 3.182a7.137 7.137 0 0 0-10.52 3.736l-3.91-3.2A11.998 11.998 0 0 1 22 10a11.95 11.95 0 0 1 7.66 2.763Z" fill="#F14336"/></g><defs><filter id="a" x="-10" y="-10" width="64" height="64" filterUnits="userSpaceOnUse" color-interpolation-filters="sRGB"><feFlood flood-opacity="0" result="BackgroundImageFix"/><feGaussianBlur in="BackgroundImageFix" stdDeviation="5"/><feComposite in2="SourceAlpha" operator="in" result="effect1_backgroundBlur_2039_16059"/><feBlend in="SourceGraphic" in2="effect1_backgroundBlur_2039_16059" result="shape"/></filter></defs></svg>