<svg width="73" height="140" fill="none" xmlns="http://www.w3.org/2000/svg"><path d="M49.629 78.475h-25.34c-7.451 0-13.793-6.418-14.93-15.11L7.03 45.502c-1.405-10.79 5.673-20.511 14.93-20.511h30.183c9.338 0 16.429 9.88 14.904 20.738l-2.529 17.864C63.302 72.177 57 78.475 49.615 78.475h.014Z" fill="#364E45"/><path d="M57.49 62.388c-3.091 4.974-2.797 10.857.668 13.157 3.465 2.287 8.79.12 11.88-4.854 3.09-4.974 2.797-10.857-.668-13.157-3.466-2.3-8.79-.12-11.88 4.854Z" fill="#F2F7F5" stroke="#273B34" stroke-width=".5" stroke-linecap="round" stroke-linejoin="round"/><path d="M66.76 59.928c1.499.588 2.635 2.006 2.89 3.597.24 1.59-.415 3.289-1.672 4.292" stroke="#273B34" stroke-width=".5" stroke-linecap="round" stroke-linejoin="round"/><path d="M15.68 62.388c3.09 4.974 2.796 10.858-.67 13.157-3.464 2.287-8.789.12-11.88-4.853C.04 65.718.335 59.834 3.8 57.535c3.465-2.3 8.79-.12 11.88 4.853Z" fill="#F2F7F5" stroke="#273B34" stroke-width=".5" stroke-linecap="round" stroke-linejoin="round"/><path d="M6.405 59.928c-1.498.589-2.634 2.006-2.888 3.597-.241 1.591.414 3.29 1.671 4.292" stroke="#273B34" stroke-width=".5" stroke-linecap="round" stroke-linejoin="round"/><path d="M53.814 122.398c.294 8.985-6.89 16.406-15.88 16.406-8.991 0-15.895-7.14-15.895-15.871 0-.174 0-.361.014-.535l1.766-23.68.454-5.99.884-11.767H50.71l1.404 18.599 1.004 13.531.709 9.307h-.013Z" fill="#F2F7F5" stroke="#273B34" stroke-width=".56" stroke-linecap="round" stroke-linejoin="round"/><path d="M53.117 113.09c-8.388.602-17.633-3.57-23.974-11.673-2.14-2.714-3.773-5.67-4.87-8.678l.883-11.766h25.553l1.405 18.599 1.003 13.531v-.013Z" fill="#364E45"/><path d="M65.358 70.426c0 6.886-2.81 13.464-7.8 18.224l-7.599 6.82a12.177 12.177 0 0 1-8.977 3.944h-7.077c-3.385 0-6.61-1.404-8.924-3.864l-7.76-6.886a25.183 25.183 0 0 1-7.946-18.359l.12-2.099.696-12.047.522-8.932c0-14.842 11.947-26.89 26.677-26.89 7.385 0 14.047 3.01 18.877 7.876a26.877 26.877 0 0 1 7.826 19.014l.59 10.162.574 10.028.174 3.009h.027Z" fill="#F2F7F5" stroke="#273B34" stroke-width=".5" stroke-linecap="round" stroke-linejoin="round"/><path d="M64.605 57.389h-.83c-3.906-5.736-6.435-12.408-7.264-19.294-.522-4.292-6.636-5.75-10.944-5.269-1.94 2.929-5.351 4.84-8.883 4.948-3.519.107-6.984-2.247-9.098-5.068-4.294-.468-10.435.976-10.957 5.268A43.537 43.537 0 0 1 10.1 56.16l.522-8.932c0-14.842 11.947-26.89 26.677-26.89 7.385 0 14.048 3.01 18.877 7.876a26.877 26.877 0 0 1 7.827 19.014l.589 10.162h.013ZM65.356 70.425l-.174-3.008c-2.087 2.754-4.643 6.137-6.462 8.13-2.61 2.861-7.104 3.169-11.573 3.062-1.164-.027-2.702-.562-4.254-1.27-3.88-1.766-8.71-1.766-12.603 0-1.538.708-3.104 1.243-4.268 1.27-4.468.107-8.963-.201-11.559-3.062-1.579-1.739-3.452-4.64-5.03-7.341l-.12 2.1c0 1.19.106 2.352.28 3.516-.053-.094-.107-.174-.16-.268l-.12 2.1a25.153 25.153 0 0 0 7.946 18.358l7.76 6.886a12.23 12.23 0 0 0 8.923 3.864h7.078c3.411 0 6.676-1.43 8.977-3.944l7.599-6.82a25.197 25.197 0 0 0 7.8-18.224l-.147-2.648c.093-.895.147-1.805.147-2.714l-.04.013Z" fill="#364E45"/><path d="M32.618 104.697c1.538 0 3.077-.134 4.615-.161 1.526-.08 3.104-.053 4.59-.133 2.996-.241 5.846-1.592 7.973-3.745h.013v-.013a104.584 104.584 0 0 1 3.773-3.063 119.112 119.112 0 0 1-3.451 3.424h.013c-2.047 2.367-5.11 3.918-8.282 4.065-1.578.054-3.09-.013-4.642-.067-1.538-.066-3.077-.066-4.615-.307h.013ZM49.8 83.997c-3.492 3.557-8.202 5.563-12.884 5.402-4.255-.134-8.429-2.06-11.64-5.228h.75c1.163-.027 2.729-.642 4.267-1.444 3.894-2.006 8.723-2.006 12.603 0 1.552.802 3.09 1.417 4.255 1.444.882.027 1.765-.027 2.635-.187l.014.013Z" fill="#F2F7F5"/><path d="M36.914 87.74c1.485.616 2.248 1.231 2.81 1.846.522.615.776 1.23.776 1.846 0 .615-.241 1.23-.763 1.845-.548.615-1.324 1.23-2.81 1.846-1.484-.616-2.26-1.23-2.809-1.846-.522-.615-.776-1.23-.763-1.845 0-.615.255-1.23.776-1.846.549-.615 1.325-1.23 2.81-1.845h-.027ZM43.19 52.267c1.244-.749 2.609-1.257 4.04-1.645a15.796 15.796 0 0 1 4.536-.521c1.565.053 3.197.414 4.629 1.163 1.431.736 2.608 1.9 3.237 3.277-1.445-.482-2.742-.722-3.987-.763-1.244-.04-2.435.12-3.639.335-2.421.428-4.87 1.27-7.626 1.604a1.868 1.868 0 0 1-2.087-1.618 1.869 1.869 0 0 1 .897-1.832ZM30.267 55.717c-2.756-.347-5.217-1.176-7.626-1.605-1.204-.213-2.394-.374-3.639-.334-1.244.04-2.541.294-3.986.763.628-1.391 1.806-2.541 3.237-3.277 1.432-.749 3.064-1.11 4.63-1.163 1.578-.054 3.103.16 4.535.521 1.431.388 2.796.896 4.04 1.645a1.857 1.857 0 0 1 .642 2.554 1.88 1.88 0 0 1-1.833.896ZM43.739 63.7c.388-.602.79-1.177 1.204-1.752.468-.588.963-1.163 1.565-1.618 1.19-.95 2.662-1.538 4.188-1.765 1.525-.187 3.117-.027 4.535.602.722.28 1.365.722 1.967 1.163.562.428 1.123.856 1.485 1.551.08.16.026.361-.134.442-.067.04-.134.04-.2.04-.777-.12-1.365-.508-1.967-.896a9.92 9.92 0 0 0-1.74-.843c-1.204-.441-2.488-.588-3.772-.495-1.271.134-2.542.509-3.626 1.23-.575.322-1.057.763-1.538 1.218-.495.495-.99 1.003-1.512 1.484-.12.107-.308.107-.415-.013-.094-.107-.107-.254-.027-.361l-.013.013Z" fill="#364E45"/><path d="M48.624 61.56a2.45 2.45 0 0 1 2.636-2.274 2.45 2.45 0 0 1 2.274 2.634 2.45 2.45 0 0 1-2.636 2.274 2.45 2.45 0 0 1-2.274-2.635Z" fill="#364E45"/><path d="M44.25 63.913c1.19.628 2.581.935 4.013.882M43.898 60.945a8.775 8.775 0 0 1 5.833-3.503" stroke="#273B34" stroke-width=".5" stroke-linecap="round" stroke-linejoin="round"/><path d="M31.74 64.075c-.522-.482-1.018-.99-1.513-1.485-.481-.454-.976-.896-1.538-1.217-1.084-.722-2.368-1.096-3.626-1.23a8.841 8.841 0 0 0-3.772.495c-.603.2-1.178.508-1.74.842-.588.388-1.177.776-1.966.896a.33.33 0 0 1-.375-.28c0-.067 0-.134.04-.201.361-.695.937-1.123 1.485-1.551.602-.441 1.258-.883 1.967-1.164 1.405-.628 3.01-.789 4.535-.602 1.525.228 2.997.816 4.188 1.766.602.454 1.11 1.043 1.565 1.618.401.588.816 1.15 1.204 1.752a.276.276 0 0 1-.094.4.3.3 0 0 1-.36-.026v-.013Z" fill="#364E45"/><path d="M27.31 61.56a2.45 2.45 0 0 0-2.636-2.273A2.45 2.45 0 0 0 22.4 61.92a2.45 2.45 0 0 0 2.635 2.274 2.45 2.45 0 0 0 2.275-2.635Z" fill="#364E45"/><path d="M31.688 63.913c-1.19.628-2.582.936-4.013.882M32.035 60.945a8.775 8.775 0 0 0-5.833-3.503" stroke="#273B34" stroke-width=".5" stroke-linecap="round" stroke-linejoin="round"/><path d="M37.865 72.871V60.904M33.704 74.944l2.06.87a5.334 5.334 0 0 0 4.108 0l2.06-.87" stroke="#273B34" stroke-width=".46" stroke-linecap="round" stroke-linejoin="round"/><path d="M39.51 84.423c2.502.027 5.137-.468 7.278-1.752M34.734 84.53c-2.502.027-5.137-.468-7.278-1.751" stroke="#273B34" stroke-width=".42" stroke-linecap="round" stroke-linejoin="round"/><path d="M34.734 84.53c1.137.868 3.251 1.082 4.776-.107" stroke="#273B34" stroke-width=".42" stroke-linecap="round" stroke-linejoin="round"/><path d="M37.2 78.675c.55-1.163 1.66-1.858 2.757-2.166 1.11-.307 2.234-.24 3.238-.053 2.087.468 3.572 1.297 4.682 1.765l1.311.561a3.1 3.1 0 0 0 1.285.321c1.177.094 2.903-.508 5.11-.709-.214 2.541-.99 4.734-2.903 6.472-.936.856-2.274 1.43-3.626 1.538-1.35.12-2.595-.228-3.625-.682-2.06-.95-3.385-2.367-4.402-3.503-.535-.615-1.03-1.204-1.578-1.819-.562-.615-1.191-1.217-2.248-1.725Z" fill="#364E45"/><path d="M37.213 78.675c-1.043.509-1.672 1.097-2.247 1.725-.562.615-1.057 1.217-1.579 1.819-1.003 1.136-2.341 2.554-4.402 3.503-1.016.455-2.274.802-3.625.682-1.351-.094-2.69-.682-3.626-1.538-1.926-1.738-2.689-3.93-2.903-6.471 2.194.2 3.933.802 5.11.708.59-.026.95-.16 1.285-.32l1.311-.562c1.11-.468 2.596-1.297 4.683-1.765 1.017-.187 2.127-.254 3.237.053 1.097.308 2.208 1.003 2.756 2.166ZM39.447 32.57c4.963-.574 10.288-2.232 12.977-6.444 2.275-3.543 2.128-8.236.549-12.128-2.355-5.802-7.907-10.242-14.128-11.03-6.208-.79-12.803 2.232-16.068 7.58-3.25 5.35-2.836 12.743 1.19 17.544 4.015 4.8 11.413 6.485 17.019 3.69" fill="#364E45"/><path d="M53.92 13.17c2.73 2.647 2.756 7.327.83 10.63-1.927 3.302-5.352 5.428-8.87 6.845-5.406 2.18-11.6 2.928-17.032.816-5.431-2.113-9.793-7.555-9.552-13.438" stroke="#273B34" stroke-width=".4" stroke-linecap="round" stroke-linejoin="round"/><path d="M41.288 29.294c5.111-.655 9.513-4.773 10.77-9.76 1.271-4.988-.508-10.55-4.227-14.12-3.706-3.57-9.165-5.122-14.262-4.373-4.616.682-9.017 3.263-11.426 7.247-2.408 3.985-2.582 9.36-.013 13.251s7.907 5.843 12.242 4.118" stroke="#273B34" stroke-width=".4" stroke-linecap="round" stroke-linejoin="round"/></svg>