<svg width="196" height="188" fill="none" xmlns="http://www.w3.org/2000/svg"><path d="M122.172 45.548c-3.575 5.745-3.227 12.561.767 15.21 4.009 2.648 10.16.145 13.734-5.615 3.575-5.746 3.227-12.562-.767-15.21-4.009-2.649-10.159-.145-13.734 5.6v.015Z" fill="#F2F7F5" stroke="#273B34" stroke-width=".54" stroke-linecap="round" stroke-linejoin="round"/><path d="M132.898 42.711c1.737.68 3.054 2.33 3.329 4.168.274 1.838-.493 3.807-1.94 4.979" stroke="#273B34" stroke-width=".54" stroke-linecap="round" stroke-linejoin="round"/><path d="M73.847 45.548c3.575 5.745 3.228 12.561-.767 15.21-4.009 2.648-10.16.145-13.734-5.615-3.574-5.746-3.227-12.562.767-15.21 4.009-2.649 10.16-.145 13.734 5.6v.015Z" fill="#F2F7F5" stroke="#273B34" stroke-width=".54" stroke-linecap="round" stroke-linejoin="round"/><path d="M63.124 42.711c-1.737.68-3.053 2.33-3.329 4.168-.275 1.838.493 3.806 1.94 4.979" stroke="#273B34" stroke-width=".54" stroke-linecap="round" stroke-linejoin="round"/><path d="M115.876 112.105c.319 9.726-7.453 17.758-17.178 17.758-9.725 0-17.193-7.728-17.193-17.179 0-.188 0-.391.015-.579l1.91-25.63.492-6.483.955-12.736h27.642l1.52 20.116 1.085 14.646.767 10.073-.015.014Z" fill="#F2F7F5" stroke="#273B34" stroke-width=".56" stroke-linecap="round" stroke-linejoin="round"/><path d="M115.108 102.032c-9.074.651-19.074-3.864-25.934-12.634-2.315-2.938-4.08-6.136-5.268-9.392l.956-12.736h27.641l1.52 20.116 1.085 14.646Z" fill="#364E45"/><path d="M128.525 62.596c-1.071 2.765-2.634 5.644-4.501 8.438-3.603 5.383-8.379 10.434-13.155 13.647-5.224 3.502-12.084 4.645-18.047 2.62-4.689-1.593-8.567-4.965-12.026-8.51-4.313-4.429-8.25-9.378-10.463-15.167-1.722-4.501-2.446-9.494-2.649-14.617-.275-7.091.492-14.414 1.1-20.927.883-9.61 6.715-18.727 15.008-23.618 8.133-4.79 18.539-5.5 27.251-1.867 8.712 3.647 15.514 11.534 17.829 20.695 1.65 6.512 1.086 13.27 1.187 19.914.029 1.867.116 3.748.159 5.63.131 4.674.029 9.348-1.678 13.762h-.015Z" fill="#F2F7F5" stroke="#273B34" stroke-width=".54" stroke-linecap="round" stroke-linejoin="round"/><path d="M106.531 38.456c.593-1.823 1.953-3.241 3.487-4.255a11.986 11.986 0 0 1 5.21-1.837 11.977 11.977 0 0 1 5.485.68c1.722.666 3.329 1.75 4.327 3.386l-4.964.232a96.103 96.103 0 0 0-4.341.347 69.683 69.683 0 0 0-4.313.579c-1.491.232-3.01.521-4.877.868h-.014ZM92.39 38.456c-1.867-.347-3.386-.636-4.877-.868a98.686 98.686 0 0 0-4.312-.579 97.81 97.81 0 0 0-4.342-.347l-4.964-.232c.999-1.65 2.605-2.72 4.327-3.386a11.955 11.955 0 0 1 5.485-.68c1.853.202 3.662.825 5.21 1.838 1.534 1.027 2.894 2.43 3.488 4.254h-.015ZM105.284 50.888c.26-.724.564-1.433.839-2.142l.029-.044c.767-1.375 1.78-2.692 3.169-3.603a9.239 9.239 0 0 1 4.66-1.563 10.7 10.7 0 0 1 4.805.81c.753.319 1.462.71 2.127 1.172.666.434 1.288.999 1.621 1.751a.356.356 0 0 1-.173.478.356.356 0 0 1-.246.014c-.825-.231-1.39-.593-2.012-.955a12.684 12.684 0 0 0-1.925-.868 11.275 11.275 0 0 0-4.095-.622c-1.375.043-2.721.39-3.922 1.07-1.187.695-2.229 1.694-3.097 2.866l.029-.043c-.406.65-.796 1.317-1.216 1.953a.326.326 0 0 1-.449.087c-.13-.087-.173-.246-.13-.39l-.014.029Z" fill="#364E45"/><path d="M119.452 49.136c1.013-.333 1.954-.868 2.706-1.577" stroke="#273B34" stroke-width=".51" stroke-linecap="round" stroke-linejoin="round"/><path d="M110.176 47.27a2.878 2.878 0 0 1 2.879-2.88 2.878 2.878 0 0 1 2.88 2.88 2.878 2.878 0 0 1-2.88 2.88 2.878 2.878 0 0 1-2.879-2.88Z" fill="#364E45"/><path d="M104.689 46.517c.955-1.954 2.677-3.603 4.761-4.53a10.725 10.725 0 0 1 6.788-.636" stroke="#273B34" stroke-width=".51" stroke-linecap="round" stroke-linejoin="round"/><path d="M93.052 49.484c-.42-.637-.81-1.303-1.216-1.954l.03.043c-.869-1.172-1.91-2.156-3.098-2.865-1.2-.68-2.547-1.028-3.921-1.071-1.39-.043-2.78.16-4.096.622-.666.232-1.317.507-1.925.869-.622.361-1.201.723-2.011.955a.344.344 0 0 1-.435-.246c-.029-.087 0-.174.015-.246.333-.767.955-1.332 1.62-1.766a12.638 12.638 0 0 1 2.128-1.172 10.698 10.698 0 0 1 4.805-.81 9.283 9.283 0 0 1 4.66 1.562c1.39.912 2.402 2.23 3.17 3.604l.028.043c.275.71.58 1.419.84 2.142a.328.328 0 0 1-.203.42.324.324 0 0 1-.39-.13Z" fill="#364E45"/><path d="M79.466 47.442c-1.013-.332-1.954-.868-2.706-1.577" stroke="#273B34" stroke-width=".51" stroke-linecap="round" stroke-linejoin="round"/><path d="M88.74 45.576a2.878 2.878 0 0 0-2.88-2.88 2.878 2.878 0 0 0-2.88 2.88 2.878 2.878 0 0 0 2.88 2.88 2.878 2.878 0 0 0 2.88-2.88Z" fill="#364E45"/><path d="M94.225 44.838c-.955-1.953-2.677-3.589-4.76-4.53a10.722 10.722 0 0 0-6.788-.636" stroke="#273B34" stroke-width=".51" stroke-linecap="round" stroke-linejoin="round"/><path d="M94.968 60.338c-1.534.188-2.402-1.476-1.693-2.836M103.954 60.498c1.534.188 2.403-1.477 1.694-2.837M94.84 60.121c2.474 2.273 6.657 2.33 9.189.145" stroke="#273B34" stroke-width=".62" stroke-linecap="round" stroke-linejoin="round"/><path d="M97.368 69.963a3.02 3.02 0 0 0 2.084.839 3.02 3.02 0 0 0 2.084-.84c.868-.839 2.417-.318 3.618-.144 1.186.174 2.402.405 3.574.16M97.367 69.963c-.868-.84-2.417-.319-3.618-.145-1.186.174-2.402.405-3.574.16M93.95 73.349a16.781 16.781 0 0 0 9.551.405" stroke="#273B34" stroke-width=".53" stroke-linecap="round" stroke-linejoin="round"/><path d="M99.454 64.203c.695-1.26 2.099-2.012 3.503-2.345 1.418-.333 2.822-.26 4.11-.058 2.634.507 4.53 1.404 5.933 1.91l1.665.608c.434.174.882.319 1.635.348 1.491.101 3.69-.55 6.469-.767-.275 2.75-1.245 5.123-3.69 7.004-1.202.926-2.895 1.549-4.602 1.664-1.708.13-3.3-.245-4.588-.738-2.62-1.027-4.298-2.561-5.586-3.791-.681-.666-1.303-1.303-2.012-1.968-.724-.666-1.52-1.317-2.851-1.867h.014Z" fill="#364E45"/><path d="M99.469 64.203c-1.332.55-2.128 1.186-2.851 1.867-.71.665-1.332 1.317-2.012 1.968-1.273 1.23-2.967 2.764-5.586 3.791-1.303.493-2.88.869-4.588.739-1.708-.102-3.4-.739-4.602-1.665-2.446-1.881-3.415-4.255-3.69-7.004 2.793.217 4.978.868 6.469.767a4.453 4.453 0 0 0 1.635-.348l1.664-.607c1.404-.507 3.3-1.404 5.934-1.91 1.288-.203 2.706-.276 4.11.057 1.39.333 2.793 1.086 3.502 2.345h.015ZM164.87 179.026c-13.198 5.948-25.239 7.786-26.903 4.096-1.665-3.691 7.684-11.506 20.868-17.468 13.199-5.948 25.24-7.786 26.904-4.096 1.664 3.691-7.685 11.506-20.869 17.468Z" fill="#364E45"/><path d="m159.065 211.429-6.179-15.008-4.95-12.026-4.168-10.145-9.16-22.258c-4.82-11.708-.087-24.69 10.318-28.25a16.522 16.522 0 0 1 5.514-.882c.174 0 .347 0 .507.014 8.061.289 15.861 6.281 18.987 15.427l7.41 21.68 3.314 9.725L195 211.704" fill="#F2F7F5"/><path d="m159.065 211.429-6.179-15.008-4.95-12.026-4.168-10.145-9.16-22.258c-4.82-11.708-.087-24.69 10.318-28.25a16.522 16.522 0 0 1 5.514-.882c.174 0 .347 0 .507.014 8.061.289 15.861 6.281 18.987 15.427l7.41 21.68 3.314 9.725L195 211.704" stroke="#273B34" stroke-width=".54" stroke-linecap="round" stroke-linejoin="round"/><path d="M185.448 161.11c-2.446-3.083-13.994-1.144-26.614 4.544-13.199 5.962-22.562 13.777-20.869 17.482.043.087.087.145.145.217l-.145.058-14.573-34.168c-5.717-13.416.463-28.713 13.459-33.257a22.664 22.664 0 0 1 7.453-1.274c8.9 0 17.439 5.282 21.809 13.835l19.335 32.577v-.014ZM31.493 179.026c13.198 5.948 25.24 7.786 26.904 4.096 1.664-3.691-7.685-11.506-20.87-17.468-13.198-5.948-25.239-7.786-26.903-4.096-1.664 3.691 7.685 11.506 20.869 17.468Z" fill="#364E45"/><path d="m1 211.473 14.646-41.868 3.386-9.711 7.57-21.621c3.255-9.306 11.345-15.297 19.595-15.297h.1c1.81.014 3.619.304 5.399.926 10.376 3.632 15.037 16.643 10.13 28.322l-9.32 22.186-4.24 10.116-4.515 10.767-6.802 16.18" fill="#F2F7F5"/><path d="m1 211.473 14.646-41.868 3.386-9.711 7.57-21.621c3.255-9.306 11.345-15.297 19.595-15.297h.1c1.81.014 3.619.304 5.399.926 10.376 3.632 15.037 16.643 10.13 28.322l-9.32 22.186-4.24 10.116-4.515 10.767-6.802 16.18" stroke="#273B34" stroke-width=".54" stroke-linecap="round" stroke-linejoin="round"/><path d="M10.899 161.11c2.446-3.083 13.994-1.144 26.614 4.544 13.199 5.963 22.562 13.778 20.869 17.482a1.12 1.12 0 0 1-.145.217l.145.058 14.573-34.168c5.717-13.416-.463-28.713-13.459-33.257a22.664 22.664 0 0 0-7.453-1.274c-8.9 0-17.439 5.282-21.81 13.835L10.9 161.124v-.014Z" fill="#364E45"/><path d="M153.234 211.152H42.797l.579-16.18.405-11.679.507-14.327 1.65-46.311.246-6.889 3.56-1.288 20.695-7.467 3.994-1.448 1.983-.723 5.18-2.779H113.668l5.804 2.663 1.968.709 3.994 1.447 21.303 7.7 3.285 1.186.232 6.903.883 26.079.665 19.928.478 14.429v.072l.434 13.025.521 14.95Z" fill="#F2F7F5" stroke="#273B34" stroke-width=".5" stroke-linecap="round" stroke-linejoin="round"/><path d="M129.366 169.328c-6.555 0-11.867-5.311-11.867-11.867v-20.406h23.72v20.406c0 6.556-5.311 11.867-11.867 11.867h.014Z" fill="#F2F7F5" stroke="#273B34" stroke-width=".5" stroke-linecap="round" stroke-linejoin="round"/><path d="M117.473 142.67h23.777" stroke="#273B34" stroke-width=".5" stroke-linecap="round" stroke-linejoin="round"/><path d="m115.388 101.612 3.315 2.779 1.881.68c-1.404 11.245-11.013 19.928-22.649 19.928-11.636 0-21.173-8.625-22.649-19.812l1.925-.695 5.37-3.241" fill="#F2F7F5"/><path d="m115.388 101.612 3.315 2.779 1.881.68c-1.404 11.245-11.013 19.928-22.649 19.928-11.636 0-21.173-8.625-22.649-19.812l1.925-.695 5.37-3.241" stroke="#273B34" stroke-width=".5" stroke-linecap="round" stroke-linejoin="round"/><path d="M123.262 106.302c-1.578 12.576-12.316 22.287-25.327 22.287-13.01 0-23.676-9.653-25.326-22.157" stroke="#273B34" stroke-width=".56" stroke-linecap="round" stroke-linejoin="round"/><path d="m60.86 142.584 3.777-4.472M58.79 128.849l2.402 2.403M66.69 126.447l3.43-2.75M60.86 117.865l3.777 2.75M49.527 136.057l3.083-2.403M51.249 121.989l3.43 4.111M52.277 156.998l5.485-3.777M52.611 146.014l2.75 2.749M69.775 148.415l3.43-2.75M75.606 132.627l3.444 5.152M85.215 146.361l3.097-2.75M71.148 159.4l3.43 4.11M57.081 168.315l3.778-3.778M64.636 177.924l2.735-2.055M50.555 181.021l3.43 3.43M49.874 170.717l2.735-2.402M62.218 184.452l4.125 3.777M76.301 176.897l3.083 2.749M86.259 170.385l3.43-3.444M88.315 155.97l2.403 1.708M98.602 149.095l4.472-3.43M95.17 137.431l3.43 3.43M84.882 132.279l2.402 2.402M105.477 135.376l2.735-2.749M118.167 126.794l2.749 2.735M128.805 127.142l3.778-4.125M126.751 115.81l2.749 3.43M140.138 126.1l3.777-2.055M138.761 117.518l2.056 2.749M108.213 155.276l3.43-2.75M111.308 144.986l2.402 2.055M99.628 166.608l2.07-1.722M93.463 178.952l3.083-2.402M112.685 172.093l2.402 3.097M104.434 182.729l3.778-1.708M120.572 186.506l2.749 2.75M126.4 181.355l3.097-2.055M122.292 173.815l2.055 1.707M130.18 185.479l2.403 2.055M141.166 181.021l3.777-3.43M137.733 172.093l2.735 2.749M144.594 168.662l2.402-2.402M145.969 151.845l1.708 2.75M144.245 143.263l2.75-2.749M143.915 131.947l1.707 2.735M135.664 130.572l1.042 1.707M147.346 187.881l2.055 2.75" stroke="#273B34" stroke-width=".5" stroke-linecap="round" stroke-linejoin="round"/></svg>