<svg width="168" height="199" fill="none" xmlns="http://www.w3.org/2000/svg"><path d="M95.412 72.447h-23.65c-6.955 0-12.873-5.912-13.935-13.916l-2.173-16.454c-1.31-9.938 5.295-18.892 13.936-18.892h28.17c8.716 0 15.334 9.101 13.91 19.101l-2.36 16.454c-1.136 7.906-7.018 13.707-13.91 13.707h.012Z" fill="#364E45"/><path d="M102.749 57.63c-2.885 4.581-2.61 10 .624 12.118 3.234 2.106 8.204.111 11.088-4.47 2.885-4.581 2.61-10-.624-12.118-3.234-2.119-8.204-.111-11.088 4.47Z" fill="#F2F7F5" stroke="#273B34" stroke-width=".5" stroke-linecap="round" stroke-linejoin="round"/><path d="M111.402 55.364c1.398.542 2.459 1.847 2.696 3.313a4.297 4.297 0 0 1-1.56 3.953" stroke="#273B34" stroke-width=".5" stroke-linecap="round" stroke-linejoin="round"/><path d="M63.727 57.63c2.884 4.582 2.61 10-.625 12.119-3.234 2.106-8.204.11-11.088-4.47-2.885-4.582-2.61-10.001.624-12.12 3.234-2.117 8.204-.11 11.089 4.471Z" fill="#F2F7F5" stroke="#273B34" stroke-width=".5" stroke-linecap="round" stroke-linejoin="round"/><path d="M55.07 55.364c-1.398.542-2.459 1.848-2.696 3.313a4.297 4.297 0 0 0 1.56 3.953" stroke="#273B34" stroke-width=".5" stroke-linecap="round" stroke-linejoin="round"/><path d="M99.318 112.902c.275 8.276-6.43 15.111-14.822 15.111-8.39 0-14.834-6.576-14.834-14.618 0-.16 0-.333.013-.493l1.648-21.81.424-5.518.825-10.837h23.85l1.31 17.13.937 12.464.662 8.571h-.013Z" fill="#F2F7F5" stroke="#273B34" stroke-width=".56" stroke-linecap="round" stroke-linejoin="round"/><path d="M98.668 104.33c-7.829.554-16.457-3.289-22.376-10.752-1.998-2.5-3.521-5.222-4.545-7.993l.824-10.837h23.85l1.31 17.13.937 12.464v-.012Z" fill="#364E45"/><path d="M110.093 65.033c0 6.343-2.622 12.402-7.28 16.786L95.721 88.1c-2.148 2.315-5.195 3.633-8.38 3.633h-6.605c-3.159 0-6.168-1.293-8.328-3.56l-7.243-6.341c-4.732-4.385-7.417-10.505-7.417-16.91l.113-1.933.649-11.096.487-8.227c0-13.67 11.15-24.766 24.899-24.766 6.892 0 13.11 2.77 17.618 7.254 4.508 4.47 7.305 10.665 7.305 17.512l.55 9.36.537 9.236.162 2.771h.025Z" fill="#F2F7F5" stroke="#273B34" stroke-width=".5" stroke-linecap="round" stroke-linejoin="round"/><path d="M109.39 53.026h-.774c-3.646-5.284-6.006-11.43-6.78-17.772-.487-3.953-6.194-5.295-10.215-4.852-1.81 2.697-4.994 4.458-8.29 4.557-3.285.098-6.519-2.069-8.492-4.668-4.008-.43-9.74.9-10.226 4.853a39.766 39.766 0 0 1-6.094 16.749l.487-8.227c0-13.67 11.15-24.766 24.899-24.766 6.892 0 13.11 2.77 17.618 7.253 4.508 4.47 7.305 10.666 7.305 17.513l.55 9.36h.012ZM110.091 65.033l-.163-2.77c-1.948 2.536-4.333 5.652-6.031 7.487-2.435 2.635-6.63 2.919-10.801 2.82-1.086-.025-2.522-.517-3.97-1.17-3.622-1.626-8.13-1.626-11.763 0-1.436.653-2.897 1.145-3.984 1.17-4.17.099-8.366-.185-10.788-2.82-1.474-1.601-3.222-4.274-4.695-6.761l-.113 1.933c0 1.096.1 2.168.263 3.24-.05-.087-.1-.16-.15-.247l-.113 1.933c0 6.404 2.673 12.513 7.418 16.91l7.242 6.342a11.486 11.486 0 0 0 8.329 3.559h6.605c3.184 0 6.231-1.318 8.379-3.633l7.092-6.28c4.645-4.373 7.28-10.444 7.28-16.787l-.137-2.438c.087-.825.137-1.663.137-2.5l-.037.012Z" fill="#364E45"/><path d="M79.535 96.599c1.436 0 2.872-.124 4.308-.148 1.424-.074 2.897-.05 4.283-.123a11.927 11.927 0 0 0 7.442-3.45h.013v-.011a97.502 97.502 0 0 1 3.52-2.821 110.43 110.43 0 0 1-3.22 3.153h.012c-1.91 2.18-4.77 3.609-7.73 3.745-1.473.049-2.884-.013-4.332-.062-1.436-.062-2.872-.062-4.308-.283h.012ZM95.571 77.533c-3.259 3.276-7.654 5.123-12.024 4.975-3.971-.123-7.867-1.896-10.864-4.815h.7c1.086-.025 2.547-.591 3.983-1.33 3.633-1.847 8.141-1.847 11.762 0 1.449.739 2.885 1.305 3.971 1.33.824.025 1.648-.025 2.46-.172l.012.012Z" fill="#F2F7F5"/><path d="M83.545 80.981c1.386.567 2.098 1.133 2.623 1.7.487.567.724 1.133.724 1.7 0 .566-.225 1.133-.712 1.7-.512.566-1.236 1.133-2.622 1.7-1.386-.567-2.11-1.134-2.622-1.7-.487-.567-.725-1.134-.712-1.7 0-.567.237-1.133.724-1.7.512-.567 1.236-1.133 2.622-1.7h-.025ZM89.403 48.308c1.161-.69 2.435-1.157 3.77-1.515 1.337-.345 2.76-.53 4.234-.48 1.46.05 2.984.382 4.32 1.072 1.336.677 2.435 1.748 3.022 3.017-1.349-.443-2.56-.665-3.721-.702-1.161-.037-2.273.111-3.397.308-2.26.394-4.545 1.17-7.117 1.478a1.739 1.739 0 0 1-1.948-1.49 1.714 1.714 0 0 1 .837-1.688ZM77.342 51.486c-2.573-.32-4.87-1.084-7.118-1.478-1.124-.197-2.235-.345-3.396-.308-1.162.037-2.373.271-3.721.702.587-1.28 1.685-2.34 3.022-3.017 1.335-.69 2.859-1.023 4.32-1.072 1.473-.05 2.897.148 4.233.48 1.336.358 2.61.825 3.77 1.515.825.493 1.1 1.54.6 2.353-.362.603-1.049.899-1.71.825ZM89.915 58.838a37.4 37.4 0 0 1 1.124-1.613c.437-.542.899-1.072 1.46-1.49 1.112-.875 2.486-1.417 3.91-1.627 1.423-.172 2.909-.024 4.232.555.675.258 1.274.665 1.836 1.071.524.394 1.049.788 1.386 1.429a.299.299 0 0 1-.125.407c-.062.036-.125.036-.187.036-.725-.11-1.274-.468-1.836-.825a9.293 9.293 0 0 0-1.623-.776c-1.124-.406-2.323-.542-3.521-.456-1.187.124-2.373.468-3.384 1.134-.537.295-.987.702-1.436 1.12-.462.456-.924.924-1.411 1.368-.113.098-.288.098-.387-.013-.088-.098-.1-.234-.025-.332l-.013.012Z" fill="#364E45"/><path d="M94.475 56.867c.087-1.245 1.186-2.193 2.46-2.094 1.261.086 2.222 1.17 2.123 2.426-.088 1.244-1.187 2.193-2.46 2.094-1.261-.086-2.223-1.17-2.123-2.426Z" fill="#364E45"/><path d="M90.392 59.034c1.11.578 2.41.862 3.746.812M90.064 56.301c1.274-1.737 3.284-2.931 5.444-3.227" stroke="#273B34" stroke-width=".5" stroke-linecap="round" stroke-linejoin="round"/><path d="M78.715 59.184c-.487-.444-.949-.912-1.41-1.368-.45-.418-.912-.825-1.437-1.12-1.011-.666-2.21-1.01-3.383-1.134a8.352 8.352 0 0 0-3.522.456c-.562.185-1.099.468-1.623.776-.55.357-1.099.715-1.836.825a.308.308 0 0 1-.35-.258c0-.062 0-.123.038-.185.337-.64.874-1.035 1.386-1.429.562-.406 1.174-.813 1.836-1.072 1.311-.578 2.81-.726 4.233-.554 1.423.21 2.797.752 3.908 1.626.562.419 1.037.96 1.461 1.49.375.542.762 1.06 1.124 1.614a.252.252 0 0 1-.087.37.283.283 0 0 1-.338-.025v-.012Z" fill="#364E45"/><path d="M74.581 56.867c-.087-1.244-1.186-2.192-2.46-2.094-1.26.087-2.222 1.17-2.122 2.427.087 1.244 1.186 2.192 2.46 2.094 1.26-.086 2.222-1.17 2.122-2.427Z" fill="#364E45"/><path d="M78.668 59.035c-1.111.578-2.41.861-3.746.812M78.992 56.301c-1.274-1.737-3.284-2.931-5.444-3.227" stroke="#273B34" stroke-width=".5" stroke-linecap="round" stroke-linejoin="round"/><path d="M84.433 67.285V56.264M80.55 69.195l1.922.8a5.04 5.04 0 0 0 3.834 0l1.923-.8" stroke="#273B34" stroke-width=".46" stroke-linecap="round" stroke-linejoin="round"/><path d="M85.968 77.925c2.335.025 4.795-.43 6.793-1.613M81.51 78.024c-2.334.025-4.794-.43-6.792-1.613M81.51 78.023c1.062.8 3.035.997 4.458-.098" stroke="#273B34" stroke-width=".42" stroke-linecap="round" stroke-linejoin="round"/><path d="M83.813 72.632c.512-1.072 1.548-1.712 2.572-1.996 1.036-.283 2.085-.221 3.022-.049 1.948.431 3.334 1.195 4.37 1.626l1.224.517c.325.148.65.271 1.199.296 1.099.086 2.71-.468 4.77-.653-.2 2.34-.924 4.36-2.71 5.96-.874.789-2.123 1.318-3.384 1.417-1.261.11-2.422-.21-3.384-.628-1.923-.875-3.159-2.18-4.108-3.227-.5-.566-.962-1.108-1.474-1.675-.524-.566-1.11-1.12-2.097-1.588Z" fill="#364E45"/><path d="M83.825 72.632c-.974.468-1.561 1.01-2.098 1.588-.525.567-.987 1.121-1.474 1.675-.936 1.047-2.185 2.353-4.108 3.227-.949.419-2.123.739-3.384.628-1.26-.086-2.51-.628-3.384-1.416-1.798-1.601-2.51-3.621-2.71-5.961 2.049.185 3.672.739 4.77.653.55-.025.887-.148 1.2-.296l1.223-.517c1.037-.431 2.422-1.195 4.37-1.626.95-.172 1.986-.234 3.022.05 1.024.283 2.06.923 2.573 1.995ZM85.91 30.167c4.632-.53 9.602-2.057 12.111-5.936 2.123-3.264 1.986-7.586.512-11.17-2.197-5.345-7.38-9.434-13.186-10.16-5.793-.727-11.95 2.056-14.996 6.983-3.034 4.926-2.647 11.736 1.111 16.157 3.746 4.422 10.651 5.973 15.883 3.4" fill="#364E45"/><path d="M99.417 12.297c2.547 2.438 2.572 6.749.774 9.79-1.798 3.043-4.994 5-8.278 6.306-5.045 2.008-10.826 2.697-15.896.751-5.07-1.945-9.14-6.958-8.916-12.377" stroke="#273B34" stroke-width=".4" stroke-linecap="round" stroke-linejoin="round"/><path d="M87.628 27.149c4.77-.604 8.878-4.397 10.052-8.99 1.186-4.594-.475-9.717-3.946-13.006C90.275 1.865 85.18.437 80.423 1.126c-4.308.628-8.416 3.005-10.664 6.675-2.247 3.67-2.41 8.621-.012 12.205 2.397 3.584 7.38 5.382 11.425 3.793" stroke="#273B34" stroke-width=".4" stroke-linecap="round" stroke-linejoin="round"/><path d="M141.465 170.797c-11.388 5.061-21.777 6.625-23.213 3.485s6.63-9.791 18.006-14.865c11.388-5.061 21.777-6.625 23.213-3.485s-6.631 9.791-18.006 14.865Z" fill="#364E45"/><path d="m136.46 198.37-5.331-12.771-4.271-10.234-3.596-8.633-7.904-18.941c-4.158-9.963-.075-21.01 8.903-24.04a14.466 14.466 0 0 1 4.757-.751c.15 0 .3 0 .437.012 6.956.247 13.686 5.345 16.383 13.129l6.393 18.448 2.86 8.276 12.374 35.739" fill="#F2F7F5"/><path d="m136.46 198.37-5.331-12.771-4.271-10.234-3.596-8.633-7.904-18.941c-4.158-9.963-.075-21.01 8.903-24.04a14.466 14.466 0 0 1 4.757-.751c.15 0 .3 0 .437.012 6.956.247 13.686 5.345 16.383 13.129l6.393 18.448 2.86 8.276 12.374 35.739" stroke="#273B34" stroke-width=".54" stroke-linecap="round" stroke-linejoin="round"/><path d="M159.221 155.563c-2.098-2.624-12.075-.973-22.951 3.867-11.4 5.074-19.467 11.724-18.006 14.877a.528.528 0 0 0 .125.184l-.125.05-5.095-11.749c2.273-3.584 9.228-8.498 18.156-12.463 9.028-4.015 17.457-5.924 21.64-5.161l6.256 10.407v-.012Z" fill="#F2F7F5" stroke="#273B34" stroke-width=".5" stroke-linecap="round" stroke-linejoin="round"/><path d="M152.978 145.144c-4.183-.764-12.612 1.145-21.64 5.16-8.928 3.966-15.883 8.88-18.155 12.463l-7.492-17.327c-4.933-11.417.399-24.434 11.612-28.289a19.514 19.514 0 0 1 6.443-1.096c7.68 0 15.047 4.495 18.83 11.774l10.427 17.315h-.025ZM26.623 170.797c11.388 5.062 21.777 6.626 23.213 3.485 1.436-3.14-6.63-9.791-18.006-14.864-11.388-5.062-21.777-6.626-23.213-3.486-1.436 3.141 6.63 9.791 18.006 14.865Z" fill="#364E45"/><path d="m31.63 198.37 5.332-12.771 4.27-10.234 3.597-8.633 7.904-18.941c4.158-9.963.075-21.01-8.903-24.04a14.464 14.464 0 0 0-4.758-.751c-.15 0-.3 0-.437.013-6.955.246-13.685 5.344-16.382 13.128l-6.394 18.448-2.86 8.276L.626 198.604" fill="#F2F7F5"/><path d="m31.63 198.37 5.332-12.771 4.27-10.234 3.597-8.633 7.904-18.941c4.158-9.963.075-21.01-8.903-24.04a14.464 14.464 0 0 0-4.758-.751c-.15 0-.3 0-.437.013-6.955.246-13.685 5.344-16.382 13.128l-6.394 18.448-2.86 8.276L.626 198.604" stroke="#273B34" stroke-width=".54" stroke-linecap="round" stroke-linejoin="round"/><path d="M8.866 155.563c2.098-2.623 12.075-.973 22.95 3.867 11.401 5.074 19.468 11.724 18.007 14.877a.549.549 0 0 1-.125.185l.125.049 5.094-11.749c-2.272-3.584-9.227-8.498-18.155-12.463-9.028-4.015-17.457-5.924-21.64-5.16l-6.256 10.406v-.012Z" fill="#F2F7F5" stroke="#273B34" stroke-width=".5" stroke-linecap="round" stroke-linejoin="round"/><path d="M15.122 145.144c4.183-.764 12.612 1.145 21.64 5.16 8.928 3.966 15.883 8.88 18.155 12.463l7.492-17.327c4.933-11.417-.4-24.434-11.612-28.289a19.512 19.512 0 0 0-6.443-1.096c-7.68 0-15.047 4.495-18.83 11.774l-10.427 17.315h.025Z" fill="#364E45"/><path d="M131.317 200H33.713l3.267-14.768.35-9.939.437-12.204 1.423-39.397.212-5.875 3.072-1.084 17.856-6.367 3.447-1.231 1.71-.616 4.47-2.365h27.671l5.007 2.279 1.699.603 3.446 1.219 18.38 6.552 2.835 1.01.2 5.887.761 22.192.575 16.959.412 12.266v.061l.374 11.084V200Z" fill="#F2F7F5" stroke="#273B34" stroke-width=".54" stroke-linecap="round" stroke-linejoin="round"/><path d="m98.515 105.6 3.734 2.536 1.623.579c-1.211 9.569-9.502 16.959-19.542 16.959-10.039 0-18.268-7.34-19.541-16.86l1.66-.591 3.921-2.968" fill="#F2F7F5"/><path d="m98.515 105.6 3.734 2.536 1.623.579c-1.211 9.569-9.502 16.959-19.542 16.959-10.039 0-18.268-7.34-19.541-16.86l1.66-.591 3.921-2.968" stroke="#273B34" stroke-width=".52" stroke-linecap="round" stroke-linejoin="round"/><path d="M52.291 113.322v85.259M68.873 118.445v80.137M84.27 125.822v72.759M100.839 117.029v81.552M116.235 113.322v85.259" stroke="#273B34" stroke-width=".46" stroke-linecap="round" stroke-linejoin="round"/></svg>