<svg width="108" height="129" fill="none" xmlns="http://www.w3.org/2000/svg"><path d="M76.042 17.566c3.163-.272 6.431.838 8.774 2.976 2.343 2.137 3.727 5.28 3.719 8.441 4.328 1.499 6.733 6.347 5.394 10.688 1.984.909 3.451 3.137 3.671 5.305.224 2.155-.778 4.399-2.536 5.685 1.82 1.048 3.316 2.893 3.197 4.97-.118 2.077-1.483 4.041-3.406 4.867 2.005 1.67 1.907 4.182 1.412 6.73-.495 2.549-2.462 4.755-4.948 5.534 1.582 2.22 1.33 5.12-.27 7.308-1.6 2.188-4.653 3.218-7.265 2.414.78 1.9-.268 4.315-1.639 5.835-1.37 1.52-3.647 2.172-5.622 1.604-.636 2.186-2.424 3.816-4.58 4.578-2.153.751-4.678.413-6.557-.884-.873 2.135-3.827 3.074-6.147 3.234-2.308.162-4.68-1.072-5.863-3.055-1.64 1.5-4.527 1.39-6.747 1.134a7.996 7.996 0 0 1-5.595-3.309c-1.745 1.095-4.684.529-6.585-.267-1.901-.796-3.37-2.556-3.82-4.564-1.75.975-4.558-.545-6.082-1.864-1.523-1.32-2.069-3.627-1.333-5.486-1.997.077-4.385-2.125-5.116-3.974-.73-1.849-.172-4.12 1.352-5.417-4.388-1.697-7.831-8.646-6.105-12.986-1.545-1.612-2.542-4.665-2.097-6.836.444-2.172 2.019-4.08 4.066-4.95-1.784-1.325-3.21-4.83-2.649-6.971.561-2.14 2.527-3.827 4.738-4.093-1.095-4.134 2.888-9.705 7.118-10.407-1.118-1.992-.989-5.745.68-7.302 1.669-1.558 4.434-1.793 6.353-.55.294-1.795 1.805-3.746 3.423-4.602 1.618-.855 3.636-.913 5.309-.152.656-1.608 3.011-2.695 4.75-2.88 1.736-.172 3.55.665 4.539 2.115 1.494-1.188 4.124-1.199 5.995-.802 1.87.397 3.548 1.654 4.433 3.349 3.126-2 8.358-1.028 10.084 2.246.901-.89 1.873-.969 3.112-.689s2.419 1.807 2.85 3.002l-.007.025Z" fill="#364E45"/><path d="M74.574 59.547c-2.985 4.798-2.695 10.49.64 12.703 3.349 2.211 8.485.12 11.47-4.69 2.986-4.798 2.696-10.49-.64-12.702-3.348-2.212-8.484-.121-11.47 4.677v.012Z" fill="#F2F7F5" stroke="#273B34" stroke-width=".54" stroke-linecap="round" stroke-linejoin="round"/><path d="M83.531 57.166c1.45.568 2.55 1.946 2.78 3.481.23 1.535-.411 3.179-1.62 4.158" stroke="#273B34" stroke-width=".54" stroke-linecap="round" stroke-linejoin="round"/><path d="M34.22 59.547c2.985 4.798 2.695 10.49-.64 12.702-3.349 2.212-8.485.121-11.47-4.689-2.986-4.798-2.695-10.49.64-12.702 3.348-2.212 8.485-.121 11.47 4.677v.012Z" fill="#F2F7F5" stroke="#273B34" stroke-width=".54" stroke-linecap="round" stroke-linejoin="round"/><path d="M25.263 57.166c-1.45.568-2.55 1.946-2.78 3.481-.23 1.535.411 3.179 1.62 4.158" stroke="#273B34" stroke-width=".54" stroke-linecap="round" stroke-linejoin="round"/><path d="M79.118 73.773c-.894 2.308-2.2 4.713-3.759 7.046-3.01 4.496-6.997 8.714-10.986 11.397-4.363 2.925-10.092 3.88-15.07 2.188-3.917-1.33-7.156-4.146-10.044-7.107-3.602-3.698-6.89-7.832-8.738-12.666-1.439-3.759-2.043-7.928-2.212-12.207-.23-5.922.41-12.037.918-17.476.738-8.025 5.608-15.639 12.534-19.724 6.792-4 15.481-4.593 22.757-1.56 7.276 3.046 12.956 9.633 14.89 17.284 1.378 5.438.906 11.082.991 16.63.024 1.559.097 3.13.133 4.701.109 3.904.024 7.808-1.402 11.494h-.012Z" fill="#F2F7F5" stroke="#273B34" stroke-linecap="round" stroke-linejoin="round"/><path d="M80.834 61.77v.194l-.15-.133c-1.855-1.561-2.487-3.91-2.6-6.28l-.97-17.935a58.537 58.537 0 0 1-2.85-1.186c-1.407-.666-2.79-1.367-4.059-2.142-2.788-1.621-5.203-3.473-7.045-5.373-2.64.617-5.652.944-8.714.944-3.572 0-7.02-.436-9.97-1.283-1.718 1.864-3.984 3.667-6.598 5.264a41.571 41.571 0 0 1-6.087 3.135l-.971 18.563c-.137 2.469-1.032 4.659-2.987 6.22l-.149.121v-.181c-.224-5.519.037-11.146.51-16.204l.124-1.174c.498-5.191 2.701-10.165 6.15-14.17a26.161 26.161 0 0 1 6.808-5.664c7.008-4.005 16.02-4.61 23.527-1.549 3.684 1.489 7.008 3.873 9.647 6.825 2.713 3.014 4.73 6.656 5.738 10.54 1.096 4.2 1.07 8.568 1.021 12.804-.012 1.27-.012 2.59 0 3.872.013.895-.463 1.888-.425 2.783.012.666.037 1.32.05 1.997v.012ZM79.91 74.865l-.156-4.68c-1.873 4.285-4.166 1.315-5.799 4.413-2.341 4.45-6.376 4.929-10.386 4.762-1.045-.041-2.425-.873-3.818-1.975-3.482-2.745-7.817-2.745-11.311 0-1.38 1.102-2.786 1.934-3.83 1.975-4.01.167-8.045-.312-10.374-4.762-1.417-2.703-3.098 1.015-4.515-3.185l-.108 3.265c0 1.85.096 3.66.252 5.469-.048-.146-.096-.27-.144-.416l-.108 3.265c0 10.813 2.57 21.128 7.132 28.552l6.964 10.709c2.077 3.827 4.96 6.01 8.009 6.01 3.303-2.469 3.871-2.469 6.352 0 3.062 0 5.991-2.225 8.056-6.135l6.82-10.605c4.467-7.382 7-17.635 7-28.344l-.132-4.118a70.21 70.21 0 0 0 .133-4.221l-.036.02Z" fill="#364E45"/><path d="M65.308 85.009c-3.134 3.18-7.36 4.973-11.563 4.83-3.819-.12-7.565-1.842-10.446-4.675h.672c1.045-.024 2.45-.574 3.83-1.291 3.494-1.793 7.829-1.793 11.311 0 1.393.717 2.774 1.267 3.818 1.291a11.2 11.2 0 0 0 2.366-.167l.012.012Z" fill="#F2F7F5"/><path d="M56.073 85.39c2.245.024 4.61-.419 6.532-1.566M51.787 85.486c-2.245.024-4.61-.419-6.532-1.566M51.787 85.485c1.02.776 2.918.968 4.287-.096" stroke="#273B34" stroke-width=".42" stroke-linecap="round" stroke-linejoin="round"/><path d="M54.642 76.136c.492-1.04 1.49-1.662 2.474-1.937.996-.275 2.005-.215 2.905-.048 1.873.419 3.206 1.16 4.203 1.578l1.177.502c.312.144.624.263 1.152.287 1.057.084 2.606-.454 4.587-.633-.192 2.27-.889 4.231-2.606 5.785-.84.765-2.04 1.28-3.254 1.375-1.212.108-2.329-.203-3.253-.61-1.85-.848-3.038-2.115-3.95-3.132-.481-.55-.925-1.075-1.418-1.625-.504-.55-1.068-1.088-2.017-1.542Z" fill="#364E45"/><path d="M54.654 76.136c-.937.454-1.501.98-2.018 1.542-.504.55-.948 1.088-1.416 1.626-.9 1.016-2.102 2.283-3.95 3.131-.913.407-2.042.718-3.255.61-1.212-.084-2.413-.61-3.254-1.375-1.729-1.554-2.413-3.514-2.605-5.785 1.97.179 3.53.717 4.587.633a2.742 2.742 0 0 0 1.152-.287l1.177-.502c.997-.418 2.33-1.16 4.203-1.578.912-.167 1.909-.227 2.905.048.985.275 1.981.897 2.474 1.937ZM58.321 52.73c.605-1.486 1.825-2.573 3.167-3.335a9.882 9.882 0 0 1 4.46-1.209 9.998 9.998 0 0 1 4.52.907c1.39.665 2.67 1.656 3.396 3.094l-4.158-.109a90.679 90.679 0 0 0-3.638.012 77.141 77.141 0 0 0-3.625.206c-1.257.096-2.538.241-4.122.423v.012ZM50.478 52.731c-1.583-.181-2.864-.326-4.121-.423a63.741 63.741 0 0 0-3.626-.205 72.623 72.623 0 0 0-3.638-.012l-4.157.108c.725-1.438 2.006-2.429 3.396-3.093a9.84 9.84 0 0 1 4.52-.907c1.559.048 3.094.46 4.46 1.209 1.341.749 2.55 1.849 3.166 3.335v-.012ZM59.044 63.21c.279-.629.593-1.233.895-1.837l.024-.037c.737-1.112 1.668-2.175 2.9-2.876a7.232 7.232 0 0 1 4.098-1.003 8.561 8.561 0 0 1 3.988 1.22c.592.363 1.136.786 1.644 1.257.495.46.955 1.016 1.136 1.692.048.182-.049.35-.218.387a.297.297 0 0 1-.205-.012c-.665-.29-1.1-.677-1.583-1.051a9.432 9.432 0 0 0-1.511-.967 8.597 8.597 0 0 0-3.348-.955 6.34 6.34 0 0 0-3.36.628c-1.04.52-1.982 1.318-2.792 2.248l.024-.036c-.398.544-.797 1.112-1.208 1.644a.287.287 0 0 1-.399.048.286.286 0 0 1-.084-.338v-.013Z" fill="#364E45"/><path d="M63.819 60.817a2.378 2.378 0 0 1 2.538-2.2 2.378 2.378 0 0 1 2.2 2.538 2.378 2.378 0 0 1-2.539 2.2 2.378 2.378 0 0 1-2.2-2.538Z" fill="#364E45"/><path d="M70.985 62.98a5.992 5.992 0 0 0 2.405-1.148M58.997 59.221a8.342 8.342 0 0 1 4.387-3.613 8.375 8.375 0 0 1 5.692.072" stroke="#273B34" stroke-width=".54" stroke-linecap="round" stroke-linejoin="round"/><path d="M49.266 63.5c-.423-.544-.81-1.1-1.209-1.644l.024.037c-.81-.943-1.752-1.729-2.792-2.248a6.58 6.58 0 0 0-3.36-.629 8.808 8.808 0 0 0-3.347.955 8.66 8.66 0 0 0-1.51.967c-.484.375-.92.761-1.584 1.051a.31.31 0 0 1-.411-.157c-.024-.072-.036-.145-.012-.205.181-.69.628-1.245 1.136-1.704.508-.46 1.051-.895 1.644-1.257a8.603 8.603 0 0 1 3.988-1.22 7.28 7.28 0 0 1 4.097 1.002c1.233.701 2.163 1.777 2.9 2.877l.025.036c.29.616.604 1.22.894 1.837.06.145 0 .314-.145.375a.278.278 0 0 1-.338-.085v.012Z" fill="#364E45"/><path d="M44.987 60.817a2.378 2.378 0 0 0-2.538-2.2 2.379 2.379 0 0 0-2.2 2.539 2.378 2.378 0 0 0 2.538 2.2 2.378 2.378 0 0 0 2.2-2.539Z" fill="#364E45"/><path d="M37.809 62.98a5.992 5.992 0 0 1-2.405-1.147M49.812 59.221a8.342 8.342 0 0 0-4.387-3.613 8.375 8.375 0 0 0-5.693.072" stroke="#273B34" stroke-width=".54" stroke-linecap="round" stroke-linejoin="round"/><path d="M50.658 71.9c-1.28.156-2.006-1.234-1.414-2.37M58.15 72.02c1.282.157 2.007-1.233 1.415-2.369" stroke="#273B34" stroke-width=".62" stroke-linecap="round" stroke-linejoin="round"/><path d="M50.539 71.706c2.067 1.897 5.56 1.945 7.675.12" stroke="#273B34" stroke-width=".62" stroke-linecap="round" stroke-linejoin="round"/></svg>