<svg width="84" height="131" fill="none" xmlns="http://www.w3.org/2000/svg"><path d="M66.172 45.548c-3.575 5.745-3.227 12.562.767 15.21 4.009 2.649 10.16.145 13.734-5.615 3.575-5.745 3.227-12.562-.767-15.21-4.009-2.649-10.16-.145-13.734 5.6v.015Z" fill="#F2F7F5" stroke="#273B34" stroke-width=".54" stroke-linecap="round" stroke-linejoin="round"/><path d="M76.898 42.712c1.737.68 3.053 2.33 3.328 4.168.275 1.838-.492 3.806-1.939 4.978" stroke="#273B34" stroke-width=".54" stroke-linecap="round" stroke-linejoin="round"/><path d="M17.847 45.548c3.575 5.745 3.227 12.562-.767 15.21-4.009 2.648-10.16.145-13.734-5.615-3.574-5.746-3.227-12.562.767-15.21 4.009-2.649 10.16-.145 13.734 5.6v.015Z" fill="#F2F7F5" stroke="#273B34" stroke-width=".54" stroke-linecap="round" stroke-linejoin="round"/><path d="M7.124 42.712c-1.737.68-3.054 2.33-3.328 4.167-.275 1.839.492 3.807 1.939 4.979" stroke="#273B34" stroke-width=".54" stroke-linecap="round" stroke-linejoin="round"/><path d="M59.876 112.106c.319 9.725-7.453 17.757-17.178 17.757-9.725 0-17.193-7.728-17.193-17.179 0-.188 0-.39.015-.578l1.91-25.63.492-6.484.955-12.736h27.642l1.52 20.117 1.085 14.645.767 10.073-.015.015Z" fill="#F2F7F5" stroke="#273B34" stroke-width=".56" stroke-linecap="round" stroke-linejoin="round"/><path d="M59.108 102.032c-9.074.652-19.074-3.864-25.934-12.634-2.315-2.938-4.08-6.136-5.267-9.392l.955-12.736h27.642l1.519 20.117 1.085 14.645Z" fill="#364E45"/><path d="M72.525 62.596c-1.07 2.765-2.634 5.645-4.5 8.438-3.604 5.383-8.38 10.434-13.156 13.647-5.224 3.502-12.084 4.646-18.047 2.62-4.689-1.593-8.567-4.965-12.026-8.51-4.313-4.429-8.25-9.378-10.463-15.167-1.723-4.5-2.446-9.494-2.649-14.617-.275-7.091.492-14.414 1.1-20.926.883-9.61 6.715-18.727 15.008-23.619 8.133-4.79 18.539-5.5 27.25-1.867 8.713 3.647 15.515 11.534 17.83 20.695 1.65 6.513 1.086 13.271 1.187 19.914.03 1.867.116 3.748.16 5.63.13 4.674.028 9.348-1.68 13.762h-.014Z" fill="#F2F7F5" stroke="#273B34" stroke-width=".54" stroke-linecap="round" stroke-linejoin="round"/><path d="M50.53 38.457c.594-1.824 1.954-3.242 3.488-4.255a11.983 11.983 0 0 1 5.21-1.838 11.98 11.98 0 0 1 5.485.68c1.722.666 3.329 1.751 4.327 3.387l-4.964.231a96.239 96.239 0 0 0-4.341.347 69.45 69.45 0 0 0-4.313.58c-1.49.23-3.01.52-4.877.868h-.014ZM36.39 38.457c-1.867-.348-3.386-.637-4.877-.869a98.534 98.534 0 0 0-4.312-.579 97.958 97.958 0 0 0-4.342-.347l-4.964-.231c.999-1.65 2.605-2.721 4.327-3.387a11.956 11.956 0 0 1 5.485-.68c1.853.202 3.662.825 5.21 1.838 1.534 1.027 2.895 2.431 3.488 4.255h-.015ZM49.283 50.888c.26-.724.565-1.433.84-2.142l.029-.044c.767-1.374 1.78-2.691 3.17-3.603a9.235 9.235 0 0 1 4.66-1.563 10.7 10.7 0 0 1 4.804.81c.752.319 1.462.71 2.127 1.173.666.434 1.288.998 1.621 1.75a.356.356 0 0 1-.173.478.356.356 0 0 1-.246.015c-.825-.232-1.39-.594-2.012-.955a12.667 12.667 0 0 0-1.925-.869 11.273 11.273 0 0 0-4.095-.622c-1.375.043-2.721.39-3.922 1.07-1.187.695-2.23 1.694-3.098 2.866l.03-.043c-.406.651-.797 1.317-1.216 1.954a.326.326 0 0 1-.449.087.343.343 0 0 1-.13-.391l-.015.029Z" fill="#364E45"/><path d="M63.452 49.137c1.013-.333 1.954-.869 2.706-1.578" stroke="#273B34" stroke-width=".51" stroke-linecap="round" stroke-linejoin="round"/><path d="M54.175 47.27a2.878 2.878 0 0 1 2.88-2.88 2.878 2.878 0 0 1 2.88 2.88 2.878 2.878 0 0 1-2.88 2.88 2.878 2.878 0 0 1-2.88-2.88Z" fill="#364E45"/><path d="M48.689 46.517c.955-1.953 2.677-3.603 4.761-4.53a10.723 10.723 0 0 1 6.788-.636" stroke="#273B34" stroke-width=".51" stroke-linecap="round" stroke-linejoin="round"/><path d="M37.052 49.484c-.42-.637-.81-1.303-1.215-1.954l.028.044c-.868-1.173-1.91-2.157-3.097-2.866-1.2-.68-2.547-1.027-3.922-1.07-1.389-.044-2.778.158-4.095.622-.666.231-1.317.506-1.925.868-.622.362-1.201.724-2.012.955a.344.344 0 0 1-.434-.246c-.029-.087 0-.174.015-.246.333-.767.955-1.331 1.62-1.766a12.631 12.631 0 0 1 2.128-1.172 10.701 10.701 0 0 1 4.805-.81 9.283 9.283 0 0 1 4.66 1.563c1.39.911 2.402 2.228 3.17 3.603l.028.044c.275.709.58 1.418.84 2.142a.328.328 0 0 1-.203.42.324.324 0 0 1-.39-.131Z" fill="#364E45"/><path d="M23.466 47.443c-1.013-.333-1.954-.869-2.706-1.578" stroke="#273B34" stroke-width=".51" stroke-linecap="round" stroke-linejoin="round"/><path d="M32.74 45.576a2.878 2.878 0 0 0-2.88-2.88 2.878 2.878 0 0 0-2.88 2.88 2.878 2.878 0 0 0 2.88 2.88 2.878 2.878 0 0 0 2.88-2.88Z" fill="#364E45"/><path d="M38.225 44.839c-.955-1.954-2.677-3.59-4.76-4.53a10.723 10.723 0 0 0-6.788-.637" stroke="#273B34" stroke-width=".51" stroke-linecap="round" stroke-linejoin="round"/><path d="M38.968 60.338c-1.534.189-2.402-1.476-1.693-2.836M47.955 60.498c1.534.188 2.402-1.476 1.693-2.837M38.84 60.122c2.474 2.272 6.656 2.33 9.19.144" stroke="#273B34" stroke-width=".62" stroke-linecap="round" stroke-linejoin="round"/><path d="M41.368 69.963a3.02 3.02 0 0 0 2.084.84 3.02 3.02 0 0 0 2.084-.84c.868-.84 2.417-.319 3.618-.145 1.187.174 2.402.405 3.575.16M41.367 69.963c-.868-.84-2.416-.319-3.618-.145-1.186.174-2.402.405-3.574.16M37.95 73.35a16.78 16.78 0 0 0 9.551.404" stroke="#273B34" stroke-width=".53" stroke-linecap="round" stroke-linejoin="round"/><path d="M43.455 64.203c.694-1.26 2.098-2.012 3.502-2.345 1.418-.332 2.822-.26 4.11-.057 2.634.506 4.53 1.403 5.934 1.91l1.664.608c.434.173.883.318 1.635.347 1.49.101 3.69-.55 6.47-.767-.276 2.75-1.245 5.123-3.691 7.004-1.201.927-2.895 1.549-4.602 1.665-1.708.13-3.3-.246-4.588-.738-2.62-1.028-4.298-2.562-5.586-3.792-.68-.666-1.303-1.302-2.012-1.968-.723-.666-1.52-1.317-2.85-1.867h.014Z" fill="#364E45"/><path d="M43.469 64.203c-1.332.55-2.128 1.187-2.851 1.867-.71.666-1.332 1.317-2.012 1.968-1.273 1.23-2.967 2.764-5.586 3.792-1.303.492-2.88.868-4.588.738-1.707-.102-3.4-.738-4.602-1.665-2.446-1.88-3.415-4.254-3.69-7.004 2.793.217 4.978.868 6.469.767a4.454 4.454 0 0 0 1.635-.347l1.665-.608c1.403-.507 3.3-1.404 5.933-1.91 1.288-.203 2.706-.276 4.11.057 1.39.333 2.793 1.086 3.502 2.345h.015Z" fill="#364E45"/></svg>