<svg width="184" height="191" fill="none" xmlns="http://www.w3.org/2000/svg"><path d="M105.628 79.91H78.917c-7.861 0-14.539-8.785-15.736-20.672l-2.448-24.426C59.251 20.055 66.718 6.754 76.47 6.754h31.811c9.833 0 17.313 13.519 15.709 28.37l-2.666 24.427c-1.279 11.75-7.916 20.36-15.709 20.36h.014Z" fill="#364E45"/><path d="M115.095 48.385c-3.359 5.4-3.033 11.805.721 14.294 3.767 2.489 9.547.136 12.907-5.277 3.359-5.4 3.033-11.805-.721-14.294-3.767-2.489-9.548-.136-12.907 5.264v.013Z" fill="#F2F7F5" stroke="#273B34" stroke-width=".54" stroke-linecap="round" stroke-linejoin="round"/><path d="M125.174 45.706c1.632.64 2.869 2.19 3.128 3.917.258 1.727-.463 3.577-1.823 4.678" stroke="#273B34" stroke-width=".54" stroke-linecap="round" stroke-linejoin="round"/><path d="M69.683 48.385c3.36 5.4 3.033 11.805-.721 14.294-3.767 2.489-9.547.136-12.907-5.277-3.359-5.4-3.033-11.805.721-14.294 3.767-2.489 9.548-.136 12.907 5.264v.013Z" fill="#F2F7F5" stroke="#273B34" stroke-width=".54" stroke-linecap="round" stroke-linejoin="round"/><path d="M59.605 45.706c-1.632.639-2.87 2.19-3.128 3.917-.259 1.727.462 3.577 1.822 4.678" stroke="#273B34" stroke-width=".54" stroke-linecap="round" stroke-linejoin="round"/><path d="M108.527 110.919c.299 9.14-7.005 16.688-16.144 16.688-9.14 0-16.157-7.263-16.157-16.144 0-.177 0-.367.013-.544l1.796-24.086.462-6.093.898-11.968h25.976l1.428 18.904 1.02 13.764.721 9.466-.013.013Z" fill="#F2F7F5" stroke="#273B34" stroke-width=".56" stroke-linecap="round" stroke-linejoin="round"/><path d="M107.819 101.453c-8.527.612-17.925-3.631-24.371-11.873-2.176-2.76-3.836-5.767-4.95-8.827l.897-11.968h25.976l1.428 18.904 1.02 13.764Z" fill="#364E45"/><path d="M120.195 64.392c-1.006 2.598-2.475 5.305-4.229 7.93-3.387 5.059-7.875 9.805-12.363 12.825-4.91 3.29-11.356 4.365-16.96 2.461-4.406-1.496-8.051-4.665-11.302-7.997-4.053-4.161-7.752-8.813-9.833-14.253-1.618-4.23-2.298-8.922-2.489-13.736-.258-6.664.463-13.546 1.034-19.666.83-9.031 6.31-17.6 14.104-22.196 7.643-4.502 17.422-5.168 25.609-1.755 8.187 3.428 14.58 10.84 16.756 19.449 1.55 6.12 1.02 12.471 1.115 18.714.027 1.755.109 3.523.15 5.29.122 4.394.027 8.786-1.578 12.934h-.014Z" fill="#F2F7F5" stroke="#273B34" stroke-width=".54" stroke-linecap="round" stroke-linejoin="round"/><path d="M121.893 51.744v.218l-.163-.15a9.894 9.894 0 0 1-3.387-6.977l-1.06-20.156a63.119 63.119 0 0 1-3.115-1.332c-1.537-.748-3.046-1.537-4.434-2.408-3.046-1.822-5.685-3.903-7.697-6.038-2.884.693-6.175 1.06-9.52 1.06-3.904 0-7.671-.489-10.894-1.441-1.877 2.094-4.353 4.12-7.209 5.916a44.995 44.995 0 0 1-6.65 3.523l-1.061 20.863a9.928 9.928 0 0 1-3.59 7.126l-.164.136v-.204c-.245-6.202.367-12.662.884-18.347l.136-1.319c.544-5.834 2.952-11.424 6.719-15.926a28.785 28.785 0 0 1 7.44-6.365c7.656-4.502 17.503-5.182 25.704-1.74 4.026 1.672 7.657 4.351 10.54 7.67 2.965 3.386 5.168 7.48 6.27 11.846 1.197 4.72 1.17 9.629 1.115 14.389-.013 1.428-.013 2.91 0 4.352.014 1.006.041 2.04.082 3.047.013.747.041 1.482.054 2.243v.014Z" fill="#364E45"/><path d="M96.802 40.715c.693-1.673 2.053-2.897 3.563-3.754a11.118 11.118 0 0 1 5.018-1.36 11.253 11.253 0 0 1 5.087 1.02c1.564.748 3.006 1.863 3.822 3.482l-4.679-.123a102.185 102.185 0 0 0-4.094.014c-1.332.04-2.679.122-4.08.231-1.414.109-2.856.272-4.637.476v.014ZM87.975 40.715c-1.781-.204-3.223-.367-4.637-.476a71.72 71.72 0 0 0-4.08-.231c-1.333-.041-2.68-.041-4.094-.014l-4.679.123c.816-1.619 2.258-2.734 3.822-3.482a11.075 11.075 0 0 1 5.087-1.02c1.754.054 3.481.517 5.018 1.36 1.51.843 2.87 2.08 3.563 3.753v-.013ZM97.62 52.506c.313-.707.667-1.387 1.007-2.067l.027-.041c.83-1.251 1.877-2.448 3.264-3.237a8.139 8.139 0 0 1 4.61-1.129 9.637 9.637 0 0 1 4.489 1.374c.666.408 1.278.884 1.849 1.414.558.517 1.075 1.143 1.279 1.904.054.204-.055.395-.245.435a.334.334 0 0 1-.231-.013c-.748-.327-1.238-.762-1.782-1.183a10.608 10.608 0 0 0-1.7-1.088 9.677 9.677 0 0 0-3.767-1.075 7.134 7.134 0 0 0-3.781.707c-1.17.585-2.231 1.483-3.142 2.53l.027-.04c-.448.611-.897 1.25-1.36 1.849a.323.323 0 0 1-.449.054.322.322 0 0 1-.095-.38v-.014Z" fill="#364E45"/><path d="M102.98 49.813a2.676 2.676 0 0 1 2.856-2.475 2.676 2.676 0 0 1 2.475 2.856 2.676 2.676 0 0 1-2.856 2.475 2.676 2.676 0 0 1-2.475-2.856Z" fill="#364E45"/><path d="M111.042 52.247a6.748 6.748 0 0 0 2.707-1.292M97.55 48.018a9.388 9.388 0 0 1 4.937-4.066 9.425 9.425 0 0 1 6.406.081" stroke="#273B34" stroke-width=".54" stroke-linecap="round" stroke-linejoin="round"/><path d="M86.618 52.832c-.477-.612-.912-1.237-1.36-1.85l.027.041c-.911-1.06-1.972-1.944-3.142-2.53a7.406 7.406 0 0 0-3.78-.706 9.913 9.913 0 0 0-3.768 1.074c-.599.3-1.17.666-1.7 1.088-.544.422-1.034.857-1.782 1.183a.348.348 0 0 1-.462-.176c-.027-.082-.041-.164-.014-.232.204-.775.707-1.4 1.279-1.917a12.555 12.555 0 0 1 1.85-1.415 9.682 9.682 0 0 1 4.487-1.373 8.192 8.192 0 0 1 4.61 1.128c1.388.79 2.435 2 3.265 3.237l.027.041c.327.694.68 1.374 1.007 2.067a.32.32 0 0 1-.164.422.313.313 0 0 1-.38-.095v.013Z" fill="#364E45"/><path d="M81.789 49.813a2.676 2.676 0 0 0-2.856-2.475 2.676 2.676 0 0 0-2.476 2.856 2.676 2.676 0 0 0 2.857 2.475 2.676 2.676 0 0 0 2.475-2.856Z" fill="#364E45"/><path d="M73.725 52.248a6.743 6.743 0 0 1-2.707-1.292M87.216 48.018a9.387 9.387 0 0 0-4.937-4.066 9.425 9.425 0 0 0-6.406.081" stroke="#273B34" stroke-width=".54" stroke-linecap="round" stroke-linejoin="round"/><path d="M90.425 71.315a2.838 2.838 0 0 0 1.958.789c.721 0 1.442-.286 1.959-.789.816-.789 2.271-.3 3.4-.136 1.115.163 2.992.72 5.032-.707M90.425 71.315c-.816-.789-2.271-.3-3.4-.136-1.115.163-2.938.83-4.665-.503M87.202 74.511a15.77 15.77 0 0 0 8.977.381" stroke="#273B34" stroke-width=".53" stroke-linecap="round" stroke-linejoin="round"/><path d="M92.299 62.693v-9.602" stroke="#273B34" stroke-width=".54" stroke-linecap="round" stroke-linejoin="round"/><path d="m89.09 64.557 1.618 1.115c1.048.72 2.19.72 3.237 0l1.619-1.115" stroke="#273B34" stroke-width=".57" stroke-linecap="round" stroke-linejoin="round"/><path d="M101.413 10.522s-3.1-3.264-7.14-.762c-4.04 2.489-6.134 6.583-8.718 10.568a99.1 99.1 0 0 1-12.322 15.45c-2.733 2.815-5.766 5.535-9.493 6.759-3.726 1.224-8.31.626-10.812-2.394 2.856-9.942 5.78-20.768 12.662-28.492C73.859 2.375 87.745-2.385 99.85 1.19c.829.246 1.658.545 2.325 1.102 1.469 1.224 1.061 3.101.571 4.706-.095.313-1.428 3.427-1.333 3.523Z" fill="#364E45"/><path d="M100.896 6.142c.285 9.03 4.964 17.694 10.472 24.045 2.856 3.305 6.242 5.903 8.962 9.371.776.993 1.469 1.66 2.054 2.19 1.238 1.17 3.06.517 3.4-1.279 1.183-6.065.381-11.166-2.611-18.156-3.999-9.33-13.9-13.682-22.277-16.171Z" fill="#364E45"/><path d="M154.997 171.868c-12.403 5.59-23.719 7.317-25.283 3.849s7.222-10.812 19.612-16.415c12.403-5.59 23.719-7.317 25.283-3.849s-7.222 10.812-19.612 16.415Z" fill="#273B34"/><path d="m149.543 202.32-5.807-14.104-4.651-11.302-3.917-9.534-8.609-20.917c-4.529-11.003-.082-23.202 9.697-26.548a15.599 15.599 0 0 1 5.182-.83c.163 0 .326 0 .476.014 7.575.272 14.906 5.903 17.843 14.498l6.964 20.373 3.114 9.14 13.478 39.468" fill="#F2F7F5"/><path d="m149.543 202.32-5.807-14.104-4.651-11.302-3.917-9.534-8.609-20.917c-4.529-11.003-.082-23.202 9.697-26.548a15.599 15.599 0 0 1 5.182-.83c.163 0 .326 0 .476.014 7.575.272 14.906 5.903 17.843 14.498l6.964 20.373 3.114 9.14 13.478 39.468" stroke="#273B34" stroke-width=".54" stroke-linecap="round" stroke-linejoin="round"/><path d="m129.248 173.636-12.77-29.94c-5.271-12.37.442-26.42 12.353-30.585a20.809 20.809 0 0 1 6.84-1.169c8.166 0 16.024 4.85 20.05 12.73l.007.014.009.013 17.135 28.871a8.434 8.434 0 0 0-1.695-.329c-1.588-.159-3.579-.029-5.844.355-4.535.771-10.255 2.578-16.213 5.263v.001c-6.231 2.814-11.574 6.074-15.169 9.082-1.795 1.502-3.177 2.96-4.012 4.289a6.858 6.858 0 0 0-.691 1.405Z" fill="#364E45" stroke="#273B34"/><path d="M29.656 172.086c12.404 5.59 23.719 7.317 25.283 3.849s-7.222-10.812-19.612-16.416c-12.403-5.589-23.719-7.317-25.283-3.849-1.564 3.469 7.222 10.813 19.612 16.416Z" fill="#273B34"/><path d="m1 202.578 13.764-39.346 3.182-9.126 7.113-20.318c3.06-8.745 10.663-14.376 18.415-14.376h.095c1.7.014 3.4.286 5.073.87 9.752 3.414 14.13 15.641 9.52 26.616l-8.758 20.85-3.985 9.506-4.244 10.119-6.392 15.205" fill="#F2F7F5"/><path d="m1 202.578 13.764-39.346 3.182-9.126 7.113-20.318c3.06-8.745 10.663-14.376 18.415-14.376h.095c1.7.014 3.4.286 5.073.87 9.752 3.414 14.13 15.641 9.52 26.616l-8.758 20.85-3.985 9.506-4.244 10.119-6.392 15.205" stroke="#273B34" stroke-width=".54" stroke-linecap="round" stroke-linejoin="round"/><path d="M13.463 153.445a8.496 8.496 0 0 0-1.695.329l17.134-28.871.009-.013.007-.014c4.026-7.88 11.884-12.73 20.05-12.73 2.283 0 4.58.385 6.84 1.169 11.911 4.165 17.624 18.216 12.353 30.586L55.39 173.84a6.838 6.838 0 0 0-.691-1.405c-.835-1.329-2.217-2.787-4.012-4.289-3.595-3.008-8.938-6.267-15.169-9.082-5.958-2.686-11.678-4.493-16.213-5.263-2.265-.385-4.256-.515-5.844-.356Z" fill="#364E45" stroke="#273B34"/><path d="M143.547 203.499H40.798l.526-14.687.38-10.976.477-13.464 1.55-43.521v-.004l.222-8.133 3.003-1.087 19.426-5.011.022-.006.023-.008 1.618-.585 2.136-.776 1.864-.68.034-.012.031-.017 4.758-2.552h29.904l5.354 2.457.018.008.018.007 1.85.68.004.001 2.352.843h.001l1.4.504.021.007.022.006 19.997 5.229 2.745.992.209 8.146v.004l.83 24.507v.001l.625 18.727.449 13.551v.077l.408 12.24v.001l.472 13.531Z" fill="#364E45" stroke="#273B34"/><path d="M116.536 105.506c-9.915 7.235-18.279 16.565-24.358 27.228-6.066-10.636-14.416-19.952-24.304-27.187l2.135-.776 1.864-.68 4.855-2.611h30.138l5.454 2.503 1.85.666 2.352.843.014.014Z" fill="#F2F7F5"/><path d="m107.818 101.453 4.516 2.529 1.849.667 2.353.843c-9.915 7.235-18.279 16.565-24.358 27.228-6.066-10.636-14.416-19.952-24.304-27.187l2.135-.775 1.864-.68 5.14-2.707" fill="#F2F7F5"/><path d="m107.818 101.453 4.516 2.529 1.849.667 2.353.843c-9.915 7.235-18.279 16.565-24.358 27.228-6.066-10.636-14.416-19.952-24.304-27.187l2.135-.775 1.864-.68 5.14-2.707" stroke="#273B34" stroke-width=".56" stroke-linecap="round" stroke-linejoin="round"/></svg>