<svg width="164" height="197" fill="none" xmlns="http://www.w3.org/2000/svg"><path d="M137.836 170.557c-11.022 4.967-21.078 6.502-22.468 3.42-1.389-3.082 6.418-9.608 17.428-14.588 11.023-4.967 21.078-6.502 22.468-3.42 1.39 3.082-6.418 9.608-17.428 14.588Z" fill="#273B34"/><path d="m132.991 197.617-5.161-12.533-4.133-10.044-3.481-8.472-7.65-18.588c-4.025-9.778-.073-20.619 8.617-23.592a13.825 13.825 0 0 1 4.605-.737c.145 0 .29 0 .423.012 6.732.242 13.246 5.245 15.856 12.884l6.188 18.104 2.768 8.122L163 197.846" fill="#F2F7F5"/><path d="m132.991 197.617-5.161-12.533-4.133-10.044-3.481-8.472-7.65-18.588c-4.025-9.778-.073-20.619 8.617-23.592a13.825 13.825 0 0 1 4.605-.737c.145 0 .29 0 .423.012 6.732.242 13.246 5.245 15.856 12.884l6.188 18.104 2.768 8.122L163 197.846" stroke="#273B34" stroke-width=".54" stroke-linecap="round" stroke-linejoin="round"/><path d="M155.034 155.606c-2.042-2.574-11.687-.955-22.225 3.795-11.023 4.979-18.842 11.506-17.428 14.6a.907.907 0 0 0 .121.181l-.121.048-12.171-28.534c-4.774-11.204.387-23.979 11.24-27.774a18.935 18.935 0 0 1 6.224-1.063c7.433 0 14.564 4.411 18.214 11.554l16.146 27.205v-.012Z" fill="#364E45" stroke="#273B34" stroke-width=".54" stroke-linecap="round" stroke-linejoin="round"/><path d="M26.454 170.749c11.023 4.968 21.078 6.503 22.468 3.421 1.39-3.082-6.418-9.609-17.428-14.588-11.022-4.967-21.078-6.502-22.468-3.42-1.39 3.082 6.418 9.608 17.428 14.587Z" fill="#273B34"/><path d="m1 197.846 12.23-34.964 2.829-8.11 6.32-18.056c2.72-7.771 9.476-12.775 16.365-12.775h.085a13.91 13.91 0 0 1 4.508.774c8.665 3.033 12.557 13.898 8.46 23.652l-7.783 18.527-3.542 8.448-3.77 8.992-5.68 13.512" fill="#F2F7F5"/><path d="m1 197.846 12.23-34.964 2.829-8.11 6.32-18.056c2.72-7.771 9.476-12.775 16.365-12.775h.085a13.91 13.91 0 0 1 4.508.774c8.665 3.033 12.557 13.898 8.46 23.652l-7.783 18.527-3.542 8.448-3.77 8.992-5.68 13.512" stroke="#273B34" stroke-width=".54" stroke-linecap="round" stroke-linejoin="round"/><path d="M9.255 155.787c2.042-2.574 11.687-.955 22.226 3.795 11.022 4.979 18.842 11.506 17.428 14.6a.947.947 0 0 1-.121.181l.12.048 12.171-28.534c4.774-11.204-.387-23.979-11.24-27.774a18.931 18.931 0 0 0-6.224-1.063c-7.433 0-14.563 4.411-18.213 11.554L9.255 155.799v-.012Z" fill="#364E45" stroke="#273B34" stroke-width=".54" stroke-linecap="round" stroke-linejoin="round"/><path d="M96.414 115.118c.266 8.122-6.225 14.83-14.346 14.83-8.122 0-14.358-6.454-14.358-14.346 0-.157 0-.326.012-.484l1.595-21.404.411-5.414.798-10.636H93.61l1.269 16.8.906 12.231.64 8.411-.011.012Z" fill="#F2F7F5" stroke="#273B34" stroke-width=".56" stroke-linecap="round" stroke-linejoin="round"/><path d="M128.12 197.846H35.905l.471-13.512.339-9.753.423-11.977 1.378-38.663.205-6.49 20.268-6.587 3.336-1.209 1.655-.604 4.315-2.32H95.078l4.846 2.236 1.644.592 3.335 1.196 20.583 6.696.145 6.502.737 21.779.556 16.642.411 12.038v.06l.35 10.877.435 12.497Z" fill="#F2F7F5" stroke="#273B34" stroke-width=".54" stroke-linecap="round" stroke-linejoin="round"/><path d="m95.91 106.15 3.36 2.526 1.572.568c-1.173 9.391-9.198 16.643-18.915 16.643-9.717 0-17.681-7.204-18.914-16.546l1.607-.58 3.82-3.082" fill="#F2F7F5"/><path d="m95.91 106.15 3.36 2.526 1.572.568c-1.173 9.391-9.198 16.643-18.915 16.643-9.717 0-17.681-7.204-18.914-16.546l1.607-.58 3.82-3.082" stroke="#273B34" stroke-width=".54" stroke-linecap="round" stroke-linejoin="round"/><path d="M103.708 17.566c3.164-.272 6.432.838 8.775 2.976 2.342 2.137 3.727 5.28 3.719 8.441 4.328 1.499 6.732 6.347 5.394 10.688 1.984.909 3.451 3.137 3.671 5.305.223 2.155-.778 4.399-2.537 5.685 1.822 1.048 3.316 2.893 3.198 4.97-.119 2.077-1.483 4.041-3.406 4.867 2.005 1.67 1.907 4.182 1.412 6.73-.495 2.549-2.463 4.755-4.949 5.534 1.583 2.22 1.331 5.12-.269 7.308-1.599 2.188-4.653 3.218-7.265 2.414.779 1.9-.268 4.315-1.639 5.835-1.371 1.52-3.648 2.172-5.622 1.604-.636 2.186-2.424 3.816-4.58 4.578-2.153.751-4.678.413-6.558-.884-.872 2.135-3.826 3.074-6.146 3.234-2.309.162-4.68-1.072-5.863-3.055-1.64 1.5-4.527 1.39-6.748 1.134A7.995 7.995 0 0 1 68.7 91.62c-1.744 1.095-4.683.529-6.584-.267-1.902-.796-3.37-2.556-3.82-4.564-1.75.975-4.559-.545-6.082-1.864-1.523-1.32-2.069-3.627-1.333-5.486-1.997.077-4.385-2.125-5.116-3.974-.73-1.849-.172-4.12 1.352-5.417-4.388-1.697-7.831-8.646-6.105-12.986-1.545-1.612-2.542-4.665-2.098-6.836.445-2.172 2.02-4.08 4.067-4.95-1.785-1.325-3.21-4.83-2.649-6.971.561-2.14 2.527-3.827 4.738-4.093-1.095-4.134 2.888-9.705 7.117-10.407-1.117-1.992-.988-5.745.68-7.302 1.67-1.558 4.435-1.793 6.354-.55.294-1.795 1.805-3.746 3.423-4.602 1.618-.855 3.635-.913 5.308-.152.656-1.608 3.012-2.695 4.75-2.88 1.736-.172 3.551.665 4.54 2.115 1.494-1.188 4.124-1.199 5.995-.802 1.87.397 3.548 1.654 4.433 3.349 3.126-2 8.358-1.028 10.083 2.246.902-.89 1.874-.969 3.113-.689 1.239.28 2.418 1.807 2.849 3.002l-.007.025Z" fill="#364E45"/><path d="M102.241 59.547c-2.985 4.798-2.695 10.49.641 12.703 3.347 2.211 8.484.12 11.469-4.69 2.985-4.798 2.695-10.49-.64-12.702-3.348-2.212-8.485-.121-11.47 4.677v.012Z" fill="#F2F7F5" stroke="#273B34" stroke-width=".54" stroke-linecap="round" stroke-linejoin="round"/><path d="M111.198 57.166c1.45.568 2.55 1.946 2.78 3.481.229 1.535-.411 3.179-1.62 4.158" stroke="#273B34" stroke-width=".54" stroke-linecap="round" stroke-linejoin="round"/><path d="M61.886 59.547c2.986 4.798 2.696 10.49-.64 12.702-3.348 2.212-8.485.121-11.47-4.689-2.985-4.798-2.695-10.49.64-12.702 3.349-2.212 8.485-.121 11.47 4.677v.012Z" fill="#F2F7F5" stroke="#273B34" stroke-width=".54" stroke-linecap="round" stroke-linejoin="round"/><path d="M52.93 57.166c-1.45.568-2.55 1.946-2.78 3.481-.23 1.535.411 3.179 1.62 4.158" stroke="#273B34" stroke-width=".54" stroke-linecap="round" stroke-linejoin="round"/><path d="M106.785 73.773c-.894 2.308-2.2 4.713-3.759 7.046-3.009 4.496-6.998 8.714-10.986 11.397-4.363 2.925-10.092 3.88-15.071 2.188-3.916-1.33-7.155-4.146-10.043-7.107-3.602-3.698-6.89-7.832-8.739-12.666-1.438-3.759-2.042-7.928-2.211-12.207-.23-5.922.41-12.037.918-17.476.738-8.025 5.608-15.639 12.533-19.724 6.793-4 15.482-4.593 22.758-1.56 7.276 3.046 12.956 9.633 14.89 17.284 1.378 5.438.906 11.082.991 16.63.024 1.559.097 3.13.133 4.701.109 3.904.024 7.808-1.402 11.494h-.012Z" fill="#F2F7F5" stroke="#273B34" stroke-linecap="round" stroke-linejoin="round"/><path d="M108.5 61.77v.194l-.149-.133c-1.855-1.561-2.488-3.91-2.6-6.28l-.971-17.935a58.516 58.516 0 0 1-2.85-1.186c-1.407-.666-2.789-1.367-4.058-2.142-2.788-1.621-5.203-3.473-7.046-5.373-2.639.617-5.651.944-8.713.944-3.573 0-7.02-.436-9.97-1.283-1.719 1.864-3.984 3.667-6.598 5.264a41.555 41.555 0 0 1-6.087 3.135l-.971 18.563c-.137 2.469-1.033 4.659-2.987 6.22l-.15.121v-.181c-.223-5.519.037-11.146.51-16.204l.125-1.174c.498-5.191 2.7-10.165 6.149-14.17a26.16 26.16 0 0 1 6.809-5.664c7.008-4.005 16.02-4.61 23.526-1.549 3.685 1.489 7.009 3.873 9.648 6.825 2.713 3.014 4.73 6.656 5.738 10.54 1.095 4.2 1.071 8.568 1.021 12.804-.013 1.27-.013 2.59 0 3.872.012.895-.463 1.888-.426 2.783.013.666.038 1.32.05 1.997v.012ZM107.577 74.865l-.156-4.68c-1.873 4.285-4.166 1.315-5.799 4.413-2.342 4.45-6.376 4.929-10.387 4.762-1.044-.041-2.425-.873-3.818-1.975-3.482-2.745-7.817-2.745-11.31 0-1.381 1.102-2.786 1.934-3.83 1.975-4.011.167-8.046-.312-10.375-4.762-1.417-2.703-3.098 1.015-4.515-3.185l-.108 3.265c0 1.85.096 3.66.252 5.469-.048-.146-.096-.27-.144-.416l-.108 3.265c0 10.813 2.57 21.128 7.133 28.552l6.964 10.709c2.077 3.827 4.959 6.01 8.008 6.01 3.304-2.469 3.872-2.469 6.352 0 3.062 0 5.992-2.225 8.057-6.135l6.82-10.605c4.467-7.382 7-17.635 7-28.344l-.132-4.118c.084-1.393.132-2.807.132-4.221l-.036.02Z" fill="#364E45"/><path d="M92.974 85.009c-3.133 3.18-7.36 4.973-11.563 4.83-3.818-.12-7.564-1.842-10.446-4.675h.673c1.044-.024 2.45-.574 3.83-1.291 3.494-1.793 7.829-1.793 11.31 0 1.393.717 2.774 1.267 3.819 1.291a11.2 11.2 0 0 0 2.365-.167l.012.012Z" fill="#F2F7F5"/><path d="M83.74 85.39c2.245.024 4.61-.419 6.532-1.566M79.454 85.486c-2.246.024-4.611-.419-6.532-1.566M79.454 85.485c1.02.776 2.918.968 4.286-.096" stroke="#273B34" stroke-width=".42" stroke-linecap="round" stroke-linejoin="round"/><path d="M82.309 76.136c.492-1.04 1.489-1.662 2.473-1.937.997-.275 2.005-.215 2.906-.048 1.873.419 3.206 1.16 4.203 1.578l1.176.502c.312.144.625.263 1.153.287 1.056.084 2.605-.454 4.587-.633-.192 2.27-.889 4.231-2.606 5.785-.84.765-2.041 1.28-3.254 1.375-1.213.108-2.33-.203-3.254-.61-1.849-.848-3.038-2.115-3.95-3.132-.48-.55-.925-1.075-1.417-1.625-.504-.55-1.069-1.088-2.017-1.542Z" fill="#364E45"/><path d="M82.32 76.136c-.936.454-1.5.98-2.017 1.542-.504.55-.948 1.088-1.417 1.626-.9 1.016-2.101 2.283-3.95 3.131-.913.407-2.041.718-3.254.61-1.213-.084-2.413-.61-3.254-1.375-1.729-1.554-2.413-3.514-2.605-5.785 1.969.179 3.53.717 4.586.633a2.741 2.741 0 0 0 1.153-.287l1.177-.502c.996-.418 2.329-1.16 4.202-1.578.913-.167 1.91-.227 2.906.048.984.275 1.981.897 2.473 1.937ZM85.988 52.73c.604-1.486 1.825-2.573 3.166-3.335a9.883 9.883 0 0 1 4.46-1.209 9.999 9.999 0 0 1 4.52.907c1.39.665 2.671 1.656 3.396 3.094l-4.157-.109a90.679 90.679 0 0 0-3.638.012c-1.184.036-2.38.109-3.626.206-1.257.096-2.538.241-4.121.423v.012ZM78.145 52.731c-1.584-.181-2.865-.326-4.121-.423a63.75 63.75 0 0 0-3.626-.205 72.623 72.623 0 0 0-3.638-.012l-4.158.108c.725-1.438 2.007-2.429 3.396-3.093a9.84 9.84 0 0 1 4.52-.907 9.924 9.924 0 0 1 4.46 1.209c1.342.749 2.55 1.849 3.167 3.335v-.012ZM86.711 63.21c.278-.629.592-1.233.895-1.837l.024-.037c.737-1.112 1.668-2.175 2.9-2.876a7.233 7.233 0 0 1 4.097-1.003 8.56 8.56 0 0 1 3.989 1.22c.592.363 1.136.786 1.644 1.257.495.46.954 1.016 1.136 1.692.048.182-.049.35-.218.387a.296.296 0 0 1-.205-.012c-.665-.29-1.1-.677-1.584-1.051a9.423 9.423 0 0 0-1.51-.967 8.597 8.597 0 0 0-3.348-.955 6.34 6.34 0 0 0-3.36.628c-1.04.52-1.982 1.318-2.792 2.248l.024-.036c-.399.544-.797 1.112-1.208 1.644a.287.287 0 0 1-.4.048.286.286 0 0 1-.084-.338v-.012Z" fill="#364E45"/><path d="M91.485 60.817a2.378 2.378 0 0 1 2.538-2.2 2.378 2.378 0 0 1 2.2 2.539 2.378 2.378 0 0 1-2.538 2.2 2.378 2.378 0 0 1-2.2-2.539Z" fill="#364E45"/><path d="M98.652 62.98a5.993 5.993 0 0 0 2.405-1.148M86.664 59.221a8.342 8.342 0 0 1 4.387-3.613 8.375 8.375 0 0 1 5.692.072" stroke="#273B34" stroke-width=".54" stroke-linecap="round" stroke-linejoin="round"/><path d="M76.932 63.5c-.423-.544-.81-1.1-1.208-1.644l.024.037c-.81-.943-1.752-1.729-2.792-2.248a6.58 6.58 0 0 0-3.36-.629 8.809 8.809 0 0 0-3.348.955 8.663 8.663 0 0 0-1.51.967c-.484.375-.919.761-1.584 1.051a.31.31 0 0 1-.41-.157c-.025-.072-.037-.145-.013-.205.182-.69.629-1.245 1.136-1.704.508-.46 1.052-.895 1.644-1.257a8.603 8.603 0 0 1 3.989-1.22 7.28 7.28 0 0 1 4.097 1.002c1.232.701 2.163 1.777 2.9 2.877l.024.036c.29.616.605 1.22.895 1.837.06.145 0 .314-.145.375a.278.278 0 0 1-.339-.085v.012Z" fill="#364E45"/><path d="M72.653 60.817a2.378 2.378 0 0 0-2.538-2.2 2.378 2.378 0 0 0-2.2 2.539 2.378 2.378 0 0 0 2.538 2.2 2.378 2.378 0 0 0 2.2-2.539Z" fill="#364E45"/><path d="M65.475 62.98a5.992 5.992 0 0 1-2.405-1.147M77.479 59.221a8.342 8.342 0 0 0-4.387-3.613 8.375 8.375 0 0 0-5.693.072" stroke="#273B34" stroke-width=".54" stroke-linecap="round" stroke-linejoin="round"/><path d="M78.325 71.9c-1.281.156-2.007-1.234-1.414-2.37M85.817 72.02c1.281.157 2.006-1.233 1.414-2.369" stroke="#273B34" stroke-width=".62" stroke-linecap="round" stroke-linejoin="round"/><path d="M78.206 71.706c2.066 1.897 5.56 1.945 7.674.12" stroke="#273B34" stroke-width=".62" stroke-linecap="round" stroke-linejoin="round"/></svg>