<svg width="172" height="184" fill="none" xmlns="http://www.w3.org/2000/svg"><path d="M45.887 34.096c-1.094-3.14-.865-6.764.61-9.727s4.184-5.227 7.274-6.079c.33-4.806 4.438-8.57 9.028-8.392.37-2.264 2.162-4.362 4.222-5.176 2.047-.814 4.502-.407 6.218 1.03.547-2.136 1.959-4.158 4.019-4.603 2.06-.445 4.336.407 5.646 2.136C84.01.793 86.49.208 89.109.017c2.62-.19 5.29 1.208 6.701 3.523 1.755-2.213 4.655-2.747 7.21-1.717 2.556 1.03 4.362 3.853 4.26 6.727 1.653-1.31 4.286-.903 6.13.076 1.843.98 3.077 3.116 3.039 5.277 2.301.051 4.361 1.425 5.671 3.408 1.297 1.984 1.628 4.642.852 6.905 2.314.305 4.006 3.052 4.769 5.366.763 2.302.178 5.049-1.45 6.79 1.895 1.26 2.543 4.222 2.874 6.55.343 2.327-.318 4.78-1.768 6.586 1.526 1.475 1.742 4.616 1.463 6.765-.28 2.15-1.615 4.12-3.459 5.125 1.411 1.513.661 4.781-.229 6.689-.89 1.907-3.001 3.09-5.01 2.848.597 2.01-.928 5.036-2.543 6.282-1.615 1.246-3.981 1.297-5.646.102-.509 4.92-6.397 10.312-11.089 9.74-1.17 2.01-3.891 3.853-6.129 3.993-2.238.14-4.514-.941-5.9-2.785-.827 2.175-3.879 4.578-6.117 4.59-2.238.013-4.4-1.525-5.239-3.7-3.751 2.238-10.236-.292-12.03-4.4-1.652 1.679-5.353 2.57-7.311 1.297-1.958-1.271-2.912-4.018-2.2-6.307-1.831.191-4.133-.814-5.392-2.225-1.258-1.412-1.843-3.446-1.538-5.354-1.742-.228-3.42-2.327-4.057-4.043-.623-1.717-.28-3.79.878-5.188-1.551-1.196-2.25-3.866-2.353-5.875-.101-2.01.687-4.057 2.111-5.417-2.772-2.633-3.191-8.215-.445-10.86-1.106-.674-1.437-1.64-1.488-2.975-.05-1.336 1.132-2.95 2.188-3.714h.025Z" fill="#364E45"/><path d="M107.519 55.803c-3.141 5.048-2.835 11.037.674 13.364 3.523 2.328 8.927.128 12.068-4.933 3.141-5.049 2.836-11.038-.674-13.365-3.522-2.327-8.927-.127-12.068 4.921v.013Z" fill="#F2F7F5" stroke="#273B34" stroke-width=".54" stroke-linecap="round" stroke-linejoin="round"/><path d="M116.942 53.298c1.526.597 2.683 2.047 2.925 3.662.241 1.615-.432 3.344-1.704 4.374" stroke="#273B34" stroke-width=".54" stroke-linecap="round" stroke-linejoin="round"/><path d="M65.06 55.803c3.141 5.048 2.836 11.037-.674 13.364-3.522 2.328-8.926.128-12.067-4.933-3.141-5.049-2.836-11.038.674-13.365 3.522-2.327 8.927-.127 12.068 4.921v.013Z" fill="#F2F7F5" stroke="#273B34" stroke-width=".54" stroke-linecap="round" stroke-linejoin="round"/><path d="M55.638 53.298c-1.526.597-2.683 2.047-2.925 3.662-.242 1.615.432 3.344 1.704 4.374" stroke="#273B34" stroke-width=".54" stroke-linecap="round" stroke-linejoin="round"/><path d="M101.392 114.271c.28 8.546-6.549 15.603-15.094 15.603-8.545 0-15.107-6.79-15.107-15.094 0-.165 0-.343.013-.509l1.678-22.52.433-5.697.839-11.19h24.288l1.335 17.676.954 12.868.674 8.851-.013.012Z" fill="#F2F7F5" stroke="#273B34" stroke-width=".56" stroke-linecap="round" stroke-linejoin="round"/><path d="M100.731 105.421c-7.973.572-16.76-3.395-22.788-11.101a29.964 29.964 0 0 1-4.628-8.253l.839-11.19h24.288l1.335 17.675.954 12.869Z" fill="#364E45"/><path d="M112.301 70.77c-.941 2.429-2.314 4.96-3.955 7.414-3.166 4.73-7.362 9.168-11.559 11.99-4.59 3.078-10.618 4.083-15.857 2.302-4.12-1.398-7.528-4.361-10.567-7.477-3.79-3.89-7.248-8.24-9.194-13.326-1.513-3.955-2.149-8.342-2.327-12.843-.241-6.231.433-12.666.967-18.388.775-8.443 5.9-16.454 13.186-20.753 7.147-4.209 16.29-4.832 23.945-1.64 7.655 3.204 13.631 10.135 15.666 18.184 1.45 5.722.954 11.66 1.043 17.498.025 1.64.101 3.293.14 4.946.114 4.107.025 8.215-1.475 12.093h-.013Z" fill="#F2F7F5" stroke="#273B34" stroke-width=".54" stroke-linecap="round" stroke-linejoin="round"/><path d="M113.866 58.69v.203l-.158-.14c-1.964-1.64-2.163-4.031-2.281-6.523l-1.028-18.846a62.39 62.39 0 0 1-3.018-1.246c-1.489-.7-2.951-1.437-4.295-2.25-2.952-1.705-5.508-3.65-7.459-5.647-2.793.649-5.982.992-9.224.992-3.782 0-7.432-.457-10.555-1.348-1.818 1.959-4.216 3.853-6.983 5.532a44.104 44.104 0 0 1-6.444 3.293l-1.028 19.507c-.145 2.594-.41 5.023-2.479 6.663l-.158.127v-.19c-.237-5.799-.644-11.84-.143-17.154l.131-1.234c.528-5.455 2.86-10.681 6.51-14.89a27.649 27.649 0 0 1 7.208-5.952c7.419-4.209 16.959-4.844 24.905-1.627 3.9 1.564 7.418 4.069 10.212 7.172 2.873 3.166 5.007 6.994 6.075 11.075 1.159 4.413 1.133 9.003 1.08 13.454a212.29 212.29 0 0 0 0 4.07c.013.94-.274 1.828-.234 2.769.013.7-.647 1.465-.634 2.177v.013Z" fill="#364E45"/><path d="M106.821 24.144c-2.696-3.102-6.079-5.607-9.855-7.171-7.655-3.218-16.875-2.57-24.034 1.627a26.669 26.669 0 0 0-6.955 5.951c.483.827 1.106 1.603 1.805 2.34.077 1.717.827 3.408 2.098 4.565a6.64 6.64 0 0 0 5.608 1.602c.382 1.5 2.15 3.04 3.675 3.268 1.526.23 3.166-.546 3.955-1.882.865 1.323 2.645 2.493 4.209 2.353 1.577-.14 3.04-1.195 3.662-2.645.928 1.564 2.403 2.937 4.21 2.696 1.805-.242 3.407-1.653 3.878-3.408 2.276.661 4.946-.432 5.518-2.721.267-1.081.039-2.213-.508-3.18 1.119-1.042 2.047-2.174 2.708-3.395h.026Z" fill="#364E45"/><path d="M94.388 77.192c0 2.11-4.515 3.827-7.592 3.827-2.887 0-8.761-1.717-8.761-3.828" fill="#F2F7F5"/><path d="M94.388 77.192c0 2.11-4.515 3.827-7.592 3.827-2.887 0-8.761-1.717-8.761-3.828" stroke="#273B34" stroke-width=".62" stroke-linecap="round" stroke-linejoin="round"/><path d="M94.388 77.14v.039H78.035v-.038c0-1.603 5.697-2.912 8.761-2.912 2.887 0 7.592 1.297 7.592 2.912Z" fill="#364E45" stroke="#273B34" stroke-width=".46" stroke-miterlimit="10"/><path d="M93.078 75.513c.827.534 2.111.635 3.205.076.165-.09.381-.025.457.14a.37.37 0 0 1-.05.394c-.992 1.068-2.594 1.666-4.273 1.373l-.114-.025a1.08 1.08 0 0 1-.878-1.246 1.08 1.08 0 0 1 1.64-.725l.013.013ZM80.183 77.51c-1.678.292-3.28-.306-4.272-1.374a.342.342 0 0 1 .013-.483.35.35 0 0 1 .394-.051c1.093.56 2.378.458 3.204-.076a1.074 1.074 0 0 1 1.488.33 1.074 1.074 0 0 1-.725 1.64l-.114.026.012-.013ZM83.859 76.835a3.968 3.968 0 0 0 2.505 1.043 4.05 4.05 0 0 0 2.581-.801" fill="#364E45"/><path d="M83.859 76.835a3.968 3.968 0 0 0 2.505 1.043 4.05 4.05 0 0 0 2.581-.801" stroke="#273B34" stroke-width=".92" stroke-linecap="round" stroke-linejoin="round"/><path d="M90.419 48.631c.636-1.564 1.92-2.708 3.331-3.51a10.397 10.397 0 0 1 4.693-1.27c1.64-.052 3.28.266 4.755.953 1.463.7 2.811 1.742 3.574 3.255l-4.375-.114a95.634 95.634 0 0 0-3.827.012 81.385 81.385 0 0 0-3.815.217c-1.323.101-2.67.254-4.336.445v.012ZM82.166 48.632c-1.665-.191-3.013-.344-4.336-.445a67.145 67.145 0 0 0-3.815-.216 76.596 76.596 0 0 0-3.827-.013l-4.374.114c.762-1.513 2.11-2.556 3.573-3.255a10.356 10.356 0 0 1 4.755-.954c1.64.051 3.256.483 4.693 1.272 1.411.788 2.683 1.945 3.331 3.51v-.013ZM91.183 59.656c.292-.662.623-1.297.94-1.933l.026-.038c.776-1.17 1.755-2.29 3.052-3.027a7.609 7.609 0 0 1 4.31-1.055 9.005 9.005 0 0 1 4.197 1.284c.623.382 1.195.827 1.729 1.322.522.484 1.005 1.069 1.196 1.78.051.192-.051.37-.229.408a.311.311 0 0 1-.216-.013c-.7-.305-1.157-.712-1.666-1.106a9.907 9.907 0 0 0-1.59-1.018 9.04 9.04 0 0 0-3.522-1.004 6.67 6.67 0 0 0-3.535.661c-1.094.547-2.085 1.386-2.938 2.365l.026-.038c-.42.572-.84 1.17-1.272 1.73a.302.302 0 0 1-.42.05.3.3 0 0 1-.088-.356v-.012Z" fill="#364E45"/><path d="M96.206 57.138a2.502 2.502 0 0 1 2.67-2.315 2.502 2.502 0 0 1 2.315 2.67 2.503 2.503 0 0 1-2.67 2.315 2.502 2.502 0 0 1-2.315-2.67Z" fill="#364E45"/><path d="M103.747 59.413a6.307 6.307 0 0 0 2.531-1.207M91.133 55.46a8.776 8.776 0 0 1 4.616-3.803 8.812 8.812 0 0 1 5.989.077" stroke="#273B34" stroke-width=".54" stroke-linecap="round" stroke-linejoin="round"/><path d="M80.898 59.961c-.445-.572-.852-1.157-1.272-1.73l.026.039c-.852-.992-1.844-1.819-2.938-2.365a6.925 6.925 0 0 0-3.535-.662 9.266 9.266 0 0 0-3.522 1.005c-.56.28-1.094.623-1.59 1.017-.508.395-.966.801-1.665 1.107a.326.326 0 0 1-.433-.166c-.025-.076-.038-.152-.012-.216.19-.725.66-1.31 1.195-1.793a11.742 11.742 0 0 1 1.73-1.322 9.053 9.053 0 0 1 4.195-1.285 7.66 7.66 0 0 1 4.311 1.056c1.297.737 2.276 1.87 3.052 3.026l.026.038c.305.649.635 1.285.94 1.933.064.153 0 .33-.152.395a.292.292 0 0 1-.356-.09v.013Z" fill="#364E45"/><path d="M76.396 57.138a2.502 2.502 0 0 0-2.67-2.314 2.502 2.502 0 0 0-2.315 2.67 2.502 2.502 0 0 0 2.67 2.315 2.502 2.502 0 0 0 2.315-2.67Z" fill="#364E45"/><path d="M68.844 59.414a6.304 6.304 0 0 1-2.531-1.208M81.47 55.46a8.776 8.776 0 0 0-4.617-3.803 8.812 8.812 0 0 0-5.989.077" stroke="#273B34" stroke-width=".54" stroke-linecap="round" stroke-linejoin="round"/><path d="M82.356 68.799c-1.348.165-2.11-1.297-1.488-2.493M90.24 68.926c1.347.166 2.11-1.297 1.487-2.492" stroke="#273B34" stroke-width=".62" stroke-linecap="round" stroke-linejoin="round"/><path d="M82.23 68.595c2.174 1.997 5.85 2.048 8.075.127" stroke="#273B34" stroke-width=".62" stroke-linecap="round" stroke-linejoin="round"/><path d="M144.974 172.6c-11.597 5.227-22.177 6.842-23.64 3.599-1.462-3.242 6.753-10.109 18.337-15.348 11.597-5.227 22.177-6.841 23.639-3.599 1.463 3.243-6.752 10.109-18.336 15.348Z" fill="#364E45"/><path d="m139.875 201.072-5.43-13.187-4.349-10.567-3.662-8.914-8.05-19.557c-4.234-10.288-.076-21.694 9.067-24.822 1.59-.547 3.23-.789 4.845-.776.152 0 .305 0 .445.013 7.083.254 13.937 5.519 16.683 13.555l6.511 19.049 2.912 8.545 12.602 36.902" fill="#F2F7F5"/><path d="m139.875 201.072-5.43-13.187-4.349-10.567-3.662-8.914-8.05-19.557c-4.234-10.288-.076-21.694 9.067-24.822 1.59-.547 3.23-.789 4.845-.776.152 0 .305 0 .445.013 7.083.254 13.937 5.519 16.683 13.555l6.511 19.049 2.912 8.545 12.602 36.902" stroke="#273B34" stroke-width=".54" stroke-linecap="round" stroke-linejoin="round"/><path d="M163.068 156.871c-2.149-2.709-12.296-1.005-23.385 3.992-11.597 5.239-19.824 12.106-18.337 15.361a.995.995 0 0 0 .128.191l-.128.051-12.805-30.023c-5.023-11.788.407-25.228 11.826-29.221a19.9 19.9 0 0 1 6.549-1.119c7.82 0 15.323 4.641 19.163 12.156l16.989 28.624v-.012Z" fill="#F2F7F5" stroke="#273B34" stroke-width=".54" stroke-linecap="round" stroke-linejoin="round"/><path d="M27.78 172.804c11.598 5.226 22.178 6.841 23.64 3.598 1.462-3.242-6.752-10.109-18.337-15.348-11.597-5.226-22.176-6.841-23.639-3.599-1.462 3.243 6.752 10.11 18.337 15.349Z" fill="#364E45"/><path d="m1 201.313 12.869-36.787 2.975-8.533 6.65-18.998c2.862-8.176 9.97-13.441 17.218-13.441h.09c1.589.013 3.178.267 4.742.814 9.118 3.192 13.213 14.624 8.902 24.886l-8.19 19.494-3.725 8.888-3.968 9.461-5.976 14.216" fill="#F2F7F5"/><path d="m1 201.313 12.869-36.787 2.975-8.533 6.65-18.998c2.862-8.176 9.97-13.441 17.218-13.441h.09c1.589.013 3.178.267 4.742.814 9.118 3.192 13.213 14.624 8.902 24.886l-8.19 19.494-3.725 8.888-3.968 9.461-5.976 14.216" stroke="#273B34" stroke-width=".54" stroke-linecap="round" stroke-linejoin="round"/><path d="M9.685 157.061c2.15-2.708 12.297-1.004 23.385 3.993 11.597 5.239 19.825 12.106 18.337 15.361a.96.96 0 0 1-.127.191l.127.051 12.805-30.023c5.023-11.788-.407-25.229-11.826-29.221a19.898 19.898 0 0 0-6.549-1.119c-7.82 0-15.323 4.641-19.163 12.156L9.685 157.074v-.013Z" fill="#F2F7F5" stroke="#273B34" stroke-width=".54" stroke-linecap="round" stroke-linejoin="round"/><path d="M134.75 201.314H37.726l.496-14.217.356-10.262.445-12.601 1.45-40.679.216-6.829 21.325-6.93 3.51-1.271 1.742-.636 4.54-2.442h28.178l5.099 2.353 1.73.623 3.509 1.259 21.656 7.044.152 6.842.776 22.914.585 17.51.432 12.665v.064l.369 11.444.458 13.149Z" fill="#F2F7F5" stroke="#273B34" stroke-width=".54" stroke-linecap="round" stroke-linejoin="round"/><path d="m100.861 104.837 3.535 2.657 1.653.598c-1.233 9.88-9.677 17.51-19.9 17.51-10.224 0-18.604-7.579-19.901-17.408l1.691-.611 4.018-3.242" fill="#F2F7F5"/><path d="m100.861 104.837 3.535 2.657 1.653.598c-1.233 9.88-9.677 17.51-19.9 17.51-10.224 0-18.604-7.579-19.901-17.408l1.691-.611 4.018-3.242" stroke="#273B34" stroke-width=".54" stroke-linecap="round" stroke-linejoin="round"/></svg>