<svg width="79" height="128" fill="none" xmlns="http://www.w3.org/2000/svg"><path d="M53.295 79.91H26.584c-7.861 0-14.539-8.785-15.736-20.672L8.4 34.812C6.918 20.055 14.384 6.754 24.136 6.754h31.811c9.833 0 17.313 13.519 15.708 28.37L68.99 59.551C67.71 71.3 61.074 79.91 53.28 79.91h.014Z" fill="#364E45"/><path d="M62.762 48.385c-3.36 5.4-3.033 11.805.72 14.294 3.768 2.489 9.548.136 12.907-5.277 3.36-5.4 3.033-11.805-.72-14.294-3.768-2.489-9.548-.136-12.907 5.264v.013Z" fill="#F2F7F5" stroke="#273B34" stroke-width=".54" stroke-linecap="round" stroke-linejoin="round"/><path d="M72.84 45.706c1.632.64 2.87 2.19 3.128 3.917.259 1.727-.462 3.577-1.822 4.678" stroke="#273B34" stroke-width=".54" stroke-linecap="round" stroke-linejoin="round"/><path d="M17.35 48.385c3.359 5.4 3.032 11.805-.721 14.294-3.768 2.489-9.548.136-12.907-5.277-3.36-5.4-3.033-11.805.72-14.294 3.768-2.489 9.548-.136 12.908 5.264v.013Z" fill="#F2F7F5" stroke="#273B34" stroke-width=".54" stroke-linecap="round" stroke-linejoin="round"/><path d="M7.271 45.706c-1.632.639-2.87 2.19-3.128 3.917-.258 1.727.463 3.577 1.823 4.678" stroke="#273B34" stroke-width=".54" stroke-linecap="round" stroke-linejoin="round"/><path d="M56.194 110.919c.299 9.14-7.005 16.688-16.144 16.688-9.14 0-16.157-7.263-16.157-16.144 0-.177 0-.367.013-.544l1.796-24.086.462-6.093.898-11.968h25.976l1.428 18.904 1.02 13.764.721 9.466-.013.013Z" fill="#F2F7F5" stroke="#273B34" stroke-width=".56" stroke-linecap="round" stroke-linejoin="round"/><path d="M55.486 101.453c-8.527.612-17.925-3.631-24.371-11.873-2.177-2.76-3.836-5.767-4.951-8.827l.898-11.968h25.976l1.428 18.904 1.02 13.764Z" fill="#364E45"/><path d="M67.862 64.392c-1.006 2.598-2.475 5.305-4.23 7.93-3.386 5.059-7.874 9.805-12.362 12.825-4.91 3.29-11.357 4.365-16.96 2.461-4.406-1.496-8.051-4.665-11.302-7.997-4.053-4.161-7.752-8.813-9.833-14.253-1.618-4.23-2.298-8.922-2.489-13.736-.258-6.664.463-13.546 1.034-19.666.83-9.031 6.31-17.6 14.103-22.196 7.644-4.502 17.422-5.168 25.61-1.755 8.187 3.428 14.58 10.84 16.756 19.449 1.55 6.12 1.02 12.471 1.115 18.714.027 1.755.109 3.523.15 5.29.122 4.394.027 8.786-1.578 12.934h-.014Z" fill="#F2F7F5" stroke="#273B34" stroke-width=".54" stroke-linecap="round" stroke-linejoin="round"/><path d="M69.56 51.744v.218l-.163-.15a9.894 9.894 0 0 1-3.387-6.977L64.95 24.68a63.016 63.016 0 0 1-3.115-1.332c-1.537-.748-3.047-1.537-4.434-2.408-3.046-1.822-5.685-3.903-7.698-6.038-2.883.693-6.174 1.06-9.52 1.06-3.903 0-7.67-.489-10.894-1.441-1.877 2.094-4.352 4.12-7.208 5.916a44.993 44.993 0 0 1-6.65 3.523L14.37 44.822a9.927 9.927 0 0 1-3.59 7.126l-.164.136v-.204c-.245-6.202.367-12.662.884-18.347l.136-1.319c.544-5.834 2.951-11.424 6.719-15.926a28.788 28.788 0 0 1 7.439-6.365c7.657-4.502 17.504-5.182 25.705-1.74 4.025 1.672 7.657 4.351 10.54 7.67 2.965 3.386 5.168 7.48 6.27 11.846 1.197 4.72 1.17 9.629 1.115 14.389-.014 1.428-.014 2.91 0 4.352.013 1.006.04 2.04.081 3.047.014.747.041 1.482.055 2.243v.014Z" fill="#364E45"/><path d="M44.468 40.715c.694-1.673 2.054-2.897 3.564-3.754a11.12 11.12 0 0 1 5.018-1.36 11.252 11.252 0 0 1 5.087 1.02c1.564.748 3.005 1.863 3.821 3.482l-4.678-.123c-1.415-.027-2.761-.013-4.094.014a86.92 86.92 0 0 0-4.08.231c-1.414.109-2.856.272-4.638.476v.014ZM35.642 40.715c-1.782-.204-3.223-.367-4.638-.476-1.4-.122-2.747-.19-4.08-.231-1.332-.041-2.679-.041-4.093-.014l-4.679.123c.816-1.619 2.258-2.734 3.822-3.482a11.074 11.074 0 0 1 5.086-1.02c1.755.054 3.482.517 5.019 1.36 1.51.843 2.87 2.08 3.563 3.753v-.013ZM45.287 52.506c.313-.707.666-1.387 1.006-2.067l.028-.041c.83-1.251 1.876-2.448 3.264-3.237a8.139 8.139 0 0 1 4.61-1.129 9.634 9.634 0 0 1 4.488 1.374 11.68 11.68 0 0 1 1.85 1.414c.558.517 1.074 1.143 1.278 1.904.055.204-.054.395-.244.435a.334.334 0 0 1-.232-.013c-.748-.327-1.237-.762-1.781-1.183a10.608 10.608 0 0 0-1.7-1.088 9.673 9.673 0 0 0-3.768-1.075 7.135 7.135 0 0 0-3.78.707c-1.17.585-2.231 1.483-3.142 2.53l.027-.04c-.449.611-.898 1.25-1.36 1.849a.323.323 0 0 1-.449.054.322.322 0 0 1-.095-.38v-.014Z" fill="#364E45"/><path d="M50.647 49.813a2.676 2.676 0 0 1 2.856-2.475 2.676 2.676 0 0 1 2.475 2.856 2.676 2.676 0 0 1-2.856 2.475 2.676 2.676 0 0 1-2.475-2.856Z" fill="#364E45"/><path d="M58.709 52.247a6.744 6.744 0 0 0 2.706-1.292M45.217 48.018a9.387 9.387 0 0 1 4.937-4.066 9.425 9.425 0 0 1 6.406.081" stroke="#273B34" stroke-width=".54" stroke-linecap="round" stroke-linejoin="round"/><path d="M34.284 52.832c-.476-.612-.91-1.237-1.36-1.85l.028.041c-.912-1.06-1.973-1.944-3.142-2.53a7.406 7.406 0 0 0-3.781-.706 9.913 9.913 0 0 0-3.767 1.074c-.599.3-1.17.666-1.7 1.088-.545.422-1.034.857-1.782 1.183a.348.348 0 0 1-.463-.176c-.027-.082-.04-.164-.013-.232.204-.775.707-1.4 1.278-1.917a12.555 12.555 0 0 1 1.85-1.415 9.68 9.68 0 0 1 4.488-1.373 8.192 8.192 0 0 1 4.61 1.128c1.388.79 2.435 2 3.265 3.237l.027.041c.326.694.68 1.374 1.006 2.067a.32.32 0 0 1-.163.422.313.313 0 0 1-.38-.095v.013Z" fill="#364E45"/><path d="M29.456 49.813a2.676 2.676 0 0 0-2.857-2.475 2.676 2.676 0 0 0-2.475 2.856 2.676 2.676 0 0 0 2.856 2.475 2.676 2.676 0 0 0 2.476-2.856Z" fill="#364E45"/><path d="M21.391 52.248a6.744 6.744 0 0 1-2.706-1.292M34.883 48.018a9.386 9.386 0 0 0-4.937-4.066 9.425 9.425 0 0 0-6.406.081" stroke="#273B34" stroke-width=".54" stroke-linecap="round" stroke-linejoin="round"/><path d="M38.092 71.315a2.838 2.838 0 0 0 1.958.789c.72 0 1.442-.286 1.959-.789.816-.789 2.27-.3 3.4-.136 1.115.163 2.992.72 5.032-.707M38.092 71.315c-.816-.789-2.271-.3-3.4-.136-1.115.163-2.938.83-4.665-.503M34.869 74.511a15.77 15.77 0 0 0 8.976.381" stroke="#273B34" stroke-width=".53" stroke-linecap="round" stroke-linejoin="round"/><path d="M39.965 62.693v-9.602" stroke="#273B34" stroke-width=".54" stroke-linecap="round" stroke-linejoin="round"/><path d="m36.757 64.557 1.618 1.115c1.047.72 2.19.72 3.237 0l1.619-1.115" stroke="#273B34" stroke-width=".57" stroke-linecap="round" stroke-linejoin="round"/><path d="M49.08 10.522s-3.1-3.264-7.14-.762c-4.04 2.489-6.134 6.583-8.718 10.568A99.1 99.1 0 0 1 20.9 35.778c-2.733 2.815-5.766 5.535-9.493 6.759-3.726 1.224-8.31.626-10.812-2.394 2.856-9.942 5.78-20.768 12.662-28.492 8.269-9.276 22.155-14.036 34.26-10.46.829.246 1.658.545 2.325 1.102 1.469 1.224 1.06 3.101.57 4.706-.094.313-1.427 3.427-1.332 3.523Z" fill="#364E45"/><path d="M48.563 6.142c.285 9.03 4.964 17.694 10.472 24.045 2.856 3.305 6.242 5.903 8.962 9.371.776.993 1.47 1.66 2.054 2.19 1.238 1.17 3.06.517 3.4-1.279 1.183-6.065.381-11.166-2.611-18.156-3.999-9.33-13.9-13.682-22.278-16.171Z" fill="#364E45"/></svg>