<svg version="1.1" id="Layer_1" xmlns="http://www.w3.org/2000/svg" x="0" y="0" viewBox="0 0 919 274.7" style="enable-background:new 0 0 919 274.7" xml:space="preserve"><style>.st1{fill:#fff}</style><path d="M340.1 97.3v46c0 21.4-16.4 36.9-41.3 36.9s-40.4-15.5-40.4-36.4V97.3c0-1.7 1.3-3 3-3H283c1.7 0 3 1.3 3 3v43.9c0 8.3 5.5 13.8 12.8 13.8 8.2 0 13.7-5.4 13.7-13.8V97.3c0-1.7 1.3-3 3-3h21.6c1.7 0 3 1.4 3 3zm74.6 58.8c.2-1-.8-1.9-1.8-1.7-12.5 2.7-23.8 3.1-23.8-10.4v-27.2H409c1.7 0 3-1.3 3-3V97.3c0-1.7-1.3-3-3-3h-20.7V69.8c0-1.7-1.3-3-3-3h-20.7c-1.7 0-3 1.3-3 3v24.6H351c-1.7 0-3 1.3-3 3v16.5c0 1.7 1.3 3 3 3h10.4v31.6c0 22.4 13.9 31.7 33.2 31.7 4.4 0 9.6-.6 14.4-1.6 1.2-.3 2.1-1.2 2.3-2.4l3.4-20.1zm65.7-61.8c-1.7 0-3 1.3-3 3v43.9c0 8.4-5.4 13.8-13.7 13.8-7.3 0-12.8-5.5-12.8-13.8V97.3c0-1.7-1.3-3-3-3h-21.6c-1.7 0-3 1.3-3 3v46.5c0 20.8 15.5 36.4 40.4 36.4s41.3-15.5 41.3-36.9v-46c0-1.7-1.3-3-3-3h-21.6zm149.4 81.1c0 1.7 1.3 3 3 3h21.6c1.7 0 3-1.3 3-3v-51.7c0-20.5-15.3-31.2-31.5-31.2-10.6 0-21.5 4.4-28.3 14-4.5-9.3-15.2-14-26.5-14-9.9 0-20.1 3.1-26 10.6l-.6-6.1c-.2-1.5-1.4-2.7-3-2.7h-19.6c-1.7 0-3 1.3-3 3v78.1c0 1.7 1.3 3 3 3h21.6c1.7 0 3-1.3 3-3v-43.8c0-9.4 7.1-13.8 14-13.8 6.7 0 13.8 4.5 13.8 13.8v43.8c0 1.7 1.3 3 3 3h21.6c1.7 0 3-1.3 3-3v-43.8c0-9.4 7.3-13.8 14.2-13.8s13.8 4.5 13.8 13.8v43.8zm104.5 3h21c1.7 0 3-1.3 3-3V97.3c0-1.7-1.3-3-3-3h-21c-1.5 0-2.8 1.2-3 2.7l-.6 6.1c-4.8-5.9-13-10.6-24.8-10.6-22.4 0-38.9 18.7-38.9 43.9 0 25.1 16.5 43.7 38.9 43.7 11.8 0 20-4.6 24.8-10.6l.6 6.1c.2 1.7 1.5 2.8 3 2.8zm-21.8-61.3c10.7.1 18.1 8 18.1 19.4 0 11.4-7.4 19.4-18.1 19.4-10.7 0-18.1-8-18.1-19.4 0-11.4 7.4-19.4 18.1-19.4zm123.9-22.8h20.1c1.7 0 3 1.3 3 3v79.9c0 27.8-27.2 38-50.7 38-9.8 0-18-1.6-24.5-3.6-1.1-.3-1.8-1.3-2-2.4l-3.5-20.9c-.2-1.2.9-2.1 2-1.6 5.4 2.2 16 4.4 25.5 4.4 9.6 0 25.7-2.8 25.7-15.3V171c-4.4 5.9-14.3 9.3-24.7 9.3-23.7 0-39.2-18.6-39.2-43.6 0-25.2 15.5-44 39.2-44 12.7 0 20.6 4.5 25.5 10.6l.6-6.1c.1-1.7 1.4-2.9 3-2.9zm-4.1 42.1c0-11.3-7.6-19.1-18-19.1-10.6 0-18.6 7.4-18.6 19.1 0 11.2 8.1 19.1 18.6 19.1 10.4 0 18-7.9 18-19.1zm-631.8 39v-44.3h42.3c1.7 0 3-1.3 3-3v-18.3c0-1.7-1.3-3-3-3h-42.3V83.7h54.7c1.7 0 3-1.3 3-3V62.5c0-1.7-1.3-3-3-3h-80.5c-1.7 0-3 1.3-3 3v112.9c0 1.7 1.3 3 3 3h22.8c1.7 0 3-1.3 3-3z"/><path d="m61.5 81.3-2-11.5c-.3-1.8 1.1-3.5 3-3.5h85.7c1.7 0 3 1.3 3 3v11.5c0 1.7-1.3 3-3 3H64.5c-1.5-.1-2.7-1.1-3-2.5zm25 31.7h61.7c1.7 0 3-1.3 3-3V98.6c0-1.7-1.3-3-3-3H84.5c-1.9 0-3.3 1.7-3 3.5l2 11.5c.3 1.4 1.6 2.4 3 2.4zm22 29.4h39.7c1.7 0 3-1.3 3-3v-11.5c0-1.7-1.3-3-3-3h-41.7c-1.9 0-3.3 1.7-3 3.5l2 11.5c.3 1.4 1.6 2.5 3 2.5zm22 29.3h17.6c1.7 0 3-1.3 3-3v-11.5c0-1.7-1.3-3-3-3h-19.7c-1.9 0-3.3 1.7-3 3.5l2 11.5c.4 1.4 1.7 2.5 3.1 2.5z" style="fill:#d84d2e"/></svg>