<svg width="130" height="50" fill="none" xmlns="http://www.w3.org/2000/svg"><path d="M31.535 40.712c8.028 0 14.536-6.553 14.536-14.636 0-8.084-6.508-14.637-14.535-14.637C23.508 11.439 17 17.992 17 26.076c0 8.083 6.508 14.636 14.535 14.636ZM48.527 37.827l7.054-21.456h11.68l-1.17 3.585h-8.443l-1.602 4.871h8.163l-1.18 3.59h-8.162l-2.005 5.821h9.167l-1.183 3.59H48.527ZM68.21 22.283h2.902l-.62 1.887c1.395-1.504 2.715-2.256 3.96-2.256.864 0 1.479.246 1.864.733s.559 1.159.54 2.02a6.93 6.93 0 0 1 2.043-1.963c.827-.525 1.64-.788 2.438-.79.907 0 1.559.331 1.953.993.395.662.495 1.542.3 2.639-.088.534-.35 1.46-.784 2.776l-3.127 9.505h-3.081l3.128-9.505c.385-1.192.591-1.863.624-2.02.075-.425.043-.77-.108-1.02-.15-.252-.408-.375-.789-.375-.765 0-1.55.554-2.343 1.656-.578.794-1.193 2.19-1.85 4.204l-2.325 7.06h-3.086l3.086-9.406c.352-1.083.558-1.783.615-2.104.075-.412.028-.743-.132-1.012-.16-.27-.418-.398-.775-.398-.338 0-.709.142-1.117.412-.409.27-.785.648-1.137 1.125-.352.478-.695 1.098-1.019 1.845-.146.35-.427 1.144-.836 2.388l-2.344 7.146H63.1l5.11-15.54ZM91.34 30.582a5.449 5.449 0 0 1-.775.19c-1.597.25-2.668.624-3.226 1.11-.4.35-.653.824-.752 1.424-.084.488-.033.899.17 1.235.201.336.506.501.93.501.464 0 .93-.151 1.394-.459.462-.306.85-.711 1.137-1.187.286-.482.596-1.234.939-2.26l.183-.554Zm-2.254-3.896-2.945-.35c.587-1.386 1.376-2.469 2.367-3.25.996-.78 2.193-1.172 3.612-1.172 1.465 0 2.48.403 3.048 1.21.563.805.737 1.788.535 2.952-.09.502-.206 1-.347 1.49-.155.52-.616 1.91-1.367 4.156-.63 1.854-1.005 3.15-1.137 3.892a11.65 11.65 0 0 0-.131 2.213h-2.997c-.023-.587.005-1.176.085-1.759-.573.681-1.187 1.203-1.841 1.566-.653.368-1.278.553-1.87.553-.948 0-1.654-.423-2.117-1.268-.465-.846-.587-1.929-.352-3.253.258-1.48.803-2.667 1.634-3.561.831-.885 2.141-1.424 3.907-1.608 1.503-.166 2.522-.364 3.058-.596.23-.586.375-1.055.436-1.41.076-.448.01-.822-.201-1.125-.212-.302-.578-.459-1.104-.459-.554 0-1.02.157-1.386.464-.366.307-.676.747-.887 1.315ZM95.388 33.481l3.11-.648c.112.861.337 1.467.666 1.826.338.355.841.54 1.527.54.699 0 1.301-.218 1.798-.649.343-.293.555-.648.625-1.064.052-.288.023-.539-.089-.761-.127-.213-.503-.478-1.142-.79-1.714-.837-2.752-1.504-3.118-1.991-.559-.761-.731-1.758-.517-2.989a6.088 6.088 0 0 1 1.564-3.173c1.156-1.239 2.663-1.858 4.509-1.858 1.471 0 2.519.367 3.142 1.101.626.729.93 1.719.911 2.97l-2.968.672c-.057-.568-.221-.989-.507-1.272-.395-.383-.912-.573-1.555-.573-.643 0-1.136.147-1.47.436-.333.288-.535.629-.601 1.012-.066.392.019.714.258.969.155.151.686.426 1.592.818 1.4.591 2.311 1.182 2.715 1.755.578.808.765 1.787.563 2.927-.253 1.475-.931 2.754-2.033 3.835-1.094 1.083-2.48 1.627-4.133 1.627s-2.85-.411-3.611-1.239c-.761-.828-1.175-1.99-1.236-3.48ZM113 19.79c0 1.292-1.029 2.313-2.339 2.313s-2.353-1.021-2.353-2.312c0-1.268 1.043-2.285 2.353-2.285 1.31 0 2.339 1.017 2.339 2.285Zm-4.039.01c0 .979.714 1.769 1.705 1.769.972 0 1.691-.79 1.691-1.769 0-.979-.714-1.783-1.701-1.783-.986 0-1.695.804-1.695 1.783Zm1.381 1.13h-.597v-2.19a5.3 5.3 0 0 1 .907-.08c.46 0 .662.067.812.175a.566.566 0 0 1 .23.478c0 .232-.187.42-.474.501v.029c.23.08.352.246.418.558.036.18.086.357.15.53h-.648c-.066-.081-.108-.275-.159-.502-.043-.232-.16-.326-.404-.326h-.231l-.004.827Zm.014-1.248h.216c.272 0 .46-.095.46-.284 0-.189-.15-.298-.418-.298-.108 0-.188.014-.258.014v.568Z" fill="#338FFF"/><path d="M29.53 30.672c-.117.047.01.1 0 0 1.78-2.085 3.414-4.753 4.128-7.642-1.596 2.331-3.015 4.833-4.128 7.642Zm-.737-7.722c.32-.095.502-.327.573-.667-.357.056-.4.425-.573.667Zm.906-.918c-.122.047.005.104 0 0 .099-.028.39-.255.164-.336-.004.175-.225.11-.164.336Zm.493-.662c.536.01.63-.416.907-.667-.606-.212-.752.227-.907.667Zm3.87 4.814c1.865-4.123 3.64-8.531 6.105-12.12-.972 6.058-2.056 12.72-3.301 18.765-.489-.052-.639-.544-.907-.833-.812-.856-1.99-1.414-3.625-1.58.376-1.47 1.103-2.841 1.728-4.232Zm-6.918 8.972c-.01-.095.118-.048 0 0-.455.269-.765.676-.99 1.163-.221-1.868 2.249-5.855.662-7.397-1.691-1.622-3.786 1.31-5.439.421.047-1.224 1.32-1.21 2.142-1.66 2.907-3.107 5.988-6.483 9.069-9.136.023.241-.184.25-.165.496-.075-.019-.08.034-.09.08-.07-.018-.074.034-.079.081-.573.28-.897.818-1.235 1.329.385-.132.953-.804 1.235-1.329.07.02.075-.033.08-.08.07.019.08-.033.09-.08.736-.857 1.436-1.765 2.305-2.493-.902 1.703-2.498 3.192-3.79 4.649-.441.496-.99 1.069-1.155 1.75-.813.094-.803 1.021-1.569 1.158-.803 1.21-1.94 2.09-2.724 3.32 1.287.095 2.226.53 3.133.993 3.757-5.429 7.265-11.132 11.046-16.689.385-.567 1.366-2.104 1.982-1.996.864.157.248 2.682.169 3.24-1.16 7.486-2.306 14.112-3.466 21.428-.15.96-.155 3.083-.991 3.159-1.071.099-1.41-2.564-1.728-3.24-.33-.7-.846-1.485-1.4-1.996-1.315-1.2-3.09-.576-4.123.497-1.485 1.551-2.02 3.358-3.387 5.15-.136-.884.296-1.91.418-2.818Z" fill="#fff"/></svg>