<svg width="148" height="36" fill="none" xmlns="http://www.w3.org/2000/svg"><path d="M12.84 7.2 6 27.879h1.445l2.324-6.907h2.588l-.965 1.12h.628l.97-1.12 4.462-.034 2.336 6.963H23L16.177 7.2H12.84Zm1.25 12.46.973-1.12h-.629l-.978 1.12H10.17l3.404-10.252 3.437 10.22-2.922.03v.001Z" fill="#0C0E0D"/><path d="M14.3 0C10.507.004 6.87 1.37 4.193 3.795 1.51 6.223.003 9.513 0 12.943v10.114c0 3.433 1.506 6.725 4.188 9.152a14.472 14.472 0 0 0 4.638 2.805c1.735.65 3.595.986 5.474.986 1.878 0 3.738-.335 5.474-.986a14.473 14.473 0 0 0 4.638-2.805c2.682-2.429 4.187-5.72 4.187-9.151V12.942c-.004-3.43-1.511-6.72-4.193-9.148C21.727 1.369 18.093.004 14.3 0Zm13.833 23.058c0 3.32-1.457 6.505-4.052 8.853a13.999 13.999 0 0 1-4.486 2.713c-1.679.63-3.478.953-5.295.954-3.67 0-7.188-1.32-9.781-3.667C1.923 29.56.466 26.377.466 23.057V12.943c0-3.321 1.458-6.506 4.053-8.854a13.998 13.998 0 0 1 4.486-2.713A15.113 15.113 0 0 1 14.3.423c3.669 0 7.187 1.32 9.78 3.667 2.596 2.35 4.054 5.534 4.053 8.854v10.114Zm18.588-11.104L42.456 24.65h.9l1.437-4.242 4.793-.036 1.456 4.278h2.005l-4.244-12.696H46.72Zm-1.663 7.657 2.121-6.284 2.142 6.277-4.263.007Zm27.31-3.195c0-2.975-2.07-4.462-6.213-4.462H62.23V24.65h1.9v-3.977h1.928l4.804 3.977h2.029l-4.898-4.098c2.913-.735 4.374-2.12 4.374-4.136Zm-6.733 3.64H64.13v-7.463h1.526c1.573 0 2.758.308 3.542.93.784.62 1.173 1.593 1.173 2.912 0 1.255-.406 2.178-1.173 2.761-.768.584-1.968.86-3.563.86Zm15.177-7.482h4.564V24.65h1.899V12.574h4.549v-.62H80.81v.62Zm21.832 6.16 5.347-.033v-.797l-5.347.036v-5.178h6.934v-.808h-8.854V24.65h9.292v-.797h-7.372v-5.12Zm25.72 1.424v-.023a5.184 5.184 0 0 0-.973-1.56 11.635 11.635 0 0 0-1.685-1.47l1.137-1.282h-.695l-.88.992a22.83 22.83 0 0 1-2.532-1.79 2.335 2.335 0 0 1-.734-1.203 1.168 1.168 0 0 1-.016-.564c.04-.186.126-.362.251-.516a1.24 1.24 0 0 1 .478-.338c.187-.075.392-.108.597-.096.25-.01.499.043.718.152a1.3 1.3 0 0 1 .524.47c.313.546.436 1.166.352 1.776l1.38-.653a1.845 1.845 0 0 0-.177-.94 2.059 2.059 0 0 0-.634-.76 3.418 3.418 0 0 0-2.159-.647 3.229 3.229 0 0 0-2.142.69 2.22 2.22 0 0 0-.615.773 2.018 2.018 0 0 0-.197.935c.011.353.1.7.26 1.02.161.322.391.61.677.85.279.25.573.488.881.709.325.228.694.467 1.104.734.409.268.726.44.941.592l-1.477 1.675h.694l1.217-1.363c.365.29.69.618.966.98.574.688.911 1.513.969 2.373.03.35-.024.704-.16 1.034-.135.33-.347.63-.623.88-.293.25-.639.443-1.017.57a3.29 3.29 0 0 1-1.182.164c-1.046 0-1.939-.46-2.661-1.38a3.231 3.231 0 0 1-.703-1.402 3.07 3.07 0 0 1 .057-1.537l-1.684.592a3.672 3.672 0 0 0 .322 1.692c.242.536.61 1.019 1.078 1.414.477.41 1.039.73 1.653.943a5.482 5.482 0 0 0 1.926.3 6.385 6.385 0 0 0 2.816-.589 3.995 3.995 0 0 0 1.761-1.469 2.95 2.95 0 0 0 .374-2.042 3.586 3.586 0 0 0-.187-.686Zm8.623-8.204v.62h4.569V24.65h1.899V12.574H148v-.62h-11.013Z" fill="#0C0E0D"/></svg>