<svg width="130" height="23" fill="none" xmlns="http://www.w3.org/2000/svg"><path d="M83.362.673h1.642c.87 1.877 1.634 3.754 2.434 5.597.799 1.842 1.633 3.684 2.433 5.527.8 1.842 1.599 3.667 2.407 5.509a883.912 883.912 0 0 1 2.416 5.561h-.87c-.364.001-.722-.108-1.025-.312a1.838 1.838 0 0 1-.678-.8l-1.816-4.136H78.044l-1.738 4.136a1.807 1.807 0 0 1-.687.8 1.878 1.878 0 0 1-1.06.312h-.869L83.362.673Zm-4.45 15.008h10.594L84.483 4.288l-.296-.634s-.251.521-.295.634l-4.98 11.393ZM112.968 12.205v8.36a6.927 6.927 0 0 1-1.633 1.13 9.414 9.414 0 0 1-1.921.712c-.686.181-1.387.306-2.094.374-.721.06-1.477.087-2.216.087a10.966 10.966 0 0 1-4.345-.87 11.425 11.425 0 0 1-3.537-2.398 10.922 10.922 0 0 1-2.39-3.476 11.035 11.035 0 0 1 2.39-12.165 11.549 11.549 0 0 1 3.58-2.416 11.193 11.193 0 0 1 8.525 0 11.299 11.299 0 0 1 3.476 2.268l-.139.165a1.82 1.82 0 0 1-1.355.574 1.673 1.673 0 0 1-.956-.296 9.393 9.393 0 0 0-2.434-1.217 8.747 8.747 0 0 0-2.806-.425c-.828 0-1.651.108-2.451.321a9.158 9.158 0 0 0-2.181.93 9.752 9.752 0 0 0-1.868 1.442 8.708 8.708 0 0 0-1.434 1.86 8.993 8.993 0 0 0-.956 2.199 8.78 8.78 0 0 0-.33 2.45c.004.825.115 1.646.33 2.442.231.77.558 1.51.973 2.198a9.402 9.402 0 0 0 3.372 3.303 9.718 9.718 0 0 0 2.233.903 9.294 9.294 0 0 0 2.468.322c2.063.01 4.086-.568 5.831-1.668V14.1h-1.929a2.053 2.053 0 0 1-.756-.14 2.197 2.197 0 0 1-.574-.408 1.786 1.786 0 0 1-.478-1.277v-.07h5.605ZM129.323 22.867h-13.226V.673h13.226a1.94 1.94 0 0 1-1.938 1.938h-9.342v8.1h7.96v1.92h-7.96v8.307h11.297l-.017 1.93ZM10.297 11.17v1.921h-8.36v9.776H0V.673h13.226a1.929 1.929 0 0 1-1.93 1.938H1.939v8.56h8.36ZM18.11 22.867h-1.938V.674h7.82a6.03 6.03 0 0 1 2.434.495c.733.311 1.4.76 1.964 1.32a6.326 6.326 0 0 1 1.338 1.982c.326.766.492 1.592.487 2.425a6.717 6.717 0 0 1-1.451 4.127 5.786 5.786 0 0 1-1.643 1.4c-.64.367-1.35.596-2.085.668l7.325 9.777h-.869a2.607 2.607 0 0 1-2.338-1.174l-6.56-8.603H18.11v9.777Zm0-20.256v8.56h5.84a4.232 4.232 0 0 0 1.66-.348c.506-.193.967-.489 1.355-.869.393-.393.712-.856.938-1.364.222-.525.338-1.09.34-1.66a4.198 4.198 0 0 0-.34-1.66c-.235-.522-.562-1-.964-1.407a4.214 4.214 0 0 0-1.356-.87 3.815 3.815 0 0 0-1.66-.347l-5.813-.035ZM47.325 22.867H34.09V.673h13.235a1.938 1.938 0 0 1-1.938 1.938h-9.359v8.1h7.96v1.92h-7.96v8.307h11.297v1.93ZM63.783 22.867H50.55V.673h13.234a1.938 1.938 0 0 1-1.937 1.938h-9.36v8.1h7.97v1.92h-7.97v8.307h11.297v1.93Z" fill="#1D1D1B"/></svg>