<svg width="130" height="50" fill="none" xmlns="http://www.w3.org/2000/svg"><path fill-rule="evenodd" clip-rule="evenodd" d="M73.295 29.12c-2.084 0-3.772-1.785-3.772-4.127 0-2.341 1.688-4.127 3.772-4.127 2.085 0 3.772 1.654 3.772 4.127s-1.687 4.127-3.772 4.127ZM26.65 22.46c-1.847 0-3.35 1.635-3.35 3.664 0 2.03 1.495 3.666 3.35 3.666S30 28.154 30 26.124c0-2.029-1.495-3.665-3.35-3.665Zm1.448 5.404c0 2.28-1.688 4.127-3.772 4.127-2.085 0-3.772-1.846-3.772-4.127 0-2.28 1.687-4.127 3.772-4.127 2.084 0 3.772 1.847 3.772 4.127Zm-5.873-9.506v2.69h8.363v10.586h3.118V18.358H22.224Zm37.62 6.459h-4.59v-3.77h4.59c.956 0 1.72.844 1.72 1.88 0 1.037-.772 1.88-1.72 1.88v.01Zm.741-6.46h-8.443v13.277h3.118v-4.485h5.332c2.22 0 4.018-1.968 4.018-4.396 0-2.427-1.8-4.395-4.018-4.395h-.009.002Zm64.216 6.46h-4.591v-3.77h4.591c.947 0 1.719.844 1.719 1.88 0 1.037-.772 1.88-1.719 1.88v.01Zm.741-6.46h-8.444v13.277h3.119v-4.485h5.331c2.221 0 4.018-1.968 4.018-4.396 0-2.427-1.799-4.395-4.018-4.395h-.008.002Zm-19.688 10.587v-2.96h7.869v-2.332h-7.869v-2.605h8.117v-2.69h-11.235v13.277h11.475v-2.69H105.854Zm-55.503 2.69-6.796-7.539 5.93-5.737h-3.597l-5.395 5.257v-5.257h-3.11v13.276h3.11v-6.616l5.753 6.616h4.105ZM12.632 18.358 9.6 28.378 6.57 18.358H1.157v13.276h3.118V19.638l3.85 11.995h2.873l3.851-11.769v11.77h3.11V18.358h-5.331.004Zm81.437 0-3.032 10.02-3.032-10.02h-5.412v13.276h3.119V19.638l3.85 11.995h2.873l3.85-11.769v11.77h3.12V18.358h-5.34.004ZM73.299 18c-3.803 0-6.882 2.855-6.882 7s3.08 7 6.882 7c3.804 0 6.891-2.95 6.891-7s-3.087-7-6.89-7Z" fill="#00A0DF"/></svg>