<svg width="60" height="60" fill="none" xmlns="http://www.w3.org/2000/svg"><rect width="60" height="60" rx="30" fill="url(#a)"/><path d="m37.35 26.999-9.369-5.54A3.24 3.24 0 0 0 26.314 21a3.241 3.241 0 0 0-1.666.468 3.373 3.373 0 0 0-1.212 1.267 3.504 3.504 0 0 0-.43 1.724v11.12c0 .908.35 1.778.972 2.42A3.267 3.267 0 0 0 26.323 39a3.25 3.25 0 0 0 1.659-.46L37.35 33a3.37 3.37 0 0 0 1.212-1.252 3.503 3.503 0 0 0 0-3.417 3.37 3.37 0 0 0-1.212-1.252v-.08Z" fill="#0C0E0D"/><defs><linearGradient id="a" x1="3.75" y1="26.625" x2="56.25" y2="43.5" gradientUnits="userSpaceOnUse"><stop offset=".235" stop-color="#D3FF74"/><stop offset="1" stop-color="#ADE33B"/></linearGradient></defs></svg>