<svg width="146" height="46" fill="none" xmlns="http://www.w3.org/2000/svg"><path fill-rule="evenodd" clip-rule="evenodd" d="M121.921 9.486a.904.904 0 0 1 .359.21c2.392 2.28 2.731 5.333 2.731 8.595 0 6.614-4.509 11.995-11.254 11.995-5.579 0-10.447-3.704-11.836-9.007a11.793 11.793 0 0 1-.397-2.988c0-1.917.457-3.76 1.357-5.477a12.172 12.172 0 0 1 3.769-4.275l.028-.019c.061-.039.125-.085.193-.134l.071-.05a.69.69 0 0 1 .029-.021c2.511-1.763 4.088-4.495 4.33-7.497a.874.874 0 0 1 .462-.706.918.918 0 0 1 .855-.013c3.094 1.568 5.365 4.362 6.231 7.667.264 1.006.397 2.011.397 2.988 0 .509-.033 1.017-.101 1.521.677-.7 1.249-1.49 1.7-2.349a.898.898 0 0 1 .658-.47.924.924 0 0 1 .418.03Zm-8.654 14.939a5.867 5.867 0 0 0 5.872-5.862 5.867 5.867 0 0 0-5.872-5.862 5.866 5.866 0 0 0-5.871 5.862 5.866 5.866 0 0 0 5.871 5.862Z" fill="url(#a)"/><path d="m133.383 29.31-6.85-19.155h5.619l4.121 13.13 4.108-13.13H146l-6.85 19.154h-5.767ZM90.297 22.056l-2.06 2.325v4.928H83.03V10.155h5.205v7.387l6.302-7.387h6.034l-6.85 7.935 7.399 11.22h-6.034l-4.79-7.253ZM62.762 29.31V10.154h9.044c2.025 0 3.693.633 5.005 1.897 1.32 1.256 1.98 2.814 1.98 4.675 0 .766-.116 1.483-.348 2.15-.223.66-.495 1.198-.816 1.617a8.72 8.72 0 0 1-.964 1.055c-.32.285-.588.48-.802.588l-.362.2 3.974 6.973h-5.472l-3.292-6.025h-2.742v6.024h-5.205Zm10.249-11.22c.383-.366.575-.82.575-1.363 0-.552-.192-1.006-.575-1.362-.384-.366-.879-.548-1.485-.548h-3.56v3.82h3.56c.606 0 1.101-.183 1.485-.547ZM51.657 21.108l-1.779-5.61-1.78 5.61h3.56Zm1.365 4.1h-6.301l-1.365 4.102h-5.62l7.265-19.155h5.754L60.02 29.31H54.4l-1.378-4.1ZM36.994 10.155V29.31h-5.205v-7.386h-6.984v7.387h-5.204V10.154h5.204v7.12h6.984v-7.12h5.205ZM8.496 14.817H.415v-4.662h14.931v4.662L6.85 24.66h8.777v4.648H0v-4.648l8.496-9.844Z" fill="#0C0E0D"/><path d="M32.32 41.111a2.248 2.248 0 0 0-.677 1.655c0 .652.226 1.205.677 1.659.454.453 1.008.68 1.662.68.656 0 1.21-.227 1.661-.68a2.255 2.255 0 0 0 .682-1.66 2.24 2.24 0 0 0-.682-1.654 2.254 2.254 0 0 0-1.661-.68c-.654 0-1.208.227-1.662.68Zm-.707 3.95c-.64-.626-.959-1.391-.959-2.295 0-.904.32-1.67.959-2.295.638-.626 1.428-.94 2.369-.94.943 0 1.735.314 2.373.94.64.626.959 1.39.959 2.295 0 .904-.32 1.669-.959 2.295-.638.626-1.43.939-2.373.939-.94 0-1.73-.313-2.37-.94ZM16.652 45.013h3.556v.9h-4.545V39.62h4.457v.9h-3.468v1.662H19.4v.9h-2.748v1.93ZM3.873 44.113a.67.67 0 0 0-.185-.483 1.23 1.23 0 0 0-.48-.307 5.104 5.104 0 0 0-.645-.202 7.38 7.38 0 0 1-.712-.224 3.53 3.53 0 0 1-.65-.315 1.395 1.395 0 0 1-.476-.523 1.706 1.706 0 0 1-.184-.82c0-.486.186-.891.558-1.216.372-.327.876-.491 1.512-.491.235 0 .459.029.673.088.217.055.395.122.536.201.144.076.268.154.374.233.108.076.187.142.237.197l.07.088-.628.632a1.434 1.434 0 0 1-.053-.057.748.748 0 0 0-.15-.132 1.473 1.473 0 0 0-.25-.162 1.482 1.482 0 0 0-.352-.132 1.776 1.776 0 0 0-.457-.057c-.325 0-.587.08-.787.242-.196.16-.294.35-.294.566 0 .193.061.355.184.487.124.132.282.235.475.311.196.074.413.14.65.202.238.059.475.132.713.22.237.084.453.188.646.311.196.123.356.299.48.527.122.228.184.5.184.816 0 .556-.2 1.01-.598 1.36-.399.352-.95.527-1.653.527-.287 0-.561-.034-.822-.1a2.844 2.844 0 0 1-.637-.247 3.734 3.734 0 0 1-.435-.29 2.01 2.01 0 0 1-.268-.24l-.088-.11.628-.628c.012.018.03.044.057.08a2.221 2.221 0 0 0 .51.395 2.27 2.27 0 0 0 1.055.245c.39 0 .698-.095.923-.285a.888.888 0 0 0 .339-.707ZM134.711 39.62l1.71 3.01 1.709-3.01h1.082l-2.299 4.046v2.246h-.989v-2.246l-2.295-4.046h1.082ZM121.214 39.532c.32 0 .626.042.919.127.293.082.535.183.725.303.194.12.362.238.506.355.143.117.249.218.316.303l.097.123-.629.632a2.108 2.108 0 0 0-.307-.33 2.107 2.107 0 0 0-.387-.285 2.467 2.467 0 0 0-.541-.223 2.277 2.277 0 0 0-.699-.106c-.653 0-1.207.227-1.661.68a2.241 2.241 0 0 0-.681 1.655c0 .652.225 1.205.677 1.659.454.453 1.009.68 1.665.68.247 0 .481-.034.704-.101.225-.07.411-.154.558-.25.149-.097.28-.192.391-.285.114-.097.199-.179.255-.246l.07-.11.633.632c-.023.035-.06.082-.109.14a3.435 3.435 0 0 1-.321.299c-.164.143-.34.27-.528.382a3.238 3.238 0 0 1-.729.302 3.266 3.266 0 0 1-.924.132c-.943 0-1.734-.313-2.373-.94-.639-.625-.958-1.39-.958-2.294 0-.904.319-1.67.958-2.295.639-.626 1.43-.94 2.373-.94ZM106 39.62h.989v6.292h-.853l-3.512-4.537v4.537h-.989V39.62h.853L106 44.16V39.62ZM87.272 45.013h3.556v.9h-4.545V39.62h4.458v.9h-3.469v1.662h2.748v.9h-2.748v1.93ZM73.007 42.586h2.207v2.247a3.28 3.28 0 0 1-.11.127 3.357 3.357 0 0 1-.326.285 3.39 3.39 0 0 1-.54.356c-.19.1-.443.191-.756.276-.31.082-.633.123-.967.123-.944 0-1.735-.313-2.374-.94-.639-.625-.958-1.39-.958-2.294 0-.904.32-1.67.958-2.295.639-.626 1.43-.94 2.374-.94.32 0 .625.043.918.128.293.082.535.183.726.303.193.12.362.238.505.355.144.117.25.218.317.303l.096.123-.628.632a2.153 2.153 0 0 0-.308-.33 2.12 2.12 0 0 0-.387-.285 2.464 2.464 0 0 0-.54-.223 2.283 2.283 0 0 0-.7-.106c-.653 0-1.207.227-1.66.68a2.24 2.24 0 0 0-.682 1.655c0 .652.225 1.205.677 1.659.454.453 1.01.68 1.666.68.217 0 .423-.02.62-.062.199-.044.361-.096.487-.158.126-.064.236-.127.33-.188.097-.065.166-.117.207-.158l.066-.066v-.987h-1.218v-.9ZM53.155 45.912l2.61-6.292h.99l2.61 6.292h-1.032l-.677-1.663h-2.791l-.677 1.663h-1.033Zm3.108-5.169-1.038 2.607h2.07l-1.032-2.607Z" fill="#7BA193"/><defs><linearGradient id="a" x1="112.376" y1="0" x2="116.986" y2="29.494" gradientUnits="userSpaceOnUse"><stop offset=".165" stop-color="#C4F756"/><stop offset="1" stop-color="#9ED42A"/></linearGradient></defs></svg>